solid OpenSCAD_Model
  facet normal 0 0 -1
    outer loop
      vertex 19.5928 0.475586 -10
      vertex 19.4336 1.03125 -10
      vertex 19.6016 0.779297 -10
    endloop
  endfacet
  facet normal 0 0 -1
    outer loop
      vertex 19.4102 0.233398 -10
      vertex 19.4336 1.03125 -10
      vertex 19.5928 0.475586 -10
    endloop
  endfacet
  facet normal 0 0 -1
    outer loop
      vertex 19.1211 0.140625 -10
      vertex 19.4336 1.03125 -10
      vertex 19.4102 0.233398 -10
    endloop
  endfacet
  facet normal 0 0 -1
    outer loop
      vertex 15.0322 2.10254 -10
      vertex 19.4336 1.03125 -10
      vertex 19.1211 0.140625 -10
    endloop
  endfacet
  facet normal 0 0 -1
    outer loop
      vertex 19.4336 1.03125 -10
      vertex 15.0322 2.10254 -10
      vertex 15.4385 4.22754 -10
    endloop
  endfacet
  facet normal 0 0 -1
    outer loop
      vertex 15.0322 4.03223 -10
      vertex 15.4385 4.22754 -10
      vertex 15.0322 2.10254 -10
    endloop
  endfacet
  facet normal 0 0 -1
    outer loop
      vertex 19.1211 0.140625 -10
      vertex 4.5 2.10254 -10
      vertex 15.0322 2.10254 -10
    endloop
  endfacet
  facet normal -0 0 -1
    outer loop
      vertex 4.14258 2.25879 -10
      vertex 0.140625 0.140625 -10
      vertex 4.01953 2.60254 -10
    endloop
  endfacet
  facet normal -0 0 -1
    outer loop
      vertex 4.5 2.10254 -10
      vertex 0.140625 0.140625 -10
      vertex 4.14258 2.25879 -10
    endloop
  endfacet
  facet normal 0 0 -1
    outer loop
      vertex 0.140625 0.140625 -10
      vertex 4.5 2.10254 -10
      vertex 19.1211 0.140625 -10
    endloop
  endfacet
  facet normal -0 0 -1
    outer loop
      vertex 15.4385 4.22754 -10
      vertex 15.0322 4.03223 -10
      vertex 15.1738 4.25781 -10
    endloop
  endfacet
  facet normal 0 0 -1
    outer loop
      vertex 12.7822 3.10254 -10
      vertex 13.7822 4.10254 -10
      vertex 13.7041 3.71289 -10
    endloop
  endfacet
  facet normal 0 0 -1
    outer loop
      vertex 12.7822 3.10254 -10
      vertex 13.7041 3.71289 -10
      vertex 13.4893 3.39551 -10
    endloop
  endfacet
  facet normal 0 0 -1
    outer loop
      vertex 12.7822 3.10254 -10
      vertex 13.4893 3.39551 -10
      vertex 13.1719 3.18164 -10
    endloop
  endfacet
  facet normal 0 0 -1
    outer loop
      vertex 13.7822 4.10254 -10
      vertex 12.7822 3.10254 -10
      vertex 4.5 3.10254 -10
    endloop
  endfacet
  facet normal 0 0 -1
    outer loop
      vertex 13.7822 4.10254 -10
      vertex 11 25 -10
      vertex 13.7822 25 -10
    endloop
  endfacet
  facet normal 0 0 -1
    outer loop
      vertex 4.13672 2.94629 -10
      vertex 11 25 -10
      vertex 4.5 3.10254 -10
    endloop
  endfacet
  facet normal -0 0 -1
    outer loop
      vertex 13.7822 4.10254 -10
      vertex 4.5 3.10254 -10
      vertex 11 25 -10
    endloop
  endfacet
  facet normal 0 0 -1
    outer loop
      vertex 13.7822 30 -10
      vertex 11 30 -10
      vertex 13.7822 37.6025 -10
    endloop
  endfacet
  facet normal 0 0 -1
    outer loop
      vertex 17.2822 34.8525 -10
      vertex 17.7822 35.3525 -10
      vertex 17.6357 34.999 -10
    endloop
  endfacet
  facet normal 0 0 -1
    outer loop
      vertex 17.7822 35.3525 -10
      vertex 14.7822 37.6025 -10
      vertex 17.7822 47.8525 -10
    endloop
  endfacet
  facet normal 0 0 -1
    outer loop
      vertex 17.7822 35.3525 -10
      vertex 17.2822 34.8525 -10
      vertex 16.7256 34.8525 -10
    endloop
  endfacet
  facet normal 0 0 -1
    outer loop
      vertex 13.7822 37.6025 -10
      vertex 17.7822 47.8525 -10
      vertex 14.7822 37.6025 -10
    endloop
  endfacet
  facet normal -0 0 -1
    outer loop
      vertex 17.7822 35.3525 -10
      vertex 16.7256 34.8525 -10
      vertex 15.8232 35.4219 -10
    endloop
  endfacet
  facet normal 0 -0 -1
    outer loop
      vertex 15.7822 49.8525 -10
      vertex 17.7822 47.8525 -10
      vertex 13.7822 37.6025 -10
    endloop
  endfacet
  facet normal 0 0 -1
    outer loop
      vertex 15.8232 35.4219 -10
      vertex 16.7256 34.8525 -10
      vertex 16.1924 35.0068 -10
    endloop
  endfacet
  facet normal 0 0 -1
    outer loop
      vertex 17.7822 35.3525 -10
      vertex 15.8232 35.4219 -10
      vertex 14.7822 37.6025 -10
    endloop
  endfacet
  facet normal 0 0 -1
    outer loop
      vertex 17.7822 47.8525 -10
      vertex 15.7822 49.8525 -10
      vertex 17.6299 48.6182 -10
    endloop
  endfacet
  facet normal 0 0 -1
    outer loop
      vertex 17.1963 49.2666 -10
      vertex 15.7822 49.8525 -10
      vertex 16.5479 49.7002 -10
    endloop
  endfacet
  facet normal 0 0 -1
    outer loop
      vertex 17.6299 48.6182 -10
      vertex 15.7822 49.8525 -10
      vertex 17.1963 49.2666 -10
    endloop
  endfacet
  facet normal 0 0 -1
    outer loop
      vertex 0.140625 49.8525 -10
      vertex 13.7822 37.6025 -10
      vertex 11 30 -10
    endloop
  endfacet
  facet normal 0 0 -1
    outer loop
      vertex 0.140625 0.140625 -10
      vertex 11 25 -10
      vertex 4.13672 2.94629 -10
    endloop
  endfacet
  facet normal 0 0 -1
    outer loop
      vertex 0.140625 49.8525 -10
      vertex 11 25 -10
      vertex 0.140625 0.140625 -10
    endloop
  endfacet
  facet normal 0 0 -1
    outer loop
      vertex 0.140625 0.140625 -10
      vertex 4.13672 2.94629 -10
      vertex 4.01953 2.60254 -10
    endloop
  endfacet
  facet normal 0 0 -1
    outer loop
      vertex 11 25 -10
      vertex 0.140625 49.8525 -10
      vertex 11 30 -10
    endloop
  endfacet
  facet normal 0 0 -1
    outer loop
      vertex 13.7822 37.6025 -10
      vertex 0.140625 49.8525 -10
      vertex 15.7822 49.8525 -10
    endloop
  endfacet
  facet normal -0 0 1
    outer loop
      vertex 14.7822 37.6025 10
      vertex 17.7822 35.3525 10
      vertex 17.7822 47.8525 10
    endloop
  endfacet
  facet normal 0 0 1
    outer loop
      vertex 15.7822 49.8525 10
      vertex 17.7822 47.8525 10
      vertex 17.6299 48.6182 10
    endloop
  endfacet
  facet normal -0 -0 1
    outer loop
      vertex 15.8232 35.4219 10
      vertex 17.7822 35.3525 10
      vertex 14.7822 37.6025 10
    endloop
  endfacet
  facet normal 0 0 1
    outer loop
      vertex 15.7822 49.8525 10
      vertex 17.6299 48.6182 10
      vertex 17.1963 49.2666 10
    endloop
  endfacet
  facet normal 0 -0 1
    outer loop
      vertex 16.7256 34.8525 10
      vertex 17.7822 35.3525 10
      vertex 15.8232 35.4219 10
    endloop
  endfacet
  facet normal 0 0 1
    outer loop
      vertex 15.7822 49.8525 10
      vertex 17.1963 49.2666 10
      vertex 16.5479 49.7002 10
    endloop
  endfacet
  facet normal 0 -0 1
    outer loop
      vertex 17.2822 34.8525 10
      vertex 17.7822 35.3525 10
      vertex 16.7256 34.8525 10
    endloop
  endfacet
  facet normal 0 0 1
    outer loop
      vertex 17.7822 35.3525 10
      vertex 17.2822 34.8525 10
      vertex 17.6357 34.999 10
    endloop
  endfacet
  facet normal 0 0 1
    outer loop
      vertex 17.7822 47.8525 10
      vertex 15.7822 49.8525 10
      vertex 13.7822 37.6025 10
    endloop
  endfacet
  facet normal 0 0 1
    outer loop
      vertex 16.7256 34.8525 10
      vertex 15.8232 35.4219 10
      vertex 16.1924 35.0068 10
    endloop
  endfacet
  facet normal 0 0 1
    outer loop
      vertex 17.7822 47.8525 10
      vertex 13.7822 37.6025 10
      vertex 14.7822 37.6025 10
    endloop
  endfacet
  facet normal 0 0 1
    outer loop
      vertex 13.7822 37.6025 10
      vertex 11 30 10
      vertex 13.7822 30 10
    endloop
  endfacet
  facet normal -0 0 1
    outer loop
      vertex 0.140625 49.8525 10
      vertex 13.7822 37.6025 10
      vertex 15.7822 49.8525 10
    endloop
  endfacet
  facet normal 0 0 1
    outer loop
      vertex 0.140625 49.8525 10
      vertex 11 25 10
      vertex 11 30 10
    endloop
  endfacet
  facet normal 0 0 1
    outer loop
      vertex 13.7822 37.6025 10
      vertex 0.140625 49.8525 10
      vertex 11 30 10
    endloop
  endfacet
  facet normal 0 0 1
    outer loop
      vertex 11 25 10
      vertex 0.140625 49.8525 10
      vertex 0.140625 0.140625 10
    endloop
  endfacet
  facet normal 0 0 1
    outer loop
      vertex 11 25 10
      vertex 4.13672 2.94629 10
      vertex 4.5 3.10254 10
    endloop
  endfacet
  facet normal 0 0 1
    outer loop
      vertex 11 25 10
      vertex 0.140625 0.140625 10
      vertex 4.13672 2.94629 10
    endloop
  endfacet
  facet normal -0 0 1
    outer loop
      vertex 11 25 10
      vertex 13.7822 4.10254 10
      vertex 13.7822 25 10
    endloop
  endfacet
  facet normal 0 0 1
    outer loop
      vertex 4.5 3.10254 10
      vertex 13.7822 4.10254 10
      vertex 11 25 10
    endloop
  endfacet
  facet normal 0 -0 1
    outer loop
      vertex 12.7822 3.10254 10
      vertex 13.7822 4.10254 10
      vertex 4.5 3.10254 10
    endloop
  endfacet
  facet normal 0 0 1
    outer loop
      vertex 13.7041 3.71289 10
      vertex 12.7822 3.10254 10
      vertex 13.4893 3.39551 10
    endloop
  endfacet
  facet normal 0 0 1
    outer loop
      vertex 13.4893 3.39551 10
      vertex 12.7822 3.10254 10
      vertex 13.1719 3.18164 10
    endloop
  endfacet
  facet normal 0 0 1
    outer loop
      vertex 13.7822 4.10254 10
      vertex 12.7822 3.10254 10
      vertex 13.7041 3.71289 10
    endloop
  endfacet
  facet normal 0 0 1
    outer loop
      vertex 19.4336 1.03125 10
      vertex 19.5928 0.475586 10
      vertex 19.6016 0.779297 10
    endloop
  endfacet
  facet normal 0 0 1
    outer loop
      vertex 19.4336 1.03125 10
      vertex 19.4102 0.233398 10
      vertex 19.5928 0.475586 10
    endloop
  endfacet
  facet normal 0 0 1
    outer loop
      vertex 19.4336 1.03125 10
      vertex 19.1211 0.140625 10
      vertex 19.4102 0.233398 10
    endloop
  endfacet
  facet normal -0 0 1
    outer loop
      vertex 15.0322 2.10254 10
      vertex 19.4336 1.03125 10
      vertex 15.4385 4.22754 10
    endloop
  endfacet
  facet normal 0 0 1
    outer loop
      vertex 15.0322 4.03223 10
      vertex 15.4385 4.22754 10
      vertex 15.1738 4.25781 10
    endloop
  endfacet
  facet normal 0 0 1
    outer loop
      vertex 15.4385 4.22754 10
      vertex 15.0322 4.03223 10
      vertex 15.0322 2.10254 10
    endloop
  endfacet
  facet normal 0 0 1
    outer loop
      vertex 19.4336 1.03125 10
      vertex 15.0322 2.10254 10
      vertex 19.1211 0.140625 10
    endloop
  endfacet
  facet normal -0 0 1
    outer loop
      vertex 4.5 2.10254 10
      vertex 19.1211 0.140625 10
      vertex 15.0322 2.10254 10
    endloop
  endfacet
  facet normal 0 0 1
    outer loop
      vertex 4.5 2.10254 10
      vertex 0.140625 0.140625 10
      vertex 19.1211 0.140625 10
    endloop
  endfacet
  facet normal 0 0 1
    outer loop
      vertex 4.14258 2.25879 10
      vertex 0.140625 0.140625 10
      vertex 4.5 2.10254 10
    endloop
  endfacet
  facet normal 0 0 1
    outer loop
      vertex 4.01953 2.60254 10
      vertex 0.140625 0.140625 10
      vertex 4.14258 2.25879 10
    endloop
  endfacet
  facet normal 0 0 1
    outer loop
      vertex 4.13672 2.94629 10
      vertex 0.140625 0.140625 10
      vertex 4.01953 2.60254 10
    endloop
  endfacet
  facet normal 0.798452 -0.602059 0
    outer loop
      vertex 19.4102 0.233398 10
      vertex 19.5928 0.475586 -10
      vertex 19.5928 0.475586 10
    endloop
  endfacet
  facet normal 0.798452 -0.602059 0
    outer loop
      vertex 19.5928 0.475586 -10
      vertex 19.4102 0.233398 10
      vertex 19.4102 0.233398 -10
    endloop
  endfacet
  facet normal 0.999582 -0.0289268 0
    outer loop
      vertex 19.5928 0.475586 10
      vertex 19.6016 0.779297 -10
      vertex 19.6016 0.779297 10
    endloop
  endfacet
  facet normal 0.999582 -0.0289268 0
    outer loop
      vertex 19.6016 0.779297 -10
      vertex 19.5928 0.475586 10
      vertex 19.5928 0.475586 -10
    endloop
  endfacet
  facet normal 0.83205 0.5547 0
    outer loop
      vertex 19.6016 0.779297 10
      vertex 19.4336 1.03125 -10
      vertex 19.4336 1.03125 10
    endloop
  endfacet
  facet normal 0.83205 0.5547 0
    outer loop
      vertex 19.4336 1.03125 -10
      vertex 19.6016 0.779297 10
      vertex 19.6016 0.779297 -10
    endloop
  endfacet
  facet normal 0.624718 0.78085 -0
    outer loop
      vertex 19.4336 1.03125 -10
      vertex 15.4385 4.22754 10
      vertex 19.4336 1.03125 10
    endloop
  endfacet
  facet normal 0.624718 0.78085 0
    outer loop
      vertex 15.4385 4.22754 10
      vertex 19.4336 1.03125 -10
      vertex 15.4385 4.22754 -10
    endloop
  endfacet
  facet normal 0.11365 0.993521 -0
    outer loop
      vertex 15.4385 4.22754 -10
      vertex 15.1738 4.25781 10
      vertex 15.4385 4.22754 10
    endloop
  endfacet
  facet normal 0.11365 0.993521 0
    outer loop
      vertex 15.1738 4.25781 10
      vertex 15.4385 4.22754 -10
      vertex 15.1738 4.25781 -10
    endloop
  endfacet
  facet normal -0.846967 0.531646 0
    outer loop
      vertex 15.0322 4.03223 -10
      vertex 15.1738 4.25781 10
      vertex 15.1738 4.25781 -10
    endloop
  endfacet
  facet normal -0.846967 0.531646 0
    outer loop
      vertex 15.1738 4.25781 10
      vertex 15.0322 4.03223 -10
      vertex 15.0322 4.03223 10
    endloop
  endfacet
  facet normal -1 0 0
    outer loop
      vertex 15.0322 2.10254 -10
      vertex 15.0322 4.03223 10
      vertex 15.0322 4.03223 -10
    endloop
  endfacet
  facet normal -1 -0 0
    outer loop
      vertex 15.0322 4.03223 10
      vertex 15.0322 2.10254 -10
      vertex 15.0322 2.10254 10
    endloop
  endfacet
  facet normal 0 1 -0
    outer loop
      vertex 15.0322 2.10254 -10
      vertex 4.5 2.10254 10
      vertex 15.0322 2.10254 10
    endloop
  endfacet
  facet normal 0 1 0
    outer loop
      vertex 4.5 2.10254 10
      vertex 15.0322 2.10254 -10
      vertex 4.5 2.10254 -10
    endloop
  endfacet
  facet normal 0.400556 0.916272 -0
    outer loop
      vertex 4.5 2.10254 -10
      vertex 4.14258 2.25879 10
      vertex 4.5 2.10254 10
    endloop
  endfacet
  facet normal 0.400556 0.916272 0
    outer loop
      vertex 4.14258 2.25879 10
      vertex 4.5 2.10254 -10
      vertex 4.14258 2.25879 -10
    endloop
  endfacet
  facet normal 0.9415 0.337014 0
    outer loop
      vertex 4.14258 2.25879 10
      vertex 4.01953 2.60254 -10
      vertex 4.01953 2.60254 10
    endloop
  endfacet
  facet normal 0.9415 0.337014 0
    outer loop
      vertex 4.01953 2.60254 -10
      vertex 4.14258 2.25879 10
      vertex 4.14258 2.25879 -10
    endloop
  endfacet
  facet normal 0.94651 -0.322674 0
    outer loop
      vertex 4.01953 2.60254 10
      vertex 4.13672 2.94629 -10
      vertex 4.13672 2.94629 10
    endloop
  endfacet
  facet normal 0.94651 -0.322674 0
    outer loop
      vertex 4.13672 2.94629 -10
      vertex 4.01953 2.60254 10
      vertex 4.01953 2.60254 -10
    endloop
  endfacet
  facet normal 0.395111 -0.918633 0
    outer loop
      vertex 4.13672 2.94629 -10
      vertex 4.5 3.10254 10
      vertex 4.13672 2.94629 10
    endloop
  endfacet
  facet normal 0.395111 -0.918633 0
    outer loop
      vertex 4.5 3.10254 10
      vertex 4.13672 2.94629 -10
      vertex 4.5 3.10254 -10
    endloop
  endfacet
  facet normal 0 -1 0
    outer loop
      vertex 4.5 3.10254 -10
      vertex 12.7822 3.10254 10
      vertex 4.5 3.10254 10
    endloop
  endfacet
  facet normal 0 -1 -0
    outer loop
      vertex 12.7822 3.10254 10
      vertex 4.5 3.10254 -10
      vertex 12.7822 3.10254 -10
    endloop
  endfacet
  facet normal 0.198949 -0.98001 0
    outer loop
      vertex 12.7822 3.10254 -10
      vertex 13.1719 3.18164 10
      vertex 12.7822 3.10254 10
    endloop
  endfacet
  facet normal 0.198949 -0.98001 0
    outer loop
      vertex 13.1719 3.18164 10
      vertex 12.7822 3.10254 -10
      vertex 13.1719 3.18164 -10
    endloop
  endfacet
  facet normal 0.558815 -0.829292 0
    outer loop
      vertex 13.1719 3.18164 -10
      vertex 13.4893 3.39551 10
      vertex 13.1719 3.18164 10
    endloop
  endfacet
  facet normal 0.558815 -0.829292 0
    outer loop
      vertex 13.4893 3.39551 10
      vertex 13.1719 3.18164 -10
      vertex 13.4893 3.39551 -10
    endloop
  endfacet
  facet normal 0.828109 -0.560566 0
    outer loop
      vertex 13.4893 3.39551 10
      vertex 13.7041 3.71289 -10
      vertex 13.7041 3.71289 10
    endloop
  endfacet
  facet normal 0.828109 -0.560566 0
    outer loop
      vertex 13.7041 3.71289 -10
      vertex 13.4893 3.39551 10
      vertex 13.4893 3.39551 -10
    endloop
  endfacet
  facet normal 0.980486 -0.196589 0
    outer loop
      vertex 13.7041 3.71289 10
      vertex 13.7822 4.10254 -10
      vertex 13.7822 4.10254 10
    endloop
  endfacet
  facet normal 0.980486 -0.196589 0
    outer loop
      vertex 13.7822 4.10254 -10
      vertex 13.7041 3.71289 10
      vertex 13.7041 3.71289 -10
    endloop
  endfacet
  facet normal 1 0 0
    outer loop
      vertex 13.7822 25 10
      vertex 13.7822 15.1 0
      vertex 13.7822 25 -10
    endloop
  endfacet
  facet normal 1 0 0
    outer loop
      vertex 13.7822 25 10
      vertex 13.7822 14.9944 0.802339
      vertex 13.7822 15.1 0
    endloop
  endfacet
  facet normal 1 0 0
    outer loop
      vertex 13.7822 25 10
      vertex 13.7822 14.6847 1.55
      vertex 13.7822 14.9944 0.802339
    endloop
  endfacet
  facet normal 1 0 0
    outer loop
      vertex 13.7822 25 10
      vertex 13.7822 14.192 2.19203
      vertex 13.7822 14.6847 1.55
    endloop
  endfacet
  facet normal 1 0 0
    outer loop
      vertex 13.7822 25 10
      vertex 13.7822 13.55 2.68468
      vertex 13.7822 14.192 2.19203
    endloop
  endfacet
  facet normal 1 0 0
    outer loop
      vertex 13.7822 25 10
      vertex 13.7822 12.8023 2.99437
      vertex 13.7822 13.55 2.68468
    endloop
  endfacet
  facet normal 1 -0 0
    outer loop
      vertex 13.7822 4.10254 10
      vertex 13.7822 12.8023 2.99437
      vertex 13.7822 25 10
    endloop
  endfacet
  facet normal 1 0 0
    outer loop
      vertex 13.7822 12.8023 2.99437
      vertex 13.7822 4.10254 10
      vertex 13.7822 12 3.1
    endloop
  endfacet
  facet normal 1 0 0
    outer loop
      vertex 13.7822 12 3.1
      vertex 13.7822 4.10254 10
      vertex 13.7822 11.1977 2.99437
    endloop
  endfacet
  facet normal 1 0 0
    outer loop
      vertex 13.7822 9.00563 0.802339
      vertex 13.7822 4.10254 10
      vertex 13.7822 8.9 0
    endloop
  endfacet
  facet normal 1 0 0
    outer loop
      vertex 13.7822 9.31532 1.55
      vertex 13.7822 4.10254 10
      vertex 13.7822 9.00563 0.802339
    endloop
  endfacet
  facet normal 1 0 0
    outer loop
      vertex 13.7822 9.80797 2.19203
      vertex 13.7822 4.10254 10
      vertex 13.7822 9.31532 1.55
    endloop
  endfacet
  facet normal 1 0 0
    outer loop
      vertex 13.7822 10.45 2.68468
      vertex 13.7822 4.10254 10
      vertex 13.7822 9.80797 2.19203
    endloop
  endfacet
  facet normal 1 0 0
    outer loop
      vertex 13.7822 11.1977 2.99437
      vertex 13.7822 4.10254 10
      vertex 13.7822 10.45 2.68468
    endloop
  endfacet
  facet normal 1 -0 0
    outer loop
      vertex 13.7822 14.9944 -0.802339
      vertex 13.7822 25 -10
      vertex 13.7822 15.1 0
    endloop
  endfacet
  facet normal 1 -0 0
    outer loop
      vertex 13.7822 14.6847 -1.55
      vertex 13.7822 25 -10
      vertex 13.7822 14.9944 -0.802339
    endloop
  endfacet
  facet normal 1 -0 0
    outer loop
      vertex 13.7822 14.192 -2.19203
      vertex 13.7822 25 -10
      vertex 13.7822 14.6847 -1.55
    endloop
  endfacet
  facet normal 1 -0 0
    outer loop
      vertex 13.7822 13.55 -2.68468
      vertex 13.7822 25 -10
      vertex 13.7822 14.192 -2.19203
    endloop
  endfacet
  facet normal 1 -0 0
    outer loop
      vertex 13.7822 12.8023 -2.99437
      vertex 13.7822 25 -10
      vertex 13.7822 13.55 -2.68468
    endloop
  endfacet
  facet normal 1 0 0
    outer loop
      vertex 13.7822 4.10254 -10
      vertex 13.7822 12.8023 -2.99437
      vertex 13.7822 12 -3.1
    endloop
  endfacet
  facet normal 1 0 0
    outer loop
      vertex 13.7822 4.10254 -10
      vertex 13.7822 12 -3.1
      vertex 13.7822 11.1977 -2.99437
    endloop
  endfacet
  facet normal 1 0 0
    outer loop
      vertex 13.7822 4.10254 -10
      vertex 13.7822 11.1977 -2.99437
      vertex 13.7822 10.45 -2.68468
    endloop
  endfacet
  facet normal 1 0 0
    outer loop
      vertex 13.7822 4.10254 -10
      vertex 13.7822 8.9 0
      vertex 13.7822 4.10254 10
    endloop
  endfacet
  facet normal 1 0 0
    outer loop
      vertex 13.7822 8.9 0
      vertex 13.7822 4.10254 -10
      vertex 13.7822 9.00563 -0.802339
    endloop
  endfacet
  facet normal 1 0 0
    outer loop
      vertex 13.7822 12.8023 -2.99437
      vertex 13.7822 4.10254 -10
      vertex 13.7822 25 -10
    endloop
  endfacet
  facet normal 1 0 0
    outer loop
      vertex 13.7822 9.80797 -2.19203
      vertex 13.7822 4.10254 -10
      vertex 13.7822 10.45 -2.68468
    endloop
  endfacet
  facet normal 1 0 0
    outer loop
      vertex 13.7822 9.31532 -1.55
      vertex 13.7822 4.10254 -10
      vertex 13.7822 9.80797 -2.19203
    endloop
  endfacet
  facet normal 1 0 0
    outer loop
      vertex 13.7822 9.00563 -0.802339
      vertex 13.7822 4.10254 -10
      vertex 13.7822 9.31532 -1.55
    endloop
  endfacet
  facet normal 1 -0 0
    outer loop
      vertex 13.7822 30 10
      vertex 13.7822 37.6025 -10
      vertex 13.7822 37.6025 10
    endloop
  endfacet
  facet normal 1 0 0
    outer loop
      vertex 13.7822 37.6025 -10
      vertex 13.7822 30 10
      vertex 13.7822 30 -10
    endloop
  endfacet
  facet normal 0 -1 0
    outer loop
      vertex 13.7822 37.6025 -10
      vertex 14.7822 37.6025 10
      vertex 13.7822 37.6025 10
    endloop
  endfacet
  facet normal 0 -1 -0
    outer loop
      vertex 14.7822 37.6025 10
      vertex 13.7822 37.6025 -10
      vertex 14.7822 37.6025 -10
    endloop
  endfacet
  facet normal -0.902442 -0.430812 0
    outer loop
      vertex 15.8232 35.4219 -10
      vertex 14.7822 37.6025 10
      vertex 14.7822 37.6025 -10
    endloop
  endfacet
  facet normal -0.902442 -0.430812 0
    outer loop
      vertex 14.7822 37.6025 10
      vertex 15.8232 35.4219 -10
      vertex 15.8232 35.4219 10
    endloop
  endfacet
  facet normal -0.747215 -0.664582 0
    outer loop
      vertex 16.1924 35.0068 -10
      vertex 15.8232 35.4219 10
      vertex 15.8232 35.4219 -10
    endloop
  endfacet
  facet normal -0.747215 -0.664582 0
    outer loop
      vertex 15.8232 35.4219 10
      vertex 16.1924 35.0068 -10
      vertex 16.1924 35.0068 10
    endloop
  endfacet
  facet normal -0.277973 -0.960589 0
    outer loop
      vertex 16.1924 35.0068 -10
      vertex 16.7256 34.8525 10
      vertex 16.1924 35.0068 10
    endloop
  endfacet
  facet normal -0.277973 -0.960589 -0
    outer loop
      vertex 16.7256 34.8525 10
      vertex 16.1924 35.0068 -10
      vertex 16.7256 34.8525 -10
    endloop
  endfacet
  facet normal 0 -1 0
    outer loop
      vertex 16.7256 34.8525 -10
      vertex 17.2822 34.8525 10
      vertex 16.7256 34.8525 10
    endloop
  endfacet
  facet normal 0 -1 -0
    outer loop
      vertex 17.2822 34.8525 10
      vertex 16.7256 34.8525 -10
      vertex 17.2822 34.8525 -10
    endloop
  endfacet
  facet normal 0.382803 -0.92383 0
    outer loop
      vertex 17.2822 34.8525 -10
      vertex 17.6357 34.999 10
      vertex 17.2822 34.8525 10
    endloop
  endfacet
  facet normal 0.382803 -0.92383 0
    outer loop
      vertex 17.6357 34.999 10
      vertex 17.2822 34.8525 -10
      vertex 17.6357 34.999 -10
    endloop
  endfacet
  facet normal 0.92383 -0.382803 0
    outer loop
      vertex 17.6357 34.999 10
      vertex 17.7822 35.3525 -10
      vertex 17.7822 35.3525 10
    endloop
  endfacet
  facet normal 0.92383 -0.382803 0
    outer loop
      vertex 17.7822 35.3525 -10
      vertex 17.6357 34.999 10
      vertex 17.6357 34.999 -10
    endloop
  endfacet
  facet normal 1 -0 0
    outer loop
      vertex 17.7822 35.3525 10
      vertex 17.7822 47.8525 -10
      vertex 17.7822 47.8525 10
    endloop
  endfacet
  facet normal 1 0 0
    outer loop
      vertex 17.7822 47.8525 -10
      vertex 17.7822 35.3525 10
      vertex 17.7822 35.3525 -10
    endloop
  endfacet
  facet normal 0.980773 0.195154 0
    outer loop
      vertex 17.7822 47.8525 10
      vertex 17.6299 48.6182 -10
      vertex 17.6299 48.6182 10
    endloop
  endfacet
  facet normal 0.980773 0.195154 0
    outer loop
      vertex 17.6299 48.6182 -10
      vertex 17.7822 47.8525 10
      vertex 17.7822 47.8525 -10
    endloop
  endfacet
  facet normal 0.831279 0.555855 0
    outer loop
      vertex 17.6299 48.6182 10
      vertex 17.1963 49.2666 -10
      vertex 17.1963 49.2666 10
    endloop
  endfacet
  facet normal 0.831279 0.555855 0
    outer loop
      vertex 17.1963 49.2666 -10
      vertex 17.6299 48.6182 10
      vertex 17.6299 48.6182 -10
    endloop
  endfacet
  facet normal 0.555855 0.831279 -0
    outer loop
      vertex 17.1963 49.2666 -10
      vertex 16.5479 49.7002 10
      vertex 17.1963 49.2666 10
    endloop
  endfacet
  facet normal 0.555855 0.831279 0
    outer loop
      vertex 16.5479 49.7002 10
      vertex 17.1963 49.2666 -10
      vertex 16.5479 49.7002 -10
    endloop
  endfacet
  facet normal 0.195154 0.980773 -0
    outer loop
      vertex 16.5479 49.7002 -10
      vertex 15.7822 49.8525 10
      vertex 16.5479 49.7002 10
    endloop
  endfacet
  facet normal 0.195154 0.980773 0
    outer loop
      vertex 15.7822 49.8525 10
      vertex 16.5479 49.7002 -10
      vertex 15.7822 49.8525 -10
    endloop
  endfacet
  facet normal 0 1 -0
    outer loop
      vertex 15.7822 49.8525 -10
      vertex 0.140625 49.8525 10
      vertex 15.7822 49.8525 10
    endloop
  endfacet
  facet normal 0 1 0
    outer loop
      vertex 0.140625 49.8525 10
      vertex 15.7822 49.8525 -10
      vertex 0.140625 49.8525 -10
    endloop
  endfacet
  facet normal -1 0 0
    outer loop
      vertex 0.140625 49.8525 -10
      vertex 0.140625 13.55 0
      vertex 0.140625 49.8525 10
    endloop
  endfacet
  facet normal -1 0 0
    outer loop
      vertex 0.140625 49.8525 -10
      vertex 0.140625 13.4972 -0.401169
      vertex 0.140625 13.55 0
    endloop
  endfacet
  facet normal -1 0 0
    outer loop
      vertex 0.140625 49.8525 -10
      vertex 0.140625 13.3423 -0.775
      vertex 0.140625 13.4972 -0.401169
    endloop
  endfacet
  facet normal -1 0 0
    outer loop
      vertex 0.140625 49.8525 -10
      vertex 0.140625 13.096 -1.09601
      vertex 0.140625 13.3423 -0.775
    endloop
  endfacet
  facet normal -1 0 0
    outer loop
      vertex 0.140625 49.8525 -10
      vertex 0.140625 12.775 -1.34234
      vertex 0.140625 13.096 -1.09601
    endloop
  endfacet
  facet normal -1 0 0
    outer loop
      vertex 0.140625 49.8525 -10
      vertex 0.140625 12.4012 -1.49718
      vertex 0.140625 12.775 -1.34234
    endloop
  endfacet
  facet normal -1 0 0
    outer loop
      vertex 0.140625 0.140625 -10
      vertex 0.140625 12.4012 -1.49718
      vertex 0.140625 49.8525 -10
    endloop
  endfacet
  facet normal -1 0 0
    outer loop
      vertex 0.140625 12.4012 -1.49718
      vertex 0.140625 0.140625 -10
      vertex 0.140625 12 -1.55
    endloop
  endfacet
  facet normal -1 -0 0
    outer loop
      vertex 0.140625 10.5028 -0.401169
      vertex 0.140625 0.140625 -10
      vertex 0.140625 10.45 0
    endloop
  endfacet
  facet normal -1 -0 0
    outer loop
      vertex 0.140625 10.6577 -0.775
      vertex 0.140625 0.140625 -10
      vertex 0.140625 10.5028 -0.401169
    endloop
  endfacet
  facet normal -1 -0 0
    outer loop
      vertex 0.140625 10.904 -1.09601
      vertex 0.140625 0.140625 -10
      vertex 0.140625 10.6577 -0.775
    endloop
  endfacet
  facet normal -1 -0 0
    outer loop
      vertex 0.140625 11.225 -1.34234
      vertex 0.140625 0.140625 -10
      vertex 0.140625 10.904 -1.09601
    endloop
  endfacet
  facet normal -1 -0 0
    outer loop
      vertex 0.140625 11.5988 -1.49718
      vertex 0.140625 0.140625 -10
      vertex 0.140625 11.225 -1.34234
    endloop
  endfacet
  facet normal -1 -0 0
    outer loop
      vertex 0.140625 12 -1.55
      vertex 0.140625 0.140625 -10
      vertex 0.140625 11.5988 -1.49718
    endloop
  endfacet
  facet normal -1 0 0
    outer loop
      vertex 0.140625 13.4972 0.401169
      vertex 0.140625 49.8525 10
      vertex 0.140625 13.55 0
    endloop
  endfacet
  facet normal -1 0 0
    outer loop
      vertex 0.140625 13.3423 0.775
      vertex 0.140625 49.8525 10
      vertex 0.140625 13.4972 0.401169
    endloop
  endfacet
  facet normal -1 0 0
    outer loop
      vertex 0.140625 13.096 1.09601
      vertex 0.140625 49.8525 10
      vertex 0.140625 13.3423 0.775
    endloop
  endfacet
  facet normal -1 0 0
    outer loop
      vertex 0.140625 12.775 1.34234
      vertex 0.140625 49.8525 10
      vertex 0.140625 13.096 1.09601
    endloop
  endfacet
  facet normal -1 0 0
    outer loop
      vertex 0.140625 12.4012 1.49718
      vertex 0.140625 49.8525 10
      vertex 0.140625 12.775 1.34234
    endloop
  endfacet
  facet normal -1 0 0
    outer loop
      vertex 0.140625 0.140625 10
      vertex 0.140625 12.4012 1.49718
      vertex 0.140625 12 1.55
    endloop
  endfacet
  facet normal -1 0 0
    outer loop
      vertex 0.140625 0.140625 10
      vertex 0.140625 12 1.55
      vertex 0.140625 11.5988 1.49718
    endloop
  endfacet
  facet normal -1 0 0
    outer loop
      vertex 0.140625 0.140625 10
      vertex 0.140625 10.45 0
      vertex 0.140625 0.140625 -10
    endloop
  endfacet
  facet normal -1 0 0
    outer loop
      vertex 0.140625 10.45 0
      vertex 0.140625 0.140625 10
      vertex 0.140625 10.5028 0.401169
    endloop
  endfacet
  facet normal -1 0 0
    outer loop
      vertex 0.140625 10.5028 0.401169
      vertex 0.140625 0.140625 10
      vertex 0.140625 10.6577 0.775
    endloop
  endfacet
  facet normal -1 0 0
    outer loop
      vertex 0.140625 12.4012 1.49718
      vertex 0.140625 0.140625 10
      vertex 0.140625 49.8525 10
    endloop
  endfacet
  facet normal -1 0 0
    outer loop
      vertex 0.140625 11.225 1.34234
      vertex 0.140625 0.140625 10
      vertex 0.140625 11.5988 1.49718
    endloop
  endfacet
  facet normal -1 0 0
    outer loop
      vertex 0.140625 10.904 1.09601
      vertex 0.140625 0.140625 10
      vertex 0.140625 11.225 1.34234
    endloop
  endfacet
  facet normal -1 0 0
    outer loop
      vertex 0.140625 10.6577 0.775
      vertex 0.140625 0.140625 10
      vertex 0.140625 10.904 1.09601
    endloop
  endfacet
  facet normal 0 -1 0
    outer loop
      vertex 0.140625 0.140625 -10
      vertex 19.1211 0.140625 10
      vertex 0.140625 0.140625 10
    endloop
  endfacet
  facet normal 0 -1 -0
    outer loop
      vertex 19.1211 0.140625 10
      vertex 0.140625 0.140625 -10
      vertex 19.1211 0.140625 -10
    endloop
  endfacet
  facet normal 0.305593 -0.952162 0
    outer loop
      vertex 19.1211 0.140625 -10
      vertex 19.4102 0.233398 10
      vertex 19.1211 0.140625 10
    endloop
  endfacet
  facet normal 0.305593 -0.952162 0
    outer loop
      vertex 19.4102 0.233398 10
      vertex 19.1211 0.140625 -10
      vertex 19.4102 0.233398 -10
    endloop
  endfacet
  facet normal 0 -0.923879 0.382684
    outer loop
      vertex 0.140625 13.3423 -0.775
      vertex 5 13.4972 -0.401169
      vertex 0.140625 13.4972 -0.401169
    endloop
  endfacet
  facet normal 0 -0.923879 0.382684
    outer loop
      vertex 5 13.4972 -0.401169
      vertex 0.140625 13.3423 -0.775
      vertex 5 13.3423 -0.775
    endloop
  endfacet
  facet normal -0 0.608761 0.793354
    outer loop
      vertex 0.140625 11.225 -1.34234
      vertex 5 10.904 -1.09601
      vertex 5 11.225 -1.34234
    endloop
  endfacet
  facet normal 0 0.608761 0.793354
    outer loop
      vertex 5 10.904 -1.09601
      vertex 0.140625 11.225 -1.34234
      vertex 0.140625 10.904 -1.09601
    endloop
  endfacet
  facet normal 0 0.991445 -0.130525
    outer loop
      vertex 5 10.45 0
      vertex 0.140625 10.5028 0.401169
      vertex 5 10.5028 0.401169
    endloop
  endfacet
  facet normal 0 0.991445 -0.130525
    outer loop
      vertex 0.140625 10.5028 0.401169
      vertex 5 10.45 0
      vertex 0.140625 10.45 0
    endloop
  endfacet
  facet normal 0 -0.793354 -0.608761
    outer loop
      vertex 0.140625 13.3423 0.775
      vertex 5 13.096 1.09601
      vertex 0.140625 13.096 1.09601
    endloop
  endfacet
  facet normal 0 -0.793354 -0.608761
    outer loop
      vertex 5 13.096 1.09601
      vertex 0.140625 13.3423 0.775
      vertex 5 13.3423 0.775
    endloop
  endfacet
  facet normal 0 -0.608761 -0.793354
    outer loop
      vertex 0.140625 12.775 1.34234
      vertex 5 13.096 1.09601
      vertex 5 12.775 1.34234
    endloop
  endfacet
  facet normal -0 -0.608761 -0.793354
    outer loop
      vertex 5 13.096 1.09601
      vertex 0.140625 12.775 1.34234
      vertex 0.140625 13.096 1.09601
    endloop
  endfacet
  facet normal -0 0.130525 0.991445
    outer loop
      vertex 0.140625 12 -1.55
      vertex 5 11.5988 -1.49718
      vertex 5 12 -1.55
    endloop
  endfacet
  facet normal 0 0.130525 0.991445
    outer loop
      vertex 5 11.5988 -1.49718
      vertex 0.140625 12 -1.55
      vertex 0.140625 11.5988 -1.49718
    endloop
  endfacet
  facet normal 0 0.608761 -0.793354
    outer loop
      vertex 0.140625 10.904 1.09601
      vertex 5 11.225 1.34234
      vertex 5 10.904 1.09601
    endloop
  endfacet
  facet normal 0 0.608761 -0.793354
    outer loop
      vertex 5 11.225 1.34234
      vertex 0.140625 10.904 1.09601
      vertex 0.140625 11.225 1.34234
    endloop
  endfacet
  facet normal 0 0.923879 -0.382685
    outer loop
      vertex 5 10.5263 0.457847
      vertex 0.140625 10.6577 0.775
      vertex 5 10.6577 0.775
    endloop
  endfacet
  facet normal 0 0.92388 -0.382681
    outer loop
      vertex 0.140625 10.5028 0.401169
      vertex 5 10.5263 0.457847
      vertex 5 10.5028 0.401169
    endloop
  endfacet
  facet normal 4.16296e-08 0.923879 -0.382684
    outer loop
      vertex 5 10.5263 0.457847
      vertex 0.140625 10.5028 0.401169
      vertex 0.140625 10.6577 0.775
    endloop
  endfacet
  facet normal 0 0.793354 -0.608761
    outer loop
      vertex 5 10.6577 0.775
      vertex 0.140625 10.904 1.09601
      vertex 5 10.904 1.09601
    endloop
  endfacet
  facet normal 0 0.793354 -0.608761
    outer loop
      vertex 0.140625 10.904 1.09601
      vertex 5 10.6577 0.775
      vertex 0.140625 10.6577 0.775
    endloop
  endfacet
  facet normal 0 -0.608761 0.793354
    outer loop
      vertex 0.140625 13.096 -1.09601
      vertex 5 12.775 -1.34234
      vertex 5 13.096 -1.09601
    endloop
  endfacet
  facet normal 0 -0.608761 0.793354
    outer loop
      vertex 5 12.775 -1.34234
      vertex 0.140625 13.096 -1.09601
      vertex 0.140625 12.775 -1.34234
    endloop
  endfacet
  facet normal 0 -0.382684 0.923879
    outer loop
      vertex 0.140625 12.775 -1.34234
      vertex 5 12.7183 -1.36581
      vertex 5 12.775 -1.34234
    endloop
  endfacet
  facet normal -4.814e-09 -0.382684 0.923879
    outer loop
      vertex 0.140625 12.4012 -1.49718
      vertex 5 12.7183 -1.36581
      vertex 0.140625 12.775 -1.34234
    endloop
  endfacet
  facet normal 0 -0.382684 0.923879
    outer loop
      vertex 5 12.7183 -1.36581
      vertex 0.140625 12.4012 -1.49718
      vertex 5 12.4012 -1.49718
    endloop
  endfacet
  facet normal 0 -0.793354 0.608761
    outer loop
      vertex 0.140625 13.096 -1.09601
      vertex 5 13.3423 -0.775
      vertex 0.140625 13.3423 -0.775
    endloop
  endfacet
  facet normal 0 -0.793354 0.608761
    outer loop
      vertex 5 13.3423 -0.775
      vertex 0.140625 13.096 -1.09601
      vertex 5 13.096 -1.09601
    endloop
  endfacet
  facet normal 0 -0.991445 -0.130525
    outer loop
      vertex 0.140625 13.55 0
      vertex 5 13.4972 0.401169
      vertex 0.140625 13.4972 0.401169
    endloop
  endfacet
  facet normal 0 -0.991445 -0.130525
    outer loop
      vertex 5 13.4972 0.401169
      vertex 0.140625 13.55 0
      vertex 5 13.55 0
    endloop
  endfacet
  facet normal 0 -0.991445 0.130525
    outer loop
      vertex 0.140625 13.4972 -0.401169
      vertex 5 13.55 0
      vertex 0.140625 13.55 0
    endloop
  endfacet
  facet normal 0 -0.991445 0.130525
    outer loop
      vertex 5 13.55 0
      vertex 0.140625 13.4972 -0.401169
      vertex 5 13.4972 -0.401169
    endloop
  endfacet
  facet normal 0 0.130525 -0.991445
    outer loop
      vertex 0.140625 11.5988 1.49718
      vertex 5 12 1.55
      vertex 5 11.5988 1.49718
    endloop
  endfacet
  facet normal 0 0.130525 -0.991445
    outer loop
      vertex 5 12 1.55
      vertex 0.140625 11.5988 1.49718
      vertex 0.140625 12 1.55
    endloop
  endfacet
  facet normal 0 -0.382684 -0.923879
    outer loop
      vertex 0.140625 12.4012 1.49718
      vertex 5 12.775 1.34234
      vertex 5 12.4012 1.49718
    endloop
  endfacet
  facet normal -0 -0.382684 -0.923879
    outer loop
      vertex 5 12.775 1.34234
      vertex 0.140625 12.4012 1.49718
      vertex 0.140625 12.775 1.34234
    endloop
  endfacet
  facet normal 0 -0.923879 -0.382684
    outer loop
      vertex 0.140625 13.3423 0.775
      vertex 5 13.4737 0.457846
      vertex 5 13.3423 0.775
    endloop
  endfacet
  facet normal 1.11188e-08 -0.923879 -0.382684
    outer loop
      vertex 0.140625 13.4972 0.401169
      vertex 5 13.4737 0.457846
      vertex 0.140625 13.3423 0.775
    endloop
  endfacet
  facet normal 0 -0.92388 -0.382683
    outer loop
      vertex 5 13.4737 0.457846
      vertex 0.140625 13.4972 0.401169
      vertex 5 13.4972 0.401169
    endloop
  endfacet
  facet normal 0 -0.130525 0.991445
    outer loop
      vertex 0.140625 12.4012 -1.49718
      vertex 5 12 -1.55
      vertex 5 12.4012 -1.49718
    endloop
  endfacet
  facet normal 0 -0.130525 0.991445
    outer loop
      vertex 5 12 -1.55
      vertex 0.140625 12.4012 -1.49718
      vertex 0.140625 12 -1.55
    endloop
  endfacet
  facet normal 0 0.923879 0.382684
    outer loop
      vertex 5 10.6577 -0.775
      vertex 0.140625 10.5028 -0.401169
      vertex 5 10.5028 -0.401169
    endloop
  endfacet
  facet normal 0 0.923879 0.382684
    outer loop
      vertex 0.140625 10.5028 -0.401169
      vertex 5 10.6577 -0.775
      vertex 0.140625 10.6577 -0.775
    endloop
  endfacet
  facet normal 0 0.991445 0.130525
    outer loop
      vertex 5 10.5028 -0.401169
      vertex 0.140625 10.45 0
      vertex 5 10.45 0
    endloop
  endfacet
  facet normal 0 0.991445 0.130525
    outer loop
      vertex 0.140625 10.45 0
      vertex 5 10.5028 -0.401169
      vertex 0.140625 10.5028 -0.401169
    endloop
  endfacet
  facet normal 0 0.382684 -0.923879
    outer loop
      vertex 0.140625 11.225 1.34234
      vertex 5 11.5988 1.49718
      vertex 5 11.225 1.34234
    endloop
  endfacet
  facet normal 0 0.382684 -0.923879
    outer loop
      vertex 5 11.5988 1.49718
      vertex 0.140625 11.225 1.34234
      vertex 0.140625 11.5988 1.49718
    endloop
  endfacet
  facet normal 0 -0.130525 -0.991445
    outer loop
      vertex 0.140625 12 1.55
      vertex 5 12.4012 1.49718
      vertex 5 12 1.55
    endloop
  endfacet
  facet normal -0 -0.130525 -0.991445
    outer loop
      vertex 5 12.4012 1.49718
      vertex 0.140625 12 1.55
      vertex 0.140625 12.4012 1.49718
    endloop
  endfacet
  facet normal 0 0.793354 0.608761
    outer loop
      vertex 5 10.904 -1.09601
      vertex 0.140625 10.6577 -0.775
      vertex 5 10.6577 -0.775
    endloop
  endfacet
  facet normal 0 0.793354 0.608761
    outer loop
      vertex 0.140625 10.6577 -0.775
      vertex 5 10.904 -1.09601
      vertex 0.140625 10.904 -1.09601
    endloop
  endfacet
  facet normal -0 0.382684 0.923879
    outer loop
      vertex 0.140625 11.5988 -1.49718
      vertex 5 11.2817 -1.36582
      vertex 5 11.5988 -1.49718
    endloop
  endfacet
  facet normal -1.19242e-08 0.382684 0.923879
    outer loop
      vertex 0.140625 11.225 -1.34234
      vertex 5 11.2817 -1.36582
      vertex 0.140625 11.5988 -1.49718
    endloop
  endfacet
  facet normal 0 0.382683 0.92388
    outer loop
      vertex 5 11.2817 -1.36582
      vertex 0.140625 11.225 -1.34234
      vertex 5 11.225 -1.34234
    endloop
  endfacet
  facet normal 0 0.923879 0.382684
    outer loop
      vertex 13.7822 9.31532 -1.55
      vertex 5 9.00563 -0.802339
      vertex 13.7822 9.00563 -0.802339
    endloop
  endfacet
  facet normal 0 0.923879 0.382684
    outer loop
      vertex 5 9.00563 -0.802339
      vertex 13.7822 9.31532 -1.55
      vertex 5 9.31532 -1.55
    endloop
  endfacet
  facet normal 0 -0.991445 0.130526
    outer loop
      vertex 5 14.9944 -0.802339
      vertex 13.7822 15.1 0
      vertex 5 15.1 0
    endloop
  endfacet
  facet normal 0 -0.991445 0.130526
    outer loop
      vertex 13.7822 15.1 0
      vertex 5 14.9944 -0.802339
      vertex 13.7822 14.9944 -0.802339
    endloop
  endfacet
  facet normal 1 -5.12389e-07 6.74568e-08
    outer loop
      vertex 5 10.5028 0.401169
      vertex 5 9.80797 2.19203
      vertex 5 10.45 0
    endloop
  endfacet
  facet normal 1 -3.31911e-07 1.37481e-07
    outer loop
      vertex 5 9.80797 2.19203
      vertex 5 10.5028 0.401169
      vertex 5 10.5263 0.457847
    endloop
  endfacet
  facet normal 1 1.18743e-07 2.86672e-07
    outer loop
      vertex 5 11.1977 -2.99437
      vertex 5 11.2817 -1.36582
      vertex 5 11.225 -1.34234
    endloop
  endfacet
  facet normal 1 3.82875e-08 2.90823e-07
    outer loop
      vertex 5 11.2817 -1.36582
      vertex 5 11.1977 -2.99437
      vertex 5 12 -3.1
    endloop
  endfacet
  facet normal 1 2.18702e-07 2.85018e-07
    outer loop
      vertex 5 10.904 -1.09601
      vertex 5 11.1977 -2.99437
      vertex 5 11.225 -1.34234
    endloop
  endfacet
  facet normal 1 4.10013e-07 3.14614e-07
    outer loop
      vertex 5 10.6577 -0.775
      vertex 5 11.1977 -2.99437
      vertex 5 10.904 -1.09601
    endloop
  endfacet
  facet normal 1 1.25717e-06 5.20736e-07
    outer loop
      vertex 5 10.5028 -0.401169
      vertex 5 11.1977 -2.99437
      vertex 5 10.6577 -0.775
    endloop
  endfacet
  facet normal 1 -6.86249e-07 0
    outer loop
      vertex 5 10.5028 -0.401169
      vertex 5 9.80797 2.19203
      vertex 5 11.1977 -2.99437
    endloop
  endfacet
  facet normal 1 -1.3491e-06 -1.77611e-07
    outer loop
      vertex 5 9.80797 2.19203
      vertex 5 10.5028 -0.401169
      vertex 5 10.45 0
    endloop
  endfacet
  facet normal 0 0.130526 -0.991445
    outer loop
      vertex 5 11.1977 2.99437
      vertex 13.7822 12 3.1
      vertex 13.7822 11.1977 2.99437
    endloop
  endfacet
  facet normal 0 0.130526 -0.991445
    outer loop
      vertex 13.7822 12 3.1
      vertex 5 11.1977 2.99437
      vertex 5 12 3.1
    endloop
  endfacet
  facet normal 1 -7.97017e-07 1.04929e-07
    outer loop
      vertex 5 14.9944 -0.802339
      vertex 5 15.1 0
      vertex 5 14.192 2.19203
    endloop
  endfacet
  facet normal 1 8.56744e-08 2.06836e-07
    outer loop
      vertex 5 10.45 -2.68468
      vertex 5 11.1977 -2.99437
      vertex 5 9.80797 2.19203
    endloop
  endfacet
  facet normal 0 0.793354 -0.608761
    outer loop
      vertex 13.7822 9.31532 1.55
      vertex 5 9.80797 2.19203
      vertex 13.7822 9.80797 2.19203
    endloop
  endfacet
  facet normal 0 0.793354 -0.608761
    outer loop
      vertex 5 9.80797 2.19203
      vertex 13.7822 9.31532 1.55
      vertex 5 9.31532 1.55
    endloop
  endfacet
  facet normal 0 -0.923879 -0.382684
    outer loop
      vertex 5 14.9944 0.802339
      vertex 13.7822 14.6847 1.55
      vertex 5 14.6847 1.55
    endloop
  endfacet
  facet normal 0 -0.923879 -0.382684
    outer loop
      vertex 13.7822 14.6847 1.55
      vertex 5 14.9944 0.802339
      vertex 13.7822 14.9944 0.802339
    endloop
  endfacet
  facet normal -0 0.130526 0.991445
    outer loop
      vertex 5 12 -3.1
      vertex 13.7822 11.1977 -2.99437
      vertex 13.7822 12 -3.1
    endloop
  endfacet
  facet normal 0 0.130526 0.991445
    outer loop
      vertex 13.7822 11.1977 -2.99437
      vertex 5 12 -3.1
      vertex 5 11.1977 -2.99437
    endloop
  endfacet
  facet normal -0 0.608761 0.793354
    outer loop
      vertex 5 10.45 -2.68468
      vertex 13.7822 9.80797 -2.19203
      vertex 13.7822 10.45 -2.68468
    endloop
  endfacet
  facet normal 0 0.608761 0.793354
    outer loop
      vertex 13.7822 9.80797 -2.19203
      vertex 5 10.45 -2.68468
      vertex 5 9.80797 -2.19203
    endloop
  endfacet
  facet normal 0 0.991445 0.130526
    outer loop
      vertex 13.7822 9.00563 -0.802339
      vertex 5 8.9 0
      vertex 13.7822 8.9 0
    endloop
  endfacet
  facet normal 0 0.991445 0.130526
    outer loop
      vertex 5 8.9 0
      vertex 13.7822 9.00563 -0.802339
      vertex 5 9.00563 -0.802339
    endloop
  endfacet
  facet normal 1 1.66918e-07 2.17532e-07
    outer loop
      vertex 5 9.80797 -2.19203
      vertex 5 10.45 -2.68468
      vertex 5 9.80797 2.19203
    endloop
  endfacet
  facet normal 0 -0.608761 -0.793354
    outer loop
      vertex 5 13.55 2.68468
      vertex 13.7822 14.192 2.19203
      vertex 13.7822 13.55 2.68468
    endloop
  endfacet
  facet normal -0 -0.608761 -0.793354
    outer loop
      vertex 13.7822 14.192 2.19203
      vertex 5 13.55 2.68468
      vertex 5 14.192 2.19203
    endloop
  endfacet
  facet normal 1 -2.83494e-07 2.17532e-07
    outer loop
      vertex 5 14.192 -2.19203
      vertex 5 14.6847 -1.55
      vertex 5 14.192 2.19203
    endloop
  endfacet
  facet normal 1 3.3191e-07 1.37482e-07
    outer loop
      vertex 5 14.192 2.19203
      vertex 5 13.3423 0.775
      vertex 5 13.4737 0.457846
    endloop
  endfacet
  facet normal 1 -8.4048e-07 8.4048e-07
    outer loop
      vertex 5 14.192 2.19203
      vertex 5 13.096 1.09601
      vertex 5 13.3423 0.775
    endloop
  endfacet
  facet normal 1 0 0
    outer loop
      vertex 5 14.192 2.19203
      vertex 5 12.775 1.34234
      vertex 5 13.096 1.09601
    endloop
  endfacet
  facet normal 1 0 0
    outer loop
      vertex 5 14.192 2.19203
      vertex 5 12.4012 1.49718
      vertex 5 12.775 1.34234
    endloop
  endfacet
  facet normal 1 0 0
    outer loop
      vertex 5 14.192 2.19203
      vertex 5 12 1.55
      vertex 5 12.4012 1.49718
    endloop
  endfacet
  facet normal 1 -0 0
    outer loop
      vertex 5 9.80797 2.19203
      vertex 5 12 1.55
      vertex 5 14.192 2.19203
    endloop
  endfacet
  facet normal 1 -3.31909e-07 1.37482e-07
    outer loop
      vertex 5 10.6577 0.775
      vertex 5 9.80797 2.19203
      vertex 5 10.5263 0.457847
    endloop
  endfacet
  facet normal 1 8.4048e-07 8.4048e-07
    outer loop
      vertex 5 10.904 1.09601
      vertex 5 9.80797 2.19203
      vertex 5 10.6577 0.775
    endloop
  endfacet
  facet normal 1 0 0
    outer loop
      vertex 5 11.225 1.34234
      vertex 5 9.80797 2.19203
      vertex 5 10.904 1.09601
    endloop
  endfacet
  facet normal 1 0 0
    outer loop
      vertex 5 11.5988 1.49718
      vertex 5 9.80797 2.19203
      vertex 5 11.225 1.34234
    endloop
  endfacet
  facet normal 1 0 0
    outer loop
      vertex 5 12 1.55
      vertex 5 9.80797 2.19203
      vertex 5 11.5988 1.49718
    endloop
  endfacet
  facet normal 1 -1.37482e-07 3.3191e-07
    outer loop
      vertex 5 12.4012 -1.49718
      vertex 5 12 -3.1
      vertex 5 12.7183 -1.36581
    endloop
  endfacet
  facet normal 1 -4.05009e-08 3.07637e-07
    outer loop
      vertex 5 12 -1.55
      vertex 5 12 -3.1
      vertex 5 12.4012 -1.49718
    endloop
  endfacet
  facet normal 1 4.05008e-08 3.07637e-07
    outer loop
      vertex 5 11.5988 -1.49718
      vertex 5 12 -3.1
      vertex 5 12 -1.55
    endloop
  endfacet
  facet normal 1 1.37482e-07 3.3191e-07
    outer loop
      vertex 5 12 -3.1
      vertex 5 11.5988 -1.49718
      vertex 5 11.2817 -1.36582
    endloop
  endfacet
  facet normal 1 7.97017e-07 1.04929e-07
    outer loop
      vertex 5 8.9 0
      vertex 5 9.00563 -0.802339
      vertex 5 9.80797 2.19203
    endloop
  endfacet
  facet normal 1 0 0
    outer loop
      vertex 5 12.8023 2.99437
      vertex 5 14.192 2.19203
      vertex 5 13.55 2.68468
    endloop
  endfacet
  facet normal 1 0 0
    outer loop
      vertex 5 12 3.1
      vertex 5 14.192 2.19203
      vertex 5 12.8023 2.99437
    endloop
  endfacet
  facet normal 1 -0 0
    outer loop
      vertex 5 11.1977 2.99437
      vertex 5 14.192 2.19203
      vertex 5 12 3.1
    endloop
  endfacet
  facet normal 1 -0 0
    outer loop
      vertex 5 10.45 2.68468
      vertex 5 14.192 2.19203
      vertex 5 11.1977 2.99437
    endloop
  endfacet
  facet normal 1 0 0
    outer loop
      vertex 5 14.192 2.19203
      vertex 5 10.45 2.68468
      vertex 5 9.80797 2.19203
    endloop
  endfacet
  facet normal 1 5.12389e-07 6.74568e-08
    outer loop
      vertex 5 14.192 2.19203
      vertex 5 13.4972 0.401169
      vertex 5 13.55 0
    endloop
  endfacet
  facet normal 1 3.3191e-07 1.37482e-07
    outer loop
      vertex 5 13.4972 0.401169
      vertex 5 14.192 2.19203
      vertex 5 13.4737 0.457846
    endloop
  endfacet
  facet normal 1 1.3491e-06 -1.77611e-07
    outer loop
      vertex 5 13.4972 -0.401169
      vertex 5 14.192 2.19203
      vertex 5 13.55 0
    endloop
  endfacet
  facet normal 1 6.86249e-07 0
    outer loop
      vertex 5 13.4972 -0.401169
      vertex 5 12.8023 -2.99437
      vertex 5 14.192 2.19203
    endloop
  endfacet
  facet normal 1 -1.25717e-06 5.20736e-07
    outer loop
      vertex 5 13.3423 -0.775
      vertex 5 12.8023 -2.99437
      vertex 5 13.4972 -0.401169
    endloop
  endfacet
  facet normal 1 -4.10013e-07 3.14614e-07
    outer loop
      vertex 5 13.096 -1.09601
      vertex 5 12.8023 -2.99437
      vertex 5 13.3423 -0.775
    endloop
  endfacet
  facet normal 1 -2.18702e-07 2.85018e-07
    outer loop
      vertex 5 12.775 -1.34234
      vertex 5 12.8023 -2.99437
      vertex 5 13.096 -1.09601
    endloop
  endfacet
  facet normal 1 -1.18744e-07 2.86672e-07
    outer loop
      vertex 5 12.7183 -1.36581
      vertex 5 12.8023 -2.99437
      vertex 5 12.775 -1.34234
    endloop
  endfacet
  facet normal 1 -3.82875e-08 2.90823e-07
    outer loop
      vertex 5 12.8023 -2.99437
      vertex 5 12.7183 -1.36581
      vertex 5 12 -3.1
    endloop
  endfacet
  facet normal 0 -0.923879 0.382684
    outer loop
      vertex 5 14.6847 -1.55
      vertex 13.7822 14.9944 -0.802339
      vertex 5 14.9944 -0.802339
    endloop
  endfacet
  facet normal 0 -0.923879 0.382684
    outer loop
      vertex 13.7822 14.9944 -0.802339
      vertex 5 14.6847 -1.55
      vertex 13.7822 14.6847 -1.55
    endloop
  endfacet
  facet normal 0 -0.382684 0.923879
    outer loop
      vertex 5 13.55 -2.68468
      vertex 13.7822 12.8023 -2.99437
      vertex 13.7822 13.55 -2.68468
    endloop
  endfacet
  facet normal 0 -0.382684 0.923879
    outer loop
      vertex 13.7822 12.8023 -2.99437
      vertex 5 13.55 -2.68468
      vertex 5 12.8023 -2.99437
    endloop
  endfacet
  facet normal 1 -4.66881e-07 1.93389e-07
    outer loop
      vertex 5 14.6847 -1.55
      vertex 5 14.9944 -0.802339
      vertex 5 14.192 2.19203
    endloop
  endfacet
  facet normal 1 -1.53972e-06 -2.02708e-07
    outer loop
      vertex 5 15.1 0
      vertex 5 14.9944 0.802339
      vertex 5 14.192 2.19203
    endloop
  endfacet
  facet normal 0 -0.793354 0.608761
    outer loop
      vertex 5 14.192 -2.19203
      vertex 13.7822 14.6847 -1.55
      vertex 5 14.6847 -1.55
    endloop
  endfacet
  facet normal 0 -0.793354 0.608761
    outer loop
      vertex 13.7822 14.6847 -1.55
      vertex 5 14.192 -2.19203
      vertex 13.7822 14.192 -2.19203
    endloop
  endfacet
  facet normal 1 -4.20661e-06 -1.74243e-06
    outer loop
      vertex 5 14.9944 0.802339
      vertex 5 14.6847 1.55
      vertex 5 14.192 2.19203
    endloop
  endfacet
  facet normal 0 -0.793354 -0.608761
    outer loop
      vertex 5 14.6847 1.55
      vertex 13.7822 14.192 2.19203
      vertex 5 14.192 2.19203
    endloop
  endfacet
  facet normal 0 -0.793354 -0.608761
    outer loop
      vertex 13.7822 14.192 2.19203
      vertex 5 14.6847 1.55
      vertex 13.7822 14.6847 1.55
    endloop
  endfacet
  facet normal 0 -0.130526 0.991445
    outer loop
      vertex 5 12.8023 -2.99437
      vertex 13.7822 12 -3.1
      vertex 13.7822 12.8023 -2.99437
    endloop
  endfacet
  facet normal 0 -0.130526 0.991445
    outer loop
      vertex 13.7822 12 -3.1
      vertex 5 12.8023 -2.99437
      vertex 5 12 -3.1
    endloop
  endfacet
  facet normal -0 0.382684 0.923879
    outer loop
      vertex 5 11.1977 -2.99437
      vertex 13.7822 10.45 -2.68468
      vertex 13.7822 11.1977 -2.99437
    endloop
  endfacet
  facet normal 0 0.382684 0.923879
    outer loop
      vertex 13.7822 10.45 -2.68468
      vertex 5 11.1977 -2.99437
      vertex 5 10.45 -2.68468
    endloop
  endfacet
  facet normal 1 4.66881e-07 1.93389e-07
    outer loop
      vertex 5 9.00563 -0.802339
      vertex 5 9.31532 -1.55
      vertex 5 9.80797 2.19203
    endloop
  endfacet
  facet normal 1 2.83494e-07 2.17532e-07
    outer loop
      vertex 5 9.31532 -1.55
      vertex 5 9.80797 -2.19203
      vertex 5 9.80797 2.19203
    endloop
  endfacet
  facet normal 0 0.923879 -0.382684
    outer loop
      vertex 13.7822 9.00563 0.802339
      vertex 5 9.31532 1.55
      vertex 13.7822 9.31532 1.55
    endloop
  endfacet
  facet normal 0 0.923879 -0.382684
    outer loop
      vertex 5 9.31532 1.55
      vertex 13.7822 9.00563 0.802339
      vertex 5 9.00563 0.802339
    endloop
  endfacet
  facet normal 1 4.20661e-06 -1.74243e-06
    outer loop
      vertex 5 9.31532 1.55
      vertex 5 9.00563 0.802339
      vertex 5 9.80797 2.19203
    endloop
  endfacet
  facet normal 0 0.608761 -0.793354
    outer loop
      vertex 5 9.80797 2.19203
      vertex 13.7822 10.45 2.68468
      vertex 13.7822 9.80797 2.19203
    endloop
  endfacet
  facet normal 0 0.608761 -0.793354
    outer loop
      vertex 13.7822 10.45 2.68468
      vertex 5 9.80797 2.19203
      vertex 5 10.45 2.68468
    endloop
  endfacet
  facet normal 1 -8.56744e-08 2.06836e-07
    outer loop
      vertex 5 12.8023 -2.99437
      vertex 5 13.55 -2.68468
      vertex 5 14.192 2.19203
    endloop
  endfacet
  facet normal 1 -1.66918e-07 2.17532e-07
    outer loop
      vertex 5 13.55 -2.68468
      vertex 5 14.192 -2.19203
      vertex 5 14.192 2.19203
    endloop
  endfacet
  facet normal 0 -0.991445 -0.130526
    outer loop
      vertex 5 15.1 0
      vertex 13.7822 14.9944 0.802339
      vertex 5 14.9944 0.802339
    endloop
  endfacet
  facet normal 0 -0.991445 -0.130526
    outer loop
      vertex 13.7822 14.9944 0.802339
      vertex 5 15.1 0
      vertex 13.7822 15.1 0
    endloop
  endfacet
  facet normal 0 -0.608761 0.793354
    outer loop
      vertex 5 14.192 -2.19203
      vertex 13.7822 13.55 -2.68468
      vertex 13.7822 14.192 -2.19203
    endloop
  endfacet
  facet normal 0 -0.608761 0.793354
    outer loop
      vertex 13.7822 13.55 -2.68468
      vertex 5 14.192 -2.19203
      vertex 5 13.55 -2.68468
    endloop
  endfacet
  facet normal 0 -0.382684 -0.923879
    outer loop
      vertex 5 12.8023 2.99437
      vertex 13.7822 13.55 2.68468
      vertex 13.7822 12.8023 2.99437
    endloop
  endfacet
  facet normal -0 -0.382684 -0.923879
    outer loop
      vertex 13.7822 13.55 2.68468
      vertex 5 12.8023 2.99437
      vertex 5 13.55 2.68468
    endloop
  endfacet
  facet normal 0 0.793354 0.608761
    outer loop
      vertex 13.7822 9.80797 -2.19203
      vertex 5 9.31532 -1.55
      vertex 13.7822 9.31532 -1.55
    endloop
  endfacet
  facet normal 0 0.793354 0.608761
    outer loop
      vertex 5 9.31532 -1.55
      vertex 13.7822 9.80797 -2.19203
      vertex 5 9.80797 -2.19203
    endloop
  endfacet
  facet normal 0 0.991445 -0.130526
    outer loop
      vertex 13.7822 8.9 0
      vertex 5 9.00563 0.802339
      vertex 13.7822 9.00563 0.802339
    endloop
  endfacet
  facet normal 0 0.991445 -0.130526
    outer loop
      vertex 5 9.00563 0.802339
      vertex 13.7822 8.9 0
      vertex 5 8.9 0
    endloop
  endfacet
  facet normal 1 1.53972e-06 -2.02708e-07
    outer loop
      vertex 5 9.00563 0.802339
      vertex 5 8.9 0
      vertex 5 9.80797 2.19203
    endloop
  endfacet
  facet normal 0 0.382684 -0.923879
    outer loop
      vertex 5 10.45 2.68468
      vertex 13.7822 11.1977 2.99437
      vertex 13.7822 10.45 2.68468
    endloop
  endfacet
  facet normal 0 0.382684 -0.923879
    outer loop
      vertex 13.7822 11.1977 2.99437
      vertex 5 10.45 2.68468
      vertex 5 11.1977 2.99437
    endloop
  endfacet
  facet normal 0 -0.130526 -0.991445
    outer loop
      vertex 5 12 3.1
      vertex 13.7822 12.8023 2.99437
      vertex 13.7822 12 3.1
    endloop
  endfacet
  facet normal -0 -0.130526 -0.991445
    outer loop
      vertex 13.7822 12.8023 2.99437
      vertex 5 12 3.1
      vertex 5 12.8023 2.99437
    endloop
  endfacet
  facet normal 1 -0 0
    outer loop
      vertex 11 25 10
      vertex 11 30 -10
      vertex 11 30 10
    endloop
  endfacet
  facet normal 1 0 0
    outer loop
      vertex 11 30 -10
      vertex 11 25 10
      vertex 11 25 -10
    endloop
  endfacet
  facet normal 0 1 -0
    outer loop
      vertex 13.7822 25 -10
      vertex 11 25 10
      vertex 13.7822 25 10
    endloop
  endfacet
  facet normal 0 1 0
    outer loop
      vertex 11 25 10
      vertex 13.7822 25 -10
      vertex 11 25 -10
    endloop
  endfacet
  facet normal 0 -1 0
    outer loop
      vertex 11 30 -10
      vertex 13.7822 30 10
      vertex 11 30 10
    endloop
  endfacet
  facet normal 0 -1 -0
    outer loop
      vertex 13.7822 30 10
      vertex 11 30 -10
      vertex 13.7822 30 -10
    endloop
  endfacet
endsolid OpenSCAD_Model
