solid OpenSCAD_Model
  facet normal -1 0 0
    outer loop
      vertex 0 9.10141 8.15
      vertex 0 11.1014 4.05
      vertex 0 9.10141 4.05
    endloop
  endfacet
  facet normal -1 0 0
    outer loop
      vertex 0 0 0
      vertex 0 0 8.15
      vertex 0 2 4.05
    endloop
  endfacet
  facet normal -1 0 0
    outer loop
      vertex 0 63.7099 8.15
      vertex 0 65.7099 4.05
      vertex 0 63.7099 4.05
    endloop
  endfacet
  facet normal -1 0 0
    outer loop
      vertex 0 0 0
      vertex 0 2 4.05
      vertex 0 5.5507 2
    endloop
  endfacet
  facet normal -1 0 0
    outer loop
      vertex 0 0 0
      vertex 0 5.5507 2
      vertex 0 93.0141 0
    endloop
  endfacet
  facet normal -1 0 0
    outer loop
      vertex 0 51.0577 2
      vertex 0 93.0141 0
      vertex 0 41.9563 2
    endloop
  endfacet
  facet normal -1 0 0
    outer loop
      vertex 0 18.2028 4.05
      vertex 0 23.7535 2
      vertex 0 14.6521 2
    endloop
  endfacet
  facet normal -1 0 0
    outer loop
      vertex 0 11.1014 4.05
      vertex 0 9.10141 8.15
      vertex 0 11.1014 8.15
    endloop
  endfacet
  facet normal -1 0 0
    outer loop
      vertex 0 60.1592 2
      vertex 0 93.0141 0
      vertex 0 51.0577 2
    endloop
  endfacet
  facet normal -1 0 0
    outer loop
      vertex 0 5.5507 2
      vertex 0 14.6521 2
      vertex 0 93.0141 0
    endloop
  endfacet
  facet normal -1 0 0
    outer loop
      vertex 0 69.2606 2
      vertex 0 93.0141 0
      vertex 0 60.1592 2
    endloop
  endfacet
  facet normal -1 0 0
    outer loop
      vertex 0 81.9127 8.15
      vertex 0 83.9127 4.05
      vertex 0 81.9127 4.05
    endloop
  endfacet
  facet normal -1 0 0
    outer loop
      vertex 0 20.2028 4.05
      vertex 0 18.2028 8.15
      vertex 0 20.2028 8.15
    endloop
  endfacet
  facet normal -1 0 0
    outer loop
      vertex 0 78.362 2
      vertex 0 93.0141 0
      vertex 0 69.2606 2
    endloop
  endfacet
  facet normal -1 0 0
    outer loop
      vertex 0 27.3042 4.05
      vertex 0 32.8549 2
      vertex 0 23.7535 2
    endloop
  endfacet
  facet normal -1 0 0
    outer loop
      vertex 0 78.362 2
      vertex 0 72.8113 4.05
      vertex 0 74.8113 4.05
    endloop
  endfacet
  facet normal -1 0 0
    outer loop
      vertex 0 14.6521 2
      vertex 0 23.7535 2
      vertex 0 93.0141 0
    endloop
  endfacet
  facet normal -1 0 0
    outer loop
      vertex 0 87.4634 2
      vertex 0 93.0141 0
      vertex 0 78.362 2
    endloop
  endfacet
  facet normal -1 0 0
    outer loop
      vertex 0 36.4056 4.05
      vertex 0 41.9563 2
      vertex 0 32.8549 2
    endloop
  endfacet
  facet normal -1 0 0
    outer loop
      vertex 0 29.3042 4.05
      vertex 0 27.3042 8.15
      vertex 0 29.3042 8.15
    endloop
  endfacet
  facet normal -1 0 0
    outer loop
      vertex 0 36.4056 8.15
      vertex 0 38.4056 4.05
      vertex 0 36.4056 4.05
    endloop
  endfacet
  facet normal -1 0 0
    outer loop
      vertex 0 9.10141 4.05
      vertex 0 14.6521 2
      vertex 0 5.5507 2
    endloop
  endfacet
  facet normal -1 0 0
    outer loop
      vertex 0 23.7535 2
      vertex 0 32.8549 2
      vertex 0 93.0141 0
    endloop
  endfacet
  facet normal -1 0 0
    outer loop
      vertex 0 87.4634 2
      vertex 0 81.9127 4.05
      vertex 0 83.9127 4.05
    endloop
  endfacet
  facet normal -1 0 0
    outer loop
      vertex 0 38.4056 4.05
      vertex 0 36.4056 8.15
      vertex 0 38.4056 8.15
    endloop
  endfacet
  facet normal -1 0 0
    outer loop
      vertex 0 32.8549 2
      vertex 0 27.3042 4.05
      vertex 0 29.3042 4.05
    endloop
  endfacet
  facet normal -1 0 0
    outer loop
      vertex 0 45.507 4.05
      vertex 0 51.0577 2
      vertex 0 41.9563 2
    endloop
  endfacet
  facet normal -1 0 0
    outer loop
      vertex 0 51.0577 2
      vertex 0 45.507 4.05
      vertex 0 47.507 4.05
    endloop
  endfacet
  facet normal -1 0 0
    outer loop
      vertex 0 32.8549 2
      vertex 0 41.9563 2
      vertex 0 93.0141 0
    endloop
  endfacet
  facet normal -1 0 0
    outer loop
      vertex 0 14.6521 2
      vertex 0 9.10141 4.05
      vertex 0 11.1014 4.05
    endloop
  endfacet
  facet normal -1 0 0
    outer loop
      vertex 0 54.6084 4.05
      vertex 0 60.1592 2
      vertex 0 51.0577 2
    endloop
  endfacet
  facet normal -1 0 0
    outer loop
      vertex 0 47.507 4.05
      vertex 0 45.507 8.15
      vertex 0 47.507 8.15
    endloop
  endfacet
  facet normal -1 0 0
    outer loop
      vertex 0 18.2028 8.15
      vertex 0 20.2028 4.05
      vertex 0 18.2028 4.05
    endloop
  endfacet
  facet normal -1 0 0
    outer loop
      vertex 0 23.7535 2
      vertex 0 18.2028 4.05
      vertex 0 20.2028 4.05
    endloop
  endfacet
  facet normal -1 0 0
    outer loop
      vertex 0 63.7099 4.05
      vertex 0 69.2606 2
      vertex 0 60.1592 2
    endloop
  endfacet
  facet normal -1 0 0
    outer loop
      vertex 0 27.3042 8.15
      vertex 0 29.3042 4.05
      vertex 0 27.3042 4.05
    endloop
  endfacet
  facet normal -1 0 0
    outer loop
      vertex 0 56.6085 4.05
      vertex 0 54.6084 8.15
      vertex 0 56.6085 8.15
    endloop
  endfacet
  facet normal -1 0 0
    outer loop
      vertex 0 41.9563 2
      vertex 0 36.4056 4.05
      vertex 0 38.4056 4.05
    endloop
  endfacet
  facet normal -1 0 0
    outer loop
      vertex 0 69.2606 2
      vertex 0 63.7099 4.05
      vertex 0 65.7099 4.05
    endloop
  endfacet
  facet normal -1 0 0
    outer loop
      vertex 0 45.507 8.15
      vertex 0 47.507 4.05
      vertex 0 45.507 4.05
    endloop
  endfacet
  facet normal -1 0 0
    outer loop
      vertex 0 65.7099 4.05
      vertex 0 63.7099 8.15
      vertex 0 65.7099 8.15
    endloop
  endfacet
  facet normal -1 0 0
    outer loop
      vertex 0 72.8113 8.15
      vertex 0 74.8113 4.05
      vertex 0 72.8113 4.05
    endloop
  endfacet
  facet normal -1 0 0
    outer loop
      vertex 0 54.6084 8.15
      vertex 0 56.6085 4.05
      vertex 0 54.6084 4.05
    endloop
  endfacet
  facet normal -1 0 0
    outer loop
      vertex 0 60.1592 2
      vertex 0 54.6084 4.05
      vertex 0 56.6085 4.05
    endloop
  endfacet
  facet normal -1 0 0
    outer loop
      vertex 0 81.9127 4.05
      vertex 0 87.4634 2
      vertex 0 78.362 2
    endloop
  endfacet
  facet normal -1 0 0
    outer loop
      vertex 0 74.8113 4.05
      vertex 0 72.8113 8.15
      vertex 0 74.8113 8.15
    endloop
  endfacet
  facet normal -1 0 0
    outer loop
      vertex 0 72.8113 4.05
      vertex 0 78.362 2
      vertex 0 69.2606 2
    endloop
  endfacet
  facet normal -1 0 0
    outer loop
      vertex 0 83.9127 4.05
      vertex 0 81.9127 8.15
      vertex 0 83.9127 8.15
    endloop
  endfacet
  facet normal -1 0 0
    outer loop
      vertex 0 91.0141 4.05
      vertex 0 93.0141 0
      vertex 0 87.4634 2
    endloop
  endfacet
  facet normal -1 0 0
    outer loop
      vertex 0 93.0141 0
      vertex 0 91.0141 4.05
      vertex 0 91.0141 8.15
    endloop
  endfacet
  facet normal -1 0 0
    outer loop
      vertex 0 93.0141 0
      vertex 0 91.0141 8.15
      vertex 0 93.0141 8.15
    endloop
  endfacet
  facet normal -1 0 0
    outer loop
      vertex 0 2 4.05
      vertex 0 0 8.15
      vertex 0 2 8.15
    endloop
  endfacet
  facet normal 0 -1 0
    outer loop
      vertex 5 0 2
      vertex 0 0 0
      vertex 50 0 0
    endloop
  endfacet
  facet normal 0 -1 0
    outer loop
      vertex 5 0 2
      vertex 5 0 8.15
      vertex 0 0 8.15
    endloop
  endfacet
  facet normal 0 -1 0
    outer loop
      vertex 50 0 8.15
      vertex 45 0 8.15
      vertex 50 0 0
    endloop
  endfacet
  facet normal 0 -1 0
    outer loop
      vertex 45 0 8.15
      vertex 45 0 2
      vertex 50 0 0
    endloop
  endfacet
  facet normal 0 -1 0
    outer loop
      vertex 0 0 8.15
      vertex 0 0 0
      vertex 5 0 2
    endloop
  endfacet
  facet normal 0 -1 0
    outer loop
      vertex 45 0 2
      vertex 5 0 2
      vertex 50 0 0
    endloop
  endfacet
  facet normal 0 0 -1
    outer loop
      vertex 0 0 0
      vertex 0 93.0141 0
      vertex 50 0 0
    endloop
  endfacet
  facet normal 0 0 -1
    outer loop
      vertex 50 0 0
      vertex 0 93.0141 0
      vertex 50 93.0141 0
    endloop
  endfacet
  facet normal 0 1 0
    outer loop
      vertex 45 93.0141 2
      vertex 50 93.0141 0
      vertex 5 93.0141 2
    endloop
  endfacet
  facet normal 0 1 0
    outer loop
      vertex 0 93.0141 0
      vertex 0 93.0141 8.15
      vertex 5 93.0141 2
    endloop
  endfacet
  facet normal 0 1 0
    outer loop
      vertex 0 93.0141 0
      vertex 5 93.0141 2
      vertex 50 93.0141 0
    endloop
  endfacet
  facet normal 0 1 0
    outer loop
      vertex 50 93.0141 0
      vertex 45 93.0141 2
      vertex 45 93.0141 8.15
    endloop
  endfacet
  facet normal 0 1 0
    outer loop
      vertex 50 93.0141 0
      vertex 45 93.0141 8.15
      vertex 50 93.0141 8.15
    endloop
  endfacet
  facet normal 0 1 0
    outer loop
      vertex 5 93.0141 2
      vertex 0 93.0141 8.15
      vertex 5 93.0141 8.15
    endloop
  endfacet
  facet normal 0 0 1
    outer loop
      vertex 0 93.0141 8.15
      vertex 0 91.0141 8.15
      vertex 5 91.0141 8.15
    endloop
  endfacet
  facet normal 0 0 1
    outer loop
      vertex 5 93.0141 8.15
      vertex 0 93.0141 8.15
      vertex 5 91.0141 8.15
    endloop
  endfacet
  facet normal 0 -1 0
    outer loop
      vertex 5 91.0141 4.05
      vertex 5 91.0141 8.15
      vertex 0 91.0141 8.15
    endloop
  endfacet
  facet normal 0 -1 0
    outer loop
      vertex 0 91.0141 4.05
      vertex 5 91.0141 4.05
      vertex 0 91.0141 8.15
    endloop
  endfacet
  facet normal -1.92296e-16 -0.5 0.866025
    outer loop
      vertex 5 87.4634 2
      vertex 5 91.0141 4.05
      vertex 0 91.0141 4.05
    endloop
  endfacet
  facet normal -1.92296e-16 -0.5 0.866025
    outer loop
      vertex 0 87.4634 2
      vertex 5 87.4634 2
      vertex 0 91.0141 4.05
    endloop
  endfacet
  facet normal -1.92296e-16 0.5 0.866025
    outer loop
      vertex 5 83.9127 4.05
      vertex 5 87.4634 2
      vertex 0 87.4634 2
    endloop
  endfacet
  facet normal -1.92296e-16 0.5 0.866025
    outer loop
      vertex 0 83.9127 4.05
      vertex 5 83.9127 4.05
      vertex 0 87.4634 2
    endloop
  endfacet
  facet normal 0 1 0
    outer loop
      vertex 5 83.9127 8.15
      vertex 5 83.9127 4.05
      vertex 0 83.9127 8.15
    endloop
  endfacet
  facet normal 0 1 0
    outer loop
      vertex 0 83.9127 8.15
      vertex 5 83.9127 4.05
      vertex 0 83.9127 4.05
    endloop
  endfacet
  facet normal 0 0 1
    outer loop
      vertex 0 83.9127 8.15
      vertex 0 81.9127 8.15
      vertex 5 81.9127 8.15
    endloop
  endfacet
  facet normal 0 0 1
    outer loop
      vertex 5 83.9127 8.15
      vertex 0 83.9127 8.15
      vertex 5 81.9127 8.15
    endloop
  endfacet
  facet normal 0 -1 0
    outer loop
      vertex 5 81.9127 4.05
      vertex 5 81.9127 8.15
      vertex 0 81.9127 8.15
    endloop
  endfacet
  facet normal 0 -1 0
    outer loop
      vertex 0 81.9127 4.05
      vertex 5 81.9127 4.05
      vertex 0 81.9127 8.15
    endloop
  endfacet
  facet normal -1.92296e-16 -0.5 0.866025
    outer loop
      vertex 5 78.362 2
      vertex 5 81.9127 4.05
      vertex 0 81.9127 4.05
    endloop
  endfacet
  facet normal -1.92296e-16 -0.5 0.866025
    outer loop
      vertex 0 78.362 2
      vertex 5 78.362 2
      vertex 0 81.9127 4.05
    endloop
  endfacet
  facet normal -1.92296e-16 0.5 0.866025
    outer loop
      vertex 5 74.8113 4.05
      vertex 5 78.362 2
      vertex 0 78.362 2
    endloop
  endfacet
  facet normal -1.92296e-16 0.5 0.866025
    outer loop
      vertex 0 74.8113 4.05
      vertex 5 74.8113 4.05
      vertex 0 78.362 2
    endloop
  endfacet
  facet normal 0 1 0
    outer loop
      vertex 5 74.8113 8.15
      vertex 5 74.8113 4.05
      vertex 0 74.8113 8.15
    endloop
  endfacet
  facet normal 0 1 0
    outer loop
      vertex 0 74.8113 8.15
      vertex 5 74.8113 4.05
      vertex 0 74.8113 4.05
    endloop
  endfacet
  facet normal 0 0 1
    outer loop
      vertex 0 74.8113 8.15
      vertex 0 72.8113 8.15
      vertex 5 72.8113 8.15
    endloop
  endfacet
  facet normal 0 0 1
    outer loop
      vertex 5 74.8113 8.15
      vertex 0 74.8113 8.15
      vertex 5 72.8113 8.15
    endloop
  endfacet
  facet normal 0 -1 0
    outer loop
      vertex 5 72.8113 4.05
      vertex 5 72.8113 8.15
      vertex 0 72.8113 8.15
    endloop
  endfacet
  facet normal 0 -1 0
    outer loop
      vertex 0 72.8113 4.05
      vertex 5 72.8113 4.05
      vertex 0 72.8113 8.15
    endloop
  endfacet
  facet normal -1.92296e-16 -0.5 0.866025
    outer loop
      vertex 5 69.2606 2
      vertex 5 72.8113 4.05
      vertex 0 72.8113 4.05
    endloop
  endfacet
  facet normal -1.92296e-16 -0.5 0.866025
    outer loop
      vertex 0 69.2606 2
      vertex 5 69.2606 2
      vertex 0 72.8113 4.05
    endloop
  endfacet
  facet normal -1.92296e-16 0.5 0.866025
    outer loop
      vertex 5 65.7099 4.05
      vertex 5 69.2606 2
      vertex 0 69.2606 2
    endloop
  endfacet
  facet normal -1.92296e-16 0.5 0.866025
    outer loop
      vertex 0 65.7099 4.05
      vertex 5 65.7099 4.05
      vertex 0 69.2606 2
    endloop
  endfacet
  facet normal 0 1 0
    outer loop
      vertex 5 65.7099 8.15
      vertex 5 65.7099 4.05
      vertex 0 65.7099 8.15
    endloop
  endfacet
  facet normal 0 1 0
    outer loop
      vertex 0 65.7099 8.15
      vertex 5 65.7099 4.05
      vertex 0 65.7099 4.05
    endloop
  endfacet
  facet normal 0 0 1
    outer loop
      vertex 0 65.7099 8.15
      vertex 0 63.7099 8.15
      vertex 5 63.7099 8.15
    endloop
  endfacet
  facet normal 0 0 1
    outer loop
      vertex 5 65.7099 8.15
      vertex 0 65.7099 8.15
      vertex 5 63.7099 8.15
    endloop
  endfacet
  facet normal 0 -1 0
    outer loop
      vertex 5 63.7099 4.05
      vertex 5 63.7099 8.15
      vertex 0 63.7099 8.15
    endloop
  endfacet
  facet normal 0 -1 0
    outer loop
      vertex 0 63.7099 4.05
      vertex 5 63.7099 4.05
      vertex 0 63.7099 8.15
    endloop
  endfacet
  facet normal -1.92296e-16 -0.5 0.866025
    outer loop
      vertex 5 60.1592 2
      vertex 5 63.7099 4.05
      vertex 0 63.7099 4.05
    endloop
  endfacet
  facet normal -1.92296e-16 -0.5 0.866025
    outer loop
      vertex 0 60.1592 2
      vertex 5 60.1592 2
      vertex 0 63.7099 4.05
    endloop
  endfacet
  facet normal -1.92296e-16 0.5 0.866025
    outer loop
      vertex 5 56.6085 4.05
      vertex 5 60.1592 2
      vertex 0 60.1592 2
    endloop
  endfacet
  facet normal -1.92296e-16 0.5 0.866025
    outer loop
      vertex 0 56.6085 4.05
      vertex 5 56.6085 4.05
      vertex 0 60.1592 2
    endloop
  endfacet
  facet normal 0 1 0
    outer loop
      vertex 5 56.6085 8.15
      vertex 5 56.6085 4.05
      vertex 0 56.6085 8.15
    endloop
  endfacet
  facet normal 0 1 0
    outer loop
      vertex 0 56.6085 8.15
      vertex 5 56.6085 4.05
      vertex 0 56.6085 4.05
    endloop
  endfacet
  facet normal 0 0 1
    outer loop
      vertex 0 56.6085 8.15
      vertex 0 54.6084 8.15
      vertex 5 54.6084 8.15
    endloop
  endfacet
  facet normal 0 0 1
    outer loop
      vertex 5 56.6085 8.15
      vertex 0 56.6085 8.15
      vertex 5 54.6084 8.15
    endloop
  endfacet
  facet normal 0 -1 0
    outer loop
      vertex 5 54.6084 4.05
      vertex 5 54.6084 8.15
      vertex 0 54.6084 8.15
    endloop
  endfacet
  facet normal 0 -1 0
    outer loop
      vertex 0 54.6084 4.05
      vertex 5 54.6084 4.05
      vertex 0 54.6084 8.15
    endloop
  endfacet
  facet normal -1.92296e-16 -0.5 0.866025
    outer loop
      vertex 5 51.0577 2
      vertex 5 54.6084 4.05
      vertex 0 54.6084 4.05
    endloop
  endfacet
  facet normal -1.92296e-16 -0.5 0.866025
    outer loop
      vertex 0 51.0577 2
      vertex 5 51.0577 2
      vertex 0 54.6084 4.05
    endloop
  endfacet
  facet normal -1.92296e-16 0.5 0.866025
    outer loop
      vertex 5 47.507 4.05
      vertex 5 51.0577 2
      vertex 0 51.0577 2
    endloop
  endfacet
  facet normal -1.92296e-16 0.5 0.866025
    outer loop
      vertex 0 47.507 4.05
      vertex 5 47.507 4.05
      vertex 0 51.0577 2
    endloop
  endfacet
  facet normal 0 1 0
    outer loop
      vertex 5 47.507 8.15
      vertex 5 47.507 4.05
      vertex 0 47.507 8.15
    endloop
  endfacet
  facet normal 0 1 0
    outer loop
      vertex 0 47.507 8.15
      vertex 5 47.507 4.05
      vertex 0 47.507 4.05
    endloop
  endfacet
  facet normal 0 0 1
    outer loop
      vertex 0 47.507 8.15
      vertex 0 45.507 8.15
      vertex 5 45.507 8.15
    endloop
  endfacet
  facet normal 0 0 1
    outer loop
      vertex 5 47.507 8.15
      vertex 0 47.507 8.15
      vertex 5 45.507 8.15
    endloop
  endfacet
  facet normal 0 -1 0
    outer loop
      vertex 5 45.507 4.05
      vertex 5 45.507 8.15
      vertex 0 45.507 8.15
    endloop
  endfacet
  facet normal 0 -1 0
    outer loop
      vertex 0 45.507 4.05
      vertex 5 45.507 4.05
      vertex 0 45.507 8.15
    endloop
  endfacet
  facet normal -1.92296e-16 -0.5 0.866025
    outer loop
      vertex 5 41.9563 2
      vertex 5 45.507 4.05
      vertex 0 45.507 4.05
    endloop
  endfacet
  facet normal -1.92296e-16 -0.5 0.866025
    outer loop
      vertex 0 41.9563 2
      vertex 5 41.9563 2
      vertex 0 45.507 4.05
    endloop
  endfacet
  facet normal -1.92296e-16 0.5 0.866025
    outer loop
      vertex 5 38.4056 4.05
      vertex 5 41.9563 2
      vertex 0 41.9563 2
    endloop
  endfacet
  facet normal -1.92296e-16 0.5 0.866025
    outer loop
      vertex 0 38.4056 4.05
      vertex 5 38.4056 4.05
      vertex 0 41.9563 2
    endloop
  endfacet
  facet normal 0 1 0
    outer loop
      vertex 5 38.4056 8.15
      vertex 5 38.4056 4.05
      vertex 0 38.4056 8.15
    endloop
  endfacet
  facet normal 0 1 0
    outer loop
      vertex 0 38.4056 8.15
      vertex 5 38.4056 4.05
      vertex 0 38.4056 4.05
    endloop
  endfacet
  facet normal 0 0 1
    outer loop
      vertex 0 38.4056 8.15
      vertex 0 36.4056 8.15
      vertex 5 36.4056 8.15
    endloop
  endfacet
  facet normal 0 0 1
    outer loop
      vertex 5 38.4056 8.15
      vertex 0 38.4056 8.15
      vertex 5 36.4056 8.15
    endloop
  endfacet
  facet normal 0 -1 0
    outer loop
      vertex 5 36.4056 4.05
      vertex 5 36.4056 8.15
      vertex 0 36.4056 8.15
    endloop
  endfacet
  facet normal 0 -1 0
    outer loop
      vertex 0 36.4056 4.05
      vertex 5 36.4056 4.05
      vertex 0 36.4056 8.15
    endloop
  endfacet
  facet normal -1.92296e-16 -0.5 0.866025
    outer loop
      vertex 5 32.8549 2
      vertex 5 36.4056 4.05
      vertex 0 36.4056 4.05
    endloop
  endfacet
  facet normal -1.92296e-16 -0.5 0.866025
    outer loop
      vertex 0 32.8549 2
      vertex 5 32.8549 2
      vertex 0 36.4056 4.05
    endloop
  endfacet
  facet normal -1.92296e-16 0.5 0.866025
    outer loop
      vertex 5 29.3042 4.05
      vertex 5 32.8549 2
      vertex 0 32.8549 2
    endloop
  endfacet
  facet normal -1.92296e-16 0.5 0.866025
    outer loop
      vertex 0 29.3042 4.05
      vertex 5 29.3042 4.05
      vertex 0 32.8549 2
    endloop
  endfacet
  facet normal 0 1 0
    outer loop
      vertex 5 29.3042 8.15
      vertex 5 29.3042 4.05
      vertex 0 29.3042 8.15
    endloop
  endfacet
  facet normal 0 1 0
    outer loop
      vertex 0 29.3042 8.15
      vertex 5 29.3042 4.05
      vertex 0 29.3042 4.05
    endloop
  endfacet
  facet normal 0 0 1
    outer loop
      vertex 0 29.3042 8.15
      vertex 0 27.3042 8.15
      vertex 5 27.3042 8.15
    endloop
  endfacet
  facet normal 0 0 1
    outer loop
      vertex 5 29.3042 8.15
      vertex 0 29.3042 8.15
      vertex 5 27.3042 8.15
    endloop
  endfacet
  facet normal 0 -1 0
    outer loop
      vertex 5 27.3042 4.05
      vertex 5 27.3042 8.15
      vertex 0 27.3042 8.15
    endloop
  endfacet
  facet normal 0 -1 0
    outer loop
      vertex 0 27.3042 4.05
      vertex 5 27.3042 4.05
      vertex 0 27.3042 8.15
    endloop
  endfacet
  facet normal -1.92296e-16 -0.5 0.866025
    outer loop
      vertex 5 23.7535 2
      vertex 5 27.3042 4.05
      vertex 0 27.3042 4.05
    endloop
  endfacet
  facet normal -1.92296e-16 -0.5 0.866025
    outer loop
      vertex 0 23.7535 2
      vertex 5 23.7535 2
      vertex 0 27.3042 4.05
    endloop
  endfacet
  facet normal -1.92296e-16 0.5 0.866025
    outer loop
      vertex 5 20.2028 4.05
      vertex 5 23.7535 2
      vertex 0 23.7535 2
    endloop
  endfacet
  facet normal -1.92296e-16 0.5 0.866025
    outer loop
      vertex 0 20.2028 4.05
      vertex 5 20.2028 4.05
      vertex 0 23.7535 2
    endloop
  endfacet
  facet normal 0 1 0
    outer loop
      vertex 5 20.2028 8.15
      vertex 5 20.2028 4.05
      vertex 0 20.2028 8.15
    endloop
  endfacet
  facet normal 0 1 0
    outer loop
      vertex 0 20.2028 8.15
      vertex 5 20.2028 4.05
      vertex 0 20.2028 4.05
    endloop
  endfacet
  facet normal 0 0 1
    outer loop
      vertex 0 20.2028 8.15
      vertex 0 18.2028 8.15
      vertex 5 18.2028 8.15
    endloop
  endfacet
  facet normal 0 0 1
    outer loop
      vertex 5 20.2028 8.15
      vertex 0 20.2028 8.15
      vertex 5 18.2028 8.15
    endloop
  endfacet
  facet normal 0 -1 0
    outer loop
      vertex 5 18.2028 4.05
      vertex 5 18.2028 8.15
      vertex 0 18.2028 8.15
    endloop
  endfacet
  facet normal 0 -1 0
    outer loop
      vertex 0 18.2028 4.05
      vertex 5 18.2028 4.05
      vertex 0 18.2028 8.15
    endloop
  endfacet
  facet normal -1.92296e-16 -0.5 0.866025
    outer loop
      vertex 5 14.6521 2
      vertex 5 18.2028 4.05
      vertex 0 18.2028 4.05
    endloop
  endfacet
  facet normal -1.92296e-16 -0.5 0.866025
    outer loop
      vertex 0 14.6521 2
      vertex 5 14.6521 2
      vertex 0 18.2028 4.05
    endloop
  endfacet
  facet normal -1.92296e-16 0.5 0.866025
    outer loop
      vertex 5 11.1014 4.05
      vertex 5 14.6521 2
      vertex 0 14.6521 2
    endloop
  endfacet
  facet normal -1.92296e-16 0.5 0.866025
    outer loop
      vertex 0 11.1014 4.05
      vertex 5 11.1014 4.05
      vertex 0 14.6521 2
    endloop
  endfacet
  facet normal 0 1 0
    outer loop
      vertex 5 11.1014 8.15
      vertex 5 11.1014 4.05
      vertex 0 11.1014 8.15
    endloop
  endfacet
  facet normal 0 1 0
    outer loop
      vertex 0 11.1014 8.15
      vertex 5 11.1014 4.05
      vertex 0 11.1014 4.05
    endloop
  endfacet
  facet normal 0 0 1
    outer loop
      vertex 0 11.1014 8.15
      vertex 0 9.10141 8.15
      vertex 5 9.10141 8.15
    endloop
  endfacet
  facet normal 0 0 1
    outer loop
      vertex 5 11.1014 8.15
      vertex 0 11.1014 8.15
      vertex 5 9.10141 8.15
    endloop
  endfacet
  facet normal 0 -1 0
    outer loop
      vertex 5 9.10141 4.05
      vertex 5 9.10141 8.15
      vertex 0 9.10141 8.15
    endloop
  endfacet
  facet normal 0 -1 0
    outer loop
      vertex 0 9.10141 4.05
      vertex 5 9.10141 4.05
      vertex 0 9.10141 8.15
    endloop
  endfacet
  facet normal -1.92296e-16 -0.5 0.866025
    outer loop
      vertex 5 5.5507 2
      vertex 5 9.10141 4.05
      vertex 0 9.10141 4.05
    endloop
  endfacet
  facet normal -1.92296e-16 -0.5 0.866025
    outer loop
      vertex 0 5.5507 2
      vertex 5 5.5507 2
      vertex 0 9.10141 4.05
    endloop
  endfacet
  facet normal -1.92296e-16 0.5 0.866025
    outer loop
      vertex 5 2 4.05
      vertex 5 5.5507 2
      vertex 0 5.5507 2
    endloop
  endfacet
  facet normal -1.92296e-16 0.5 0.866025
    outer loop
      vertex 0 2 4.05
      vertex 5 2 4.05
      vertex 0 5.5507 2
    endloop
  endfacet
  facet normal 0 1 0
    outer loop
      vertex 5 2 8.15
      vertex 5 2 4.05
      vertex 0 2 8.15
    endloop
  endfacet
  facet normal 0 1 0
    outer loop
      vertex 0 2 8.15
      vertex 5 2 4.05
      vertex 0 2 4.05
    endloop
  endfacet
  facet normal 0 0 1
    outer loop
      vertex 0 2 8.15
      vertex 0 0 8.15
      vertex 5 0 8.15
    endloop
  endfacet
  facet normal 0 0 1
    outer loop
      vertex 5 2 8.15
      vertex 0 2 8.15
      vertex 5 0 8.15
    endloop
  endfacet
  facet normal 1 0 0
    outer loop
      vertex 5 93.0141 2
      vertex 5 93.0141 8.15
      vertex 5 91.0141 8.15
    endloop
  endfacet
  facet normal 1 0 0
    outer loop
      vertex 5 87.4634 2
      vertex 5 93.0141 2
      vertex 5 91.0141 4.05
    endloop
  endfacet
  facet normal 1 0 0
    outer loop
      vertex 5 91.0141 4.05
      vertex 5 93.0141 2
      vertex 5 91.0141 8.15
    endloop
  endfacet
  facet normal 1 0 0
    outer loop
      vertex 5 78.362 2
      vertex 5 93.0141 2
      vertex 5 87.4634 2
    endloop
  endfacet
  facet normal 1 0 0
    outer loop
      vertex 5 81.9127 4.05
      vertex 5 87.4634 2
      vertex 5 83.9127 4.05
    endloop
  endfacet
  facet normal 1 0 0
    outer loop
      vertex 5 81.9127 8.15
      vertex 5 83.9127 4.05
      vertex 5 83.9127 8.15
    endloop
  endfacet
  facet normal 1 0 0
    outer loop
      vertex 5 81.9127 4.05
      vertex 5 83.9127 4.05
      vertex 5 81.9127 8.15
    endloop
  endfacet
  facet normal 1 0 0
    outer loop
      vertex 5 78.362 2
      vertex 5 87.4634 2
      vertex 5 81.9127 4.05
    endloop
  endfacet
  facet normal 1 0 0
    outer loop
      vertex 5 69.2606 2
      vertex 5 93.0141 2
      vertex 5 78.362 2
    endloop
  endfacet
  facet normal 1 0 0
    outer loop
      vertex 5 72.8113 4.05
      vertex 5 78.362 2
      vertex 5 74.8113 4.05
    endloop
  endfacet
  facet normal 1 0 0
    outer loop
      vertex 5 72.8113 8.15
      vertex 5 74.8113 4.05
      vertex 5 74.8113 8.15
    endloop
  endfacet
  facet normal 1 0 0
    outer loop
      vertex 5 72.8113 4.05
      vertex 5 74.8113 4.05
      vertex 5 72.8113 8.15
    endloop
  endfacet
  facet normal 1 0 0
    outer loop
      vertex 5 69.2606 2
      vertex 5 78.362 2
      vertex 5 72.8113 4.05
    endloop
  endfacet
  facet normal 1 0 0
    outer loop
      vertex 5 60.1592 2
      vertex 5 93.0141 2
      vertex 5 69.2606 2
    endloop
  endfacet
  facet normal 1 0 0
    outer loop
      vertex 5 63.7099 4.05
      vertex 5 69.2606 2
      vertex 5 65.7099 4.05
    endloop
  endfacet
  facet normal 1 0 0
    outer loop
      vertex 5 63.7099 8.15
      vertex 5 65.7099 4.05
      vertex 5 65.7099 8.15
    endloop
  endfacet
  facet normal 1 0 0
    outer loop
      vertex 5 63.7099 4.05
      vertex 5 65.7099 4.05
      vertex 5 63.7099 8.15
    endloop
  endfacet
  facet normal 1 0 0
    outer loop
      vertex 5 60.1592 2
      vertex 5 69.2606 2
      vertex 5 63.7099 4.05
    endloop
  endfacet
  facet normal 1 0 0
    outer loop
      vertex 5 51.0577 2
      vertex 5 93.0141 2
      vertex 5 60.1592 2
    endloop
  endfacet
  facet normal 1 0 0
    outer loop
      vertex 5 54.6084 4.05
      vertex 5 60.1592 2
      vertex 5 56.6085 4.05
    endloop
  endfacet
  facet normal 1 0 0
    outer loop
      vertex 5 54.6084 8.15
      vertex 5 56.6085 4.05
      vertex 5 56.6085 8.15
    endloop
  endfacet
  facet normal 1 0 0
    outer loop
      vertex 5 54.6084 4.05
      vertex 5 56.6085 4.05
      vertex 5 54.6084 8.15
    endloop
  endfacet
  facet normal 1 0 0
    outer loop
      vertex 5 51.0577 2
      vertex 5 60.1592 2
      vertex 5 54.6084 4.05
    endloop
  endfacet
  facet normal 1 0 0
    outer loop
      vertex 5 41.9563 2
      vertex 5 93.0141 2
      vertex 5 51.0577 2
    endloop
  endfacet
  facet normal 1 0 0
    outer loop
      vertex 5 45.507 4.05
      vertex 5 51.0577 2
      vertex 5 47.507 4.05
    endloop
  endfacet
  facet normal 1 0 0
    outer loop
      vertex 5 45.507 8.15
      vertex 5 47.507 4.05
      vertex 5 47.507 8.15
    endloop
  endfacet
  facet normal 1 0 0
    outer loop
      vertex 5 45.507 4.05
      vertex 5 47.507 4.05
      vertex 5 45.507 8.15
    endloop
  endfacet
  facet normal 1 0 0
    outer loop
      vertex 5 41.9563 2
      vertex 5 51.0577 2
      vertex 5 45.507 4.05
    endloop
  endfacet
  facet normal 1 0 0
    outer loop
      vertex 5 32.8549 2
      vertex 5 93.0141 2
      vertex 5 41.9563 2
    endloop
  endfacet
  facet normal 1 0 0
    outer loop
      vertex 5 36.4056 4.05
      vertex 5 41.9563 2
      vertex 5 38.4056 4.05
    endloop
  endfacet
  facet normal 1 0 0
    outer loop
      vertex 5 36.4056 8.15
      vertex 5 38.4056 4.05
      vertex 5 38.4056 8.15
    endloop
  endfacet
  facet normal 1 0 0
    outer loop
      vertex 5 36.4056 4.05
      vertex 5 38.4056 4.05
      vertex 5 36.4056 8.15
    endloop
  endfacet
  facet normal 1 0 0
    outer loop
      vertex 5 32.8549 2
      vertex 5 41.9563 2
      vertex 5 36.4056 4.05
    endloop
  endfacet
  facet normal 1 0 0
    outer loop
      vertex 5 23.7535 2
      vertex 5 93.0141 2
      vertex 5 32.8549 2
    endloop
  endfacet
  facet normal 1 0 0
    outer loop
      vertex 5 27.3042 4.05
      vertex 5 32.8549 2
      vertex 5 29.3042 4.05
    endloop
  endfacet
  facet normal 1 0 0
    outer loop
      vertex 5 27.3042 8.15
      vertex 5 29.3042 4.05
      vertex 5 29.3042 8.15
    endloop
  endfacet
  facet normal 1 0 0
    outer loop
      vertex 5 27.3042 4.05
      vertex 5 29.3042 4.05
      vertex 5 27.3042 8.15
    endloop
  endfacet
  facet normal 1 0 0
    outer loop
      vertex 5 23.7535 2
      vertex 5 32.8549 2
      vertex 5 27.3042 4.05
    endloop
  endfacet
  facet normal 1 0 0
    outer loop
      vertex 5 14.6521 2
      vertex 5 93.0141 2
      vertex 5 23.7535 2
    endloop
  endfacet
  facet normal 1 0 0
    outer loop
      vertex 5 18.2028 4.05
      vertex 5 23.7535 2
      vertex 5 20.2028 4.05
    endloop
  endfacet
  facet normal 1 0 0
    outer loop
      vertex 5 18.2028 8.15
      vertex 5 20.2028 4.05
      vertex 5 20.2028 8.15
    endloop
  endfacet
  facet normal 1 0 0
    outer loop
      vertex 5 18.2028 4.05
      vertex 5 20.2028 4.05
      vertex 5 18.2028 8.15
    endloop
  endfacet
  facet normal 1 0 0
    outer loop
      vertex 5 14.6521 2
      vertex 5 23.7535 2
      vertex 5 18.2028 4.05
    endloop
  endfacet
  facet normal 1 0 0
    outer loop
      vertex 5 5.5507 2
      vertex 5 93.0141 2
      vertex 5 14.6521 2
    endloop
  endfacet
  facet normal 1 0 0
    outer loop
      vertex 5 9.10141 4.05
      vertex 5 14.6521 2
      vertex 5 11.1014 4.05
    endloop
  endfacet
  facet normal 1 0 0
    outer loop
      vertex 5 9.10141 8.15
      vertex 5 11.1014 4.05
      vertex 5 11.1014 8.15
    endloop
  endfacet
  facet normal 1 0 0
    outer loop
      vertex 5 9.10141 4.05
      vertex 5 11.1014 4.05
      vertex 5 9.10141 8.15
    endloop
  endfacet
  facet normal 1 0 0
    outer loop
      vertex 5 5.5507 2
      vertex 5 14.6521 2
      vertex 5 9.10141 4.05
    endloop
  endfacet
  facet normal 1 0 0
    outer loop
      vertex 5 0 2
      vertex 5 93.0141 2
      vertex 5 5.5507 2
    endloop
  endfacet
  facet normal 1 0 0
    outer loop
      vertex 5 0 2
      vertex 5 5.5507 2
      vertex 5 2 4.05
    endloop
  endfacet
  facet normal 1 0 0
    outer loop
      vertex 5 0 8.15
      vertex 5 2 4.05
      vertex 5 2 8.15
    endloop
  endfacet
  facet normal 1 0 0
    outer loop
      vertex 5 0 2
      vertex 5 2 4.05
      vertex 5 0 8.15
    endloop
  endfacet
  facet normal 0 0 1
    outer loop
      vertex 45 0 2
      vertex 45 93.0141 2
      vertex 5 93.0141 2
    endloop
  endfacet
  facet normal 0 0 1
    outer loop
      vertex 5 0 2
      vertex 45 0 2
      vertex 5 93.0141 2
    endloop
  endfacet
  facet normal -1 0 0
    outer loop
      vertex 45 2 8.15
      vertex 45 2 4.05
      vertex 45 0 8.15
    endloop
  endfacet
  facet normal -1 0 0
    outer loop
      vertex 45 0 8.15
      vertex 45 2 4.05
      vertex 45 0 2
    endloop
  endfacet
  facet normal -1 0 0
    outer loop
      vertex 45 14.6521 2
      vertex 45 5.5507 2
      vertex 45 11.1014 4.05
    endloop
  endfacet
  facet normal -1 0 0
    outer loop
      vertex 45 11.1014 8.15
      vertex 45 9.10141 4.05
      vertex 45 9.10141 8.15
    endloop
  endfacet
  facet normal -1 0 0
    outer loop
      vertex 45 11.1014 4.05
      vertex 45 9.10141 4.05
      vertex 45 11.1014 8.15
    endloop
  endfacet
  facet normal -1 0 0
    outer loop
      vertex 45 5.5507 2
      vertex 45 9.10141 4.05
      vertex 45 11.1014 4.05
    endloop
  endfacet
  facet normal -1 0 0
    outer loop
      vertex 45 0 2
      vertex 45 5.5507 2
      vertex 45 93.0141 2
    endloop
  endfacet
  facet normal -1 0 0
    outer loop
      vertex 45 23.7535 2
      vertex 45 14.6521 2
      vertex 45 20.2028 4.05
    endloop
  endfacet
  facet normal -1 0 0
    outer loop
      vertex 45 20.2028 8.15
      vertex 45 18.2028 4.05
      vertex 45 18.2028 8.15
    endloop
  endfacet
  facet normal -1 0 0
    outer loop
      vertex 45 20.2028 4.05
      vertex 45 18.2028 4.05
      vertex 45 20.2028 8.15
    endloop
  endfacet
  facet normal -1 0 0
    outer loop
      vertex 45 14.6521 2
      vertex 45 18.2028 4.05
      vertex 45 20.2028 4.05
    endloop
  endfacet
  facet normal -1 0 0
    outer loop
      vertex 45 5.5507 2
      vertex 45 14.6521 2
      vertex 45 93.0141 2
    endloop
  endfacet
  facet normal -1 0 0
    outer loop
      vertex 45 32.8549 2
      vertex 45 23.7535 2
      vertex 45 29.3042 4.05
    endloop
  endfacet
  facet normal -1 0 0
    outer loop
      vertex 45 29.3042 8.15
      vertex 45 27.3042 4.05
      vertex 45 27.3042 8.15
    endloop
  endfacet
  facet normal -1 0 0
    outer loop
      vertex 45 29.3042 4.05
      vertex 45 27.3042 4.05
      vertex 45 29.3042 8.15
    endloop
  endfacet
  facet normal -1 0 0
    outer loop
      vertex 45 23.7535 2
      vertex 45 27.3042 4.05
      vertex 45 29.3042 4.05
    endloop
  endfacet
  facet normal -1 0 0
    outer loop
      vertex 45 14.6521 2
      vertex 45 23.7535 2
      vertex 45 93.0141 2
    endloop
  endfacet
  facet normal -1 0 0
    outer loop
      vertex 45 41.9563 2
      vertex 45 32.8549 2
      vertex 45 38.4056 4.05
    endloop
  endfacet
  facet normal -1 0 0
    outer loop
      vertex 45 38.4056 8.15
      vertex 45 36.4056 4.05
      vertex 45 36.4056 8.15
    endloop
  endfacet
  facet normal -1 0 0
    outer loop
      vertex 45 38.4056 4.05
      vertex 45 36.4056 4.05
      vertex 45 38.4056 8.15
    endloop
  endfacet
  facet normal -1 0 0
    outer loop
      vertex 45 32.8549 2
      vertex 45 36.4056 4.05
      vertex 45 38.4056 4.05
    endloop
  endfacet
  facet normal -1 0 0
    outer loop
      vertex 45 23.7535 2
      vertex 45 32.8549 2
      vertex 45 93.0141 2
    endloop
  endfacet
  facet normal -1 0 0
    outer loop
      vertex 45 51.0577 2
      vertex 45 41.9563 2
      vertex 45 47.507 4.05
    endloop
  endfacet
  facet normal -1 0 0
    outer loop
      vertex 45 47.507 8.15
      vertex 45 45.507 4.05
      vertex 45 45.507 8.15
    endloop
  endfacet
  facet normal -1 0 0
    outer loop
      vertex 45 47.507 4.05
      vertex 45 45.507 4.05
      vertex 45 47.507 8.15
    endloop
  endfacet
  facet normal -1 0 0
    outer loop
      vertex 45 41.9563 2
      vertex 45 45.507 4.05
      vertex 45 47.507 4.05
    endloop
  endfacet
  facet normal -1 0 0
    outer loop
      vertex 45 32.8549 2
      vertex 45 41.9563 2
      vertex 45 93.0141 2
    endloop
  endfacet
  facet normal -1 0 0
    outer loop
      vertex 45 60.1592 2
      vertex 45 51.0577 2
      vertex 45 56.6085 4.05
    endloop
  endfacet
  facet normal -1 0 0
    outer loop
      vertex 45 56.6085 8.15
      vertex 45 54.6084 4.05
      vertex 45 54.6084 8.15
    endloop
  endfacet
  facet normal -1 0 0
    outer loop
      vertex 45 56.6085 4.05
      vertex 45 54.6084 4.05
      vertex 45 56.6085 8.15
    endloop
  endfacet
  facet normal -1 0 0
    outer loop
      vertex 45 51.0577 2
      vertex 45 54.6084 4.05
      vertex 45 56.6085 4.05
    endloop
  endfacet
  facet normal -1 0 0
    outer loop
      vertex 45 41.9563 2
      vertex 45 51.0577 2
      vertex 45 93.0141 2
    endloop
  endfacet
  facet normal -1 0 0
    outer loop
      vertex 45 69.2606 2
      vertex 45 60.1592 2
      vertex 45 65.7099 4.05
    endloop
  endfacet
  facet normal -1 0 0
    outer loop
      vertex 45 65.7099 8.15
      vertex 45 63.7099 4.05
      vertex 45 63.7099 8.15
    endloop
  endfacet
  facet normal -1 0 0
    outer loop
      vertex 45 65.7099 4.05
      vertex 45 63.7099 4.05
      vertex 45 65.7099 8.15
    endloop
  endfacet
  facet normal -1 0 0
    outer loop
      vertex 45 60.1592 2
      vertex 45 63.7099 4.05
      vertex 45 65.7099 4.05
    endloop
  endfacet
  facet normal -1 0 0
    outer loop
      vertex 45 51.0577 2
      vertex 45 60.1592 2
      vertex 45 93.0141 2
    endloop
  endfacet
  facet normal -1 0 0
    outer loop
      vertex 45 78.362 2
      vertex 45 69.2606 2
      vertex 45 74.8113 4.05
    endloop
  endfacet
  facet normal -1 0 0
    outer loop
      vertex 45 74.8113 8.15
      vertex 45 72.8113 4.05
      vertex 45 72.8113 8.15
    endloop
  endfacet
  facet normal -1 0 0
    outer loop
      vertex 45 74.8113 4.05
      vertex 45 72.8113 4.05
      vertex 45 74.8113 8.15
    endloop
  endfacet
  facet normal -1 0 0
    outer loop
      vertex 45 69.2606 2
      vertex 45 72.8113 4.05
      vertex 45 74.8113 4.05
    endloop
  endfacet
  facet normal -1 0 0
    outer loop
      vertex 45 60.1592 2
      vertex 45 69.2606 2
      vertex 45 93.0141 2
    endloop
  endfacet
  facet normal -1 0 0
    outer loop
      vertex 45 87.4634 2
      vertex 45 78.362 2
      vertex 45 83.9127 4.05
    endloop
  endfacet
  facet normal -1 0 0
    outer loop
      vertex 45 83.9127 8.15
      vertex 45 81.9127 4.05
      vertex 45 81.9127 8.15
    endloop
  endfacet
  facet normal -1 0 0
    outer loop
      vertex 45 83.9127 4.05
      vertex 45 81.9127 4.05
      vertex 45 83.9127 8.15
    endloop
  endfacet
  facet normal -1 0 0
    outer loop
      vertex 45 78.362 2
      vertex 45 81.9127 4.05
      vertex 45 83.9127 4.05
    endloop
  endfacet
  facet normal -1 0 0
    outer loop
      vertex 45 69.2606 2
      vertex 45 78.362 2
      vertex 45 93.0141 2
    endloop
  endfacet
  facet normal -1 0 0
    outer loop
      vertex 45 78.362 2
      vertex 45 87.4634 2
      vertex 45 93.0141 2
    endloop
  endfacet
  facet normal -1 0 0
    outer loop
      vertex 45 93.0141 8.15
      vertex 45 91.0141 4.05
      vertex 45 91.0141 8.15
    endloop
  endfacet
  facet normal -1 0 0
    outer loop
      vertex 45 93.0141 2
      vertex 45 91.0141 4.05
      vertex 45 93.0141 8.15
    endloop
  endfacet
  facet normal -1 0 0
    outer loop
      vertex 45 87.4634 2
      vertex 45 91.0141 4.05
      vertex 45 93.0141 2
    endloop
  endfacet
  facet normal -1 0 0
    outer loop
      vertex 45 2 4.05
      vertex 45 5.5507 2
      vertex 45 0 2
    endloop
  endfacet
  facet normal 0 0 1
    outer loop
      vertex 45 2 8.15
      vertex 45 0 8.15
      vertex 50 0 8.15
    endloop
  endfacet
  facet normal 0 0 1
    outer loop
      vertex 50 2 8.15
      vertex 45 2 8.15
      vertex 50 0 8.15
    endloop
  endfacet
  facet normal 1 0 0
    outer loop
      vertex 50 69.2606 2
      vertex 50 0 0
      vertex 50 93.0141 0
    endloop
  endfacet
  facet normal 1 0 0
    outer loop
      vertex 50 93.0141 8.15
      vertex 50 91.0141 8.15
      vertex 50 93.0141 0
    endloop
  endfacet
  facet normal 1 0 0
    outer loop
      vertex 50 91.0141 8.15
      vertex 50 91.0141 4.05
      vertex 50 93.0141 0
    endloop
  endfacet
  facet normal 1 0 0
    outer loop
      vertex 50 81.9127 8.15
      vertex 50 81.9127 4.05
      vertex 50 83.9127 4.05
    endloop
  endfacet
  facet normal 1 0 0
    outer loop
      vertex 50 91.0141 4.05
      vertex 50 87.4634 2
      vertex 50 93.0141 0
    endloop
  endfacet
  facet normal 1 0 0
    outer loop
      vertex 50 72.8113 8.15
      vertex 50 72.8113 4.05
      vertex 50 74.8113 4.05
    endloop
  endfacet
  facet normal 1 0 0
    outer loop
      vertex 50 83.9127 4.05
      vertex 50 81.9127 4.05
      vertex 50 87.4634 2
    endloop
  endfacet
  facet normal 1 0 0
    outer loop
      vertex 50 87.4634 2
      vertex 50 78.362 2
      vertex 50 93.0141 0
    endloop
  endfacet
  facet normal 1 0 0
    outer loop
      vertex 50 54.6084 8.15
      vertex 50 54.6084 4.05
      vertex 50 56.6085 4.05
    endloop
  endfacet
  facet normal 1 0 0
    outer loop
      vertex 50 69.2606 2
      vertex 50 65.7099 4.05
      vertex 50 63.7099 4.05
    endloop
  endfacet
  facet normal 1 0 0
    outer loop
      vertex 50 51.0577 2
      vertex 50 47.507 4.05
      vertex 50 45.507 4.05
    endloop
  endfacet
  facet normal 1 0 0
    outer loop
      vertex 50 60.1592 2
      vertex 50 0 0
      vertex 50 69.2606 2
    endloop
  endfacet
  facet normal 1 0 0
    outer loop
      vertex 50 20.2028 4.05
      vertex 50 20.2028 8.15
      vertex 50 18.2028 8.15
    endloop
  endfacet
  facet normal 1 0 0
    outer loop
      vertex 50 36.4056 8.15
      vertex 50 36.4056 4.05
      vertex 50 38.4056 4.05
    endloop
  endfacet
  facet normal 1 0 0
    outer loop
      vertex 50 54.6084 4.05
      vertex 50 51.0577 2
      vertex 50 60.1592 2
    endloop
  endfacet
  facet normal 1 0 0
    outer loop
      vertex 50 51.0577 2
      vertex 50 0 0
      vertex 50 60.1592 2
    endloop
  endfacet
  facet normal 1 0 0
    outer loop
      vertex 50 18.2028 8.15
      vertex 50 18.2028 4.05
      vertex 50 20.2028 4.05
    endloop
  endfacet
  facet normal 1 0 0
    outer loop
      vertex 50 63.7099 4.05
      vertex 50 60.1592 2
      vertex 50 69.2606 2
    endloop
  endfacet
  facet normal 1 0 0
    outer loop
      vertex 50 41.9563 2
      vertex 50 0 0
      vertex 50 51.0577 2
    endloop
  endfacet
  facet normal 1 0 0
    outer loop
      vertex 50 45.507 4.05
      vertex 50 41.9563 2
      vertex 50 51.0577 2
    endloop
  endfacet
  facet normal 1 0 0
    outer loop
      vertex 50 60.1592 2
      vertex 50 56.6085 4.05
      vertex 50 54.6084 4.05
    endloop
  endfacet
  facet normal 1 0 0
    outer loop
      vertex 50 41.9563 2
      vertex 50 38.4056 4.05
      vertex 50 36.4056 4.05
    endloop
  endfacet
  facet normal 1 0 0
    outer loop
      vertex 50 32.8549 2
      vertex 50 0 0
      vertex 50 41.9563 2
    endloop
  endfacet
  facet normal 1 0 0
    outer loop
      vertex 50 11.1014 4.05
      vertex 50 11.1014 8.15
      vertex 50 9.10141 8.15
    endloop
  endfacet
  facet normal 1 0 0
    outer loop
      vertex 50 36.4056 4.05
      vertex 50 32.8549 2
      vertex 50 41.9563 2
    endloop
  endfacet
  facet normal 1 0 0
    outer loop
      vertex 50 11.1014 4.05
      vertex 50 9.10141 4.05
      vertex 50 14.6521 2
    endloop
  endfacet
  facet normal 1 0 0
    outer loop
      vertex 50 23.7535 2
      vertex 50 0 0
      vertex 50 32.8549 2
    endloop
  endfacet
  facet normal 1 0 0
    outer loop
      vertex 50 32.8549 2
      vertex 50 29.3042 4.05
      vertex 50 27.3042 4.05
    endloop
  endfacet
  facet normal 1 0 0
    outer loop
      vertex 50 27.3042 4.05
      vertex 50 23.7535 2
      vertex 50 32.8549 2
    endloop
  endfacet
  facet normal 1 0 0
    outer loop
      vertex 50 27.3042 8.15
      vertex 50 27.3042 4.05
      vertex 50 29.3042 4.05
    endloop
  endfacet
  facet normal 1 0 0
    outer loop
      vertex 50 18.2028 4.05
      vertex 50 14.6521 2
      vertex 50 23.7535 2
    endloop
  endfacet
  facet normal 1 0 0
    outer loop
      vertex 50 14.6521 2
      vertex 50 0 0
      vertex 50 23.7535 2
    endloop
  endfacet
  facet normal 1 0 0
    outer loop
      vertex 50 18.2028 4.05
      vertex 50 23.7535 2
      vertex 50 20.2028 4.05
    endloop
  endfacet
  facet normal 1 0 0
    outer loop
      vertex 50 45.507 8.15
      vertex 50 45.507 4.05
      vertex 50 47.507 4.05
    endloop
  endfacet
  facet normal 1 0 0
    outer loop
      vertex 50 9.10141 8.15
      vertex 50 9.10141 4.05
      vertex 50 11.1014 4.05
    endloop
  endfacet
  facet normal 1 0 0
    outer loop
      vertex 50 5.5507 2
      vertex 50 0 0
      vertex 50 14.6521 2
    endloop
  endfacet
  facet normal 1 0 0
    outer loop
      vertex 50 5.5507 2
      vertex 50 2 4.05
      vertex 50 0 0
    endloop
  endfacet
  facet normal 1 0 0
    outer loop
      vertex 50 63.7099 8.15
      vertex 50 63.7099 4.05
      vertex 50 65.7099 4.05
    endloop
  endfacet
  facet normal 1 0 0
    outer loop
      vertex 50 9.10141 4.05
      vertex 50 5.5507 2
      vertex 50 14.6521 2
    endloop
  endfacet
  facet normal 1 0 0
    outer loop
      vertex 50 2 4.05
      vertex 50 2 8.15
      vertex 50 0 8.15
    endloop
  endfacet
  facet normal 1 0 0
    outer loop
      vertex 50 0 8.15
      vertex 50 0 0
      vertex 50 2 4.05
    endloop
  endfacet
  facet normal 1 0 0
    outer loop
      vertex 50 29.3042 4.05
      vertex 50 29.3042 8.15
      vertex 50 27.3042 8.15
    endloop
  endfacet
  facet normal 1 0 0
    outer loop
      vertex 50 78.362 2
      vertex 50 74.8113 4.05
      vertex 50 72.8113 4.05
    endloop
  endfacet
  facet normal 1 0 0
    outer loop
      vertex 50 81.9127 4.05
      vertex 50 78.362 2
      vertex 50 87.4634 2
    endloop
  endfacet
  facet normal 1 0 0
    outer loop
      vertex 50 78.362 2
      vertex 50 69.2606 2
      vertex 50 93.0141 0
    endloop
  endfacet
  facet normal 1 0 0
    outer loop
      vertex 50 72.8113 4.05
      vertex 50 69.2606 2
      vertex 50 78.362 2
    endloop
  endfacet
  facet normal 1 0 0
    outer loop
      vertex 50 38.4056 4.05
      vertex 50 38.4056 8.15
      vertex 50 36.4056 8.15
    endloop
  endfacet
  facet normal 1 0 0
    outer loop
      vertex 50 47.507 4.05
      vertex 50 47.507 8.15
      vertex 50 45.507 8.15
    endloop
  endfacet
  facet normal 1 0 0
    outer loop
      vertex 50 56.6085 4.05
      vertex 50 56.6085 8.15
      vertex 50 54.6084 8.15
    endloop
  endfacet
  facet normal 1 0 0
    outer loop
      vertex 50 65.7099 4.05
      vertex 50 65.7099 8.15
      vertex 50 63.7099 8.15
    endloop
  endfacet
  facet normal 1 0 0
    outer loop
      vertex 50 74.8113 4.05
      vertex 50 74.8113 8.15
      vertex 50 72.8113 8.15
    endloop
  endfacet
  facet normal 1 0 0
    outer loop
      vertex 50 83.9127 4.05
      vertex 50 83.9127 8.15
      vertex 50 81.9127 8.15
    endloop
  endfacet
  facet normal 0 0 1
    outer loop
      vertex 45 93.0141 8.15
      vertex 45 91.0141 8.15
      vertex 50 91.0141 8.15
    endloop
  endfacet
  facet normal 0 0 1
    outer loop
      vertex 50 93.0141 8.15
      vertex 45 93.0141 8.15
      vertex 50 91.0141 8.15
    endloop
  endfacet
  facet normal 0 -1 0
    outer loop
      vertex 50 91.0141 4.05
      vertex 50 91.0141 8.15
      vertex 45 91.0141 8.15
    endloop
  endfacet
  facet normal 0 -1 0
    outer loop
      vertex 45 91.0141 4.05
      vertex 50 91.0141 4.05
      vertex 45 91.0141 8.15
    endloop
  endfacet
  facet normal -1.92296e-16 -0.5 0.866025
    outer loop
      vertex 50 87.4634 2
      vertex 50 91.0141 4.05
      vertex 45 91.0141 4.05
    endloop
  endfacet
  facet normal -1.92296e-16 -0.5 0.866025
    outer loop
      vertex 45 87.4634 2
      vertex 50 87.4634 2
      vertex 45 91.0141 4.05
    endloop
  endfacet
  facet normal -1.92296e-16 0.5 0.866025
    outer loop
      vertex 50 83.9127 4.05
      vertex 50 87.4634 2
      vertex 45 87.4634 2
    endloop
  endfacet
  facet normal -1.92296e-16 0.5 0.866025
    outer loop
      vertex 45 83.9127 4.05
      vertex 50 83.9127 4.05
      vertex 45 87.4634 2
    endloop
  endfacet
  facet normal 0 1 0
    outer loop
      vertex 50 83.9127 8.15
      vertex 50 83.9127 4.05
      vertex 45 83.9127 8.15
    endloop
  endfacet
  facet normal 0 1 0
    outer loop
      vertex 45 83.9127 8.15
      vertex 50 83.9127 4.05
      vertex 45 83.9127 4.05
    endloop
  endfacet
  facet normal 0 0 1
    outer loop
      vertex 45 83.9127 8.15
      vertex 45 81.9127 8.15
      vertex 50 81.9127 8.15
    endloop
  endfacet
  facet normal 0 0 1
    outer loop
      vertex 50 83.9127 8.15
      vertex 45 83.9127 8.15
      vertex 50 81.9127 8.15
    endloop
  endfacet
  facet normal 0 -1 0
    outer loop
      vertex 50 81.9127 4.05
      vertex 50 81.9127 8.15
      vertex 45 81.9127 8.15
    endloop
  endfacet
  facet normal 0 -1 0
    outer loop
      vertex 45 81.9127 4.05
      vertex 50 81.9127 4.05
      vertex 45 81.9127 8.15
    endloop
  endfacet
  facet normal -1.92296e-16 -0.5 0.866025
    outer loop
      vertex 50 78.362 2
      vertex 50 81.9127 4.05
      vertex 45 81.9127 4.05
    endloop
  endfacet
  facet normal -1.92296e-16 -0.5 0.866025
    outer loop
      vertex 45 78.362 2
      vertex 50 78.362 2
      vertex 45 81.9127 4.05
    endloop
  endfacet
  facet normal -1.92296e-16 0.5 0.866025
    outer loop
      vertex 50 74.8113 4.05
      vertex 50 78.362 2
      vertex 45 78.362 2
    endloop
  endfacet
  facet normal -1.92296e-16 0.5 0.866025
    outer loop
      vertex 45 74.8113 4.05
      vertex 50 74.8113 4.05
      vertex 45 78.362 2
    endloop
  endfacet
  facet normal 0 1 0
    outer loop
      vertex 50 74.8113 8.15
      vertex 50 74.8113 4.05
      vertex 45 74.8113 8.15
    endloop
  endfacet
  facet normal 0 1 0
    outer loop
      vertex 45 74.8113 8.15
      vertex 50 74.8113 4.05
      vertex 45 74.8113 4.05
    endloop
  endfacet
  facet normal 0 0 1
    outer loop
      vertex 45 74.8113 8.15
      vertex 45 72.8113 8.15
      vertex 50 72.8113 8.15
    endloop
  endfacet
  facet normal 0 0 1
    outer loop
      vertex 50 74.8113 8.15
      vertex 45 74.8113 8.15
      vertex 50 72.8113 8.15
    endloop
  endfacet
  facet normal 0 -1 0
    outer loop
      vertex 50 72.8113 4.05
      vertex 50 72.8113 8.15
      vertex 45 72.8113 8.15
    endloop
  endfacet
  facet normal 0 -1 0
    outer loop
      vertex 45 72.8113 4.05
      vertex 50 72.8113 4.05
      vertex 45 72.8113 8.15
    endloop
  endfacet
  facet normal -1.92296e-16 -0.5 0.866025
    outer loop
      vertex 50 69.2606 2
      vertex 50 72.8113 4.05
      vertex 45 72.8113 4.05
    endloop
  endfacet
  facet normal -1.92296e-16 -0.5 0.866025
    outer loop
      vertex 45 69.2606 2
      vertex 50 69.2606 2
      vertex 45 72.8113 4.05
    endloop
  endfacet
  facet normal -1.92296e-16 0.5 0.866025
    outer loop
      vertex 50 65.7099 4.05
      vertex 50 69.2606 2
      vertex 45 69.2606 2
    endloop
  endfacet
  facet normal -1.92296e-16 0.5 0.866025
    outer loop
      vertex 45 65.7099 4.05
      vertex 50 65.7099 4.05
      vertex 45 69.2606 2
    endloop
  endfacet
  facet normal 0 1 0
    outer loop
      vertex 50 65.7099 8.15
      vertex 50 65.7099 4.05
      vertex 45 65.7099 8.15
    endloop
  endfacet
  facet normal 0 1 0
    outer loop
      vertex 45 65.7099 8.15
      vertex 50 65.7099 4.05
      vertex 45 65.7099 4.05
    endloop
  endfacet
  facet normal 0 0 1
    outer loop
      vertex 45 65.7099 8.15
      vertex 45 63.7099 8.15
      vertex 50 63.7099 8.15
    endloop
  endfacet
  facet normal 0 0 1
    outer loop
      vertex 50 65.7099 8.15
      vertex 45 65.7099 8.15
      vertex 50 63.7099 8.15
    endloop
  endfacet
  facet normal 0 -1 0
    outer loop
      vertex 50 63.7099 4.05
      vertex 50 63.7099 8.15
      vertex 45 63.7099 8.15
    endloop
  endfacet
  facet normal 0 -1 0
    outer loop
      vertex 45 63.7099 4.05
      vertex 50 63.7099 4.05
      vertex 45 63.7099 8.15
    endloop
  endfacet
  facet normal -1.92296e-16 -0.5 0.866025
    outer loop
      vertex 50 60.1592 2
      vertex 50 63.7099 4.05
      vertex 45 63.7099 4.05
    endloop
  endfacet
  facet normal -1.92296e-16 -0.5 0.866025
    outer loop
      vertex 45 60.1592 2
      vertex 50 60.1592 2
      vertex 45 63.7099 4.05
    endloop
  endfacet
  facet normal -1.92296e-16 0.5 0.866025
    outer loop
      vertex 50 56.6085 4.05
      vertex 50 60.1592 2
      vertex 45 60.1592 2
    endloop
  endfacet
  facet normal -1.92296e-16 0.5 0.866025
    outer loop
      vertex 45 56.6085 4.05
      vertex 50 56.6085 4.05
      vertex 45 60.1592 2
    endloop
  endfacet
  facet normal 0 1 0
    outer loop
      vertex 50 56.6085 8.15
      vertex 50 56.6085 4.05
      vertex 45 56.6085 8.15
    endloop
  endfacet
  facet normal 0 1 0
    outer loop
      vertex 45 56.6085 8.15
      vertex 50 56.6085 4.05
      vertex 45 56.6085 4.05
    endloop
  endfacet
  facet normal 0 0 1
    outer loop
      vertex 45 56.6085 8.15
      vertex 45 54.6084 8.15
      vertex 50 54.6084 8.15
    endloop
  endfacet
  facet normal 0 0 1
    outer loop
      vertex 50 56.6085 8.15
      vertex 45 56.6085 8.15
      vertex 50 54.6084 8.15
    endloop
  endfacet
  facet normal 0 -1 0
    outer loop
      vertex 50 54.6084 4.05
      vertex 50 54.6084 8.15
      vertex 45 54.6084 8.15
    endloop
  endfacet
  facet normal 0 -1 0
    outer loop
      vertex 45 54.6084 4.05
      vertex 50 54.6084 4.05
      vertex 45 54.6084 8.15
    endloop
  endfacet
  facet normal -1.92296e-16 -0.5 0.866025
    outer loop
      vertex 50 51.0577 2
      vertex 50 54.6084 4.05
      vertex 45 54.6084 4.05
    endloop
  endfacet
  facet normal -1.92296e-16 -0.5 0.866025
    outer loop
      vertex 45 51.0577 2
      vertex 50 51.0577 2
      vertex 45 54.6084 4.05
    endloop
  endfacet
  facet normal -1.92296e-16 0.5 0.866025
    outer loop
      vertex 50 47.507 4.05
      vertex 50 51.0577 2
      vertex 45 51.0577 2
    endloop
  endfacet
  facet normal -1.92296e-16 0.5 0.866025
    outer loop
      vertex 45 47.507 4.05
      vertex 50 47.507 4.05
      vertex 45 51.0577 2
    endloop
  endfacet
  facet normal 0 1 0
    outer loop
      vertex 50 47.507 8.15
      vertex 50 47.507 4.05
      vertex 45 47.507 8.15
    endloop
  endfacet
  facet normal 0 1 0
    outer loop
      vertex 45 47.507 8.15
      vertex 50 47.507 4.05
      vertex 45 47.507 4.05
    endloop
  endfacet
  facet normal 0 0 1
    outer loop
      vertex 45 47.507 8.15
      vertex 45 45.507 8.15
      vertex 50 45.507 8.15
    endloop
  endfacet
  facet normal 0 0 1
    outer loop
      vertex 50 47.507 8.15
      vertex 45 47.507 8.15
      vertex 50 45.507 8.15
    endloop
  endfacet
  facet normal 0 -1 0
    outer loop
      vertex 50 45.507 4.05
      vertex 50 45.507 8.15
      vertex 45 45.507 8.15
    endloop
  endfacet
  facet normal 0 -1 0
    outer loop
      vertex 45 45.507 4.05
      vertex 50 45.507 4.05
      vertex 45 45.507 8.15
    endloop
  endfacet
  facet normal -1.92296e-16 -0.5 0.866025
    outer loop
      vertex 50 41.9563 2
      vertex 50 45.507 4.05
      vertex 45 45.507 4.05
    endloop
  endfacet
  facet normal -1.92296e-16 -0.5 0.866025
    outer loop
      vertex 45 41.9563 2
      vertex 50 41.9563 2
      vertex 45 45.507 4.05
    endloop
  endfacet
  facet normal -1.92296e-16 0.5 0.866025
    outer loop
      vertex 50 38.4056 4.05
      vertex 50 41.9563 2
      vertex 45 41.9563 2
    endloop
  endfacet
  facet normal -1.92296e-16 0.5 0.866025
    outer loop
      vertex 45 38.4056 4.05
      vertex 50 38.4056 4.05
      vertex 45 41.9563 2
    endloop
  endfacet
  facet normal 0 1 0
    outer loop
      vertex 50 38.4056 8.15
      vertex 50 38.4056 4.05
      vertex 45 38.4056 8.15
    endloop
  endfacet
  facet normal 0 1 0
    outer loop
      vertex 45 38.4056 8.15
      vertex 50 38.4056 4.05
      vertex 45 38.4056 4.05
    endloop
  endfacet
  facet normal 0 0 1
    outer loop
      vertex 45 38.4056 8.15
      vertex 45 36.4056 8.15
      vertex 50 36.4056 8.15
    endloop
  endfacet
  facet normal 0 0 1
    outer loop
      vertex 50 38.4056 8.15
      vertex 45 38.4056 8.15
      vertex 50 36.4056 8.15
    endloop
  endfacet
  facet normal 0 -1 0
    outer loop
      vertex 50 36.4056 4.05
      vertex 50 36.4056 8.15
      vertex 45 36.4056 8.15
    endloop
  endfacet
  facet normal 0 -1 0
    outer loop
      vertex 45 36.4056 4.05
      vertex 50 36.4056 4.05
      vertex 45 36.4056 8.15
    endloop
  endfacet
  facet normal -1.92296e-16 -0.5 0.866025
    outer loop
      vertex 50 32.8549 2
      vertex 50 36.4056 4.05
      vertex 45 36.4056 4.05
    endloop
  endfacet
  facet normal -1.92296e-16 -0.5 0.866025
    outer loop
      vertex 45 32.8549 2
      vertex 50 32.8549 2
      vertex 45 36.4056 4.05
    endloop
  endfacet
  facet normal -1.92296e-16 0.5 0.866025
    outer loop
      vertex 50 29.3042 4.05
      vertex 50 32.8549 2
      vertex 45 32.8549 2
    endloop
  endfacet
  facet normal -1.92296e-16 0.5 0.866025
    outer loop
      vertex 45 29.3042 4.05
      vertex 50 29.3042 4.05
      vertex 45 32.8549 2
    endloop
  endfacet
  facet normal 0 1 0
    outer loop
      vertex 50 29.3042 8.15
      vertex 50 29.3042 4.05
      vertex 45 29.3042 8.15
    endloop
  endfacet
  facet normal 0 1 0
    outer loop
      vertex 45 29.3042 8.15
      vertex 50 29.3042 4.05
      vertex 45 29.3042 4.05
    endloop
  endfacet
  facet normal 0 0 1
    outer loop
      vertex 45 29.3042 8.15
      vertex 45 27.3042 8.15
      vertex 50 27.3042 8.15
    endloop
  endfacet
  facet normal 0 0 1
    outer loop
      vertex 50 29.3042 8.15
      vertex 45 29.3042 8.15
      vertex 50 27.3042 8.15
    endloop
  endfacet
  facet normal 0 -1 0
    outer loop
      vertex 50 27.3042 4.05
      vertex 50 27.3042 8.15
      vertex 45 27.3042 8.15
    endloop
  endfacet
  facet normal 0 -1 0
    outer loop
      vertex 45 27.3042 4.05
      vertex 50 27.3042 4.05
      vertex 45 27.3042 8.15
    endloop
  endfacet
  facet normal -1.92296e-16 -0.5 0.866025
    outer loop
      vertex 50 23.7535 2
      vertex 50 27.3042 4.05
      vertex 45 27.3042 4.05
    endloop
  endfacet
  facet normal -1.92296e-16 -0.5 0.866025
    outer loop
      vertex 45 23.7535 2
      vertex 50 23.7535 2
      vertex 45 27.3042 4.05
    endloop
  endfacet
  facet normal -1.92296e-16 0.5 0.866025
    outer loop
      vertex 50 20.2028 4.05
      vertex 50 23.7535 2
      vertex 45 23.7535 2
    endloop
  endfacet
  facet normal -1.92296e-16 0.5 0.866025
    outer loop
      vertex 45 20.2028 4.05
      vertex 50 20.2028 4.05
      vertex 45 23.7535 2
    endloop
  endfacet
  facet normal 0 1 0
    outer loop
      vertex 50 20.2028 8.15
      vertex 50 20.2028 4.05
      vertex 45 20.2028 8.15
    endloop
  endfacet
  facet normal 0 1 0
    outer loop
      vertex 45 20.2028 8.15
      vertex 50 20.2028 4.05
      vertex 45 20.2028 4.05
    endloop
  endfacet
  facet normal 0 0 1
    outer loop
      vertex 45 20.2028 8.15
      vertex 45 18.2028 8.15
      vertex 50 18.2028 8.15
    endloop
  endfacet
  facet normal 0 0 1
    outer loop
      vertex 50 20.2028 8.15
      vertex 45 20.2028 8.15
      vertex 50 18.2028 8.15
    endloop
  endfacet
  facet normal 0 -1 0
    outer loop
      vertex 50 18.2028 4.05
      vertex 50 18.2028 8.15
      vertex 45 18.2028 8.15
    endloop
  endfacet
  facet normal 0 -1 0
    outer loop
      vertex 45 18.2028 4.05
      vertex 50 18.2028 4.05
      vertex 45 18.2028 8.15
    endloop
  endfacet
  facet normal -1.92296e-16 -0.5 0.866025
    outer loop
      vertex 50 14.6521 2
      vertex 50 18.2028 4.05
      vertex 45 18.2028 4.05
    endloop
  endfacet
  facet normal -1.92296e-16 -0.5 0.866025
    outer loop
      vertex 45 14.6521 2
      vertex 50 14.6521 2
      vertex 45 18.2028 4.05
    endloop
  endfacet
  facet normal -1.92296e-16 0.5 0.866025
    outer loop
      vertex 50 11.1014 4.05
      vertex 50 14.6521 2
      vertex 45 14.6521 2
    endloop
  endfacet
  facet normal -1.92296e-16 0.5 0.866025
    outer loop
      vertex 45 11.1014 4.05
      vertex 50 11.1014 4.05
      vertex 45 14.6521 2
    endloop
  endfacet
  facet normal 0 1 0
    outer loop
      vertex 50 11.1014 8.15
      vertex 50 11.1014 4.05
      vertex 45 11.1014 8.15
    endloop
  endfacet
  facet normal 0 1 0
    outer loop
      vertex 45 11.1014 8.15
      vertex 50 11.1014 4.05
      vertex 45 11.1014 4.05
    endloop
  endfacet
  facet normal 0 0 1
    outer loop
      vertex 45 11.1014 8.15
      vertex 45 9.10141 8.15
      vertex 50 9.10141 8.15
    endloop
  endfacet
  facet normal 0 0 1
    outer loop
      vertex 50 11.1014 8.15
      vertex 45 11.1014 8.15
      vertex 50 9.10141 8.15
    endloop
  endfacet
  facet normal 0 -1 0
    outer loop
      vertex 50 9.10141 4.05
      vertex 50 9.10141 8.15
      vertex 45 9.10141 8.15
    endloop
  endfacet
  facet normal 0 -1 0
    outer loop
      vertex 45 9.10141 4.05
      vertex 50 9.10141 4.05
      vertex 45 9.10141 8.15
    endloop
  endfacet
  facet normal -1.92296e-16 -0.5 0.866025
    outer loop
      vertex 50 5.5507 2
      vertex 50 9.10141 4.05
      vertex 45 9.10141 4.05
    endloop
  endfacet
  facet normal -1.92296e-16 -0.5 0.866025
    outer loop
      vertex 45 5.5507 2
      vertex 50 5.5507 2
      vertex 45 9.10141 4.05
    endloop
  endfacet
  facet normal -1.92296e-16 0.5 0.866025
    outer loop
      vertex 50 2 4.05
      vertex 50 5.5507 2
      vertex 45 5.5507 2
    endloop
  endfacet
  facet normal -1.92296e-16 0.5 0.866025
    outer loop
      vertex 45 2 4.05
      vertex 50 2 4.05
      vertex 45 5.5507 2
    endloop
  endfacet
  facet normal 0 1 0
    outer loop
      vertex 50 2 8.15
      vertex 50 2 4.05
      vertex 45 2 8.15
    endloop
  endfacet
  facet normal 0 1 0
    outer loop
      vertex 45 2 8.15
      vertex 50 2 4.05
      vertex 45 2 4.05
    endloop
  endfacet
endsolid OpenSCAD_Model
