solid OpenSCAD_Model
  facet normal -1 0 0
    outer loop
      vertex -11.5 10.0557 0
      vertex -11.5 10 0
      vertex -11.5 10 10
    endloop
  endfacet
  facet normal -1 -0 -0
    outer loop
      vertex -11.5 10.0557 10
      vertex -11.5 10.0557 0
      vertex -11.5 10 10
    endloop
  endfacet
  facet normal 0 0 1
    outer loop
      vertex 0.5 2.11744 10
      vertex -5.5 11.5977 10
      vertex -7.7918 10.5773 10
    endloop
  endfacet
  facet normal 0 0 1
    outer loop
      vertex 4.71 10.318 10
      vertex 4.07 10.888 10
      vertex 4.74 10.06 10
    endloop
  endfacet
  facet normal -0 -0 1
    outer loop
      vertex 0.548 0.802 10
      vertex 0.596 0.638 10
      vertex 0.53 0.972 10
    endloop
  endfacet
  facet normal -0 -0 1
    outer loop
      vertex 0.596 0.638 10
      vertex 0.672 0.484 10
      vertex 0.53 0.972 10
    endloop
  endfacet
  facet normal 0 0 1
    outer loop
      vertex 0.672 0.484 10
      vertex 0.772 0.346 10
      vertex 0.896 0.226 10
    endloop
  endfacet
  facet normal -0 -0 1
    outer loop
      vertex 0.672 0.484 10
      vertex 0.896 0.226 10
      vertex 0.53 0.972 10
    endloop
  endfacet
  facet normal 0 0 1
    outer loop
      vertex 0.896 0.226 10
      vertex 1.036 0.128 10
      vertex 1.192 0.058 10
    endloop
  endfacet
  facet normal 0 0 1
    outer loop
      vertex 1.528 0 10
      vertex 1.192 0.058 10
      vertex 1.358 0.014 10
    endloop
  endfacet
  facet normal 0 0 1
    outer loop
      vertex 0.896 0.226 10
      vertex 1.192 0.058 10
      vertex 1.528 0 10
    endloop
  endfacet
  facet normal -0 -0 1
    outer loop
      vertex 0.896 0.226 10
      vertex 1.528 0 10
      vertex 0.53 0.972 10
    endloop
  endfacet
  facet normal 0 0 1
    outer loop
      vertex 1.528 0 10
      vertex 2.528 0 10
      vertex 3.528 0.998 10
    endloop
  endfacet
  facet normal 0 0 1
    outer loop
      vertex 2.528 0 10
      vertex 3.116 0.19 10
      vertex 3.528 0.998 10
    endloop
  endfacet
  facet normal 0 0 1
    outer loop
      vertex 2.686 0.012 10
      vertex 2.838 0.048 10
      vertex 2.982 0.108 10
    endloop
  endfacet
  facet normal 0 -0 1
    outer loop
      vertex 2.686 0.012 10
      vertex 2.982 0.108 10
      vertex 2.528 0 10
    endloop
  endfacet
  facet normal 0 -0 1
    outer loop
      vertex 2.982 0.108 10
      vertex 3.116 0.19 10
      vertex 2.528 0 10
    endloop
  endfacet
  facet normal 0 0 1
    outer loop
      vertex 3.116 0.19 10
      vertex 3.236 0.292 10
      vertex 3.338 0.412 10
    endloop
  endfacet
  facet normal 0 0 1
    outer loop
      vertex 23.188 10.888 10
      vertex 22.518 10.06 10
      vertex 22.534 9.932 10
    endloop
  endfacet
  facet normal 0 0 1
    outer loop
      vertex 3.116 0.19 10
      vertex 3.338 0.412 10
      vertex 3.528 0.998 10
    endloop
  endfacet
  facet normal 0 0 1
    outer loop
      vertex 3.528 0.998 10
      vertex 3.42 0.546 10
      vertex 3.516 0.842 10
    endloop
  endfacet
  facet normal 0 0 1
    outer loop
      vertex 3.42 0.546 10
      vertex 3.48 0.69 10
      vertex 3.516 0.842 10
    endloop
  endfacet
  facet normal 0 0 1
    outer loop
      vertex 3.338 0.412 10
      vertex 3.42 0.546 10
      vertex 3.528 0.998 10
    endloop
  endfacet
  facet normal 0 -0 1
    outer loop
      vertex 1.528 0 10
      vertex 3.528 0.998 10
      vertex 0.53 0.972 10
    endloop
  endfacet
  facet normal 0 0 1
    outer loop
      vertex 3.528 0.998 10
      vertex 0.5 2.11744 10
      vertex 0.53 0.972 10
    endloop
  endfacet
  facet normal -0 0 1
    outer loop
      vertex 22.834 10.738 10
      vertex 22.738 10.652 10
      vertex 22.944 10.806 10
    endloop
  endfacet
  facet normal 0 0 1
    outer loop
      vertex 3.528 4.312 10
      vertex 0.5 2.11744 10
      vertex 3.528 0.998 10
    endloop
  endfacet
  facet normal 0 0 1
    outer loop
      vertex 4.71 10.318 10
      vertex 4.74 10.06 10
      vertex 4.736 10.19 10
    endloop
  endfacet
  facet normal 0 0 1
    outer loop
      vertex 4.314 10.806 10
      vertex 4.52 10.652 10
      vertex 4.424 10.738 10
    endloop
  endfacet
  facet normal 0 0 1
    outer loop
      vertex 4.602 10.55 10
      vertex 4.71 10.318 10
      vertex 4.666 10.438 10
    endloop
  endfacet
  facet normal 0 0 1
    outer loop
      vertex 4.602 10.55 10
      vertex 4.52 10.652 10
      vertex 4.314 10.806 10
    endloop
  endfacet
  facet normal 0 0 1
    outer loop
      vertex 4.602 10.55 10
      vertex 4.314 10.806 10
      vertex 4.71 10.318 10
    endloop
  endfacet
  facet normal 0 0 1
    outer loop
      vertex 4.314 10.806 10
      vertex 4.07 10.888 10
      vertex 4.71 10.318 10
    endloop
  endfacet
  facet normal 0 0 1
    outer loop
      vertex 4.196 10.858 10
      vertex 4.07 10.888 10
      vertex 4.314 10.806 10
    endloop
  endfacet
  facet normal 0 0 1
    outer loop
      vertex 4.07 10.888 10
      vertex 4.724 9.932 10
      vertex 4.74 10.06 10
    endloop
  endfacet
  facet normal 0 0 1
    outer loop
      vertex 3.94 10.9 10
      vertex 4.724 9.932 10
      vertex 4.07 10.888 10
    endloop
  endfacet
  facet normal -0 0 1
    outer loop
      vertex 3.528 10.9 10
      vertex 4.724 9.932 10
      vertex 3.94 10.9 10
    endloop
  endfacet
  facet normal 0 0 1
    outer loop
      vertex 3.528 4.312 10
      vertex 4.724 9.932 10
      vertex 3.528 10.9 10
    endloop
  endfacet
  facet normal 0 -0 1
    outer loop
      vertex 3.528 4.312 10
      vertex 3.528 10.9 10
      vertex 0.5 2.11744 10
    endloop
  endfacet
  facet normal 0 -0 1
    outer loop
      vertex 3.528 10.9 10
      vertex 3.528 18.1 10
      vertex -0.537455 17.1092 10
    endloop
  endfacet
  facet normal -0 0 1
    outer loop
      vertex 0.554 22.13 10
      vertex 0.416 22.046 10
      vertex 0.704 22.19 10
    endloop
  endfacet
  facet normal -0 0 1
    outer loop
      vertex 10.428 23.044 10
      vertex 11.528 17.822 10
      vertex 13.628 23.1 10
    endloop
  endfacet
  facet normal 0 0 1
    outer loop
      vertex 27.214 21.528 10
      vertex 27.07 21.818 10
      vertex 26.842 22.046 10
    endloop
  endfacet
  facet normal -0 0 1
    outer loop
      vertex 22.738 10.652 10
      vertex 22.656 10.55 10
      vertex 22.944 10.806 10
    endloop
  endfacet
  facet normal 0 0 1
    outer loop
      vertex 15.73 17.822 10
      vertex 13.628 23.1 10
      vertex 14.686 17.654 10
    endloop
  endfacet
  facet normal 0 0 1
    outer loop
      vertex 13.628 23.1 10
      vertex 13.628 17.6 10
      vertex 14.686 17.654 10
    endloop
  endfacet
  facet normal 0 0 1
    outer loop
      vertex 16.83 23.044 10
      vertex 15.73 17.822 10
      vertex 16.752 18.1 10
    endloop
  endfacet
  facet normal 0 0 1
    outer loop
      vertex 23.188 10.888 10
      vertex 23.062 10.858 10
      vertex 22.944 10.806 10
    endloop
  endfacet
  facet normal 0 0 1
    outer loop
      vertex 16.83 23.044 10
      vertex 16.752 18.1 10
      vertex 20.026 22.88 10
    endloop
  endfacet
  facet normal 0 0 1
    outer loop
      vertex 13.628 23.1 10
      vertex 15.73 17.822 10
      vertex 16.83 23.044 10
    endloop
  endfacet
  facet normal 0 0 1
    outer loop
      vertex 27.154 21.68 10
      vertex 27.07 21.818 10
      vertex 27.214 21.528 10
    endloop
  endfacet
  facet normal -0 0 1
    outer loop
      vertex 22.592 10.438 10
      vertex 22.548 10.318 10
      vertex 22.656 10.55 10
    endloop
  endfacet
  facet normal 0 0 1
    outer loop
      vertex 27.258 21.208 10
      vertex 27.25 21.37 10
      vertex 27.214 21.528 10
    endloop
  endfacet
  facet normal 0 0 1
    outer loop
      vertex 22.518 10.06 10
      vertex 22.548 10.318 10
      vertex 22.522 10.19 10
    endloop
  endfacet
  facet normal 0 0 1
    outer loop
      vertex 23.92 0.412 10
      vertex 24.022 0.292 10
      vertex 24.142 0.19 10
    endloop
  endfacet
  facet normal 0 0 1
    outer loop
      vertex 22.548 10.318 10
      vertex 22.944 10.806 10
      vertex 22.656 10.55 10
    endloop
  endfacet
  facet normal 0 0 1
    outer loop
      vertex 23.188 10.888 10
      vertex 22.944 10.806 10
      vertex 22.548 10.318 10
    endloop
  endfacet
  facet normal 0 0 1
    outer loop
      vertex 23.188 10.888 10
      vertex 22.548 10.318 10
      vertex 22.518 10.06 10
    endloop
  endfacet
  facet normal -0 0 1
    outer loop
      vertex 23.188 10.888 10
      vertex 22.534 9.932 10
      vertex 23.316 10.9 10
    endloop
  endfacet
  facet normal 0 0 1
    outer loop
      vertex 22.534 9.932 10
      vertex 23.728 10.9 10
      vertex 23.316 10.9 10
    endloop
  endfacet
  facet normal 0 -0 1
    outer loop
      vertex 23.728 4.312 10
      vertex 23.728 10.9 10
      vertex 22.534 9.932 10
    endloop
  endfacet
  facet normal 0 0 1
    outer loop
      vertex 23.92 0.412 10
      vertex 23.742 0.842 10
      vertex 23.838 0.546 10
    endloop
  endfacet
  facet normal 0 0 1
    outer loop
      vertex 23.742 0.842 10
      vertex 23.778 0.69 10
      vertex 23.838 0.546 10
    endloop
  endfacet
  facet normal 0 0 1
    outer loop
      vertex 24.728 0 10
      vertex 24.142 0.19 10
      vertex 24.572 0.012 10
    endloop
  endfacet
  facet normal 0 0 1
    outer loop
      vertex 24.142 0.19 10
      vertex 24.274 0.108 10
      vertex 24.42 0.048 10
    endloop
  endfacet
  facet normal 0 0 1
    outer loop
      vertex 24.142 0.19 10
      vertex 24.42 0.048 10
      vertex 24.572 0.012 10
    endloop
  endfacet
  facet normal 0 0 1
    outer loop
      vertex 23.92 0.412 10
      vertex 24.142 0.19 10
      vertex 24.728 0 10
    endloop
  endfacet
  facet normal -0 -0 1
    outer loop
      vertex 23.92 0.412 10
      vertex 24.728 0 10
      vertex 23.742 0.842 10
    endloop
  endfacet
  facet normal 0 0 1
    outer loop
      vertex 24.728 0 10
      vertex 23.728 0.998 10
      vertex 23.742 0.842 10
    endloop
  endfacet
  facet normal 0 0 1
    outer loop
      vertex 25.728 0 10
      vertex 23.728 0.998 10
      vertex 24.728 0 10
    endloop
  endfacet
  facet normal 0 -0 1
    outer loop
      vertex 25.9 0.014 10
      vertex 26.066 0.058 10
      vertex 25.728 0 10
    endloop
  endfacet
  facet normal 0 0 1
    outer loop
      vertex 26.066 0.058 10
      vertex 26.222 0.128 10
      vertex 26.362 0.226 10
    endloop
  endfacet
  facet normal 0 -0 1
    outer loop
      vertex 26.066 0.058 10
      vertex 26.362 0.226 10
      vertex 25.728 0 10
    endloop
  endfacet
  facet normal 0 0 1
    outer loop
      vertex 26.362 0.226 10
      vertex 26.486 0.346 10
      vertex 26.586 0.484 10
    endloop
  endfacet
  facet normal 0 0 1
    outer loop
      vertex 26.728 0.972 10
      vertex 26.586 0.484 10
      vertex 26.662 0.638 10
    endloop
  endfacet
  facet normal 0 0 1
    outer loop
      vertex 26.728 0.972 10
      vertex 26.662 0.638 10
      vertex 26.71 0.802 10
    endloop
  endfacet
  facet normal 0 0 1
    outer loop
      vertex 26.362 0.226 10
      vertex 26.586 0.484 10
      vertex 26.728 0.972 10
    endloop
  endfacet
  facet normal 0 -0 1
    outer loop
      vertex 26.362 0.226 10
      vertex 26.728 0.972 10
      vertex 25.728 0 10
    endloop
  endfacet
  facet normal 0 0 1
    outer loop
      vertex 26.728 0.972 10
      vertex 23.728 0.998 10
      vertex 25.728 0 10
    endloop
  endfacet
  facet normal 0 0 1
    outer loop
      vertex 23.728 4.312 10
      vertex 23.728 0.998 10
      vertex 26.728 0.972 10
    endloop
  endfacet
  facet normal -0 0 1
    outer loop
      vertex 23.728 4.312 10
      vertex 26.728 0.972 10
      vertex 23.728 10.9 10
    endloop
  endfacet
  facet normal 0 -0 1
    outer loop
      vertex 26.728 0.972 10
      vertex 27.258 21.208 10
      vertex 23.728 10.9 10
    endloop
  endfacet
  facet normal 0 0 1
    outer loop
      vertex 27.258 21.208 10
      vertex 23.728 18.1 10
      vertex 23.728 10.9 10
    endloop
  endfacet
  facet normal 0 0 1
    outer loop
      vertex 27.07 21.818 10
      vertex 26.966 21.942 10
      vertex 26.842 22.046 10
    endloop
  endfacet
  facet normal 0 0 1
    outer loop
      vertex 27.214 21.528 10
      vertex 26.842 22.046 10
      vertex 27.258 21.208 10
    endloop
  endfacet
  facet normal 0 0 1
    outer loop
      vertex 26.842 22.046 10
      vertex 26.704 22.13 10
      vertex 26.554 22.19 10
    endloop
  endfacet
  facet normal 0 0 1
    outer loop
      vertex 26.842 22.046 10
      vertex 26.554 22.19 10
      vertex 27.258 21.208 10
    endloop
  endfacet
  facet normal 0 0 1
    outer loop
      vertex 26.554 22.19 10
      vertex 26.396 22.226 10
      vertex 27.258 21.208 10
    endloop
  endfacet
  facet normal 0 0 1
    outer loop
      vertex 26.396 22.226 10
      vertex 23.728 18.1 10
      vertex 27.258 21.208 10
    endloop
  endfacet
  facet normal 0 0 1
    outer loop
      vertex 23.216 22.608 10
      vertex 23.728 18.1 10
      vertex 26.396 22.226 10
    endloop
  endfacet
  facet normal 0 0 1
    outer loop
      vertex 20.026 22.88 10
      vertex 23.728 18.1 10
      vertex 23.216 22.608 10
    endloop
  endfacet
  facet normal 0 0 1
    outer loop
      vertex 16.752 18.1 10
      vertex 23.728 18.1 10
      vertex 20.026 22.88 10
    endloop
  endfacet
  facet normal 0 0 1
    outer loop
      vertex 13.628 23.1 10
      vertex 12.572 17.654 10
      vertex 13.628 17.6 10
    endloop
  endfacet
  facet normal -0 0 1
    outer loop
      vertex 11.528 17.822 10
      vertex 12.572 17.654 10
      vertex 13.628 23.1 10
    endloop
  endfacet
  facet normal -0 -0 1
    outer loop
      vertex 10.506 18.1 10
      vertex 11.528 17.822 10
      vertex 10.428 23.044 10
    endloop
  endfacet
  facet normal 0 0 1
    outer loop
      vertex 10.506 18.1 10
      vertex 10.428 23.044 10
      vertex 7.23 22.88 10
    endloop
  endfacet
  facet normal 0 0 1
    outer loop
      vertex 10.506 18.1 10
      vertex 7.23 22.88 10
      vertex 3.528 18.1 10
    endloop
  endfacet
  facet normal 0 0 1
    outer loop
      vertex 7.23 22.88 10
      vertex 4.042 22.608 10
      vertex 3.528 18.1 10
    endloop
  endfacet
  facet normal 0 0 1
    outer loop
      vertex 4.042 22.608 10
      vertex 0.862 22.226 10
      vertex 3.528 18.1 10
    endloop
  endfacet
  facet normal 0 0 1
    outer loop
      vertex 0.416 22.046 10
      vertex 0.104 21.68 10
      vertex 0.044 21.528 10
    endloop
  endfacet
  facet normal 0 0 1
    outer loop
      vertex 0.292 21.942 10
      vertex 0.186 21.818 10
      vertex 0.104 21.68 10
    endloop
  endfacet
  facet normal -0 0 1
    outer loop
      vertex 0.292 21.942 10
      vertex 0.104 21.68 10
      vertex 0.416 22.046 10
    endloop
  endfacet
  facet normal 0 0 1
    outer loop
      vertex 0.416 22.046 10
      vertex 0.044 21.528 10
      vertex 0 21.208 10
    endloop
  endfacet
  facet normal -0 0 1
    outer loop
      vertex 0.416 22.046 10
      vertex 0 21.208 10
      vertex 0.704 22.19 10
    endloop
  endfacet
  facet normal -0 0 1
    outer loop
      vertex 0.008 21.37 10
      vertex 0 21.208 10
      vertex 0.044 21.528 10
    endloop
  endfacet
  facet normal 0 0 1
    outer loop
      vertex 0 21.208 10
      vertex 0.862 22.226 10
      vertex 0.704 22.19 10
    endloop
  endfacet
  facet normal 0 0 1
    outer loop
      vertex 3.528 18.1 10
      vertex 0.862 22.226 10
      vertex 0 21.208 10
    endloop
  endfacet
  facet normal 0 0 1
    outer loop
      vertex -24.025 5 10
      vertex -24.5 10 10
      vertex -24.5 0 10
    endloop
  endfacet
  facet normal 0 0 1
    outer loop
      vertex 3.528 18.1 10
      vertex 0 21.208 10
      vertex 0.0592534 18.9456 10
    endloop
  endfacet
  facet normal 0 0 1
    outer loop
      vertex 3.528 18.1 10
      vertex 0.0592534 18.9456 10
      vertex -0.537455 17.1092 10
    endloop
  endfacet
  facet normal 0 0 1
    outer loop
      vertex 3.528 10.9 10
      vertex -0.537455 17.1092 10
      vertex -1.7918 14.9366 10
    endloop
  endfacet
  facet normal 0 0 1
    outer loop
      vertex 3.528 10.9 10
      vertex -1.7918 14.9366 10
      vertex -3.47043 13.0723 10
    endloop
  endfacet
  facet normal 0 0 1
    outer loop
      vertex 3.528 10.9 10
      vertex -3.47043 13.0723 10
      vertex -5.5 11.5977 10
    endloop
  endfacet
  facet normal -0 0 1
    outer loop
      vertex -10.2457 10.0557 10
      vertex 0.5 2.11744 10
      vertex -7.7918 10.5773 10
    endloop
  endfacet
  facet normal 0 -0 1
    outer loop
      vertex 0.5 2.11744 10
      vertex 3.528 10.9 10
      vertex -5.5 11.5977 10
    endloop
  endfacet
  facet normal 0 -0 1
    outer loop
      vertex 0.5 0 10
      vertex 0.5 2.11744 10
      vertex -10.2457 10.0557 10
    endloop
  endfacet
  facet normal 0 0 1
    outer loop
      vertex -11.5 10 10
      vertex -10.2457 10.0557 10
      vertex -11.5 10.0557 10
    endloop
  endfacet
  facet normal 0 -0 1
    outer loop
      vertex -17.975 5 10
      vertex -11.5 10 10
      vertex -19.4875 7.61973 10
    endloop
  endfacet
  facet normal 0 0 1
    outer loop
      vertex -17.975 5 10
      vertex -10.2457 10.0557 10
      vertex -11.5 10 10
    endloop
  endfacet
  facet normal 0 0 1
    outer loop
      vertex -22.5125 7.61973 10
      vertex -24.5 10 10
      vertex -24.025 5 10
    endloop
  endfacet
  facet normal 0 0 1
    outer loop
      vertex -22.5125 2.38027 10
      vertex -24.025 5 10
      vertex -24.5 0 10
    endloop
  endfacet
  facet normal 0 -0 1
    outer loop
      vertex -19.4875 7.61973 10
      vertex -11.5 10 10
      vertex -24.5 10 10
    endloop
  endfacet
  facet normal 0 0 1
    outer loop
      vertex -19.4875 7.61973 10
      vertex -24.5 10 10
      vertex -22.5125 7.61973 10
    endloop
  endfacet
  facet normal 0 0 1
    outer loop
      vertex -24.5 0 10
      vertex -19.4875 2.38027 10
      vertex -22.5125 2.38027 10
    endloop
  endfacet
  facet normal 0 0 1
    outer loop
      vertex 0.5 0 10
      vertex -10.2457 10.0557 10
      vertex -17.975 5 10
    endloop
  endfacet
  facet normal 0 0 1
    outer loop
      vertex 0.5 0 10
      vertex -19.4875 2.38027 10
      vertex -24.5 0 10
    endloop
  endfacet
  facet normal 0 0 1
    outer loop
      vertex 0.5 0 10
      vertex -17.975 5 10
      vertex -19.4875 2.38027 10
    endloop
  endfacet
  facet normal -0 0 -1
    outer loop
      vertex -24.025 5 0
      vertex -24.5 0 0
      vertex -24.5 10 0
    endloop
  endfacet
  facet normal 0 0 -1
    outer loop
      vertex -11.5 10.0557 0
      vertex -10.2457 10.0557 0
      vertex -11.5 10 0
    endloop
  endfacet
  facet normal 0 -0 -1
    outer loop
      vertex -22.5125 2.38027 0
      vertex -19.4875 2.38027 0
      vertex -24.5 0 0
    endloop
  endfacet
  facet normal 0 -0 -1
    outer loop
      vertex -17.975 5 0
      vertex 0.5 0 0
      vertex -19.4875 2.38027 0
    endloop
  endfacet
  facet normal 0 -0 -1
    outer loop
      vertex -7.7918 10.5773 0
      vertex 0.5 2.11744 0
      vertex -10.2457 10.0557 0
    endloop
  endfacet
  facet normal 0 -0 -1
    outer loop
      vertex -3.47043 13.0723 0
      vertex 3.528 10.9 0
      vertex -5.5 11.5977 0
    endloop
  endfacet
  facet normal 0 -0 -1
    outer loop
      vertex -1.7918 14.9366 0
      vertex 3.528 10.9 0
      vertex -3.47043 13.0723 0
    endloop
  endfacet
  facet normal 0 -0 -1
    outer loop
      vertex 13.628 23.1 0
      vertex 13.628 17.6 0
      vertex 12.572 17.654 0
    endloop
  endfacet
  facet normal 0 0 -1
    outer loop
      vertex 10.428 23.044 0
      vertex 11.528 17.822 0
      vertex 10.506 18.1 0
    endloop
  endfacet
  facet normal 0 -0 -1
    outer loop
      vertex 0.186 21.818 0
      vertex 0.292 21.942 0
      vertex 0.104 21.68 0
    endloop
  endfacet
  facet normal 0 -0 -1
    outer loop
      vertex 0.008 21.37 0
      vertex 0.044 21.528 0
      vertex 0 21.208 0
    endloop
  endfacet
  facet normal 0 -0 -1
    outer loop
      vertex 0.292 21.942 0
      vertex 0.416 22.046 0
      vertex 0.104 21.68 0
    endloop
  endfacet
  facet normal 0 0 -1
    outer loop
      vertex 0.416 22.046 0
      vertex 0.044 21.528 0
      vertex 0.104 21.68 0
    endloop
  endfacet
  facet normal 0 0 -1
    outer loop
      vertex 0 21.208 0
      vertex 0.044 21.528 0
      vertex 0.416 22.046 0
    endloop
  endfacet
  facet normal 0 0 -1
    outer loop
      vertex 0.704 22.19 0
      vertex 0.416 22.046 0
      vertex 0.554 22.13 0
    endloop
  endfacet
  facet normal 0 0 -1
    outer loop
      vertex 0 21.208 0
      vertex 0.416 22.046 0
      vertex 0.704 22.19 0
    endloop
  endfacet
  facet normal 0 0 -1
    outer loop
      vertex 0 21.208 0
      vertex 0.704 22.19 0
      vertex 0.862 22.226 0
    endloop
  endfacet
  facet normal 0 0 -1
    outer loop
      vertex 0 21.208 0
      vertex 0.862 22.226 0
      vertex 3.528 18.1 0
    endloop
  endfacet
  facet normal 0 0 -1
    outer loop
      vertex 0.862 22.226 0
      vertex 4.042 22.608 0
      vertex 3.528 18.1 0
    endloop
  endfacet
  facet normal 0 -0 -1
    outer loop
      vertex 10.428 23.044 0
      vertex 10.506 18.1 0
      vertex 7.23 22.88 0
    endloop
  endfacet
  facet normal -0 0 -1
    outer loop
      vertex 15.73 17.822 0
      vertex 14.686 17.654 0
      vertex 13.628 23.1 0
    endloop
  endfacet
  facet normal -0 0 -1
    outer loop
      vertex 14.686 17.654 0
      vertex 13.628 17.6 0
      vertex 13.628 23.1 0
    endloop
  endfacet
  facet normal 0 0 -1
    outer loop
      vertex 25.728 0 0
      vertex 23.728 0.998 0
      vertex 26.728 0.972 0
    endloop
  endfacet
  facet normal 0 0 -1
    outer loop
      vertex 25.728 0 0
      vertex 26.728 0.972 0
      vertex 26.362 0.226 0
    endloop
  endfacet
  facet normal 0 0 -1
    outer loop
      vertex 24.142 0.19 0
      vertex 24.42 0.048 0
      vertex 24.274 0.108 0
    endloop
  endfacet
  facet normal 0 0 -1
    outer loop
      vertex 23.728 18.1 0
      vertex 26.396 22.226 0
      vertex 27.258 21.208 0
    endloop
  endfacet
  facet normal 0 0 -1
    outer loop
      vertex 26.842 22.046 0
      vertex 26.554 22.19 0
      vertex 26.704 22.13 0
    endloop
  endfacet
  facet normal -0 -0 -1
    outer loop
      vertex 27.07 21.818 0
      vertex 27.214 21.528 0
      vertex 26.842 22.046 0
    endloop
  endfacet
  facet normal 0 0 -1
    outer loop
      vertex 27.07 21.818 0
      vertex 26.842 22.046 0
      vertex 26.966 21.942 0
    endloop
  endfacet
  facet normal -0 -0 -1
    outer loop
      vertex 27.214 21.528 0
      vertex 27.258 21.208 0
      vertex 26.842 22.046 0
    endloop
  endfacet
  facet normal 0 0 -1
    outer loop
      vertex 27.214 21.528 0
      vertex 27.07 21.818 0
      vertex 27.154 21.68 0
    endloop
  endfacet
  facet normal 0 0 -1
    outer loop
      vertex 27.258 21.208 0
      vertex 26.554 22.19 0
      vertex 26.842 22.046 0
    endloop
  endfacet
  facet normal 0 0 -1
    outer loop
      vertex 27.258 21.208 0
      vertex 27.214 21.528 0
      vertex 27.25 21.37 0
    endloop
  endfacet
  facet normal 0 0 -1
    outer loop
      vertex 26.396 22.226 0
      vertex 26.554 22.19 0
      vertex 27.258 21.208 0
    endloop
  endfacet
  facet normal 0 0 -1
    outer loop
      vertex 23.92 0.412 0
      vertex 24.142 0.19 0
      vertex 24.022 0.292 0
    endloop
  endfacet
  facet normal 0 0 -1
    outer loop
      vertex 24.572 0.012 0
      vertex 24.42 0.048 0
      vertex 24.142 0.19 0
    endloop
  endfacet
  facet normal -0 0 -1
    outer loop
      vertex 25.9 0.014 0
      vertex 25.728 0 0
      vertex 26.066 0.058 0
    endloop
  endfacet
  facet normal -0 0 -1
    outer loop
      vertex 26.71 0.802 0
      vertex 26.662 0.638 0
      vertex 26.728 0.972 0
    endloop
  endfacet
  facet normal -0 0 -1
    outer loop
      vertex 26.662 0.638 0
      vertex 26.586 0.484 0
      vertex 26.728 0.972 0
    endloop
  endfacet
  facet normal 0 0 -1
    outer loop
      vertex 26.586 0.484 0
      vertex 26.486 0.346 0
      vertex 26.362 0.226 0
    endloop
  endfacet
  facet normal -0 0 -1
    outer loop
      vertex 26.586 0.484 0
      vertex 26.362 0.226 0
      vertex 26.728 0.972 0
    endloop
  endfacet
  facet normal 0 0 -1
    outer loop
      vertex 26.362 0.226 0
      vertex 26.222 0.128 0
      vertex 26.066 0.058 0
    endloop
  endfacet
  facet normal 0 0 -1
    outer loop
      vertex 25.728 0 0
      vertex 26.362 0.226 0
      vertex 26.066 0.058 0
    endloop
  endfacet
  facet normal 0 0 -1
    outer loop
      vertex 24.728 0 0
      vertex 23.728 0.998 0
      vertex 25.728 0 0
    endloop
  endfacet
  facet normal 0 0 -1
    outer loop
      vertex 24.142 0.19 0
      vertex 24.728 0 0
      vertex 24.572 0.012 0
    endloop
  endfacet
  facet normal 0 -0 -1
    outer loop
      vertex -0.537455 17.1092 0
      vertex 3.528 10.9 0
      vertex -1.7918 14.9366 0
    endloop
  endfacet
  facet normal 0 0 -1
    outer loop
      vertex 24.142 0.19 0
      vertex 23.92 0.412 0
      vertex 24.728 0 0
    endloop
  endfacet
  facet normal 0 0 -1
    outer loop
      vertex 23.92 0.412 0
      vertex 23.838 0.546 0
      vertex 23.742 0.842 0
    endloop
  endfacet
  facet normal 0 0 -1
    outer loop
      vertex 3.116 0.19 0
      vertex 2.982 0.108 0
      vertex 2.528 0 0
    endloop
  endfacet
  facet normal 0 0 -1
    outer loop
      vertex 23.838 0.546 0
      vertex 23.778 0.69 0
      vertex 23.742 0.842 0
    endloop
  endfacet
  facet normal 0 0 -1
    outer loop
      vertex 3.338 0.412 0
      vertex 3.236 0.292 0
      vertex 3.116 0.19 0
    endloop
  endfacet
  facet normal 0 0 -1
    outer loop
      vertex 23.92 0.412 0
      vertex 23.742 0.842 0
      vertex 24.728 0 0
    endloop
  endfacet
  facet normal 0 0 -1
    outer loop
      vertex 3.516 0.842 0
      vertex 3.48 0.69 0
      vertex 3.42 0.546 0
    endloop
  endfacet
  facet normal 0 0 -1
    outer loop
      vertex 23.742 0.842 0
      vertex 23.728 0.998 0
      vertex 24.728 0 0
    endloop
  endfacet
  facet normal 0 0 -1
    outer loop
      vertex 23.728 0.998 0
      vertex 23.728 4.312 0
      vertex 26.728 0.972 0
    endloop
  endfacet
  facet normal 0 0 -1
    outer loop
      vertex 23.728 18.1 0
      vertex 16.752 18.1 0
      vertex 20.026 22.88 0
    endloop
  endfacet
  facet normal 0 0 -1
    outer loop
      vertex 16.752 18.1 0
      vertex 16.83 23.044 0
      vertex 20.026 22.88 0
    endloop
  endfacet
  facet normal 0 0 -1
    outer loop
      vertex 22.518 10.06 0
      vertex 22.522 10.19 0
      vertex 22.548 10.318 0
    endloop
  endfacet
  facet normal 0 0 -1
    outer loop
      vertex 22.944 10.806 0
      vertex 22.656 10.55 0
      vertex 22.738 10.652 0
    endloop
  endfacet
  facet normal 0 0 -1
    outer loop
      vertex 4.602 10.55 0
      vertex 4.314 10.806 0
      vertex 4.52 10.652 0
    endloop
  endfacet
  facet normal 0 0 -1
    outer loop
      vertex 22.944 10.806 0
      vertex 22.738 10.652 0
      vertex 22.834 10.738 0
    endloop
  endfacet
  facet normal 0 0 -1
    outer loop
      vertex 4.52 10.652 0
      vertex 4.314 10.806 0
      vertex 4.424 10.738 0
    endloop
  endfacet
  facet normal 0 0 -1
    outer loop
      vertex 4.314 10.806 0
      vertex 4.07 10.888 0
      vertex 4.196 10.858 0
    endloop
  endfacet
  facet normal 0 0 -1
    outer loop
      vertex 22.656 10.55 0
      vertex 22.548 10.318 0
      vertex 22.592 10.438 0
    endloop
  endfacet
  facet normal -0 -0 -1
    outer loop
      vertex 23.216 22.608 0
      vertex 23.728 18.1 0
      vertex 20.026 22.88 0
    endloop
  endfacet
  facet normal 0 0 -1
    outer loop
      vertex 22.548 10.318 0
      vertex 22.656 10.55 0
      vertex 22.944 10.806 0
    endloop
  endfacet
  facet normal 0 0 -1
    outer loop
      vertex 23.728 10.9 0
      vertex 27.258 21.208 0
      vertex 26.728 0.972 0
    endloop
  endfacet
  facet normal 0 0 -1
    outer loop
      vertex 23.728 18.1 0
      vertex 27.258 21.208 0
      vertex 23.728 10.9 0
    endloop
  endfacet
  facet normal 0 0 -1
    outer loop
      vertex 22.548 10.318 0
      vertex 22.944 10.806 0
      vertex 23.188 10.888 0
    endloop
  endfacet
  facet normal 0 -0 -1
    outer loop
      vertex 22.548 10.318 0
      vertex 23.188 10.888 0
      vertex 22.518 10.06 0
    endloop
  endfacet
  facet normal 0 -0 -1
    outer loop
      vertex 23.062 10.858 0
      vertex 23.188 10.888 0
      vertex 22.944 10.806 0
    endloop
  endfacet
  facet normal 0 0 -1
    outer loop
      vertex 23.188 10.888 0
      vertex 22.534 9.932 0
      vertex 22.518 10.06 0
    endloop
  endfacet
  facet normal 0 0 -1
    outer loop
      vertex 23.316 10.9 0
      vertex 22.534 9.932 0
      vertex 23.188 10.888 0
    endloop
  endfacet
  facet normal -0 0 -1
    outer loop
      vertex 23.728 10.9 0
      vertex 22.534 9.932 0
      vertex 23.316 10.9 0
    endloop
  endfacet
  facet normal 0 0 -1
    outer loop
      vertex 23.728 4.312 0
      vertex 22.534 9.932 0
      vertex 23.728 10.9 0
    endloop
  endfacet
  facet normal 0 0 -1
    outer loop
      vertex 23.728 4.312 0
      vertex 23.728 10.9 0
      vertex 26.728 0.972 0
    endloop
  endfacet
  facet normal 0 0 -1
    outer loop
      vertex 23.216 22.608 0
      vertex 26.396 22.226 0
      vertex 23.728 18.1 0
    endloop
  endfacet
  facet normal 0 0 -1
    outer loop
      vertex 13.628 23.1 0
      vertex 16.83 23.044 0
      vertex 15.73 17.822 0
    endloop
  endfacet
  facet normal 0 0 -1
    outer loop
      vertex 15.73 17.822 0
      vertex 16.83 23.044 0
      vertex 16.752 18.1 0
    endloop
  endfacet
  facet normal 0 0 -1
    outer loop
      vertex 13.628 23.1 0
      vertex 12.572 17.654 0
      vertex 11.528 17.822 0
    endloop
  endfacet
  facet normal 0 0 -1
    outer loop
      vertex -0.537455 17.1092 0
      vertex 3.528 18.1 0
      vertex 3.528 10.9 0
    endloop
  endfacet
  facet normal 0 0 -1
    outer loop
      vertex 13.628 23.1 0
      vertex 11.528 17.822 0
      vertex 10.428 23.044 0
    endloop
  endfacet
  facet normal 0 0 -1
    outer loop
      vertex 3.528 18.1 0
      vertex 0.0592534 18.9456 0
      vertex 0 21.208 0
    endloop
  endfacet
  facet normal 0 0 -1
    outer loop
      vertex 10.506 18.1 0
      vertex 3.528 18.1 0
      vertex 7.23 22.88 0
    endloop
  endfacet
  facet normal 0 0 -1
    outer loop
      vertex 3.528 18.1 0
      vertex 4.042 22.608 0
      vertex 7.23 22.88 0
    endloop
  endfacet
  facet normal 0 0 -1
    outer loop
      vertex -0.537455 17.1092 0
      vertex 0.0592534 18.9456 0
      vertex 3.528 18.1 0
    endloop
  endfacet
  facet normal -0 0 -1
    outer loop
      vertex 3.528 4.312 0
      vertex 0.5 2.11744 0
      vertex 3.528 10.9 0
    endloop
  endfacet
  facet normal -0 -0 -1
    outer loop
      vertex 4.666 10.438 0
      vertex 4.71 10.318 0
      vertex 4.602 10.55 0
    endloop
  endfacet
  facet normal 0 0 -1
    outer loop
      vertex 4.71 10.318 0
      vertex 4.314 10.806 0
      vertex 4.602 10.55 0
    endloop
  endfacet
  facet normal 0 0 -1
    outer loop
      vertex 4.07 10.888 0
      vertex 4.314 10.806 0
      vertex 4.71 10.318 0
    endloop
  endfacet
  facet normal 0 0 -1
    outer loop
      vertex 4.74 10.06 0
      vertex 4.71 10.318 0
      vertex 4.736 10.19 0
    endloop
  endfacet
  facet normal 0 0 -1
    outer loop
      vertex 4.07 10.888 0
      vertex 4.71 10.318 0
      vertex 4.74 10.06 0
    endloop
  endfacet
  facet normal 0 0 -1
    outer loop
      vertex 4.07 10.888 0
      vertex 4.74 10.06 0
      vertex 4.724 9.932 0
    endloop
  endfacet
  facet normal -0 -0 -1
    outer loop
      vertex 4.07 10.888 0
      vertex 4.724 9.932 0
      vertex 3.94 10.9 0
    endloop
  endfacet
  facet normal 0 0 -1
    outer loop
      vertex 4.724 9.932 0
      vertex 3.528 10.9 0
      vertex 3.94 10.9 0
    endloop
  endfacet
  facet normal 0 0 -1
    outer loop
      vertex 3.528 4.312 0
      vertex 3.528 10.9 0
      vertex 4.724 9.932 0
    endloop
  endfacet
  facet normal 0 0 -1
    outer loop
      vertex 0.672 0.484 0
      vertex 0.53 0.972 0
      vertex 0.896 0.226 0
    endloop
  endfacet
  facet normal 0 0 -1
    outer loop
      vertex 1.528 0 0
      vertex 1.358 0.014 0
      vertex 1.192 0.058 0
    endloop
  endfacet
  facet normal -0 0 -1
    outer loop
      vertex 3.516 0.842 0
      vertex 3.42 0.546 0
      vertex 3.528 0.998 0
    endloop
  endfacet
  facet normal -0 0 -1
    outer loop
      vertex 3.42 0.546 0
      vertex 3.338 0.412 0
      vertex 3.528 0.998 0
    endloop
  endfacet
  facet normal -0 0 -1
    outer loop
      vertex 3.338 0.412 0
      vertex 3.116 0.19 0
      vertex 3.528 0.998 0
    endloop
  endfacet
  facet normal 0 0 -1
    outer loop
      vertex 2.528 0 0
      vertex 2.982 0.108 0
      vertex 2.686 0.012 0
    endloop
  endfacet
  facet normal 0 0 -1
    outer loop
      vertex 2.982 0.108 0
      vertex 2.838 0.048 0
      vertex 2.686 0.012 0
    endloop
  endfacet
  facet normal -0 0 -1
    outer loop
      vertex 3.116 0.19 0
      vertex 2.528 0 0
      vertex 3.528 0.998 0
    endloop
  endfacet
  facet normal -0 0 -1
    outer loop
      vertex -22.5125 2.38027 0
      vertex -24.5 0 0
      vertex -24.025 5 0
    endloop
  endfacet
  facet normal 0 0 -1
    outer loop
      vertex 2.528 0 0
      vertex 1.528 0 0
      vertex 3.528 0.998 0
    endloop
  endfacet
  facet normal 0 0 -1
    outer loop
      vertex 1.036 0.128 0
      vertex 0.896 0.226 0
      vertex 1.192 0.058 0
    endloop
  endfacet
  facet normal 0 0 -1
    outer loop
      vertex 0.896 0.226 0
      vertex 1.528 0 0
      vertex 1.192 0.058 0
    endloop
  endfacet
  facet normal 0 0 -1
    outer loop
      vertex 0.772 0.346 0
      vertex 0.672 0.484 0
      vertex 0.896 0.226 0
    endloop
  endfacet
  facet normal 0 0 -1
    outer loop
      vertex 0.672 0.484 0
      vertex 0.596 0.638 0
      vertex 0.53 0.972 0
    endloop
  endfacet
  facet normal 0 0 -1
    outer loop
      vertex 0.596 0.638 0
      vertex 0.548 0.802 0
      vertex 0.53 0.972 0
    endloop
  endfacet
  facet normal 0 -0 -1
    outer loop
      vertex -5.5 11.5977 0
      vertex 0.5 2.11744 0
      vertex -7.7918 10.5773 0
    endloop
  endfacet
  facet normal 0 0 -1
    outer loop
      vertex 1.528 0 0
      vertex 0.896 0.226 0
      vertex 0.53 0.972 0
    endloop
  endfacet
  facet normal 0 0 -1
    outer loop
      vertex 1.528 0 0
      vertex 0.53 0.972 0
      vertex 3.528 0.998 0
    endloop
  endfacet
  facet normal 0 0 -1
    outer loop
      vertex 0.53 0.972 0
      vertex 0.5 2.11744 0
      vertex 3.528 0.998 0
    endloop
  endfacet
  facet normal 0 0 -1
    outer loop
      vertex 0.5 2.11744 0
      vertex 3.528 4.312 0
      vertex 3.528 0.998 0
    endloop
  endfacet
  facet normal 0 0 -1
    outer loop
      vertex -5.5 11.5977 0
      vertex 3.528 10.9 0
      vertex 0.5 2.11744 0
    endloop
  endfacet
  facet normal -0 -0 -1
    outer loop
      vertex 0.5 2.11744 0
      vertex 0.5 0 0
      vertex -10.2457 10.0557 0
    endloop
  endfacet
  facet normal 0 -0 -1
    outer loop
      vertex -19.4875 2.38027 0
      vertex 0.5 0 0
      vertex -24.5 0 0
    endloop
  endfacet
  facet normal 0 0 -1
    outer loop
      vertex -17.975 5 0
      vertex -10.2457 10.0557 0
      vertex 0.5 0 0
    endloop
  endfacet
  facet normal 0 -0 -1
    outer loop
      vertex -11.5 10 0
      vertex -10.2457 10.0557 0
      vertex -17.975 5 0
    endloop
  endfacet
  facet normal -0 0 -1
    outer loop
      vertex -11.5 10 0
      vertex -19.4875 7.61973 0
      vertex -24.5 10 0
    endloop
  endfacet
  facet normal 0 0 -1
    outer loop
      vertex -11.5 10 0
      vertex -17.975 5 0
      vertex -19.4875 7.61973 0
    endloop
  endfacet
  facet normal 0 0 -1
    outer loop
      vertex -24.5 10 0
      vertex -22.5125 7.61973 0
      vertex -24.025 5 0
    endloop
  endfacet
  facet normal 0 0 -1
    outer loop
      vertex -24.5 10 0
      vertex -19.4875 7.61973 0
      vertex -22.5125 7.61973 0
    endloop
  endfacet
  facet normal -0.207912 0.978148 0
    outer loop
      vertex -10.2457 10.0557 10
      vertex -7.7918 10.5773 10
      vertex -7.7918 10.5773 0
    endloop
  endfacet
  facet normal -0.207912 0.978148 0
    outer loop
      vertex -10.2457 10.0557 0
      vertex -10.2457 10.0557 10
      vertex -7.7918 10.5773 0
    endloop
  endfacet
  facet normal -0.406737 0.913545 0
    outer loop
      vertex -7.7918 10.5773 10
      vertex -5.5 11.5977 10
      vertex -5.5 11.5977 0
    endloop
  endfacet
  facet normal -0.406737 0.913545 0
    outer loop
      vertex -7.7918 10.5773 0
      vertex -7.7918 10.5773 10
      vertex -5.5 11.5977 0
    endloop
  endfacet
  facet normal -0.866025 0.5 0
    outer loop
      vertex -1.7918 14.9366 10
      vertex -0.537455 17.1092 10
      vertex -0.537455 17.1092 0
    endloop
  endfacet
  facet normal -0.866025 0.5 0
    outer loop
      vertex -1.7918 14.9366 0
      vertex -1.7918 14.9366 10
      vertex -0.537455 17.1092 0
    endloop
  endfacet
  facet normal -0.951057 0.309017 0
    outer loop
      vertex -0.537455 17.1092 10
      vertex 0.0592534 18.9456 10
      vertex 0.0592534 18.9456 0
    endloop
  endfacet
  facet normal -0.951057 0.309017 0
    outer loop
      vertex -0.537455 17.1092 0
      vertex -0.537455 17.1092 10
      vertex 0.0592534 18.9456 0
    endloop
  endfacet
  facet normal -0.587785 0.809017 0
    outer loop
      vertex -5.5 11.5977 10
      vertex -3.47043 13.0723 10
      vertex -3.47043 13.0723 0
    endloop
  endfacet
  facet normal -0.587785 0.809017 0
    outer loop
      vertex -5.5 11.5977 0
      vertex -5.5 11.5977 10
      vertex -3.47043 13.0723 0
    endloop
  endfacet
  facet normal -0.743145 0.669131 0
    outer loop
      vertex -3.47043 13.0723 10
      vertex -1.7918 14.9366 10
      vertex -1.7918 14.9366 0
    endloop
  endfacet
  facet normal -0.743145 0.669131 0
    outer loop
      vertex -3.47043 13.0723 0
      vertex -3.47043 13.0723 10
      vertex -1.7918 14.9366 0
    endloop
  endfacet
  facet normal -0 1 0
    outer loop
      vertex -11.5 10.0557 10
      vertex -10.2457 10.0557 10
      vertex -10.2457 10.0557 0
    endloop
  endfacet
  facet normal 0 1 0
    outer loop
      vertex -11.5 10.0557 0
      vertex -11.5 10.0557 10
      vertex -10.2457 10.0557 0
    endloop
  endfacet
  facet normal -1 0 0
    outer loop
      vertex -24.5 10 0
      vertex -24.5 0 0
      vertex -24.5 0 10
    endloop
  endfacet
  facet normal -1 -0 -0
    outer loop
      vertex -24.5 10 10
      vertex -24.5 10 0
      vertex -24.5 0 10
    endloop
  endfacet
  facet normal 1 0 0
    outer loop
      vertex 0.5 0 10
      vertex 0.5 0 0
      vertex 0.5 2.11744 0
    endloop
  endfacet
  facet normal 1 0 0
    outer loop
      vertex 0.5 2.11744 10
      vertex 0.5 0 10
      vertex 0.5 2.11744 0
    endloop
  endfacet
  facet normal 0 -1 0
    outer loop
      vertex -24.5 0 10
      vertex -24.5 0 0
      vertex 0.5 0 0
    endloop
  endfacet
  facet normal -0 -1 -0
    outer loop
      vertex 0.5 0 10
      vertex -24.5 0 10
      vertex 0.5 0 0
    endloop
  endfacet
  facet normal 0 1 0
    outer loop
      vertex -11.5 10 0
      vertex -24.5 10 0
      vertex -24.5 10 10
    endloop
  endfacet
  facet normal 0 1 0
    outer loop
      vertex -11.5 10 10
      vertex -11.5 10 0
      vertex -24.5 10 10
    endloop
  endfacet
  facet normal -0.987688 -0.156434 0
    outer loop
      vertex -19.4 5 1.21
      vertex -19.4 5 8.79
      vertex -19.4783 5.49443 8.79
    endloop
  endfacet
  facet normal -0.987688 -0.156434 0
    outer loop
      vertex -19.4783 5.49443 1.21
      vertex -19.4 5 1.21
      vertex -19.4783 5.49443 8.79
    endloop
  endfacet
  facet normal -0.45399 -0.891007 0
    outer loop
      vertex -20.0595 6.29443 1.21
      vertex -20.0595 6.29443 8.79
      vertex -20.5056 6.52169 8.79
    endloop
  endfacet
  facet normal -0.45399 -0.891007 0
    outer loop
      vertex -20.5056 6.52169 1.21
      vertex -20.0595 6.29443 1.21
      vertex -20.5056 6.52169 8.79
    endloop
  endfacet
  facet normal 0.987688 -0.156434 0
    outer loop
      vertex -22.5217 5.49443 1.21
      vertex -22.5217 5.49443 8.79
      vertex -22.6 5 8.79
    endloop
  endfacet
  facet normal 0.987688 -0.156434 0
    outer loop
      vertex -22.6 5 1.21
      vertex -22.5217 5.49443 1.21
      vertex -22.6 5 8.79
    endloop
  endfacet
  facet normal -0.156434 0.987688 0
    outer loop
      vertex -21 3.4 8.79
      vertex -20.5056 3.47831 8.79
      vertex -20.5056 3.47831 1.21
    endloop
  endfacet
  facet normal -0.156434 0.987688 0
    outer loop
      vertex -21 3.4 1.21
      vertex -21 3.4 8.79
      vertex -20.5056 3.47831 1.21
    endloop
  endfacet
  facet normal -0.707107 -0.707107 0
    outer loop
      vertex -19.7056 5.94046 1.21
      vertex -19.7056 5.94046 8.79
      vertex -20.0595 6.29443 8.79
    endloop
  endfacet
  facet normal -0.707107 -0.707107 0
    outer loop
      vertex -20.0595 6.29443 1.21
      vertex -19.7056 5.94046 1.21
      vertex -20.0595 6.29443 8.79
    endloop
  endfacet
  facet normal -0.891007 -0.45399 0
    outer loop
      vertex -19.4783 5.49443 1.21
      vertex -19.4783 5.49443 8.79
      vertex -19.7056 5.94046 8.79
    endloop
  endfacet
  facet normal -0.891007 -0.45399 0
    outer loop
      vertex -19.7056 5.94046 1.21
      vertex -19.4783 5.49443 1.21
      vertex -19.7056 5.94046 8.79
    endloop
  endfacet
  facet normal 0.156434 -0.987688 0
    outer loop
      vertex -21 6.6 1.21
      vertex -21 6.6 8.79
      vertex -21.4944 6.52169 8.79
    endloop
  endfacet
  facet normal 0.156434 -0.987688 0
    outer loop
      vertex -21.4944 6.52169 1.21
      vertex -21 6.6 1.21
      vertex -21.4944 6.52169 8.79
    endloop
  endfacet
  facet normal 0.45399 -0.891007 0
    outer loop
      vertex -21.4944 6.52169 1.21
      vertex -21.4944 6.52169 8.79
      vertex -21.9405 6.29443 8.79
    endloop
  endfacet
  facet normal 0.45399 -0.891007 0
    outer loop
      vertex -21.9405 6.29443 1.21
      vertex -21.4944 6.52169 1.21
      vertex -21.9405 6.29443 8.79
    endloop
  endfacet
  facet normal 0.707107 -0.707107 0
    outer loop
      vertex -21.9405 6.29443 1.21
      vertex -21.9405 6.29443 8.79
      vertex -22.2944 5.94046 8.79
    endloop
  endfacet
  facet normal 0.707107 -0.707107 0
    outer loop
      vertex -22.2944 5.94046 1.21
      vertex -21.9405 6.29443 1.21
      vertex -22.2944 5.94046 8.79
    endloop
  endfacet
  facet normal -0.45399 0.891007 0
    outer loop
      vertex -20.5056 3.47831 8.79
      vertex -20.0595 3.70557 8.79
      vertex -20.0595 3.70557 1.21
    endloop
  endfacet
  facet normal -0.45399 0.891007 0
    outer loop
      vertex -20.5056 3.47831 1.21
      vertex -20.5056 3.47831 8.79
      vertex -20.0595 3.70557 1.21
    endloop
  endfacet
  facet normal -0.707107 0.707107 0
    outer loop
      vertex -20.0595 3.70557 8.79
      vertex -19.7056 4.05954 8.79
      vertex -19.7056 4.05954 1.21
    endloop
  endfacet
  facet normal -0.707107 0.707107 0
    outer loop
      vertex -20.0595 3.70557 1.21
      vertex -20.0595 3.70557 8.79
      vertex -19.7056 4.05954 1.21
    endloop
  endfacet
  facet normal 0.891007 0.45399 0
    outer loop
      vertex -22.5217 4.50557 8.79
      vertex -22.2944 4.05954 8.79
      vertex -22.2944 4.05954 1.21
    endloop
  endfacet
  facet normal 0.891007 0.45399 -0
    outer loop
      vertex -22.5217 4.50557 1.21
      vertex -22.5217 4.50557 8.79
      vertex -22.2944 4.05954 1.21
    endloop
  endfacet
  facet normal -0.156434 -0.987688 0
    outer loop
      vertex -20.5056 6.52169 1.21
      vertex -20.5056 6.52169 8.79
      vertex -21 6.6 8.79
    endloop
  endfacet
  facet normal -0.156434 -0.987688 0
    outer loop
      vertex -21 6.6 1.21
      vertex -20.5056 6.52169 1.21
      vertex -21 6.6 8.79
    endloop
  endfacet
  facet normal 0.987688 0.156434 0
    outer loop
      vertex -22.6 5 8.79
      vertex -22.5217 4.50557 8.79
      vertex -22.5217 4.50557 1.21
    endloop
  endfacet
  facet normal 0.987688 0.156434 -0
    outer loop
      vertex -22.6 5 1.21
      vertex -22.6 5 8.79
      vertex -22.5217 4.50557 1.21
    endloop
  endfacet
  facet normal 0.891007 -0.45399 0
    outer loop
      vertex -22.2944 5.94046 1.21
      vertex -22.2944 5.94046 8.79
      vertex -22.5217 5.49443 8.79
    endloop
  endfacet
  facet normal 0.891007 -0.45399 0
    outer loop
      vertex -22.5217 5.49443 1.21
      vertex -22.2944 5.94046 1.21
      vertex -22.5217 5.49443 8.79
    endloop
  endfacet
  facet normal -0.891007 0.45399 0
    outer loop
      vertex -19.7056 4.05954 8.79
      vertex -19.4783 4.50557 8.79
      vertex -19.4783 4.50557 1.21
    endloop
  endfacet
  facet normal -0.891007 0.45399 0
    outer loop
      vertex -19.7056 4.05954 1.21
      vertex -19.7056 4.05954 8.79
      vertex -19.4783 4.50557 1.21
    endloop
  endfacet
  facet normal 0.45399 0.891007 0
    outer loop
      vertex -21.9405 3.70557 8.79
      vertex -21.4944 3.47831 8.79
      vertex -21.4944 3.47831 1.21
    endloop
  endfacet
  facet normal 0.45399 0.891007 -0
    outer loop
      vertex -21.9405 3.70557 1.21
      vertex -21.9405 3.70557 8.79
      vertex -21.4944 3.47831 1.21
    endloop
  endfacet
  facet normal 0.707107 0.707107 0
    outer loop
      vertex -22.2944 4.05954 8.79
      vertex -21.9405 3.70557 8.79
      vertex -21.9405 3.70557 1.21
    endloop
  endfacet
  facet normal 0.707107 0.707107 -0
    outer loop
      vertex -22.2944 4.05954 1.21
      vertex -22.2944 4.05954 8.79
      vertex -21.9405 3.70557 1.21
    endloop
  endfacet
  facet normal -0.987688 0.156434 0
    outer loop
      vertex -19.4783 4.50557 8.79
      vertex -19.4 5 8.79
      vertex -19.4 5 1.21
    endloop
  endfacet
  facet normal -0.987688 0.156434 0
    outer loop
      vertex -19.4783 4.50557 1.21
      vertex -19.4783 4.50557 8.79
      vertex -19.4 5 1.21
    endloop
  endfacet
  facet normal 0.156434 0.987688 0
    outer loop
      vertex -21.4944 3.47831 8.79
      vertex -21 3.4 8.79
      vertex -21 3.4 1.21
    endloop
  endfacet
  facet normal 0.156434 0.987688 -0
    outer loop
      vertex -21.4944 3.47831 1.21
      vertex -21.4944 3.47831 8.79
      vertex -21 3.4 1.21
    endloop
  endfacet
  facet normal -0.866025 -0.5 0
    outer loop
      vertex -17.975 5 0
      vertex -17.975 5 1.21
      vertex -19.4875 7.61973 1.21
    endloop
  endfacet
  facet normal -0.866025 -0.5 0
    outer loop
      vertex -19.4875 7.61973 0
      vertex -17.975 5 0
      vertex -19.4875 7.61973 1.21
    endloop
  endfacet
  facet normal 0.866025 0.5 0
    outer loop
      vertex -24.025 5 1.21
      vertex -22.5125 2.38027 1.21
      vertex -22.5125 2.38027 0
    endloop
  endfacet
  facet normal 0.866025 0.5 -0
    outer loop
      vertex -24.025 5 0
      vertex -24.025 5 1.21
      vertex -22.5125 2.38027 0
    endloop
  endfacet
  facet normal 0 -1 0
    outer loop
      vertex -19.4875 7.61973 0
      vertex -19.4875 7.61973 1.21
      vertex -22.5125 7.61973 1.21
    endloop
  endfacet
  facet normal 0 -1 0
    outer loop
      vertex -22.5125 7.61973 0
      vertex -19.4875 7.61973 0
      vertex -22.5125 7.61973 1.21
    endloop
  endfacet
  facet normal 2.93613e-16 1 0
    outer loop
      vertex -22.5125 2.38027 1.21
      vertex -19.4875 2.38027 1.21
      vertex -19.4875 2.38027 0
    endloop
  endfacet
  facet normal 2.93613e-16 1 -0
    outer loop
      vertex -22.5125 2.38027 0
      vertex -22.5125 2.38027 1.21
      vertex -19.4875 2.38027 0
    endloop
  endfacet
  facet normal -0 0 -1
    outer loop
      vertex -22.2944 4.05954 1.21
      vertex -22.5125 2.38027 1.21
      vertex -24.025 5 1.21
    endloop
  endfacet
  facet normal 0 0 -1
    outer loop
      vertex -20.0595 6.29443 1.21
      vertex -20.5056 6.52169 1.21
      vertex -19.4875 7.61973 1.21
    endloop
  endfacet
  facet normal 0 0 -1
    outer loop
      vertex -24.025 5 1.21
      vertex -22.5217 4.50557 1.21
      vertex -22.2944 4.05954 1.21
    endloop
  endfacet
  facet normal 0 0 -1
    outer loop
      vertex -21.9405 6.29443 1.21
      vertex -22.5125 7.61973 1.21
      vertex -21.4944 6.52169 1.21
    endloop
  endfacet
  facet normal -0 0 -1
    outer loop
      vertex -21.9405 3.70557 1.21
      vertex -22.5125 2.38027 1.21
      vertex -22.2944 4.05954 1.21
    endloop
  endfacet
  facet normal -0 0 -1
    outer loop
      vertex -21.4944 3.47831 1.21
      vertex -22.5125 2.38027 1.21
      vertex -21.9405 3.70557 1.21
    endloop
  endfacet
  facet normal -0 0 -1
    outer loop
      vertex -21 3.4 1.21
      vertex -22.5125 2.38027 1.21
      vertex -21.4944 3.47831 1.21
    endloop
  endfacet
  facet normal 0 0 -1
    outer loop
      vertex -19.4875 2.38027 1.21
      vertex -22.5125 2.38027 1.21
      vertex -21 3.4 1.21
    endloop
  endfacet
  facet normal 0 0 -1
    outer loop
      vertex -19.4875 2.38027 1.21
      vertex -21 3.4 1.21
      vertex -20.5056 3.47831 1.21
    endloop
  endfacet
  facet normal 0 0 -1
    outer loop
      vertex -19.4875 2.38027 1.21
      vertex -20.0595 3.70557 1.21
      vertex -19.7056 4.05954 1.21
    endloop
  endfacet
  facet normal 0 0 -1
    outer loop
      vertex -19.4875 2.38027 1.21
      vertex -20.5056 3.47831 1.21
      vertex -20.0595 3.70557 1.21
    endloop
  endfacet
  facet normal 0 0 -1
    outer loop
      vertex -17.975 5 1.21
      vertex -19.4875 2.38027 1.21
      vertex -19.7056 4.05954 1.21
    endloop
  endfacet
  facet normal 0 0 -1
    outer loop
      vertex -17.975 5 1.21
      vertex -19.7056 4.05954 1.21
      vertex -19.4783 4.50557 1.21
    endloop
  endfacet
  facet normal 0 0 -1
    outer loop
      vertex -17.975 5 1.21
      vertex -19.4 5 1.21
      vertex -19.4783 5.49443 1.21
    endloop
  endfacet
  facet normal -0 0 -1
    outer loop
      vertex -17.975 5 1.21
      vertex -19.4783 4.50557 1.21
      vertex -19.4 5 1.21
    endloop
  endfacet
  facet normal 0 0 -1
    outer loop
      vertex -17.975 5 1.21
      vertex -19.4783 5.49443 1.21
      vertex -19.7056 5.94046 1.21
    endloop
  endfacet
  facet normal 0 0 -1
    outer loop
      vertex -17.975 5 1.21
      vertex -19.7056 5.94046 1.21
      vertex -19.4875 7.61973 1.21
    endloop
  endfacet
  facet normal 0 0 -1
    outer loop
      vertex -19.7056 5.94046 1.21
      vertex -20.0595 6.29443 1.21
      vertex -19.4875 7.61973 1.21
    endloop
  endfacet
  facet normal 0 0 -1
    outer loop
      vertex -21 6.6 1.21
      vertex -19.4875 7.61973 1.21
      vertex -20.5056 6.52169 1.21
    endloop
  endfacet
  facet normal 0 0 -1
    outer loop
      vertex -22.5125 7.61973 1.21
      vertex -19.4875 7.61973 1.21
      vertex -21 6.6 1.21
    endloop
  endfacet
  facet normal 0 0 -1
    outer loop
      vertex -22.5125 7.61973 1.21
      vertex -21 6.6 1.21
      vertex -21.4944 6.52169 1.21
    endloop
  endfacet
  facet normal 0 0 -1
    outer loop
      vertex -22.2944 5.94046 1.21
      vertex -22.5125 7.61973 1.21
      vertex -21.9405 6.29443 1.21
    endloop
  endfacet
  facet normal 0 0 -1
    outer loop
      vertex -24.025 5 1.21
      vertex -22.5125 7.61973 1.21
      vertex -22.2944 5.94046 1.21
    endloop
  endfacet
  facet normal 0 0 -1
    outer loop
      vertex -24.025 5 1.21
      vertex -22.2944 5.94046 1.21
      vertex -22.5217 5.49443 1.21
    endloop
  endfacet
  facet normal 0 0 -1
    outer loop
      vertex -24.025 5 1.21
      vertex -22.6 5 1.21
      vertex -22.5217 4.50557 1.21
    endloop
  endfacet
  facet normal 0 0 -1
    outer loop
      vertex -24.025 5 1.21
      vertex -22.5217 5.49443 1.21
      vertex -22.6 5 1.21
    endloop
  endfacet
  facet normal 0.866025 -0.5 0
    outer loop
      vertex -22.5125 7.61973 0
      vertex -22.5125 7.61973 1.21
      vertex -24.025 5 1.21
    endloop
  endfacet
  facet normal 0.866025 -0.5 0
    outer loop
      vertex -24.025 5 0
      vertex -22.5125 7.61973 0
      vertex -24.025 5 1.21
    endloop
  endfacet
  facet normal -0.866025 0.5 0
    outer loop
      vertex -19.4875 2.38027 1.21
      vertex -17.975 5 1.21
      vertex -17.975 5 0
    endloop
  endfacet
  facet normal -0.866025 0.5 0
    outer loop
      vertex -19.4875 2.38027 0
      vertex -19.4875 2.38027 1.21
      vertex -17.975 5 0
    endloop
  endfacet
  facet normal -0.866025 -0.5 0
    outer loop
      vertex -17.975 5 8.79
      vertex -17.975 5 10
      vertex -19.4875 7.61973 10
    endloop
  endfacet
  facet normal -0.866025 -0.5 0
    outer loop
      vertex -19.4875 7.61973 8.79
      vertex -17.975 5 8.79
      vertex -19.4875 7.61973 10
    endloop
  endfacet
  facet normal 0.866025 0.5 0
    outer loop
      vertex -24.025 5 10
      vertex -22.5125 2.38027 10
      vertex -22.5125 2.38027 8.79
    endloop
  endfacet
  facet normal 0.866025 0.5 -0
    outer loop
      vertex -24.025 5 8.79
      vertex -24.025 5 10
      vertex -22.5125 2.38027 8.79
    endloop
  endfacet
  facet normal 0 -1 0
    outer loop
      vertex -19.4875 7.61973 8.79
      vertex -19.4875 7.61973 10
      vertex -22.5125 7.61973 10
    endloop
  endfacet
  facet normal 0 -1 0
    outer loop
      vertex -22.5125 7.61973 8.79
      vertex -19.4875 7.61973 8.79
      vertex -22.5125 7.61973 10
    endloop
  endfacet
  facet normal 2.93613e-16 1 0
    outer loop
      vertex -22.5125 2.38027 10
      vertex -19.4875 2.38027 10
      vertex -19.4875 2.38027 8.79
    endloop
  endfacet
  facet normal 2.93613e-16 1 -0
    outer loop
      vertex -22.5125 2.38027 8.79
      vertex -22.5125 2.38027 10
      vertex -19.4875 2.38027 8.79
    endloop
  endfacet
  facet normal 0.866025 -0.5 0
    outer loop
      vertex -22.5125 7.61973 8.79
      vertex -22.5125 7.61973 10
      vertex -24.025 5 10
    endloop
  endfacet
  facet normal 0.866025 -0.5 0
    outer loop
      vertex -24.025 5 8.79
      vertex -22.5125 7.61973 8.79
      vertex -24.025 5 10
    endloop
  endfacet
  facet normal -0 0 1
    outer loop
      vertex -19.4 5 8.79
      vertex -19.4783 4.50557 8.79
      vertex -17.975 5 8.79
    endloop
  endfacet
  facet normal 0 0 1
    outer loop
      vertex -22.5217 4.50557 8.79
      vertex -22.6 5 8.79
      vertex -24.025 5 8.79
    endloop
  endfacet
  facet normal 0 0 1
    outer loop
      vertex -20.0595 3.70557 8.79
      vertex -20.5056 3.47831 8.79
      vertex -19.4875 2.38027 8.79
    endloop
  endfacet
  facet normal 0 0 1
    outer loop
      vertex -24.025 5 8.79
      vertex -22.6 5 8.79
      vertex -22.5217 5.49443 8.79
    endloop
  endfacet
  facet normal 0 0 1
    outer loop
      vertex -22.2944 4.05954 8.79
      vertex -22.5125 2.38027 8.79
      vertex -21.9405 3.70557 8.79
    endloop
  endfacet
  facet normal 0 0 1
    outer loop
      vertex -22.2944 5.94046 8.79
      vertex -24.025 5 8.79
      vertex -22.5217 5.49443 8.79
    endloop
  endfacet
  facet normal 0 0 1
    outer loop
      vertex -22.5125 7.61973 8.79
      vertex -24.025 5 8.79
      vertex -22.2944 5.94046 8.79
    endloop
  endfacet
  facet normal 0 0 1
    outer loop
      vertex -22.5125 7.61973 8.79
      vertex -21.9405 6.29443 8.79
      vertex -21.4944 6.52169 8.79
    endloop
  endfacet
  facet normal 0 0 1
    outer loop
      vertex -22.5125 7.61973 8.79
      vertex -22.2944 5.94046 8.79
      vertex -21.9405 6.29443 8.79
    endloop
  endfacet
  facet normal 0 0 1
    outer loop
      vertex -21 6.6 8.79
      vertex -22.5125 7.61973 8.79
      vertex -21.4944 6.52169 8.79
    endloop
  endfacet
  facet normal 0 0 1
    outer loop
      vertex -19.4875 7.61973 8.79
      vertex -22.5125 7.61973 8.79
      vertex -21 6.6 8.79
    endloop
  endfacet
  facet normal 0 0 1
    outer loop
      vertex -19.4875 7.61973 8.79
      vertex -21 6.6 8.79
      vertex -20.5056 6.52169 8.79
    endloop
  endfacet
  facet normal 0 0 1
    outer loop
      vertex -19.4875 7.61973 8.79
      vertex -20.0595 6.29443 8.79
      vertex -19.7056 5.94046 8.79
    endloop
  endfacet
  facet normal 0 0 1
    outer loop
      vertex -19.4875 7.61973 8.79
      vertex -20.5056 6.52169 8.79
      vertex -20.0595 6.29443 8.79
    endloop
  endfacet
  facet normal 0 0 1
    outer loop
      vertex -19.4875 7.61973 8.79
      vertex -19.7056 5.94046 8.79
      vertex -17.975 5 8.79
    endloop
  endfacet
  facet normal 0 0 1
    outer loop
      vertex -19.7056 5.94046 8.79
      vertex -19.4783 5.49443 8.79
      vertex -17.975 5 8.79
    endloop
  endfacet
  facet normal 0 0 1
    outer loop
      vertex -19.4783 5.49443 8.79
      vertex -19.4 5 8.79
      vertex -17.975 5 8.79
    endloop
  endfacet
  facet normal 0 0 1
    outer loop
      vertex -17.975 5 8.79
      vertex -19.4783 4.50557 8.79
      vertex -19.7056 4.05954 8.79
    endloop
  endfacet
  facet normal 0 0 1
    outer loop
      vertex -17.975 5 8.79
      vertex -19.7056 4.05954 8.79
      vertex -19.4875 2.38027 8.79
    endloop
  endfacet
  facet normal 0 0 1
    outer loop
      vertex -19.7056 4.05954 8.79
      vertex -20.0595 3.70557 8.79
      vertex -19.4875 2.38027 8.79
    endloop
  endfacet
  facet normal 0 0 1
    outer loop
      vertex -19.4875 2.38027 8.79
      vertex -20.5056 3.47831 8.79
      vertex -21 3.4 8.79
    endloop
  endfacet
  facet normal 0 0 1
    outer loop
      vertex -19.4875 2.38027 8.79
      vertex -21 3.4 8.79
      vertex -22.5125 2.38027 8.79
    endloop
  endfacet
  facet normal 0 0 1
    outer loop
      vertex -21 3.4 8.79
      vertex -21.4944 3.47831 8.79
      vertex -22.5125 2.38027 8.79
    endloop
  endfacet
  facet normal 0 0 1
    outer loop
      vertex -21.4944 3.47831 8.79
      vertex -21.9405 3.70557 8.79
      vertex -22.5125 2.38027 8.79
    endloop
  endfacet
  facet normal 0 -0 1
    outer loop
      vertex -22.5125 2.38027 8.79
      vertex -22.2944 4.05954 8.79
      vertex -24.025 5 8.79
    endloop
  endfacet
  facet normal 0 0 1
    outer loop
      vertex -22.2944 4.05954 8.79
      vertex -22.5217 4.50557 8.79
      vertex -24.025 5 8.79
    endloop
  endfacet
  facet normal -0.866025 0.5 0
    outer loop
      vertex -19.4875 2.38027 10
      vertex -17.975 5 10
      vertex -17.975 5 8.79
    endloop
  endfacet
  facet normal -0.866025 0.5 0
    outer loop
      vertex -19.4875 2.38027 8.79
      vertex -19.4875 2.38027 10
      vertex -17.975 5 8.79
    endloop
  endfacet
  facet normal 1 0 -0
    outer loop
      vertex 3.528 18.1 0
      vertex 3.528 18.1 10
      vertex 3.528 10.9 10
    endloop
  endfacet
  facet normal 1 0 0
    outer loop
      vertex 3.528 10.9 0
      vertex 3.528 18.1 0
      vertex 3.528 10.9 10
    endloop
  endfacet
  facet normal 0 -1 0
    outer loop
      vertex 10.506 18.1 0
      vertex 10.506 18.1 10
      vertex 3.528 18.1 10
    endloop
  endfacet
  facet normal 0 -1 0
    outer loop
      vertex 3.528 18.1 0
      vertex 10.506 18.1 0
      vertex 3.528 18.1 10
    endloop
  endfacet
  facet normal -0.262478 -0.964938 0
    outer loop
      vertex 11.528 17.822 0
      vertex 11.528 17.822 10
      vertex 10.506 18.1 10
    endloop
  endfacet
  facet normal -0.262478 -0.964938 0
    outer loop
      vertex 10.506 18.1 0
      vertex 11.528 17.822 0
      vertex 10.506 18.1 10
    endloop
  endfacet
  facet normal -0.158875 -0.987299 0
    outer loop
      vertex 12.572 17.654 0
      vertex 12.572 17.654 10
      vertex 11.528 17.822 10
    endloop
  endfacet
  facet normal -0.158875 -0.987299 0
    outer loop
      vertex 11.528 17.822 0
      vertex 12.572 17.654 0
      vertex 11.528 17.822 10
    endloop
  endfacet
  facet normal -0.0510705 -0.998695 0
    outer loop
      vertex 13.628 17.6 0
      vertex 13.628 17.6 10
      vertex 12.572 17.654 10
    endloop
  endfacet
  facet normal -0.0510705 -0.998695 0
    outer loop
      vertex 12.572 17.654 0
      vertex 13.628 17.6 0
      vertex 12.572 17.654 10
    endloop
  endfacet
  facet normal 0.0509741 -0.9987 0
    outer loop
      vertex 14.686 17.654 0
      vertex 14.686 17.654 10
      vertex 13.628 17.6 10
    endloop
  endfacet
  facet normal 0.0509741 -0.9987 0
    outer loop
      vertex 13.628 17.6 0
      vertex 14.686 17.654 0
      vertex 13.628 17.6 10
    endloop
  endfacet
  facet normal 0.158875 -0.987299 0
    outer loop
      vertex 15.73 17.822 0
      vertex 15.73 17.822 10
      vertex 14.686 17.654 10
    endloop
  endfacet
  facet normal 0.158875 -0.987299 0
    outer loop
      vertex 14.686 17.654 0
      vertex 15.73 17.822 0
      vertex 14.686 17.654 10
    endloop
  endfacet
  facet normal 0.262478 -0.964938 0
    outer loop
      vertex 16.752 18.1 0
      vertex 16.752 18.1 10
      vertex 15.73 17.822 10
    endloop
  endfacet
  facet normal 0.262478 -0.964938 0
    outer loop
      vertex 15.73 17.822 0
      vertex 16.752 18.1 0
      vertex 15.73 17.822 10
    endloop
  endfacet
  facet normal 0 -1 0
    outer loop
      vertex 23.728 18.1 0
      vertex 23.728 18.1 10
      vertex 16.752 18.1 10
    endloop
  endfacet
  facet normal 0 -1 0
    outer loop
      vertex 16.752 18.1 0
      vertex 23.728 18.1 0
      vertex 16.752 18.1 10
    endloop
  endfacet
  facet normal -1 0 0
    outer loop
      vertex 23.728 10.9 10
      vertex 23.728 18.1 10
      vertex 23.728 18.1 0
    endloop
  endfacet
  facet normal -1 0 0
    outer loop
      vertex 23.728 10.9 0
      vertex 23.728 10.9 10
      vertex 23.728 18.1 0
    endloop
  endfacet
  facet normal -0 1 0
    outer loop
      vertex 23.316 10.9 10
      vertex 23.728 10.9 10
      vertex 23.728 10.9 0
    endloop
  endfacet
  facet normal 0 1 0
    outer loop
      vertex 23.316 10.9 0
      vertex 23.316 10.9 10
      vertex 23.728 10.9 0
    endloop
  endfacet
  facet normal -0.0933412 0.995634 0
    outer loop
      vertex 23.188 10.888 10
      vertex 23.316 10.9 10
      vertex 23.316 10.9 0
    endloop
  endfacet
  facet normal -0.0933412 0.995634 0
    outer loop
      vertex 23.188 10.888 0
      vertex 23.188 10.888 10
      vertex 23.316 10.9 0
    endloop
  endfacet
  facet normal -0.231616 0.972807 0
    outer loop
      vertex 23.062 10.858 10
      vertex 23.188 10.888 10
      vertex 23.188 10.888 0
    endloop
  endfacet
  facet normal -0.231616 0.972807 0
    outer loop
      vertex 23.062 10.858 0
      vertex 23.062 10.858 10
      vertex 23.188 10.888 0
    endloop
  endfacet
  facet normal -0.403259 0.915086 0
    outer loop
      vertex 22.944 10.806 10
      vertex 23.062 10.858 10
      vertex 23.062 10.858 0
    endloop
  endfacet
  facet normal -0.403259 0.915086 0
    outer loop
      vertex 22.944 10.806 0
      vertex 22.944 10.806 10
      vertex 23.062 10.858 0
    endloop
  endfacet
  facet normal -0.525826 0.850592 0
    outer loop
      vertex 22.834 10.738 10
      vertex 22.944 10.806 10
      vertex 22.944 10.806 0
    endloop
  endfacet
  facet normal -0.525826 0.850592 0
    outer loop
      vertex 22.834 10.738 0
      vertex 22.834 10.738 10
      vertex 22.944 10.806 0
    endloop
  endfacet
  facet normal -0.667248 0.744836 0
    outer loop
      vertex 22.738 10.652 10
      vertex 22.834 10.738 10
      vertex 22.834 10.738 0
    endloop
  endfacet
  facet normal -0.667248 0.744836 0
    outer loop
      vertex 22.738 10.652 0
      vertex 22.738 10.652 10
      vertex 22.834 10.738 0
    endloop
  endfacet
  facet normal -0.779374 0.626559 0
    outer loop
      vertex 22.656 10.55 10
      vertex 22.738 10.652 10
      vertex 22.738 10.652 0
    endloop
  endfacet
  facet normal -0.779374 0.626559 0
    outer loop
      vertex 22.656 10.55 0
      vertex 22.656 10.55 10
      vertex 22.738 10.652 0
    endloop
  endfacet
  facet normal -0.868245 0.496136 0
    outer loop
      vertex 22.592 10.438 10
      vertex 22.656 10.55 10
      vertex 22.656 10.55 0
    endloop
  endfacet
  facet normal -0.868245 0.496136 0
    outer loop
      vertex 22.592 10.438 0
      vertex 22.592 10.438 10
      vertex 22.656 10.55 0
    endloop
  endfacet
  facet normal -0.938875 0.344259 0
    outer loop
      vertex 22.548 10.318 10
      vertex 22.592 10.438 10
      vertex 22.592 10.438 0
    endloop
  endfacet
  facet normal -0.938875 0.344259 0
    outer loop
      vertex 22.548 10.318 0
      vertex 22.548 10.318 10
      vertex 22.592 10.438 0
    endloop
  endfacet
  facet normal -0.979989 0.199053 0
    outer loop
      vertex 22.522 10.19 10
      vertex 22.548 10.318 10
      vertex 22.548 10.318 0
    endloop
  endfacet
  facet normal -0.979989 0.199053 0
    outer loop
      vertex 22.522 10.19 0
      vertex 22.522 10.19 10
      vertex 22.548 10.318 0
    endloop
  endfacet
  facet normal -0.999527 0.0307524 0
    outer loop
      vertex 22.518 10.06 10
      vertex 22.522 10.19 10
      vertex 22.522 10.19 0
    endloop
  endfacet
  facet normal -0.999527 0.0307524 0
    outer loop
      vertex 22.518 10.06 0
      vertex 22.518 10.06 10
      vertex 22.522 10.19 0
    endloop
  endfacet
  facet normal -0.992279 -0.124026 0
    outer loop
      vertex 22.534 9.932 0
      vertex 22.534 9.932 10
      vertex 22.518 10.06 10
    endloop
  endfacet
  facet normal -0.992279 -0.124026 0
    outer loop
      vertex 22.518 10.06 0
      vertex 22.534 9.932 0
      vertex 22.518 10.06 10
    endloop
  endfacet
  facet normal -0.978168 -0.207817 0
    outer loop
      vertex 23.728 4.312 0
      vertex 23.728 4.312 10
      vertex 22.534 9.932 10
    endloop
  endfacet
  facet normal -0.978168 -0.207817 0
    outer loop
      vertex 22.534 9.932 0
      vertex 23.728 4.312 0
      vertex 22.534 9.932 10
    endloop
  endfacet
  facet normal -1 0 0
    outer loop
      vertex 23.728 0.998 10
      vertex 23.728 4.312 10
      vertex 23.728 4.312 0
    endloop
  endfacet
  facet normal -1 0 0
    outer loop
      vertex 23.728 0.998 0
      vertex 23.728 0.998 10
      vertex 23.728 4.312 0
    endloop
  endfacet
  facet normal -0.995997 -0.089384 0
    outer loop
      vertex 23.742 0.842 0
      vertex 23.742 0.842 10
      vertex 23.728 0.998 10
    endloop
  endfacet
  facet normal -0.995997 -0.089384 0
    outer loop
      vertex 23.728 0.998 0
      vertex 23.742 0.842 0
      vertex 23.728 0.998 10
    endloop
  endfacet
  facet normal -0.973079 -0.230474 0
    outer loop
      vertex 23.778 0.69 0
      vertex 23.778 0.69 10
      vertex 23.742 0.842 10
    endloop
  endfacet
  facet normal -0.973079 -0.230474 0
    outer loop
      vertex 23.742 0.842 0
      vertex 23.778 0.69 0
      vertex 23.742 0.842 10
    endloop
  endfacet
  facet normal -0.923078 -0.384612 0
    outer loop
      vertex 23.838 0.546 0
      vertex 23.838 0.546 10
      vertex 23.778 0.69 10
    endloop
  endfacet
  facet normal -0.923078 -0.384612 0
    outer loop
      vertex 23.778 0.69 0
      vertex 23.838 0.546 0
      vertex 23.778 0.69 10
    endloop
  endfacet
  facet normal -0.852965 -0.521968 0
    outer loop
      vertex 23.92 0.412 0
      vertex 23.92 0.412 10
      vertex 23.838 0.546 10
    endloop
  endfacet
  facet normal -0.852965 -0.521968 0
    outer loop
      vertex 23.838 0.546 0
      vertex 23.92 0.412 0
      vertex 23.838 0.546 10
    endloop
  endfacet
  facet normal -0.761942 -0.647646 0
    outer loop
      vertex 24.022 0.292 0
      vertex 24.022 0.292 10
      vertex 23.92 0.412 10
    endloop
  endfacet
  facet normal -0.761942 -0.647646 0
    outer loop
      vertex 23.92 0.412 0
      vertex 24.022 0.292 0
      vertex 23.92 0.412 10
    endloop
  endfacet
  facet normal -0.647652 -0.761936 0
    outer loop
      vertex 24.142 0.19 0
      vertex 24.142 0.19 10
      vertex 24.022 0.292 10
    endloop
  endfacet
  facet normal -0.647652 -0.761936 0
    outer loop
      vertex 24.022 0.292 0
      vertex 24.142 0.19 0
      vertex 24.022 0.292 10
    endloop
  endfacet
  facet normal -0.527678 -0.849445 0
    outer loop
      vertex 24.274 0.108 0
      vertex 24.274 0.108 10
      vertex 24.142 0.19 10
    endloop
  endfacet
  facet normal -0.527678 -0.849445 0
    outer loop
      vertex 24.142 0.19 0
      vertex 24.274 0.108 0
      vertex 24.142 0.19 10
    endloop
  endfacet
  facet normal -0.380113 -0.92494 0
    outer loop
      vertex 24.42 0.048 0
      vertex 24.42 0.048 10
      vertex 24.274 0.108 10
    endloop
  endfacet
  facet normal -0.380113 -0.92494 0
    outer loop
      vertex 24.274 0.108 0
      vertex 24.42 0.048 0
      vertex 24.274 0.108 10
    endloop
  endfacet
  facet normal -0.230469 -0.97308 0
    outer loop
      vertex 24.572 0.012 0
      vertex 24.572 0.012 10
      vertex 24.42 0.048 10
    endloop
  endfacet
  facet normal -0.230469 -0.97308 0
    outer loop
      vertex 24.42 0.048 0
      vertex 24.572 0.012 0
      vertex 24.42 0.048 10
    endloop
  endfacet
  facet normal -0.0766964 -0.997054 0
    outer loop
      vertex 24.728 0 0
      vertex 24.728 0 10
      vertex 24.572 0.012 10
    endloop
  endfacet
  facet normal -0.0766964 -0.997054 0
    outer loop
      vertex 24.572 0.012 0
      vertex 24.728 0 0
      vertex 24.572 0.012 10
    endloop
  endfacet
  facet normal 0 -1 0
    outer loop
      vertex 25.728 0 0
      vertex 25.728 0 10
      vertex 24.728 0 10
    endloop
  endfacet
  facet normal 0 -1 0
    outer loop
      vertex 24.728 0 0
      vertex 25.728 0 0
      vertex 24.728 0 10
    endloop
  endfacet
  facet normal 0.0811266 -0.996704 0
    outer loop
      vertex 25.9 0.014 0
      vertex 25.9 0.014 10
      vertex 25.728 0 10
    endloop
  endfacet
  facet normal 0.0811266 -0.996704 0
    outer loop
      vertex 25.728 0 0
      vertex 25.9 0.014 0
      vertex 25.728 0 10
    endloop
  endfacet
  facet normal 0.256212 -0.966621 0
    outer loop
      vertex 26.066 0.058 0
      vertex 26.066 0.058 10
      vertex 25.9 0.014 10
    endloop
  endfacet
  facet normal 0.256212 -0.966621 0
    outer loop
      vertex 25.9 0.014 0
      vertex 26.066 0.058 0
      vertex 25.9 0.014 10
    endloop
  endfacet
  facet normal 0.409391 -0.912359 0
    outer loop
      vertex 26.222 0.128 0
      vertex 26.222 0.128 10
      vertex 26.066 0.058 10
    endloop
  endfacet
  facet normal 0.409391 -0.912359 0
    outer loop
      vertex 26.066 0.058 0
      vertex 26.222 0.128 0
      vertex 26.066 0.058 10
    endloop
  endfacet
  facet normal 0.573464 -0.819231 0
    outer loop
      vertex 26.362 0.226 0
      vertex 26.362 0.226 10
      vertex 26.222 0.128 10
    endloop
  endfacet
  facet normal 0.573464 -0.819231 0
    outer loop
      vertex 26.222 0.128 0
      vertex 26.362 0.226 0
      vertex 26.222 0.128 10
    endloop
  endfacet
  facet normal 0.69542 -0.718604 0
    outer loop
      vertex 26.486 0.346 0
      vertex 26.486 0.346 10
      vertex 26.362 0.226 10
    endloop
  endfacet
  facet normal 0.69542 -0.718604 0
    outer loop
      vertex 26.362 0.226 0
      vertex 26.486 0.346 0
      vertex 26.362 0.226 10
    endloop
  endfacet
  facet normal 0.809754 -0.586769 0
    outer loop
      vertex 26.586 0.484 0
      vertex 26.586 0.484 10
      vertex 26.486 0.346 10
    endloop
  endfacet
  facet normal 0.809754 -0.586769 0
    outer loop
      vertex 26.486 0.346 0
      vertex 26.586 0.484 0
      vertex 26.486 0.346 10
    endloop
  endfacet
  facet normal 0.896744 -0.44255 0
    outer loop
      vertex 26.662 0.638 0
      vertex 26.662 0.638 10
      vertex 26.586 0.484 10
    endloop
  endfacet
  facet normal 0.896744 -0.44255 0
    outer loop
      vertex 26.586 0.484 0
      vertex 26.662 0.638 0
      vertex 26.586 0.484 10
    endloop
  endfacet
  facet normal 0.959737 -0.280901 0
    outer loop
      vertex 26.71 0.802 0
      vertex 26.71 0.802 10
      vertex 26.662 0.638 10
    endloop
  endfacet
  facet normal 0.959737 -0.280901 0
    outer loop
      vertex 26.662 0.638 0
      vertex 26.71 0.802 0
      vertex 26.662 0.638 10
    endloop
  endfacet
  facet normal 0.994441 -0.105292 0
    outer loop
      vertex 26.728 0.972 0
      vertex 26.728 0.972 10
      vertex 26.71 0.802 10
    endloop
  endfacet
  facet normal 0.994441 -0.105292 0
    outer loop
      vertex 26.71 0.802 0
      vertex 26.728 0.972 0
      vertex 26.71 0.802 10
    endloop
  endfacet
  facet normal 0.999657 -0.026182 0
    outer loop
      vertex 27.258 21.208 0
      vertex 27.258 21.208 10
      vertex 26.728 0.972 10
    endloop
  endfacet
  facet normal 0.999657 -0.026182 0
    outer loop
      vertex 26.728 0.972 0
      vertex 27.258 21.208 0
      vertex 26.728 0.972 10
    endloop
  endfacet
  facet normal 0.119268 0.992862 0
    outer loop
      vertex 23.216 22.608 10
      vertex 26.396 22.226 10
      vertex 26.396 22.226 0
    endloop
  endfacet
  facet normal 0.119268 0.992862 -0
    outer loop
      vertex 23.216 22.608 0
      vertex 23.216 22.608 10
      vertex 26.396 22.226 0
    endloop
  endfacet
  facet normal 0.084958 0.996385 0
    outer loop
      vertex 20.026 22.88 10
      vertex 23.216 22.608 10
      vertex 23.216 22.608 0
    endloop
  endfacet
  facet normal 0.084958 0.996385 -0
    outer loop
      vertex 20.026 22.88 0
      vertex 20.026 22.88 10
      vertex 23.216 22.608 0
    endloop
  endfacet
  facet normal 0.0512466 0.998686 0
    outer loop
      vertex 16.83 23.044 10
      vertex 20.026 22.88 10
      vertex 20.026 22.88 0
    endloop
  endfacet
  facet normal 0.0512466 0.998686 -0
    outer loop
      vertex 16.83 23.044 0
      vertex 16.83 23.044 10
      vertex 20.026 22.88 0
    endloop
  endfacet
  facet normal 0.0174863 0.999847 0
    outer loop
      vertex 13.628 23.1 10
      vertex 16.83 23.044 10
      vertex 16.83 23.044 0
    endloop
  endfacet
  facet normal 0.0174863 0.999847 -0
    outer loop
      vertex 13.628 23.1 0
      vertex 13.628 23.1 10
      vertex 16.83 23.044 0
    endloop
  endfacet
  facet normal -0.0174972 0.999847 0
    outer loop
      vertex 10.428 23.044 10
      vertex 13.628 23.1 10
      vertex 13.628 23.1 0
    endloop
  endfacet
  facet normal -0.0174972 0.999847 0
    outer loop
      vertex 10.428 23.044 0
      vertex 10.428 23.044 10
      vertex 13.628 23.1 0
    endloop
  endfacet
  facet normal -0.0512146 0.998688 0
    outer loop
      vertex 7.23 22.88 10
      vertex 10.428 23.044 10
      vertex 10.428 23.044 0
    endloop
  endfacet
  facet normal -0.0512146 0.998688 0
    outer loop
      vertex 7.23 22.88 0
      vertex 7.23 22.88 10
      vertex 10.428 23.044 0
    endloop
  endfacet
  facet normal -0.0850109 0.99638 0
    outer loop
      vertex 4.042 22.608 10
      vertex 7.23 22.88 10
      vertex 7.23 22.88 0
    endloop
  endfacet
  facet normal -0.0850109 0.99638 0
    outer loop
      vertex 4.042 22.608 0
      vertex 4.042 22.608 10
      vertex 7.23 22.88 0
    endloop
  endfacet
  facet normal -0.119268 0.992862 0
    outer loop
      vertex 0.862 22.226 10
      vertex 4.042 22.608 10
      vertex 4.042 22.608 0
    endloop
  endfacet
  facet normal -0.119268 0.992862 0
    outer loop
      vertex 0.862 22.226 0
      vertex 0.862 22.226 10
      vertex 4.042 22.608 0
    endloop
  endfacet
  facet normal -0.999657 -0.026182 0
    outer loop
      vertex 0.0592534 18.9456 0
      vertex 0.0592534 18.9456 10
      vertex 0 21.208 10
    endloop
  endfacet
  facet normal -0.999657 -0.026182 0
    outer loop
      vertex 0 21.208 0
      vertex 0.0592534 18.9456 0
      vertex 0 21.208 10
    endloop
  endfacet
  facet normal -0.999657 -0.026182 0
    outer loop
      vertex 0.53 0.972 0
      vertex 0.53 0.972 10
      vertex 0.5 2.11744 10
    endloop
  endfacet
  facet normal -0.999657 -0.026182 0
    outer loop
      vertex 0.5 2.11744 0
      vertex 0.53 0.972 0
      vertex 0.5 2.11744 10
    endloop
  endfacet
  facet normal -0.994441 -0.105294 0
    outer loop
      vertex 0.548 0.802 0
      vertex 0.548 0.802 10
      vertex 0.53 0.972 10
    endloop
  endfacet
  facet normal -0.994441 -0.105294 0
    outer loop
      vertex 0.53 0.972 0
      vertex 0.548 0.802 0
      vertex 0.53 0.972 10
    endloop
  endfacet
  facet normal -0.959737 -0.280899 0
    outer loop
      vertex 0.596 0.638 0
      vertex 0.596 0.638 10
      vertex 0.548 0.802 10
    endloop
  endfacet
  facet normal -0.959737 -0.280899 0
    outer loop
      vertex 0.548 0.802 0
      vertex 0.596 0.638 0
      vertex 0.548 0.802 10
    endloop
  endfacet
  facet normal -0.896744 -0.442549 0
    outer loop
      vertex 0.672 0.484 0
      vertex 0.672 0.484 10
      vertex 0.596 0.638 10
    endloop
  endfacet
  facet normal -0.896744 -0.442549 0
    outer loop
      vertex 0.596 0.638 0
      vertex 0.672 0.484 0
      vertex 0.596 0.638 10
    endloop
  endfacet
  facet normal -0.80975 -0.586775 0
    outer loop
      vertex 0.772 0.346 0
      vertex 0.772 0.346 10
      vertex 0.672 0.484 10
    endloop
  endfacet
  facet normal -0.80975 -0.586775 0
    outer loop
      vertex 0.672 0.484 0
      vertex 0.772 0.346 0
      vertex 0.672 0.484 10
    endloop
  endfacet
  facet normal -0.695421 -0.718602 0
    outer loop
      vertex 0.896 0.226 0
      vertex 0.896 0.226 10
      vertex 0.772 0.346 10
    endloop
  endfacet
  facet normal -0.695421 -0.718602 0
    outer loop
      vertex 0.772 0.346 0
      vertex 0.896 0.226 0
      vertex 0.772 0.346 10
    endloop
  endfacet
  facet normal -0.573462 -0.819232 0
    outer loop
      vertex 1.036 0.128 0
      vertex 1.036 0.128 10
      vertex 0.896 0.226 10
    endloop
  endfacet
  facet normal -0.573462 -0.819232 0
    outer loop
      vertex 0.896 0.226 0
      vertex 1.036 0.128 0
      vertex 0.896 0.226 10
    endloop
  endfacet
  facet normal -0.409392 -0.912359 0
    outer loop
      vertex 1.192 0.058 0
      vertex 1.192 0.058 10
      vertex 1.036 0.128 10
    endloop
  endfacet
  facet normal -0.409392 -0.912359 0
    outer loop
      vertex 1.036 0.128 0
      vertex 1.192 0.058 0
      vertex 1.036 0.128 10
    endloop
  endfacet
  facet normal -0.256213 -0.96662 0
    outer loop
      vertex 1.358 0.014 0
      vertex 1.358 0.014 10
      vertex 1.192 0.058 10
    endloop
  endfacet
  facet normal -0.256213 -0.96662 0
    outer loop
      vertex 1.192 0.058 0
      vertex 1.358 0.014 0
      vertex 1.192 0.058 10
    endloop
  endfacet
  facet normal -0.0820751 -0.996626 0
    outer loop
      vertex 1.528 0 0
      vertex 1.528 0 10
      vertex 1.358 0.014 10
    endloop
  endfacet
  facet normal -0.0820751 -0.996626 0
    outer loop
      vertex 1.358 0.014 0
      vertex 1.528 0 0
      vertex 1.358 0.014 10
    endloop
  endfacet
  facet normal 0 -1 0
    outer loop
      vertex 2.528 0 0
      vertex 2.528 0 10
      vertex 1.528 0 10
    endloop
  endfacet
  facet normal 0 -1 0
    outer loop
      vertex 1.528 0 0
      vertex 2.528 0 0
      vertex 1.528 0 10
    endloop
  endfacet
  facet normal 0.0757313 -0.997128 0
    outer loop
      vertex 2.686 0.012 0
      vertex 2.686 0.012 10
      vertex 2.528 0 10
    endloop
  endfacet
  facet normal 0.0757313 -0.997128 0
    outer loop
      vertex 2.528 0 0
      vertex 2.686 0.012 0
      vertex 2.528 0 10
    endloop
  endfacet
  facet normal 0.230466 -0.97308 0
    outer loop
      vertex 2.838 0.048 0
      vertex 2.838 0.048 10
      vertex 2.686 0.012 10
    endloop
  endfacet
  facet normal 0.230466 -0.97308 0
    outer loop
      vertex 2.686 0.012 0
      vertex 2.838 0.048 0
      vertex 2.686 0.012 10
    endloop
  endfacet
  facet normal 0.384615 -0.923077 0
    outer loop
      vertex 2.982 0.108 0
      vertex 2.982 0.108 10
      vertex 2.838 0.048 10
    endloop
  endfacet
  facet normal 0.384615 -0.923077 0
    outer loop
      vertex 2.838 0.048 0
      vertex 2.982 0.108 0
      vertex 2.838 0.048 10
    endloop
  endfacet
  facet normal 0.521965 -0.852967 0
    outer loop
      vertex 3.116 0.19 0
      vertex 3.116 0.19 10
      vertex 2.982 0.108 10
    endloop
  endfacet
  facet normal 0.521965 -0.852967 0
    outer loop
      vertex 2.982 0.108 0
      vertex 3.116 0.19 0
      vertex 2.982 0.108 10
    endloop
  endfacet
  facet normal 0.647649 -0.761939 0
    outer loop
      vertex 3.236 0.292 0
      vertex 3.236 0.292 10
      vertex 3.116 0.19 10
    endloop
  endfacet
  facet normal 0.647649 -0.761939 0
    outer loop
      vertex 3.116 0.19 0
      vertex 3.236 0.292 0
      vertex 3.116 0.19 10
    endloop
  endfacet
  facet normal 0.761939 -0.647648 0
    outer loop
      vertex 3.338 0.412 0
      vertex 3.338 0.412 10
      vertex 3.236 0.292 10
    endloop
  endfacet
  facet normal 0.761939 -0.647648 0
    outer loop
      vertex 3.236 0.292 0
      vertex 3.338 0.412 0
      vertex 3.236 0.292 10
    endloop
  endfacet
  facet normal 0.852967 -0.521965 0
    outer loop
      vertex 3.42 0.546 0
      vertex 3.42 0.546 10
      vertex 3.338 0.412 10
    endloop
  endfacet
  facet normal 0.852967 -0.521965 0
    outer loop
      vertex 3.338 0.412 0
      vertex 3.42 0.546 0
      vertex 3.338 0.412 10
    endloop
  endfacet
  facet normal 0.923077 -0.384616 0
    outer loop
      vertex 3.48 0.69 0
      vertex 3.48 0.69 10
      vertex 3.42 0.546 10
    endloop
  endfacet
  facet normal 0.923077 -0.384616 0
    outer loop
      vertex 3.42 0.546 0
      vertex 3.48 0.69 0
      vertex 3.42 0.546 10
    endloop
  endfacet
  facet normal 0.97308 -0.230466 0
    outer loop
      vertex 3.516 0.842 0
      vertex 3.516 0.842 10
      vertex 3.48 0.69 10
    endloop
  endfacet
  facet normal 0.97308 -0.230466 0
    outer loop
      vertex 3.48 0.69 0
      vertex 3.516 0.842 0
      vertex 3.48 0.69 10
    endloop
  endfacet
  facet normal 0.997055 -0.0766955 0
    outer loop
      vertex 3.528 0.998 0
      vertex 3.528 0.998 10
      vertex 3.516 0.842 10
    endloop
  endfacet
  facet normal 0.997055 -0.0766955 0
    outer loop
      vertex 3.516 0.842 0
      vertex 3.528 0.998 0
      vertex 3.516 0.842 10
    endloop
  endfacet
  facet normal 1 0 -0
    outer loop
      vertex 3.528 4.312 0
      vertex 3.528 4.312 10
      vertex 3.528 0.998 10
    endloop
  endfacet
  facet normal 1 0 0
    outer loop
      vertex 3.528 0.998 0
      vertex 3.528 4.312 0
      vertex 3.528 0.998 10
    endloop
  endfacet
  facet normal 0.978097 -0.20815 0
    outer loop
      vertex 4.724 9.932 0
      vertex 4.724 9.932 10
      vertex 3.528 4.312 10
    endloop
  endfacet
  facet normal 0.978097 -0.20815 0
    outer loop
      vertex 3.528 4.312 0
      vertex 4.724 9.932 0
      vertex 3.528 4.312 10
    endloop
  endfacet
  facet normal 0.992278 -0.124033 0
    outer loop
      vertex 4.74 10.06 0
      vertex 4.74 10.06 10
      vertex 4.724 9.932 10
    endloop
  endfacet
  facet normal 0.992278 -0.124033 0
    outer loop
      vertex 4.724 9.932 0
      vertex 4.74 10.06 0
      vertex 4.724 9.932 10
    endloop
  endfacet
  facet normal 0.999527 0.0307561 0
    outer loop
      vertex 4.736 10.19 10
      vertex 4.74 10.06 10
      vertex 4.74 10.06 0
    endloop
  endfacet
  facet normal 0.999527 0.0307561 -0
    outer loop
      vertex 4.736 10.19 0
      vertex 4.736 10.19 10
      vertex 4.74 10.06 0
    endloop
  endfacet
  facet normal 0.979987 0.19906 0
    outer loop
      vertex 4.71 10.318 10
      vertex 4.736 10.19 10
      vertex 4.736 10.19 0
    endloop
  endfacet
  facet normal 0.979987 0.19906 -0
    outer loop
      vertex 4.71 10.318 0
      vertex 4.71 10.318 10
      vertex 4.736 10.19 0
    endloop
  endfacet
  facet normal 0.938877 0.344253 0
    outer loop
      vertex 4.666 10.438 10
      vertex 4.71 10.318 10
      vertex 4.71 10.318 0
    endloop
  endfacet
  facet normal 0.938877 0.344253 -0
    outer loop
      vertex 4.666 10.438 0
      vertex 4.666 10.438 10
      vertex 4.71 10.318 0
    endloop
  endfacet
  facet normal 0.868242 0.496141 0
    outer loop
      vertex 4.602 10.55 10
      vertex 4.666 10.438 10
      vertex 4.666 10.438 0
    endloop
  endfacet
  facet normal 0.868242 0.496141 -0
    outer loop
      vertex 4.602 10.55 0
      vertex 4.602 10.55 10
      vertex 4.666 10.438 0
    endloop
  endfacet
  facet normal 0.779375 0.626557 0
    outer loop
      vertex 4.52 10.652 10
      vertex 4.602 10.55 10
      vertex 4.602 10.55 0
    endloop
  endfacet
  facet normal 0.779375 0.626557 -0
    outer loop
      vertex 4.52 10.652 0
      vertex 4.52 10.652 10
      vertex 4.602 10.55 0
    endloop
  endfacet
  facet normal 0.667251 0.744833 0
    outer loop
      vertex 4.424 10.738 10
      vertex 4.52 10.652 10
      vertex 4.52 10.652 0
    endloop
  endfacet
  facet normal 0.667251 0.744833 -0
    outer loop
      vertex 4.424 10.738 0
      vertex 4.424 10.738 10
      vertex 4.52 10.652 0
    endloop
  endfacet
  facet normal 0.525821 0.850595 0
    outer loop
      vertex 4.314 10.806 10
      vertex 4.424 10.738 10
      vertex 4.424 10.738 0
    endloop
  endfacet
  facet normal 0.525821 0.850595 -0
    outer loop
      vertex 4.314 10.806 0
      vertex 4.314 10.806 10
      vertex 4.424 10.738 0
    endloop
  endfacet
  facet normal 0.403259 0.915086 0
    outer loop
      vertex 4.196 10.858 10
      vertex 4.314 10.806 10
      vertex 4.314 10.806 0
    endloop
  endfacet
  facet normal 0.403259 0.915086 -0
    outer loop
      vertex 4.196 10.858 0
      vertex 4.196 10.858 10
      vertex 4.314 10.806 0
    endloop
  endfacet
  facet normal 0.231619 0.972807 0
    outer loop
      vertex 4.07 10.888 10
      vertex 4.196 10.858 10
      vertex 4.196 10.858 0
    endloop
  endfacet
  facet normal 0.231619 0.972807 -0
    outer loop
      vertex 4.07 10.888 0
      vertex 4.07 10.888 10
      vertex 4.196 10.858 0
    endloop
  endfacet
  facet normal 0.0919176 0.995767 0
    outer loop
      vertex 3.94 10.9 10
      vertex 4.07 10.888 10
      vertex 4.07 10.888 0
    endloop
  endfacet
  facet normal 0.0919176 0.995767 -0
    outer loop
      vertex 3.94 10.9 0
      vertex 3.94 10.9 10
      vertex 4.07 10.888 0
    endloop
  endfacet
  facet normal -0 1 0
    outer loop
      vertex 3.528 10.9 10
      vertex 3.94 10.9 10
      vertex 3.94 10.9 0
    endloop
  endfacet
  facet normal 0 1 0
    outer loop
      vertex 3.528 10.9 0
      vertex 3.528 10.9 10
      vertex 3.94 10.9 0
    endloop
  endfacet
  facet normal 0.998783 0.0493188 0
    outer loop
      vertex 27.25 21.37 10
      vertex 27.258 21.208 10
      vertex 27.258 21.208 0
    endloop
  endfacet
  facet normal 0.998783 0.0493188 -0
    outer loop
      vertex 27.25 21.37 0
      vertex 27.25 21.37 10
      vertex 27.258 21.208 0
    endloop
  endfacet
  facet normal 0.97501 0.22216 0
    outer loop
      vertex 27.214 21.528 10
      vertex 27.25 21.37 10
      vertex 27.25 21.37 0
    endloop
  endfacet
  facet normal 0.97501 0.22216 -0
    outer loop
      vertex 27.214 21.528 0
      vertex 27.214 21.528 10
      vertex 27.25 21.37 0
    endloop
  endfacet
  facet normal 0.930155 0.367167 0
    outer loop
      vertex 27.154 21.68 10
      vertex 27.214 21.528 10
      vertex 27.214 21.528 0
    endloop
  endfacet
  facet normal 0.930155 0.367167 -0
    outer loop
      vertex 27.154 21.68 0
      vertex 27.154 21.68 10
      vertex 27.214 21.528 0
    endloop
  endfacet
  facet normal 0.8542 0.519944 0
    outer loop
      vertex 27.07 21.818 10
      vertex 27.154 21.68 10
      vertex 27.154 21.68 0
    endloop
  endfacet
  facet normal 0.8542 0.519944 -0
    outer loop
      vertex 27.07 21.818 0
      vertex 27.07 21.818 10
      vertex 27.154 21.68 0
    endloop
  endfacet
  facet normal 0.766193 0.642611 0
    outer loop
      vertex 26.966 21.942 10
      vertex 27.07 21.818 10
      vertex 27.07 21.818 0
    endloop
  endfacet
  facet normal 0.766193 0.642611 -0
    outer loop
      vertex 26.966 21.942 0
      vertex 26.966 21.942 10
      vertex 27.07 21.818 0
    endloop
  endfacet
  facet normal 0.642611 0.766193 0
    outer loop
      vertex 26.842 22.046 10
      vertex 26.966 21.942 10
      vertex 26.966 21.942 0
    endloop
  endfacet
  facet normal 0.642611 0.766193 -0
    outer loop
      vertex 26.842 22.046 0
      vertex 26.842 22.046 10
      vertex 26.966 21.942 0
    endloop
  endfacet
  facet normal 0.519944 0.8542 0
    outer loop
      vertex 26.704 22.13 10
      vertex 26.842 22.046 10
      vertex 26.842 22.046 0
    endloop
  endfacet
  facet normal 0.519944 0.8542 -0
    outer loop
      vertex 26.704 22.13 0
      vertex 26.704 22.13 10
      vertex 26.842 22.046 0
    endloop
  endfacet
  facet normal 0.371389 0.928478 0
    outer loop
      vertex 26.554 22.19 10
      vertex 26.704 22.13 10
      vertex 26.704 22.13 0
    endloop
  endfacet
  facet normal 0.371389 0.928478 -0
    outer loop
      vertex 26.554 22.19 0
      vertex 26.554 22.19 10
      vertex 26.704 22.13 0
    endloop
  endfacet
  facet normal 0.222163 0.97501 0
    outer loop
      vertex 26.396 22.226 10
      vertex 26.554 22.19 10
      vertex 26.554 22.19 0
    endloop
  endfacet
  facet normal 0.222163 0.97501 -0
    outer loop
      vertex 26.396 22.226 0
      vertex 26.396 22.226 10
      vertex 26.554 22.19 0
    endloop
  endfacet
  facet normal -0.222162 0.97501 0
    outer loop
      vertex 0.704 22.19 10
      vertex 0.862 22.226 10
      vertex 0.862 22.226 0
    endloop
  endfacet
  facet normal -0.222162 0.97501 0
    outer loop
      vertex 0.704 22.19 0
      vertex 0.704 22.19 10
      vertex 0.862 22.226 0
    endloop
  endfacet
  facet normal -0.371388 0.928478 0
    outer loop
      vertex 0.554 22.13 10
      vertex 0.704 22.19 10
      vertex 0.704 22.19 0
    endloop
  endfacet
  facet normal -0.371388 0.928478 0
    outer loop
      vertex 0.554 22.13 0
      vertex 0.554 22.13 10
      vertex 0.704 22.19 0
    endloop
  endfacet
  facet normal -0.519945 0.8542 0
    outer loop
      vertex 0.416 22.046 10
      vertex 0.554 22.13 10
      vertex 0.554 22.13 0
    endloop
  endfacet
  facet normal -0.519945 0.8542 0
    outer loop
      vertex 0.416 22.046 0
      vertex 0.416 22.046 10
      vertex 0.554 22.13 0
    endloop
  endfacet
  facet normal -0.642613 0.766191 0
    outer loop
      vertex 0.292 21.942 10
      vertex 0.416 22.046 10
      vertex 0.416 22.046 0
    endloop
  endfacet
  facet normal -0.642613 0.766191 0
    outer loop
      vertex 0.292 21.942 0
      vertex 0.292 21.942 10
      vertex 0.416 22.046 0
    endloop
  endfacet
  facet normal -0.760123 0.64978 0
    outer loop
      vertex 0.186 21.818 10
      vertex 0.292 21.942 10
      vertex 0.292 21.942 0
    endloop
  endfacet
  facet normal -0.760123 0.64978 0
    outer loop
      vertex 0.186 21.818 0
      vertex 0.186 21.818 10
      vertex 0.292 21.942 0
    endloop
  endfacet
  facet normal -0.859685 0.510825 0
    outer loop
      vertex 0.104 21.68 10
      vertex 0.186 21.818 10
      vertex 0.186 21.818 0
    endloop
  endfacet
  facet normal -0.859685 0.510825 0
    outer loop
      vertex 0.104 21.68 0
      vertex 0.104 21.68 10
      vertex 0.186 21.818 0
    endloop
  endfacet
  facet normal -0.930154 0.36717 0
    outer loop
      vertex 0.044 21.528 10
      vertex 0.104 21.68 10
      vertex 0.104 21.68 0
    endloop
  endfacet
  facet normal -0.930154 0.36717 0
    outer loop
      vertex 0.044 21.528 0
      vertex 0.044 21.528 10
      vertex 0.104 21.68 0
    endloop
  endfacet
  facet normal -0.975012 0.222153 0
    outer loop
      vertex 0.008 21.37 10
      vertex 0.044 21.528 10
      vertex 0.044 21.528 0
    endloop
  endfacet
  facet normal -0.975012 0.222153 0
    outer loop
      vertex 0.008 21.37 0
      vertex 0.008 21.37 10
      vertex 0.044 21.528 0
    endloop
  endfacet
  facet normal -0.998783 0.0493224 0
    outer loop
      vertex 0 21.208 10
      vertex 0.008 21.37 10
      vertex 0.008 21.37 0
    endloop
  endfacet
  facet normal -0.998783 0.0493224 0
    outer loop
      vertex 0 21.208 0
      vertex 0 21.208 10
      vertex 0.008 21.37 0
    endloop
  endfacet
endsolid OpenSCAD_Model
