solid OpenSCAD_Model
  facet normal -0.866026 -0.5 0
    outer loop
      vertex 21.7296 6.35 0
      vertex 19.8012 9.69 16
      vertex 19.8012 9.69 0
    endloop
  endfacet
  facet normal -0.866026 -0.5 0
    outer loop
      vertex 19.8012 9.69 16
      vertex 21.7296 6.35 0
      vertex 21.7296 6.35 16
    endloop
  endfacet
  facet normal 0.866025 -0.5 0
    outer loop
      vertex 14.0162 6.35 16
      vertex 15.9445 9.69 0
      vertex 15.9445 9.69 16
    endloop
  endfacet
  facet normal 0.866025 -0.5 0
    outer loop
      vertex 15.9445 9.69 0
      vertex 14.0162 6.35 16
      vertex 14.0162 6.35 0
    endloop
  endfacet
  facet normal 0 -1 0
    outer loop
      vertex 15.9445 9.69 16
      vertex 16.8729 9.69 4.75
      vertex 16.8729 9.69 16
    endloop
  endfacet
  facet normal 0 -1 -0
    outer loop
      vertex 16.8729 9.69 4.75
      vertex 15.9445 9.69 0
      vertex 18.8729 9.69 4.75
    endloop
  endfacet
  facet normal 0 -1 0
    outer loop
      vertex 15.9445 9.69 0
      vertex 16.8729 9.69 4.75
      vertex 15.9445 9.69 16
    endloop
  endfacet
  facet normal 0 -1 0
    outer loop
      vertex 18.8729 9.69 4.75
      vertex 19.8012 9.69 16
      vertex 18.8729 9.69 16
    endloop
  endfacet
  facet normal 0 -1 0
    outer loop
      vertex 18.8729 9.69 4.75
      vertex 19.8012 9.69 0
      vertex 19.8012 9.69 16
    endloop
  endfacet
  facet normal 0 -1 0
    outer loop
      vertex 19.8012 9.69 0
      vertex 18.8729 9.69 4.75
      vertex 15.9445 9.69 0
    endloop
  endfacet
  facet normal 0 0 1
    outer loop
      vertex 99.2997 13.7 16
      vertex 100.3 12.7 16
      vertex 100.281 12.8951 16
    endloop
  endfacet
  facet normal 0 0 1
    outer loop
      vertex 100.3 12.7 16
      vertex 85.2836 6.35 16
      vertex 100.3 0 16
    endloop
  endfacet
  facet normal 0 0 1
    outer loop
      vertex 99.2997 13.7 16
      vertex 100.281 12.8951 16
      vertex 100.224 13.0827 16
    endloop
  endfacet
  facet normal 0 0 1
    outer loop
      vertex 100.3 12.7 16
      vertex 99.2997 13.7 16
      vertex 85.2836 6.35 16
    endloop
  endfacet
  facet normal 0 0 1
    outer loop
      vertex 99.2997 13.7 16
      vertex 100.224 13.0827 16
      vertex 100.131 13.2556 16
    endloop
  endfacet
  facet normal 0 -0 1
    outer loop
      vertex 99.2997 -1 16
      vertex 100.3 0 16
      vertex 85.2836 6.35 16
    endloop
  endfacet
  facet normal 0 0 1
    outer loop
      vertex 99.2997 13.7 16
      vertex 100.131 13.2556 16
      vertex 100.007 13.4071 16
    endloop
  endfacet
  facet normal 0 0 1
    outer loop
      vertex 100.281 -0.19509 16
      vertex 99.2997 -1 16
      vertex 100.224 -0.382683 16
    endloop
  endfacet
  facet normal 0 0 1
    outer loop
      vertex 99.2997 13.7 16
      vertex 100.007 13.4071 16
      vertex 99.8553 13.5315 16
    endloop
  endfacet
  facet normal 0 0 1
    outer loop
      vertex 100.224 -0.382683 16
      vertex 99.2997 -1 16
      vertex 100.131 -0.55557 16
    endloop
  endfacet
  facet normal 0 0 1
    outer loop
      vertex 99.2997 13.7 16
      vertex 99.8553 13.5315 16
      vertex 99.6824 13.6239 16
    endloop
  endfacet
  facet normal 0 0 1
    outer loop
      vertex 100.131 -0.55557 16
      vertex 99.2997 -1 16
      vertex 100.007 -0.707107 16
    endloop
  endfacet
  facet normal 0 0 1
    outer loop
      vertex 99.2997 13.7 16
      vertex 99.6824 13.6239 16
      vertex 99.4948 13.6808 16
    endloop
  endfacet
  facet normal 0 0 1
    outer loop
      vertex 100.007 -0.707107 16
      vertex 99.2997 -1 16
      vertex 99.8553 -0.83147 16
    endloop
  endfacet
  facet normal 0 0 1
    outer loop
      vertex 99.8553 -0.83147 16
      vertex 99.2997 -1 16
      vertex 99.6824 -0.923879 16
    endloop
  endfacet
  facet normal 0 0 1
    outer loop
      vertex 99.6824 -0.923879 16
      vertex 99.2997 -1 16
      vertex 99.4948 -0.980784 16
    endloop
  endfacet
  facet normal 0 0 1
    outer loop
      vertex 100.3 0 16
      vertex 99.2997 -1 16
      vertex 100.281 -0.19509 16
    endloop
  endfacet
  facet normal 0 0 1
    outer loop
      vertex 99.2997 13.7 16
      vertex 83.3552 9.69 16
      vertex 85.2836 6.35 16
    endloop
  endfacet
  facet normal -0 0 1
    outer loop
      vertex 82.4269 13.7 16
      vertex 83.3552 9.69 16
      vertex 99.2997 13.7 16
    endloop
  endfacet
  facet normal 0 0 1
    outer loop
      vertex 83.3552 9.69 16
      vertex 82.4269 13.7 16
      vertex 82.4269 9.69 16
    endloop
  endfacet
  facet normal -0 0 1
    outer loop
      vertex 83.3552 3.01 16
      vertex 99.2997 -1 16
      vertex 85.2836 6.35 16
    endloop
  endfacet
  facet normal 0 0 1
    outer loop
      vertex 82.4269 -1 16
      vertex 83.3552 3.01 16
      vertex 82.4269 3.01 16
    endloop
  endfacet
  facet normal 0 0 1
    outer loop
      vertex 83.3552 3.01 16
      vertex 82.4269 -1 16
      vertex 99.2997 -1 16
    endloop
  endfacet
  facet normal 0 0 1
    outer loop
      vertex 16.8729 13.7 16
      vertex 15.9445 9.69 16
      vertex 16.8729 9.69 16
    endloop
  endfacet
  facet normal -0 0 1
    outer loop
      vertex 0 13.7 16
      vertex 15.9445 9.69 16
      vertex 16.8729 13.7 16
    endloop
  endfacet
  facet normal 0 0 1
    outer loop
      vertex 15.9445 9.69 16
      vertex 0 13.7 16
      vertex 14.0162 6.35 16
    endloop
  endfacet
  facet normal -0 0 1
    outer loop
      vertex 15.9445 3.01 16
      vertex 16.8729 -1 16
      vertex 16.8729 3.01 16
    endloop
  endfacet
  facet normal 0 0 1
    outer loop
      vertex 0 -1 16
      vertex 15.9445 3.01 16
      vertex 14.0162 6.35 16
    endloop
  endfacet
  facet normal -0 0 1
    outer loop
      vertex -1 12.7 16
      vertex 14.0162 6.35 16
      vertex 0 13.7 16
    endloop
  endfacet
  facet normal 0 0 1
    outer loop
      vertex 15.9445 3.01 16
      vertex 0 -1 16
      vertex 16.8729 -1 16
    endloop
  endfacet
  facet normal 0 0 1
    outer loop
      vertex -1 12.7 16
      vertex 0 13.7 16
      vertex -0.19509 13.6808 16
    endloop
  endfacet
  facet normal 0 0 1
    outer loop
      vertex -1 0 16
      vertex 14.0162 6.35 16
      vertex -1 12.7 16
    endloop
  endfacet
  facet normal 0 0 1
    outer loop
      vertex -1 12.7 16
      vertex -0.19509 13.6808 16
      vertex -0.382683 13.6239 16
    endloop
  endfacet
  facet normal 0 0 1
    outer loop
      vertex 14.0162 6.35 16
      vertex -1 0 16
      vertex 0 -1 16
    endloop
  endfacet
  facet normal 0 0 1
    outer loop
      vertex -1 12.7 16
      vertex -0.382683 13.6239 16
      vertex -0.55557 13.5315 16
    endloop
  endfacet
  facet normal 0 0 1
    outer loop
      vertex 0 -1 16
      vertex -1 0 16
      vertex -0.19509 -0.980784 16
    endloop
  endfacet
  facet normal 0 0 1
    outer loop
      vertex -1 12.7 16
      vertex -0.55557 13.5315 16
      vertex -0.707107 13.4071 16
    endloop
  endfacet
  facet normal 0 0 1
    outer loop
      vertex -0.19509 -0.980784 16
      vertex -1 0 16
      vertex -0.382683 -0.923879 16
    endloop
  endfacet
  facet normal 0 0 1
    outer loop
      vertex -1 12.7 16
      vertex -0.707107 13.4071 16
      vertex -0.83147 13.2556 16
    endloop
  endfacet
  facet normal 0 0 1
    outer loop
      vertex -0.382683 -0.923879 16
      vertex -1 0 16
      vertex -0.55557 -0.83147 16
    endloop
  endfacet
  facet normal 0 0 1
    outer loop
      vertex -1 12.7 16
      vertex -0.83147 13.2556 16
      vertex -0.923879 13.0827 16
    endloop
  endfacet
  facet normal 0 0 1
    outer loop
      vertex -0.55557 -0.83147 16
      vertex -1 0 16
      vertex -0.707107 -0.707107 16
    endloop
  endfacet
  facet normal 0 0 1
    outer loop
      vertex -1 12.7 16
      vertex -0.923879 13.0827 16
      vertex -0.980784 12.8951 16
    endloop
  endfacet
  facet normal 0 0 1
    outer loop
      vertex -0.707107 -0.707107 16
      vertex -1 0 16
      vertex -0.83147 -0.55557 16
    endloop
  endfacet
  facet normal 0 0 1
    outer loop
      vertex -0.83147 -0.55557 16
      vertex -1 0 16
      vertex -0.923879 -0.382683 16
    endloop
  endfacet
  facet normal 0 0 1
    outer loop
      vertex -0.923879 -0.382683 16
      vertex -1 0 16
      vertex -0.980784 -0.19509 16
    endloop
  endfacet
  facet normal 0 0 1
    outer loop
      vertex 80.4269 13.7 16
      vertex 79.4985 9.69 16
      vertex 80.4269 9.69 16
    endloop
  endfacet
  facet normal 0 0 1
    outer loop
      vertex 68.6573 9.69 16
      vertex 79.4985 9.69 16
      vertex 80.4269 13.7 16
    endloop
  endfacet
  facet normal 0 0 1
    outer loop
      vertex 79.4985 9.69 16
      vertex 68.6573 9.69 16
      vertex 77.5702 6.35 16
    endloop
  endfacet
  facet normal 0 0 1
    outer loop
      vertex 77.5702 6.35 16
      vertex 68.6573 9.69 16
      vertex 70.5857 6.35 16
    endloop
  endfacet
  facet normal -0 0 1
    outer loop
      vertex 67.729 13.7 16
      vertex 68.6573 9.69 16
      vertex 80.4269 13.7 16
    endloop
  endfacet
  facet normal 0 0 1
    outer loop
      vertex 68.6573 9.69 16
      vertex 67.729 13.7 16
      vertex 67.729 9.69 16
    endloop
  endfacet
  facet normal -0 0 1
    outer loop
      vertex 79.4985 3.01 16
      vertex 80.4269 -1 16
      vertex 80.4269 3.01 16
    endloop
  endfacet
  facet normal 0 0 1
    outer loop
      vertex 68.6573 3.01 16
      vertex 79.4985 3.01 16
      vertex 77.5702 6.35 16
    endloop
  endfacet
  facet normal 0 0 1
    outer loop
      vertex 68.6573 3.01 16
      vertex 77.5702 6.35 16
      vertex 70.5857 6.35 16
    endloop
  endfacet
  facet normal 0 0 1
    outer loop
      vertex 79.4985 3.01 16
      vertex 68.6573 3.01 16
      vertex 80.4269 -1 16
    endloop
  endfacet
  facet normal 0 0 1
    outer loop
      vertex 67.729 -1 16
      vertex 68.6573 3.01 16
      vertex 67.729 3.01 16
    endloop
  endfacet
  facet normal 0 0 1
    outer loop
      vertex 68.6573 3.01 16
      vertex 67.729 -1 16
      vertex 80.4269 -1 16
    endloop
  endfacet
  facet normal 0 0 1
    outer loop
      vertex 65.729 13.7 16
      vertex 64.8006 9.69 16
      vertex 65.729 9.69 16
    endloop
  endfacet
  facet normal 0 0 1
    outer loop
      vertex 53.1657 9.69 16
      vertex 64.8006 9.69 16
      vertex 65.729 13.7 16
    endloop
  endfacet
  facet normal 0 0 1
    outer loop
      vertex 64.8006 9.69 16
      vertex 53.1657 9.69 16
      vertex 62.8723 6.35 16
    endloop
  endfacet
  facet normal 0 0 1
    outer loop
      vertex 62.8723 6.35 16
      vertex 53.1657 9.69 16
      vertex 55.0941 6.35 16
    endloop
  endfacet
  facet normal -0 0 1
    outer loop
      vertex 52.2374 13.7 16
      vertex 53.1657 9.69 16
      vertex 65.729 13.7 16
    endloop
  endfacet
  facet normal 0 0 1
    outer loop
      vertex 53.1657 9.69 16
      vertex 52.2374 13.7 16
      vertex 52.2374 9.69 16
    endloop
  endfacet
  facet normal -0 0 1
    outer loop
      vertex 64.8006 3.01 16
      vertex 65.729 -1 16
      vertex 65.729 3.01 16
    endloop
  endfacet
  facet normal 0 0 1
    outer loop
      vertex 53.1657 3.01 16
      vertex 64.8006 3.01 16
      vertex 62.8723 6.35 16
    endloop
  endfacet
  facet normal 0 0 1
    outer loop
      vertex 53.1657 3.01 16
      vertex 62.8723 6.35 16
      vertex 55.0941 6.35 16
    endloop
  endfacet
  facet normal 0 0 1
    outer loop
      vertex 64.8006 3.01 16
      vertex 53.1657 3.01 16
      vertex 65.729 -1 16
    endloop
  endfacet
  facet normal 0 0 1
    outer loop
      vertex 52.2374 -1 16
      vertex 53.1657 3.01 16
      vertex 52.2374 3.01 16
    endloop
  endfacet
  facet normal 0 0 1
    outer loop
      vertex 53.1657 3.01 16
      vertex 52.2374 -1 16
      vertex 65.729 -1 16
    endloop
  endfacet
  facet normal 0 0 1
    outer loop
      vertex 50.2374 13.7 16
      vertex 49.309 9.69 16
      vertex 50.2374 9.69 16
    endloop
  endfacet
  facet normal 0 0 1
    outer loop
      vertex 36.8803 9.69 16
      vertex 49.309 9.69 16
      vertex 50.2374 13.7 16
    endloop
  endfacet
  facet normal 0 0 1
    outer loop
      vertex 49.309 9.69 16
      vertex 36.8803 9.69 16
      vertex 47.3807 6.35 16
    endloop
  endfacet
  facet normal 0 0 1
    outer loop
      vertex 47.3807 6.35 16
      vertex 36.8803 9.69 16
      vertex 38.8087 6.35 16
    endloop
  endfacet
  facet normal -0 0 1
    outer loop
      vertex 35.952 13.7 16
      vertex 36.8803 9.69 16
      vertex 50.2374 13.7 16
    endloop
  endfacet
  facet normal 0 0 1
    outer loop
      vertex 36.8803 9.69 16
      vertex 35.952 13.7 16
      vertex 35.952 9.69 16
    endloop
  endfacet
  facet normal -0 0 1
    outer loop
      vertex 49.309 3.01 16
      vertex 50.2374 -1 16
      vertex 50.2374 3.01 16
    endloop
  endfacet
  facet normal 0 0 1
    outer loop
      vertex 36.8803 3.01 16
      vertex 49.309 3.01 16
      vertex 47.3807 6.35 16
    endloop
  endfacet
  facet normal 0 0 1
    outer loop
      vertex 36.8803 3.01 16
      vertex 47.3807 6.35 16
      vertex 38.8087 6.35 16
    endloop
  endfacet
  facet normal 0 0 1
    outer loop
      vertex 49.309 3.01 16
      vertex 36.8803 3.01 16
      vertex 50.2374 -1 16
    endloop
  endfacet
  facet normal 0 0 1
    outer loop
      vertex 35.952 -1 16
      vertex 36.8803 3.01 16
      vertex 35.952 3.01 16
    endloop
  endfacet
  facet normal 0 0 1
    outer loop
      vertex 36.8803 3.01 16
      vertex 35.952 -1 16
      vertex 50.2374 -1 16
    endloop
  endfacet
  facet normal 0 0 1
    outer loop
      vertex 33.952 13.7 16
      vertex 33.0236 9.69 16
      vertex 33.952 9.69 16
    endloop
  endfacet
  facet normal 0 0 1
    outer loop
      vertex 19.8012 9.69 16
      vertex 33.0236 9.69 16
      vertex 33.952 13.7 16
    endloop
  endfacet
  facet normal 0 0 1
    outer loop
      vertex 33.0236 9.69 16
      vertex 19.8012 9.69 16
      vertex 31.0953 6.35 16
    endloop
  endfacet
  facet normal 0 0 1
    outer loop
      vertex 31.0953 6.35 16
      vertex 19.8012 9.69 16
      vertex 21.7296 6.35 16
    endloop
  endfacet
  facet normal -0 0 1
    outer loop
      vertex 18.8729 13.7 16
      vertex 19.8012 9.69 16
      vertex 33.952 13.7 16
    endloop
  endfacet
  facet normal 0 0 1
    outer loop
      vertex 19.8012 9.69 16
      vertex 18.8729 13.7 16
      vertex 18.8729 9.69 16
    endloop
  endfacet
  facet normal -0 0 1
    outer loop
      vertex 33.0236 3.01 16
      vertex 33.952 -1 16
      vertex 33.952 3.01 16
    endloop
  endfacet
  facet normal 0 0 1
    outer loop
      vertex 19.8012 3.01 16
      vertex 33.0236 3.01 16
      vertex 31.0953 6.35 16
    endloop
  endfacet
  facet normal 0 0 1
    outer loop
      vertex 19.8012 3.01 16
      vertex 31.0953 6.35 16
      vertex 21.7296 6.35 16
    endloop
  endfacet
  facet normal 0 0 1
    outer loop
      vertex 33.0236 3.01 16
      vertex 19.8012 3.01 16
      vertex 33.952 -1 16
    endloop
  endfacet
  facet normal 0 0 1
    outer loop
      vertex 18.8729 -1 16
      vertex 19.8012 3.01 16
      vertex 18.8729 3.01 16
    endloop
  endfacet
  facet normal 0 0 1
    outer loop
      vertex 19.8012 3.01 16
      vertex 18.8729 -1 16
      vertex 33.952 -1 16
    endloop
  endfacet
  facet normal -0.866026 0.5 0
    outer loop
      vertex 19.8012 3.01 0
      vertex 21.7296 6.35 16
      vertex 21.7296 6.35 0
    endloop
  endfacet
  facet normal -0.866026 0.5 0
    outer loop
      vertex 21.7296 6.35 16
      vertex 19.8012 3.01 0
      vertex 19.8012 3.01 16
    endloop
  endfacet
  facet normal 0 0 -1
    outer loop
      vertex 99.2997 -1 0
      vertex 100.3 0 0
      vertex 100.281 -0.19509 0
    endloop
  endfacet
  facet normal 0 0 -1
    outer loop
      vertex 100.3 0 0
      vertex 85.2836 6.35 0
      vertex 100.3 12.7 0
    endloop
  endfacet
  facet normal 0 0 -1
    outer loop
      vertex 99.2997 -1 0
      vertex 100.281 -0.19509 0
      vertex 100.224 -0.382683 0
    endloop
  endfacet
  facet normal -0 0 -1
    outer loop
      vertex 100.3 0 0
      vertex 99.2997 -1 0
      vertex 85.2836 6.35 0
    endloop
  endfacet
  facet normal 0 0 -1
    outer loop
      vertex 99.2997 -1 0
      vertex 100.224 -0.382683 0
      vertex 100.131 -0.55557 0
    endloop
  endfacet
  facet normal 0 -0 -1
    outer loop
      vertex 99.2997 13.7 0
      vertex 100.3 12.7 0
      vertex 85.2836 6.35 0
    endloop
  endfacet
  facet normal 0 0 -1
    outer loop
      vertex 99.2997 -1 0
      vertex 100.131 -0.55557 0
      vertex 100.007 -0.707107 0
    endloop
  endfacet
  facet normal 0 0 -1
    outer loop
      vertex 100.281 12.8951 0
      vertex 99.2997 13.7 0
      vertex 100.224 13.0827 0
    endloop
  endfacet
  facet normal 0 0 -1
    outer loop
      vertex 99.2997 -1 0
      vertex 100.007 -0.707107 0
      vertex 99.8553 -0.83147 0
    endloop
  endfacet
  facet normal 0 0 -1
    outer loop
      vertex 100.224 13.0827 0
      vertex 99.2997 13.7 0
      vertex 100.131 13.2556 0
    endloop
  endfacet
  facet normal 0 0 -1
    outer loop
      vertex 99.2997 -1 0
      vertex 99.8553 -0.83147 0
      vertex 99.6824 -0.923879 0
    endloop
  endfacet
  facet normal 0 0 -1
    outer loop
      vertex 100.131 13.2556 0
      vertex 99.2997 13.7 0
      vertex 100.007 13.4071 0
    endloop
  endfacet
  facet normal 0 0 -1
    outer loop
      vertex 99.2997 -1 0
      vertex 99.6824 -0.923879 0
      vertex 99.4948 -0.980784 0
    endloop
  endfacet
  facet normal 0 0 -1
    outer loop
      vertex 100.007 13.4071 0
      vertex 99.2997 13.7 0
      vertex 99.8553 13.5315 0
    endloop
  endfacet
  facet normal 0 0 -1
    outer loop
      vertex 99.8553 13.5315 0
      vertex 99.2997 13.7 0
      vertex 99.6824 13.6239 0
    endloop
  endfacet
  facet normal 0 0 -1
    outer loop
      vertex 99.6824 13.6239 0
      vertex 99.2997 13.7 0
      vertex 99.4948 13.6808 0
    endloop
  endfacet
  facet normal 0 0 -1
    outer loop
      vertex 100.3 12.7 0
      vertex 99.2997 13.7 0
      vertex 100.281 12.8951 0
    endloop
  endfacet
  facet normal 0 0 -1
    outer loop
      vertex 99.2997 -1 0
      vertex 83.3552 3.01 0
      vertex 85.2836 6.35 0
    endloop
  endfacet
  facet normal 0 0 -1
    outer loop
      vertex 99.2997 -1 0
      vertex 79.4985 3.01 0
      vertex 83.3552 3.01 0
    endloop
  endfacet
  facet normal 0 0 -1
    outer loop
      vertex 79.4985 3.01 0
      vertex 70.5857 6.35 0
      vertex 77.5702 6.35 0
    endloop
  endfacet
  facet normal 0 0 -1
    outer loop
      vertex 79.4985 3.01 0
      vertex 68.6573 3.01 0
      vertex 70.5857 6.35 0
    endloop
  endfacet
  facet normal 0 0 -1
    outer loop
      vertex 99.2997 -1 0
      vertex 68.6573 3.01 0
      vertex 79.4985 3.01 0
    endloop
  endfacet
  facet normal 0 0 -1
    outer loop
      vertex 99.2997 -1 0
      vertex 64.8006 3.01 0
      vertex 68.6573 3.01 0
    endloop
  endfacet
  facet normal 0 0 -1
    outer loop
      vertex 64.8006 3.01 0
      vertex 55.0941 6.35 0
      vertex 62.8723 6.35 0
    endloop
  endfacet
  facet normal 0 0 -1
    outer loop
      vertex 64.8006 3.01 0
      vertex 53.1657 3.01 0
      vertex 55.0941 6.35 0
    endloop
  endfacet
  facet normal 0 0 -1
    outer loop
      vertex 99.2997 -1 0
      vertex 53.1657 3.01 0
      vertex 64.8006 3.01 0
    endloop
  endfacet
  facet normal 0 0 -1
    outer loop
      vertex 99.2997 -1 0
      vertex 49.309 3.01 0
      vertex 53.1657 3.01 0
    endloop
  endfacet
  facet normal 0 0 -1
    outer loop
      vertex 49.309 3.01 0
      vertex 38.8087 6.35 0
      vertex 47.3807 6.35 0
    endloop
  endfacet
  facet normal 0 0 -1
    outer loop
      vertex 49.309 3.01 0
      vertex 36.8803 3.01 0
      vertex 38.8087 6.35 0
    endloop
  endfacet
  facet normal 0 0 -1
    outer loop
      vertex 0 -1 0
      vertex 49.309 3.01 0
      vertex 99.2997 -1 0
    endloop
  endfacet
  facet normal -0 0 -1
    outer loop
      vertex 49.309 3.01 0
      vertex 0 -1 0
      vertex 36.8803 3.01 0
    endloop
  endfacet
  facet normal 0 0 -1
    outer loop
      vertex 33.0236 3.01 0
      vertex 21.7296 6.35 0
      vertex 31.0953 6.35 0
    endloop
  endfacet
  facet normal 0 0 -1
    outer loop
      vertex 33.0236 3.01 0
      vertex 19.8012 3.01 0
      vertex 21.7296 6.35 0
    endloop
  endfacet
  facet normal -0 0 -1
    outer loop
      vertex 36.8803 3.01 0
      vertex 0 -1 0
      vertex 33.0236 3.01 0
    endloop
  endfacet
  facet normal -0 0 -1
    outer loop
      vertex 33.0236 3.01 0
      vertex 0 -1 0
      vertex 19.8012 3.01 0
    endloop
  endfacet
  facet normal -0 0 -1
    outer loop
      vertex 15.9445 3.01 0
      vertex 0 -1 0
      vertex 14.0162 6.35 0
    endloop
  endfacet
  facet normal -0 0 -1
    outer loop
      vertex 19.8012 3.01 0
      vertex 0 -1 0
      vertex 15.9445 3.01 0
    endloop
  endfacet
  facet normal 0 0 -1
    outer loop
      vertex 83.3552 9.69 0
      vertex 99.2997 13.7 0
      vertex 85.2836 6.35 0
    endloop
  endfacet
  facet normal 0 0 -1
    outer loop
      vertex 79.4985 9.69 0
      vertex 99.2997 13.7 0
      vertex 83.3552 9.69 0
    endloop
  endfacet
  facet normal 0 0 -1
    outer loop
      vertex 70.5857 6.35 0
      vertex 79.4985 9.69 0
      vertex 77.5702 6.35 0
    endloop
  endfacet
  facet normal 0 0 -1
    outer loop
      vertex 68.6573 9.69 0
      vertex 79.4985 9.69 0
      vertex 70.5857 6.35 0
    endloop
  endfacet
  facet normal 0 0 -1
    outer loop
      vertex 68.6573 9.69 0
      vertex 99.2997 13.7 0
      vertex 79.4985 9.69 0
    endloop
  endfacet
  facet normal 0 0 -1
    outer loop
      vertex 64.8006 9.69 0
      vertex 99.2997 13.7 0
      vertex 68.6573 9.69 0
    endloop
  endfacet
  facet normal 0 0 -1
    outer loop
      vertex 55.0941 6.35 0
      vertex 64.8006 9.69 0
      vertex 62.8723 6.35 0
    endloop
  endfacet
  facet normal 0 0 -1
    outer loop
      vertex 53.1657 9.69 0
      vertex 64.8006 9.69 0
      vertex 55.0941 6.35 0
    endloop
  endfacet
  facet normal 0 0 -1
    outer loop
      vertex 53.1657 9.69 0
      vertex 99.2997 13.7 0
      vertex 64.8006 9.69 0
    endloop
  endfacet
  facet normal 0 0 -1
    outer loop
      vertex 49.309 9.69 0
      vertex 99.2997 13.7 0
      vertex 53.1657 9.69 0
    endloop
  endfacet
  facet normal 0 0 -1
    outer loop
      vertex 38.8087 6.35 0
      vertex 49.309 9.69 0
      vertex 47.3807 6.35 0
    endloop
  endfacet
  facet normal 0 0 -1
    outer loop
      vertex 36.8803 9.69 0
      vertex 49.309 9.69 0
      vertex 38.8087 6.35 0
    endloop
  endfacet
  facet normal 0 0 -1
    outer loop
      vertex 0 13.7 0
      vertex 49.309 9.69 0
      vertex 36.8803 9.69 0
    endloop
  endfacet
  facet normal 0 0 -1
    outer loop
      vertex 0 13.7 0
      vertex 36.8803 9.69 0
      vertex 33.0236 9.69 0
    endloop
  endfacet
  facet normal 0 0 -1
    outer loop
      vertex 21.7296 6.35 0
      vertex 33.0236 9.69 0
      vertex 31.0953 6.35 0
    endloop
  endfacet
  facet normal 0 0 -1
    outer loop
      vertex 19.8012 9.69 0
      vertex 33.0236 9.69 0
      vertex 21.7296 6.35 0
    endloop
  endfacet
  facet normal 0 0 -1
    outer loop
      vertex 0 13.7 0
      vertex 33.0236 9.69 0
      vertex 19.8012 9.69 0
    endloop
  endfacet
  facet normal 0 0 -1
    outer loop
      vertex 0 13.7 0
      vertex 19.8012 9.69 0
      vertex 15.9445 9.69 0
    endloop
  endfacet
  facet normal 0 0 -1
    outer loop
      vertex -1 0 0
      vertex 14.0162 6.35 0
      vertex 0 -1 0
    endloop
  endfacet
  facet normal 0 0 -1
    outer loop
      vertex 49.309 9.69 0
      vertex 0 13.7 0
      vertex 99.2997 13.7 0
    endloop
  endfacet
  facet normal 0 0 -1
    outer loop
      vertex 14.0162 6.35 0
      vertex 0 13.7 0
      vertex 15.9445 9.69 0
    endloop
  endfacet
  facet normal 0 0 -1
    outer loop
      vertex -1 0 0
      vertex 0 -1 0
      vertex -0.19509 -0.980784 0
    endloop
  endfacet
  facet normal 0 0 -1
    outer loop
      vertex -1 12.7 0
      vertex 14.0162 6.35 0
      vertex -1 0 0
    endloop
  endfacet
  facet normal 0 0 -1
    outer loop
      vertex -1 0 0
      vertex -0.19509 -0.980784 0
      vertex -0.382683 -0.923879 0
    endloop
  endfacet
  facet normal 0 0 -1
    outer loop
      vertex 14.0162 6.35 0
      vertex -1 12.7 0
      vertex 0 13.7 0
    endloop
  endfacet
  facet normal 0 0 -1
    outer loop
      vertex -1 0 0
      vertex -0.382683 -0.923879 0
      vertex -0.55557 -0.83147 0
    endloop
  endfacet
  facet normal 0 0 -1
    outer loop
      vertex 0 13.7 0
      vertex -1 12.7 0
      vertex -0.19509 13.6808 0
    endloop
  endfacet
  facet normal 0 0 -1
    outer loop
      vertex -1 0 0
      vertex -0.55557 -0.83147 0
      vertex -0.707107 -0.707107 0
    endloop
  endfacet
  facet normal 0 0 -1
    outer loop
      vertex -0.19509 13.6808 0
      vertex -1 12.7 0
      vertex -0.382683 13.6239 0
    endloop
  endfacet
  facet normal 0 0 -1
    outer loop
      vertex -1 0 0
      vertex -0.707107 -0.707107 0
      vertex -0.83147 -0.55557 0
    endloop
  endfacet
  facet normal 0 0 -1
    outer loop
      vertex -0.382683 13.6239 0
      vertex -1 12.7 0
      vertex -0.55557 13.5315 0
    endloop
  endfacet
  facet normal 0 0 -1
    outer loop
      vertex -1 0 0
      vertex -0.83147 -0.55557 0
      vertex -0.923879 -0.382683 0
    endloop
  endfacet
  facet normal 0 0 -1
    outer loop
      vertex -0.55557 13.5315 0
      vertex -1 12.7 0
      vertex -0.707107 13.4071 0
    endloop
  endfacet
  facet normal 0 0 -1
    outer loop
      vertex -1 0 0
      vertex -0.923879 -0.382683 0
      vertex -0.980784 -0.19509 0
    endloop
  endfacet
  facet normal 0 0 -1
    outer loop
      vertex -0.707107 13.4071 0
      vertex -1 12.7 0
      vertex -0.83147 13.2556 0
    endloop
  endfacet
  facet normal 0 0 -1
    outer loop
      vertex -0.83147 13.2556 0
      vertex -1 12.7 0
      vertex -0.923879 13.0827 0
    endloop
  endfacet
  facet normal 0 0 -1
    outer loop
      vertex -0.923879 13.0827 0
      vertex -1 12.7 0
      vertex -0.980784 12.8951 0
    endloop
  endfacet
  facet normal 0 1 0
    outer loop
      vertex 19.8012 3.01 16
      vertex 18.8729 3.01 4.75
      vertex 18.8729 3.01 16
    endloop
  endfacet
  facet normal 0 1 0
    outer loop
      vertex 18.8729 3.01 4.75
      vertex 19.8012 3.01 0
      vertex 16.8729 3.01 4.75
    endloop
  endfacet
  facet normal 0 1 -0
    outer loop
      vertex 19.8012 3.01 0
      vertex 18.8729 3.01 4.75
      vertex 19.8012 3.01 16
    endloop
  endfacet
  facet normal 0 1 -0
    outer loop
      vertex 16.8729 3.01 4.75
      vertex 15.9445 3.01 16
      vertex 16.8729 3.01 16
    endloop
  endfacet
  facet normal 0 1 0
    outer loop
      vertex 16.8729 3.01 4.75
      vertex 15.9445 3.01 0
      vertex 15.9445 3.01 16
    endloop
  endfacet
  facet normal 0 1 0
    outer loop
      vertex 15.9445 3.01 0
      vertex 16.8729 3.01 4.75
      vertex 19.8012 3.01 0
    endloop
  endfacet
  facet normal 0.866025 0.5 0
    outer loop
      vertex 15.9445 3.01 16
      vertex 14.0162 6.35 0
      vertex 14.0162 6.35 16
    endloop
  endfacet
  facet normal 0.866025 0.5 0
    outer loop
      vertex 14.0162 6.35 0
      vertex 15.9445 3.01 16
      vertex 15.9445 3.01 0
    endloop
  endfacet
  facet normal -0 0 1
    outer loop
      vertex 16.8729 13.7 4.75
      vertex 18.8729 9.69 4.75
      vertex 18.8729 13.7 4.75
    endloop
  endfacet
  facet normal 0 0 1
    outer loop
      vertex 18.8729 9.69 4.75
      vertex 16.8729 13.7 4.75
      vertex 16.8729 9.69 4.75
    endloop
  endfacet
  facet normal -0 0 1
    outer loop
      vertex 16.8729 3.01 4.75
      vertex 18.8729 -1 4.75
      vertex 18.8729 3.01 4.75
    endloop
  endfacet
  facet normal 0 0 1
    outer loop
      vertex 18.8729 -1 4.75
      vertex 16.8729 3.01 4.75
      vertex 16.8729 -1 4.75
    endloop
  endfacet
  facet normal -1 0 0
    outer loop
      vertex 18.8729 9.69 4.75
      vertex 18.8729 13.7 16
      vertex 18.8729 13.7 4.75
    endloop
  endfacet
  facet normal -1 -0 0
    outer loop
      vertex 18.8729 13.7 16
      vertex 18.8729 9.69 4.75
      vertex 18.8729 9.69 16
    endloop
  endfacet
  facet normal -1 0 0
    outer loop
      vertex 18.8729 -1 4.75
      vertex 18.8729 3.01 16
      vertex 18.8729 3.01 4.75
    endloop
  endfacet
  facet normal -1 -0 0
    outer loop
      vertex 18.8729 3.01 16
      vertex 18.8729 -1 4.75
      vertex 18.8729 -1 16
    endloop
  endfacet
  facet normal 1 -0 0
    outer loop
      vertex 16.8729 9.69 16
      vertex 16.8729 13.7 4.75
      vertex 16.8729 13.7 16
    endloop
  endfacet
  facet normal 1 0 0
    outer loop
      vertex 16.8729 13.7 4.75
      vertex 16.8729 9.69 16
      vertex 16.8729 9.69 4.75
    endloop
  endfacet
  facet normal 1 -0 0
    outer loop
      vertex 16.8729 -1 16
      vertex 16.8729 3.01 4.75
      vertex 16.8729 3.01 16
    endloop
  endfacet
  facet normal 1 0 0
    outer loop
      vertex 16.8729 3.01 4.75
      vertex 16.8729 -1 16
      vertex 16.8729 -1 4.75
    endloop
  endfacet
  facet normal -0.866026 -0.5 0
    outer loop
      vertex 38.8087 6.35 0
      vertex 36.8803 9.69 16
      vertex 36.8803 9.69 0
    endloop
  endfacet
  facet normal -0.866026 -0.5 0
    outer loop
      vertex 36.8803 9.69 16
      vertex 38.8087 6.35 0
      vertex 38.8087 6.35 16
    endloop
  endfacet
  facet normal 0.866026 0.5 0
    outer loop
      vertex 33.0236 3.01 16
      vertex 31.0953 6.35 0
      vertex 31.0953 6.35 16
    endloop
  endfacet
  facet normal 0.866026 0.5 0
    outer loop
      vertex 31.0953 6.35 0
      vertex 33.0236 3.01 16
      vertex 33.0236 3.01 0
    endloop
  endfacet
  facet normal 0 -1 0
    outer loop
      vertex 33.0236 9.69 16
      vertex 33.952 9.69 4.75
      vertex 33.952 9.69 16
    endloop
  endfacet
  facet normal 0 -1 -0
    outer loop
      vertex 33.952 9.69 4.75
      vertex 33.0236 9.69 0
      vertex 35.952 9.69 4.75
    endloop
  endfacet
  facet normal 0 -1 0
    outer loop
      vertex 33.0236 9.69 0
      vertex 33.952 9.69 4.75
      vertex 33.0236 9.69 16
    endloop
  endfacet
  facet normal 0 -1 0
    outer loop
      vertex 35.952 9.69 4.75
      vertex 36.8803 9.69 16
      vertex 35.952 9.69 16
    endloop
  endfacet
  facet normal 0 -1 0
    outer loop
      vertex 35.952 9.69 4.75
      vertex 36.8803 9.69 0
      vertex 36.8803 9.69 16
    endloop
  endfacet
  facet normal 0 -1 0
    outer loop
      vertex 36.8803 9.69 0
      vertex 35.952 9.69 4.75
      vertex 33.0236 9.69 0
    endloop
  endfacet
  facet normal 0.866026 -0.5 0
    outer loop
      vertex 31.0953 6.35 16
      vertex 33.0236 9.69 0
      vertex 33.0236 9.69 16
    endloop
  endfacet
  facet normal 0.866026 -0.5 0
    outer loop
      vertex 33.0236 9.69 0
      vertex 31.0953 6.35 16
      vertex 31.0953 6.35 0
    endloop
  endfacet
  facet normal -0.866026 0.5 0
    outer loop
      vertex 36.8803 3.01 0
      vertex 38.8087 6.35 16
      vertex 38.8087 6.35 0
    endloop
  endfacet
  facet normal -0.866026 0.5 0
    outer loop
      vertex 38.8087 6.35 16
      vertex 36.8803 3.01 0
      vertex 36.8803 3.01 16
    endloop
  endfacet
  facet normal 0 1 0
    outer loop
      vertex 36.8803 3.01 16
      vertex 35.952 3.01 4.75
      vertex 35.952 3.01 16
    endloop
  endfacet
  facet normal 0 1 0
    outer loop
      vertex 35.952 3.01 4.75
      vertex 36.8803 3.01 0
      vertex 33.952 3.01 4.75
    endloop
  endfacet
  facet normal 0 1 -0
    outer loop
      vertex 36.8803 3.01 0
      vertex 35.952 3.01 4.75
      vertex 36.8803 3.01 16
    endloop
  endfacet
  facet normal 0 1 -0
    outer loop
      vertex 33.952 3.01 4.75
      vertex 33.0236 3.01 16
      vertex 33.952 3.01 16
    endloop
  endfacet
  facet normal 0 1 0
    outer loop
      vertex 33.952 3.01 4.75
      vertex 33.0236 3.01 0
      vertex 33.0236 3.01 16
    endloop
  endfacet
  facet normal 0 1 0
    outer loop
      vertex 33.0236 3.01 0
      vertex 33.952 3.01 4.75
      vertex 36.8803 3.01 0
    endloop
  endfacet
  facet normal -0 0 1
    outer loop
      vertex 33.952 13.7 4.75
      vertex 35.952 9.69 4.75
      vertex 35.952 13.7 4.75
    endloop
  endfacet
  facet normal 0 0 1
    outer loop
      vertex 35.952 9.69 4.75
      vertex 33.952 13.7 4.75
      vertex 33.952 9.69 4.75
    endloop
  endfacet
  facet normal -0 0 1
    outer loop
      vertex 33.952 3.01 4.75
      vertex 35.952 -1 4.75
      vertex 35.952 3.01 4.75
    endloop
  endfacet
  facet normal 0 0 1
    outer loop
      vertex 35.952 -1 4.75
      vertex 33.952 3.01 4.75
      vertex 33.952 -1 4.75
    endloop
  endfacet
  facet normal -1 0 0
    outer loop
      vertex 35.952 9.69 4.75
      vertex 35.952 13.7 16
      vertex 35.952 13.7 4.75
    endloop
  endfacet
  facet normal -1 -0 0
    outer loop
      vertex 35.952 13.7 16
      vertex 35.952 9.69 4.75
      vertex 35.952 9.69 16
    endloop
  endfacet
  facet normal -1 0 0
    outer loop
      vertex 35.952 -1 4.75
      vertex 35.952 3.01 16
      vertex 35.952 3.01 4.75
    endloop
  endfacet
  facet normal -1 -0 0
    outer loop
      vertex 35.952 3.01 16
      vertex 35.952 -1 4.75
      vertex 35.952 -1 16
    endloop
  endfacet
  facet normal 1 -0 0
    outer loop
      vertex 33.952 9.69 16
      vertex 33.952 13.7 4.75
      vertex 33.952 13.7 16
    endloop
  endfacet
  facet normal 1 0 0
    outer loop
      vertex 33.952 13.7 4.75
      vertex 33.952 9.69 16
      vertex 33.952 9.69 4.75
    endloop
  endfacet
  facet normal 1 -0 0
    outer loop
      vertex 33.952 -1 16
      vertex 33.952 3.01 4.75
      vertex 33.952 3.01 16
    endloop
  endfacet
  facet normal 1 0 0
    outer loop
      vertex 33.952 3.01 4.75
      vertex 33.952 -1 16
      vertex 33.952 -1 4.75
    endloop
  endfacet
  facet normal -0.866026 -0.5 0
    outer loop
      vertex 55.0941 6.35 0
      vertex 53.1657 9.69 16
      vertex 53.1657 9.69 0
    endloop
  endfacet
  facet normal -0.866026 -0.5 0
    outer loop
      vertex 53.1657 9.69 16
      vertex 55.0941 6.35 0
      vertex 55.0941 6.35 16
    endloop
  endfacet
  facet normal 0.866026 -0.5 0
    outer loop
      vertex 47.3807 6.35 16
      vertex 49.309 9.69 0
      vertex 49.309 9.69 16
    endloop
  endfacet
  facet normal 0.866026 -0.5 0
    outer loop
      vertex 49.309 9.69 0
      vertex 47.3807 6.35 16
      vertex 47.3807 6.35 0
    endloop
  endfacet
  facet normal 0 -1 0
    outer loop
      vertex 49.309 9.69 16
      vertex 50.2374 9.69 4.75
      vertex 50.2374 9.69 16
    endloop
  endfacet
  facet normal 0 -1 -0
    outer loop
      vertex 50.2374 9.69 4.75
      vertex 49.309 9.69 0
      vertex 52.2374 9.69 4.75
    endloop
  endfacet
  facet normal 0 -1 0
    outer loop
      vertex 49.309 9.69 0
      vertex 50.2374 9.69 4.75
      vertex 49.309 9.69 16
    endloop
  endfacet
  facet normal 0 -1 0
    outer loop
      vertex 52.2374 9.69 4.75
      vertex 53.1657 9.69 16
      vertex 52.2374 9.69 16
    endloop
  endfacet
  facet normal 0 -1 0
    outer loop
      vertex 52.2374 9.69 4.75
      vertex 53.1657 9.69 0
      vertex 53.1657 9.69 16
    endloop
  endfacet
  facet normal 0 -1 0
    outer loop
      vertex 53.1657 9.69 0
      vertex 52.2374 9.69 4.75
      vertex 49.309 9.69 0
    endloop
  endfacet
  facet normal -0.866026 0.5 0
    outer loop
      vertex 53.1657 3.01 0
      vertex 55.0941 6.35 16
      vertex 55.0941 6.35 0
    endloop
  endfacet
  facet normal -0.866026 0.5 0
    outer loop
      vertex 55.0941 6.35 16
      vertex 53.1657 3.01 0
      vertex 53.1657 3.01 16
    endloop
  endfacet
  facet normal 0 1 0
    outer loop
      vertex 53.1657 3.01 16
      vertex 52.2374 3.01 4.75
      vertex 52.2374 3.01 16
    endloop
  endfacet
  facet normal 0 1 0
    outer loop
      vertex 52.2374 3.01 4.75
      vertex 53.1657 3.01 0
      vertex 50.2374 3.01 4.75
    endloop
  endfacet
  facet normal 0 1 -0
    outer loop
      vertex 53.1657 3.01 0
      vertex 52.2374 3.01 4.75
      vertex 53.1657 3.01 16
    endloop
  endfacet
  facet normal 0 1 -0
    outer loop
      vertex 50.2374 3.01 4.75
      vertex 49.309 3.01 16
      vertex 50.2374 3.01 16
    endloop
  endfacet
  facet normal 0 1 0
    outer loop
      vertex 50.2374 3.01 4.75
      vertex 49.309 3.01 0
      vertex 49.309 3.01 16
    endloop
  endfacet
  facet normal 0 1 0
    outer loop
      vertex 49.309 3.01 0
      vertex 50.2374 3.01 4.75
      vertex 53.1657 3.01 0
    endloop
  endfacet
  facet normal 0.866026 0.5 0
    outer loop
      vertex 49.309 3.01 16
      vertex 47.3807 6.35 0
      vertex 47.3807 6.35 16
    endloop
  endfacet
  facet normal 0.866026 0.5 0
    outer loop
      vertex 47.3807 6.35 0
      vertex 49.309 3.01 16
      vertex 49.309 3.01 0
    endloop
  endfacet
  facet normal -0 0 1
    outer loop
      vertex 50.2374 13.7 4.75
      vertex 52.2374 9.69 4.75
      vertex 52.2374 13.7 4.75
    endloop
  endfacet
  facet normal 0 0 1
    outer loop
      vertex 52.2374 9.69 4.75
      vertex 50.2374 13.7 4.75
      vertex 50.2374 9.69 4.75
    endloop
  endfacet
  facet normal -0 0 1
    outer loop
      vertex 50.2374 3.01 4.75
      vertex 52.2374 -1 4.75
      vertex 52.2374 3.01 4.75
    endloop
  endfacet
  facet normal 0 0 1
    outer loop
      vertex 52.2374 -1 4.75
      vertex 50.2374 3.01 4.75
      vertex 50.2374 -1 4.75
    endloop
  endfacet
  facet normal -1 0 0
    outer loop
      vertex 52.2374 9.69 4.75
      vertex 52.2374 13.7 16
      vertex 52.2374 13.7 4.75
    endloop
  endfacet
  facet normal -1 -0 0
    outer loop
      vertex 52.2374 13.7 16
      vertex 52.2374 9.69 4.75
      vertex 52.2374 9.69 16
    endloop
  endfacet
  facet normal -1 0 0
    outer loop
      vertex 52.2374 -1 4.75
      vertex 52.2374 3.01 16
      vertex 52.2374 3.01 4.75
    endloop
  endfacet
  facet normal -1 -0 0
    outer loop
      vertex 52.2374 3.01 16
      vertex 52.2374 -1 4.75
      vertex 52.2374 -1 16
    endloop
  endfacet
  facet normal 1 -0 0
    outer loop
      vertex 50.2374 9.69 16
      vertex 50.2374 13.7 4.75
      vertex 50.2374 13.7 16
    endloop
  endfacet
  facet normal 1 0 0
    outer loop
      vertex 50.2374 13.7 4.75
      vertex 50.2374 9.69 16
      vertex 50.2374 9.69 4.75
    endloop
  endfacet
  facet normal 1 -0 0
    outer loop
      vertex 50.2374 -1 16
      vertex 50.2374 3.01 4.75
      vertex 50.2374 3.01 16
    endloop
  endfacet
  facet normal 1 0 0
    outer loop
      vertex 50.2374 3.01 4.75
      vertex 50.2374 -1 16
      vertex 50.2374 -1 4.75
    endloop
  endfacet
  facet normal -0.866026 -0.499999 0
    outer loop
      vertex 70.5857 6.35 0
      vertex 68.6573 9.69 16
      vertex 68.6573 9.69 0
    endloop
  endfacet
  facet normal -0.866026 -0.499999 0
    outer loop
      vertex 68.6573 9.69 16
      vertex 70.5857 6.35 0
      vertex 70.5857 6.35 16
    endloop
  endfacet
  facet normal 0.866026 -0.5 0
    outer loop
      vertex 62.8723 6.35 16
      vertex 64.8006 9.69 0
      vertex 64.8006 9.69 16
    endloop
  endfacet
  facet normal 0.866026 -0.5 0
    outer loop
      vertex 64.8006 9.69 0
      vertex 62.8723 6.35 16
      vertex 62.8723 6.35 0
    endloop
  endfacet
  facet normal 0 -1 0
    outer loop
      vertex 64.8006 9.69 16
      vertex 65.729 9.69 4.75
      vertex 65.729 9.69 16
    endloop
  endfacet
  facet normal 0 -1 -0
    outer loop
      vertex 65.729 9.69 4.75
      vertex 64.8006 9.69 0
      vertex 67.729 9.69 4.75
    endloop
  endfacet
  facet normal 0 -1 0
    outer loop
      vertex 64.8006 9.69 0
      vertex 65.729 9.69 4.75
      vertex 64.8006 9.69 16
    endloop
  endfacet
  facet normal 0 -1 0
    outer loop
      vertex 67.729 9.69 4.75
      vertex 68.6573 9.69 16
      vertex 67.729 9.69 16
    endloop
  endfacet
  facet normal 0 -1 0
    outer loop
      vertex 67.729 9.69 4.75
      vertex 68.6573 9.69 0
      vertex 68.6573 9.69 16
    endloop
  endfacet
  facet normal 0 -1 0
    outer loop
      vertex 68.6573 9.69 0
      vertex 67.729 9.69 4.75
      vertex 64.8006 9.69 0
    endloop
  endfacet
  facet normal 0.866026 0.5 0
    outer loop
      vertex 64.8006 3.01 16
      vertex 62.8723 6.35 0
      vertex 62.8723 6.35 16
    endloop
  endfacet
  facet normal 0.866026 0.5 0
    outer loop
      vertex 62.8723 6.35 0
      vertex 64.8006 3.01 16
      vertex 64.8006 3.01 0
    endloop
  endfacet
  facet normal 0 1 0
    outer loop
      vertex 68.6573 3.01 16
      vertex 67.729 3.01 4.75
      vertex 67.729 3.01 16
    endloop
  endfacet
  facet normal 0 1 0
    outer loop
      vertex 67.729 3.01 4.75
      vertex 68.6573 3.01 0
      vertex 65.729 3.01 4.75
    endloop
  endfacet
  facet normal 0 1 -0
    outer loop
      vertex 68.6573 3.01 0
      vertex 67.729 3.01 4.75
      vertex 68.6573 3.01 16
    endloop
  endfacet
  facet normal 0 1 -0
    outer loop
      vertex 65.729 3.01 4.75
      vertex 64.8006 3.01 16
      vertex 65.729 3.01 16
    endloop
  endfacet
  facet normal 0 1 0
    outer loop
      vertex 65.729 3.01 4.75
      vertex 64.8006 3.01 0
      vertex 64.8006 3.01 16
    endloop
  endfacet
  facet normal 0 1 0
    outer loop
      vertex 64.8006 3.01 0
      vertex 65.729 3.01 4.75
      vertex 68.6573 3.01 0
    endloop
  endfacet
  facet normal -0.866026 0.499999 0
    outer loop
      vertex 68.6573 3.01 0
      vertex 70.5857 6.35 16
      vertex 70.5857 6.35 0
    endloop
  endfacet
  facet normal -0.866026 0.499999 0
    outer loop
      vertex 70.5857 6.35 16
      vertex 68.6573 3.01 0
      vertex 68.6573 3.01 16
    endloop
  endfacet
  facet normal -0 0 1
    outer loop
      vertex 65.729 13.7 4.75
      vertex 67.729 9.69 4.75
      vertex 67.729 13.7 4.75
    endloop
  endfacet
  facet normal 0 0 1
    outer loop
      vertex 67.729 9.69 4.75
      vertex 65.729 13.7 4.75
      vertex 65.729 9.69 4.75
    endloop
  endfacet
  facet normal -0 0 1
    outer loop
      vertex 65.729 3.01 4.75
      vertex 67.729 -1 4.75
      vertex 67.729 3.01 4.75
    endloop
  endfacet
  facet normal 0 0 1
    outer loop
      vertex 67.729 -1 4.75
      vertex 65.729 3.01 4.75
      vertex 65.729 -1 4.75
    endloop
  endfacet
  facet normal -1 0 0
    outer loop
      vertex 67.729 9.69 4.75
      vertex 67.729 13.7 16
      vertex 67.729 13.7 4.75
    endloop
  endfacet
  facet normal -1 -0 0
    outer loop
      vertex 67.729 13.7 16
      vertex 67.729 9.69 4.75
      vertex 67.729 9.69 16
    endloop
  endfacet
  facet normal -1 0 0
    outer loop
      vertex 67.729 -1 4.75
      vertex 67.729 3.01 16
      vertex 67.729 3.01 4.75
    endloop
  endfacet
  facet normal -1 -0 0
    outer loop
      vertex 67.729 3.01 16
      vertex 67.729 -1 4.75
      vertex 67.729 -1 16
    endloop
  endfacet
  facet normal 1 -0 0
    outer loop
      vertex 65.729 9.69 16
      vertex 65.729 13.7 4.75
      vertex 65.729 13.7 16
    endloop
  endfacet
  facet normal 1 0 0
    outer loop
      vertex 65.729 13.7 4.75
      vertex 65.729 9.69 16
      vertex 65.729 9.69 4.75
    endloop
  endfacet
  facet normal 1 -0 0
    outer loop
      vertex 65.729 -1 16
      vertex 65.729 3.01 4.75
      vertex 65.729 3.01 16
    endloop
  endfacet
  facet normal 1 0 0
    outer loop
      vertex 65.729 3.01 4.75
      vertex 65.729 -1 16
      vertex 65.729 -1 4.75
    endloop
  endfacet
  facet normal -0.866025 -0.5 0
    outer loop
      vertex 85.2836 6.35 0
      vertex 83.3552 9.69 16
      vertex 83.3552 9.69 0
    endloop
  endfacet
  facet normal -0.866025 -0.5 0
    outer loop
      vertex 83.3552 9.69 16
      vertex 85.2836 6.35 0
      vertex 85.2836 6.35 16
    endloop
  endfacet
  facet normal 0.866025 -0.5 0
    outer loop
      vertex 77.5702 6.35 16
      vertex 79.4985 9.69 0
      vertex 79.4985 9.69 16
    endloop
  endfacet
  facet normal 0.866025 -0.5 0
    outer loop
      vertex 79.4985 9.69 0
      vertex 77.5702 6.35 16
      vertex 77.5702 6.35 0
    endloop
  endfacet
  facet normal 0 -1 0
    outer loop
      vertex 79.4985 9.69 16
      vertex 80.4269 9.69 4.75
      vertex 80.4269 9.69 16
    endloop
  endfacet
  facet normal 0 -1 -0
    outer loop
      vertex 80.4269 9.69 4.75
      vertex 79.4985 9.69 0
      vertex 82.4269 9.69 4.75
    endloop
  endfacet
  facet normal 0 -1 0
    outer loop
      vertex 79.4985 9.69 0
      vertex 80.4269 9.69 4.75
      vertex 79.4985 9.69 16
    endloop
  endfacet
  facet normal 0 -1 0
    outer loop
      vertex 82.4269 9.69 4.75
      vertex 83.3552 9.69 16
      vertex 82.4269 9.69 16
    endloop
  endfacet
  facet normal 0 -1 0
    outer loop
      vertex 82.4269 9.69 4.75
      vertex 83.3552 9.69 0
      vertex 83.3552 9.69 16
    endloop
  endfacet
  facet normal 0 -1 0
    outer loop
      vertex 83.3552 9.69 0
      vertex 82.4269 9.69 4.75
      vertex 79.4985 9.69 0
    endloop
  endfacet
  facet normal -0.866025 0.5 0
    outer loop
      vertex 83.3552 3.01 0
      vertex 85.2836 6.35 16
      vertex 85.2836 6.35 0
    endloop
  endfacet
  facet normal -0.866025 0.5 0
    outer loop
      vertex 85.2836 6.35 16
      vertex 83.3552 3.01 0
      vertex 83.3552 3.01 16
    endloop
  endfacet
  facet normal 0 1 0
    outer loop
      vertex 83.3552 3.01 16
      vertex 82.4269 3.01 4.75
      vertex 82.4269 3.01 16
    endloop
  endfacet
  facet normal 0 1 0
    outer loop
      vertex 82.4269 3.01 4.75
      vertex 83.3552 3.01 0
      vertex 80.4269 3.01 4.75
    endloop
  endfacet
  facet normal 0 1 -0
    outer loop
      vertex 83.3552 3.01 0
      vertex 82.4269 3.01 4.75
      vertex 83.3552 3.01 16
    endloop
  endfacet
  facet normal 0 1 -0
    outer loop
      vertex 80.4269 3.01 4.75
      vertex 79.4985 3.01 16
      vertex 80.4269 3.01 16
    endloop
  endfacet
  facet normal 0 1 0
    outer loop
      vertex 80.4269 3.01 4.75
      vertex 79.4985 3.01 0
      vertex 79.4985 3.01 16
    endloop
  endfacet
  facet normal 0 1 0
    outer loop
      vertex 79.4985 3.01 0
      vertex 80.4269 3.01 4.75
      vertex 83.3552 3.01 0
    endloop
  endfacet
  facet normal 0.866025 0.5 0
    outer loop
      vertex 79.4985 3.01 16
      vertex 77.5702 6.35 0
      vertex 77.5702 6.35 16
    endloop
  endfacet
  facet normal 0.866025 0.5 0
    outer loop
      vertex 77.5702 6.35 0
      vertex 79.4985 3.01 16
      vertex 79.4985 3.01 0
    endloop
  endfacet
  facet normal 1 -0 0
    outer loop
      vertex 80.4269 9.69 16
      vertex 80.4269 13.7 4.75
      vertex 80.4269 13.7 16
    endloop
  endfacet
  facet normal 1 0 0
    outer loop
      vertex 80.4269 13.7 4.75
      vertex 80.4269 9.69 16
      vertex 80.4269 9.69 4.75
    endloop
  endfacet
  facet normal 1 -0 0
    outer loop
      vertex 80.4269 -1 16
      vertex 80.4269 3.01 4.75
      vertex 80.4269 3.01 16
    endloop
  endfacet
  facet normal 1 0 0
    outer loop
      vertex 80.4269 3.01 4.75
      vertex 80.4269 -1 16
      vertex 80.4269 -1 4.75
    endloop
  endfacet
  facet normal -0 0 1
    outer loop
      vertex 80.4269 13.7 4.75
      vertex 82.4269 9.69 4.75
      vertex 82.4269 13.7 4.75
    endloop
  endfacet
  facet normal 0 0 1
    outer loop
      vertex 82.4269 9.69 4.75
      vertex 80.4269 13.7 4.75
      vertex 80.4269 9.69 4.75
    endloop
  endfacet
  facet normal -0 0 1
    outer loop
      vertex 80.4269 3.01 4.75
      vertex 82.4269 -1 4.75
      vertex 82.4269 3.01 4.75
    endloop
  endfacet
  facet normal 0 0 1
    outer loop
      vertex 82.4269 -1 4.75
      vertex 80.4269 3.01 4.75
      vertex 80.4269 -1 4.75
    endloop
  endfacet
  facet normal -1 0 0
    outer loop
      vertex 82.4269 9.69 4.75
      vertex 82.4269 13.7 16
      vertex 82.4269 13.7 4.75
    endloop
  endfacet
  facet normal -1 -0 0
    outer loop
      vertex 82.4269 13.7 16
      vertex 82.4269 9.69 4.75
      vertex 82.4269 9.69 16
    endloop
  endfacet
  facet normal -1 0 0
    outer loop
      vertex 82.4269 -1 4.75
      vertex 82.4269 3.01 16
      vertex 82.4269 3.01 4.75
    endloop
  endfacet
  facet normal -1 -0 0
    outer loop
      vertex 82.4269 3.01 16
      vertex 82.4269 -1 4.75
      vertex 82.4269 -1 16
    endloop
  endfacet
  facet normal 1 -0 0
    outer loop
      vertex 100.3 0 16
      vertex 100.3 12.7 0
      vertex 100.3 12.7 16
    endloop
  endfacet
  facet normal 1 0 0
    outer loop
      vertex 100.3 12.7 0
      vertex 100.3 0 16
      vertex 100.3 0 0
    endloop
  endfacet
  facet normal -0.0980215 0.995184 0
    outer loop
      vertex 0 13.7 0
      vertex -0.19509 13.6808 16
      vertex 0 13.7 16
    endloop
  endfacet
  facet normal -0.0980215 0.995184 0
    outer loop
      vertex -0.19509 13.6808 16
      vertex 0 13.7 0
      vertex -0.19509 13.6808 0
    endloop
  endfacet
  facet normal 0 1 0
    outer loop
      vertex 99.2997 13.7 16
      vertex 82.4269 13.7 4.75
      vertex 82.4269 13.7 16
    endloop
  endfacet
  facet normal 0 1 0
    outer loop
      vertex 99.2997 13.7 0
      vertex 80.4269 13.7 4.75
      vertex 82.4269 13.7 4.75
    endloop
  endfacet
  facet normal 0 1 0
    outer loop
      vertex 80.4269 13.7 4.75
      vertex 99.2997 13.7 0
      vertex 67.729 13.7 4.75
    endloop
  endfacet
  facet normal 0 1 0
    outer loop
      vertex 67.729 13.7 4.75
      vertex 99.2997 13.7 0
      vertex 65.729 13.7 4.75
    endloop
  endfacet
  facet normal 0 1 0
    outer loop
      vertex 65.729 13.7 4.75
      vertex 99.2997 13.7 0
      vertex 52.2374 13.7 4.75
    endloop
  endfacet
  facet normal 0 1 0
    outer loop
      vertex 52.2374 13.7 4.75
      vertex 99.2997 13.7 0
      vertex 50.2374 13.7 4.75
    endloop
  endfacet
  facet normal 0 1 0
    outer loop
      vertex 0 13.7 0
      vertex 50.2374 13.7 4.75
      vertex 99.2997 13.7 0
    endloop
  endfacet
  facet normal 0 1 0
    outer loop
      vertex 50.2374 13.7 4.75
      vertex 0 13.7 0
      vertex 35.952 13.7 4.75
    endloop
  endfacet
  facet normal 0 1 0
    outer loop
      vertex 35.952 13.7 4.75
      vertex 0 13.7 0
      vertex 33.952 13.7 4.75
    endloop
  endfacet
  facet normal 0 1 0
    outer loop
      vertex 33.952 13.7 4.75
      vertex 0 13.7 0
      vertex 18.8729 13.7 4.75
    endloop
  endfacet
  facet normal 0 1 -0
    outer loop
      vertex 99.2997 13.7 0
      vertex 82.4269 13.7 4.75
      vertex 99.2997 13.7 16
    endloop
  endfacet
  facet normal 0 1 -0
    outer loop
      vertex 80.4269 13.7 4.75
      vertex 67.729 13.7 16
      vertex 80.4269 13.7 16
    endloop
  endfacet
  facet normal 0 1 0
    outer loop
      vertex 67.729 13.7 16
      vertex 80.4269 13.7 4.75
      vertex 67.729 13.7 4.75
    endloop
  endfacet
  facet normal 0 1 -0
    outer loop
      vertex 65.729 13.7 4.75
      vertex 52.2374 13.7 16
      vertex 65.729 13.7 16
    endloop
  endfacet
  facet normal 0 1 0
    outer loop
      vertex 52.2374 13.7 16
      vertex 65.729 13.7 4.75
      vertex 52.2374 13.7 4.75
    endloop
  endfacet
  facet normal 0 1 -0
    outer loop
      vertex 50.2374 13.7 4.75
      vertex 35.952 13.7 16
      vertex 50.2374 13.7 16
    endloop
  endfacet
  facet normal 0 1 0
    outer loop
      vertex 35.952 13.7 16
      vertex 50.2374 13.7 4.75
      vertex 35.952 13.7 4.75
    endloop
  endfacet
  facet normal 0 1 -0
    outer loop
      vertex 33.952 13.7 4.75
      vertex 18.8729 13.7 16
      vertex 33.952 13.7 16
    endloop
  endfacet
  facet normal 0 1 0
    outer loop
      vertex 18.8729 13.7 16
      vertex 33.952 13.7 4.75
      vertex 18.8729 13.7 4.75
    endloop
  endfacet
  facet normal 0 1 -0
    outer loop
      vertex 16.8729 13.7 4.75
      vertex 0 13.7 16
      vertex 16.8729 13.7 16
    endloop
  endfacet
  facet normal 0 1 0
    outer loop
      vertex 16.8729 13.7 4.75
      vertex 0 13.7 0
      vertex 0 13.7 16
    endloop
  endfacet
  facet normal 0 1 0
    outer loop
      vertex 18.8729 13.7 4.75
      vertex 0 13.7 0
      vertex 16.8729 13.7 4.75
    endloop
  endfacet
  facet normal 0.773021 -0.634381 0
    outer loop
      vertex 100.007 -0.707107 16
      vertex 100.131 -0.55557 0
      vertex 100.131 -0.55557 16
    endloop
  endfacet
  facet normal 0.773021 -0.634381 0
    outer loop
      vertex 100.131 -0.55557 0
      vertex 100.007 -0.707107 16
      vertex 100.007 -0.707107 0
    endloop
  endfacet
  facet normal 0.634397 -0.773007 0
    outer loop
      vertex 99.8553 -0.83147 0
      vertex 100.007 -0.707107 16
      vertex 99.8553 -0.83147 16
    endloop
  endfacet
  facet normal 0.634397 -0.773007 0
    outer loop
      vertex 100.007 -0.707107 16
      vertex 99.8553 -0.83147 0
      vertex 100.007 -0.707107 0
    endloop
  endfacet
  facet normal 0 -1 0
    outer loop
      vertex 0 -1 16
      vertex 16.8729 -1 4.75
      vertex 16.8729 -1 16
    endloop
  endfacet
  facet normal 0 -1 0
    outer loop
      vertex 0 -1 0
      vertex 18.8729 -1 4.75
      vertex 16.8729 -1 4.75
    endloop
  endfacet
  facet normal 0 -1 -0
    outer loop
      vertex 18.8729 -1 4.75
      vertex 0 -1 0
      vertex 33.952 -1 4.75
    endloop
  endfacet
  facet normal 0 -1 -0
    outer loop
      vertex 33.952 -1 4.75
      vertex 0 -1 0
      vertex 35.952 -1 4.75
    endloop
  endfacet
  facet normal 0 -1 -0
    outer loop
      vertex 35.952 -1 4.75
      vertex 0 -1 0
      vertex 50.2374 -1 4.75
    endloop
  endfacet
  facet normal 0 -1 -0
    outer loop
      vertex 50.2374 -1 4.75
      vertex 0 -1 0
      vertex 52.2374 -1 4.75
    endloop
  endfacet
  facet normal 0 -1 0
    outer loop
      vertex 99.2997 -1 0
      vertex 52.2374 -1 4.75
      vertex 0 -1 0
    endloop
  endfacet
  facet normal 0 -1 0
    outer loop
      vertex 52.2374 -1 4.75
      vertex 99.2997 -1 0
      vertex 65.729 -1 4.75
    endloop
  endfacet
  facet normal 0 -1 0
    outer loop
      vertex 65.729 -1 4.75
      vertex 99.2997 -1 0
      vertex 67.729 -1 4.75
    endloop
  endfacet
  facet normal 0 -1 0
    outer loop
      vertex 67.729 -1 4.75
      vertex 99.2997 -1 0
      vertex 80.4269 -1 4.75
    endloop
  endfacet
  facet normal 0 -1 0
    outer loop
      vertex 0 -1 0
      vertex 16.8729 -1 4.75
      vertex 0 -1 16
    endloop
  endfacet
  facet normal 0 -1 0
    outer loop
      vertex 18.8729 -1 4.75
      vertex 33.952 -1 16
      vertex 18.8729 -1 16
    endloop
  endfacet
  facet normal 0 -1 -0
    outer loop
      vertex 33.952 -1 16
      vertex 18.8729 -1 4.75
      vertex 33.952 -1 4.75
    endloop
  endfacet
  facet normal 0 -1 0
    outer loop
      vertex 35.952 -1 4.75
      vertex 50.2374 -1 16
      vertex 35.952 -1 16
    endloop
  endfacet
  facet normal 0 -1 -0
    outer loop
      vertex 50.2374 -1 16
      vertex 35.952 -1 4.75
      vertex 50.2374 -1 4.75
    endloop
  endfacet
  facet normal 0 -1 0
    outer loop
      vertex 52.2374 -1 4.75
      vertex 65.729 -1 16
      vertex 52.2374 -1 16
    endloop
  endfacet
  facet normal 0 -1 -0
    outer loop
      vertex 65.729 -1 16
      vertex 52.2374 -1 4.75
      vertex 65.729 -1 4.75
    endloop
  endfacet
  facet normal 0 -1 0
    outer loop
      vertex 67.729 -1 4.75
      vertex 80.4269 -1 16
      vertex 67.729 -1 16
    endloop
  endfacet
  facet normal 0 -1 -0
    outer loop
      vertex 80.4269 -1 16
      vertex 67.729 -1 4.75
      vertex 80.4269 -1 4.75
    endloop
  endfacet
  facet normal 0 -1 0
    outer loop
      vertex 82.4269 -1 4.75
      vertex 99.2997 -1 16
      vertex 82.4269 -1 16
    endloop
  endfacet
  facet normal 0 -1 0
    outer loop
      vertex 82.4269 -1 4.75
      vertex 99.2997 -1 0
      vertex 99.2997 -1 16
    endloop
  endfacet
  facet normal 0 -1 0
    outer loop
      vertex 80.4269 -1 4.75
      vertex 99.2997 -1 0
      vertex 82.4269 -1 4.75
    endloop
  endfacet
  facet normal -0.634393 -0.773011 0
    outer loop
      vertex -0.707107 -0.707107 0
      vertex -0.55557 -0.83147 16
      vertex -0.707107 -0.707107 16
    endloop
  endfacet
  facet normal -0.634393 -0.773011 -0
    outer loop
      vertex -0.55557 -0.83147 16
      vertex -0.707107 -0.707107 0
      vertex -0.55557 -0.83147 0
    endloop
  endfacet
  facet normal -0.773011 -0.634393 0
    outer loop
      vertex -0.707107 -0.707107 0
      vertex -0.83147 -0.55557 16
      vertex -0.83147 -0.55557 0
    endloop
  endfacet
  facet normal -0.773011 -0.634393 0
    outer loop
      vertex -0.83147 -0.55557 16
      vertex -0.707107 -0.707107 0
      vertex -0.707107 -0.707107 16
    endloop
  endfacet
  facet normal -0.634393 0.773011 0
    outer loop
      vertex -0.55557 13.5315 0
      vertex -0.707107 13.4071 16
      vertex -0.55557 13.5315 16
    endloop
  endfacet
  facet normal -0.634393 0.773011 0
    outer loop
      vertex -0.707107 13.4071 16
      vertex -0.55557 13.5315 0
      vertex -0.707107 13.4071 0
    endloop
  endfacet
  facet normal -1 0 0
    outer loop
      vertex -1 0 0
      vertex -1 12.7 16
      vertex -1 12.7 0
    endloop
  endfacet
  facet normal -1 -0 0
    outer loop
      vertex -1 12.7 16
      vertex -1 0 0
      vertex -1 0 16
    endloop
  endfacet
  facet normal 0.098021 0.995184 -0
    outer loop
      vertex 99.4948 13.6808 0
      vertex 99.2997 13.7 16
      vertex 99.4948 13.6808 16
    endloop
  endfacet
  facet normal 0.098021 0.995184 0
    outer loop
      vertex 99.2997 13.7 16
      vertex 99.4948 13.6808 0
      vertex 99.2997 13.7 0
    endloop
  endfacet
  facet normal 0.471387 -0.881926 0
    outer loop
      vertex 99.6824 -0.923879 0
      vertex 99.8553 -0.83147 16
      vertex 99.6824 -0.923879 16
    endloop
  endfacet
  facet normal 0.471387 -0.881926 0
    outer loop
      vertex 99.8553 -0.83147 16
      vertex 99.6824 -0.923879 0
      vertex 99.8553 -0.83147 0
    endloop
  endfacet
  facet normal 0.098021 -0.995184 0
    outer loop
      vertex 99.2997 -1 0
      vertex 99.4948 -0.980784 16
      vertex 99.2997 -1 16
    endloop
  endfacet
  facet normal 0.098021 -0.995184 0
    outer loop
      vertex 99.4948 -0.980784 16
      vertex 99.2997 -1 0
      vertex 99.4948 -0.980784 0
    endloop
  endfacet
  facet normal -0.0980215 -0.995184 0
    outer loop
      vertex -0.19509 -0.980784 0
      vertex 0 -1 16
      vertex -0.19509 -0.980784 16
    endloop
  endfacet
  facet normal -0.0980215 -0.995184 -0
    outer loop
      vertex 0 -1 16
      vertex -0.19509 -0.980784 0
      vertex 0 -1 0
    endloop
  endfacet
  facet normal -0.881923 -0.471394 0
    outer loop
      vertex -0.83147 -0.55557 0
      vertex -0.923879 -0.382683 16
      vertex -0.923879 -0.382683 0
    endloop
  endfacet
  facet normal -0.881923 -0.471394 0
    outer loop
      vertex -0.923879 -0.382683 16
      vertex -0.83147 -0.55557 0
      vertex -0.83147 -0.55557 16
    endloop
  endfacet
  facet normal -0.995184 -0.0980215 0
    outer loop
      vertex -0.980784 -0.19509 0
      vertex -1 0 16
      vertex -1 0 0
    endloop
  endfacet
  facet normal -0.995184 -0.0980215 0
    outer loop
      vertex -1 0 16
      vertex -0.980784 -0.19509 0
      vertex -0.980784 -0.19509 16
    endloop
  endfacet
  facet normal -0.995184 0.0980215 0
    outer loop
      vertex -1 12.7 0
      vertex -0.980784 12.8951 16
      vertex -0.980784 12.8951 0
    endloop
  endfacet
  facet normal -0.995184 0.0980215 0
    outer loop
      vertex -0.980784 12.8951 16
      vertex -1 12.7 0
      vertex -1 12.7 16
    endloop
  endfacet
  facet normal 0.881911 -0.471416 0
    outer loop
      vertex 100.131 -0.55557 16
      vertex 100.224 -0.382683 0
      vertex 100.224 -0.382683 16
    endloop
  endfacet
  facet normal 0.881911 -0.471416 0
    outer loop
      vertex 100.224 -0.382683 0
      vertex 100.131 -0.55557 16
      vertex 100.131 -0.55557 0
    endloop
  endfacet
  facet normal 0.995183 -0.098036 0
    outer loop
      vertex 100.281 -0.19509 16
      vertex 100.3 0 0
      vertex 100.3 0 16
    endloop
  endfacet
  facet normal 0.995183 -0.098036 0
    outer loop
      vertex 100.3 0 0
      vertex 100.281 -0.19509 16
      vertex 100.281 -0.19509 0
    endloop
  endfacet
  facet normal 0.290287 -0.95694 0
    outer loop
      vertex 99.4948 -0.980784 0
      vertex 99.6824 -0.923879 16
      vertex 99.4948 -0.980784 16
    endloop
  endfacet
  facet normal 0.290287 -0.95694 0
    outer loop
      vertex 99.6824 -0.923879 16
      vertex 99.4948 -0.980784 0
      vertex 99.6824 -0.923879 0
    endloop
  endfacet
  facet normal -0.471394 -0.881923 0
    outer loop
      vertex -0.55557 -0.83147 0
      vertex -0.382683 -0.923879 16
      vertex -0.55557 -0.83147 16
    endloop
  endfacet
  facet normal -0.471394 -0.881923 -0
    outer loop
      vertex -0.382683 -0.923879 16
      vertex -0.55557 -0.83147 0
      vertex -0.382683 -0.923879 0
    endloop
  endfacet
  facet normal -0.290286 -0.95694 0
    outer loop
      vertex -0.382683 -0.923879 0
      vertex -0.19509 -0.980784 16
      vertex -0.382683 -0.923879 16
    endloop
  endfacet
  facet normal -0.290286 -0.95694 -0
    outer loop
      vertex -0.19509 -0.980784 16
      vertex -0.382683 -0.923879 0
      vertex -0.19509 -0.980784 0
    endloop
  endfacet
  facet normal -0.95694 -0.290286 0
    outer loop
      vertex -0.923879 -0.382683 0
      vertex -0.980784 -0.19509 16
      vertex -0.980784 -0.19509 0
    endloop
  endfacet
  facet normal -0.95694 -0.290286 0
    outer loop
      vertex -0.980784 -0.19509 16
      vertex -0.923879 -0.382683 0
      vertex -0.923879 -0.382683 16
    endloop
  endfacet
  facet normal 0.773021 0.634381 0
    outer loop
      vertex 100.131 13.2556 16
      vertex 100.007 13.4071 0
      vertex 100.007 13.4071 16
    endloop
  endfacet
  facet normal 0.773021 0.634381 0
    outer loop
      vertex 100.007 13.4071 0
      vertex 100.131 13.2556 16
      vertex 100.131 13.2556 0
    endloop
  endfacet
  facet normal 0.634397 0.773007 -0
    outer loop
      vertex 100.007 13.4071 0
      vertex 99.8553 13.5315 16
      vertex 100.007 13.4071 16
    endloop
  endfacet
  facet normal 0.634397 0.773007 0
    outer loop
      vertex 99.8553 13.5315 16
      vertex 100.007 13.4071 0
      vertex 99.8553 13.5315 0
    endloop
  endfacet
  facet normal 0.290287 0.95694 -0
    outer loop
      vertex 99.6824 13.6239 0
      vertex 99.4948 13.6808 16
      vertex 99.6824 13.6239 16
    endloop
  endfacet
  facet normal 0.290287 0.95694 0
    outer loop
      vertex 99.4948 13.6808 16
      vertex 99.6824 13.6239 0
      vertex 99.4948 13.6808 0
    endloop
  endfacet
  facet normal 0.956948 -0.290259 0
    outer loop
      vertex 100.224 -0.382683 16
      vertex 100.281 -0.19509 0
      vertex 100.281 -0.19509 16
    endloop
  endfacet
  facet normal 0.956948 -0.290259 0
    outer loop
      vertex 100.281 -0.19509 0
      vertex 100.224 -0.382683 16
      vertex 100.224 -0.382683 0
    endloop
  endfacet
  facet normal -0.471394 0.881923 0
    outer loop
      vertex -0.382683 13.6239 0
      vertex -0.55557 13.5315 16
      vertex -0.382683 13.6239 16
    endloop
  endfacet
  facet normal -0.471394 0.881923 0
    outer loop
      vertex -0.55557 13.5315 16
      vertex -0.382683 13.6239 0
      vertex -0.55557 13.5315 0
    endloop
  endfacet
  facet normal -0.290286 0.95694 0
    outer loop
      vertex -0.19509 13.6808 0
      vertex -0.382683 13.6239 16
      vertex -0.19509 13.6808 16
    endloop
  endfacet
  facet normal -0.290286 0.95694 0
    outer loop
      vertex -0.382683 13.6239 16
      vertex -0.19509 13.6808 0
      vertex -0.382683 13.6239 0
    endloop
  endfacet
  facet normal -0.95694 0.290286 0
    outer loop
      vertex -0.980784 12.8951 0
      vertex -0.923879 13.0827 16
      vertex -0.923879 13.0827 0
    endloop
  endfacet
  facet normal -0.95694 0.290286 0
    outer loop
      vertex -0.923879 13.0827 16
      vertex -0.980784 12.8951 0
      vertex -0.980784 12.8951 16
    endloop
  endfacet
  facet normal -0.881923 0.471394 0
    outer loop
      vertex -0.923879 13.0827 0
      vertex -0.83147 13.2556 16
      vertex -0.83147 13.2556 0
    endloop
  endfacet
  facet normal -0.881923 0.471394 0
    outer loop
      vertex -0.83147 13.2556 16
      vertex -0.923879 13.0827 0
      vertex -0.923879 13.0827 16
    endloop
  endfacet
  facet normal -0.773011 0.634393 0
    outer loop
      vertex -0.83147 13.2556 0
      vertex -0.707107 13.4071 16
      vertex -0.707107 13.4071 0
    endloop
  endfacet
  facet normal -0.773011 0.634393 0
    outer loop
      vertex -0.707107 13.4071 16
      vertex -0.83147 13.2556 0
      vertex -0.83147 13.2556 16
    endloop
  endfacet
  facet normal 0.881911 0.471416 0
    outer loop
      vertex 100.224 13.0827 16
      vertex 100.131 13.2556 0
      vertex 100.131 13.2556 16
    endloop
  endfacet
  facet normal 0.881911 0.471416 0
    outer loop
      vertex 100.131 13.2556 0
      vertex 100.224 13.0827 16
      vertex 100.224 13.0827 0
    endloop
  endfacet
  facet normal 0.956948 0.290259 0
    outer loop
      vertex 100.281 12.8951 16
      vertex 100.224 13.0827 0
      vertex 100.224 13.0827 16
    endloop
  endfacet
  facet normal 0.956948 0.290259 0
    outer loop
      vertex 100.224 13.0827 0
      vertex 100.281 12.8951 16
      vertex 100.281 12.8951 0
    endloop
  endfacet
  facet normal 0.995183 0.098036 0
    outer loop
      vertex 100.3 12.7 16
      vertex 100.281 12.8951 0
      vertex 100.281 12.8951 16
    endloop
  endfacet
  facet normal 0.995183 0.098036 0
    outer loop
      vertex 100.281 12.8951 0
      vertex 100.3 12.7 16
      vertex 100.3 12.7 0
    endloop
  endfacet
  facet normal 0.471387 0.881926 -0
    outer loop
      vertex 99.8553 13.5315 0
      vertex 99.6824 13.6239 16
      vertex 99.8553 13.5315 16
    endloop
  endfacet
  facet normal 0.471387 0.881926 0
    outer loop
      vertex 99.6824 13.6239 16
      vertex 99.8553 13.5315 0
      vertex 99.6824 13.6239 0
    endloop
  endfacet
endsolid OpenSCAD_Model
