solid OpenSCAD_Model
  facet normal -1 0 0
    outer loop
      vertex 0 -20 26.553
      vertex 0 -4 26.553
      vertex 0 -20 -26.5
    endloop
  endfacet
  facet normal -1 0 0
    outer loop
      vertex 0 -20 -26.5
      vertex 0 -4 26.553
      vertex 0 -4 26.5
    endloop
  endfacet
  facet normal -1 0 0
    outer loop
      vertex 0 -20 -26.5
      vertex 0 -4 26.5
      vertex 0 0 26.5
    endloop
  endfacet
  facet normal -1 0 0
    outer loop
      vertex 0 -20 -26.5
      vertex 0 0 26.5
      vertex 0 0 -26.5
    endloop
  endfacet
  facet normal 0 0 -1
    outer loop
      vertex 43.5 -12 -26.5
      vertex 34.9271 -12.8532 -26.5
      vertex 43.6468 -11.0729 -26.5
    endloop
  endfacet
  facet normal 0 0 -1
    outer loop
      vertex 18.5 -12 -26.5
      vertex 43.2558 -0.039465 -26.5
      vertex 45.7476 -0.354255 -26.5
    endloop
  endfacet
  facet normal 0 0 -1
    outer loop
      vertex 18.3532 -11.0729 -26.5
      vertex 42 -0.039465 -26.5
      vertex 43.2558 -0.039465 -26.5
    endloop
  endfacet
  facet normal 0 0 -1
    outer loop
      vertex 34.9271 -7.14683 -26.5
      vertex 48.1803 -0.97887 -26.5
      vertex 50.5156 -1.90346 -26.5
    endloop
  endfacet
  facet normal 0 0 -1
    outer loop
      vertex 31.5729 -11.7634 -26.5
      vertex 17.2634 -14.4271 -26.5
      vertex 31 -10 -26.5
    endloop
  endfacet
  facet normal 0 0 -1
    outer loop
      vertex 36.4271 -8.23664 -26.5
      vertex 54.7485 -4.58974 -26.5
      vertex 37 -10 -26.5
    endloop
  endfacet
  facet normal 0 0 -1
    outer loop
      vertex 48.2634 -9.57295 -26.5
      vertex 56.5794 -6.30906 -26.5
      vertex 58.1803 -8.2443 -26.5
    endloop
  endfacet
  facet normal 0 0 -1
    outer loop
      vertex 49.3532 -11.0729 -26.5
      vertex 58.1803 -8.2443 -26.5
      vertex 59.5261 -10.3649 -26.5
    endloop
  endfacet
  facet normal 0 0 -1
    outer loop
      vertex 49.3532 -12.9271 -26.5
      vertex 59.5261 -10.3649 -26.5
      vertex 60.5955 -12.6375 -26.5
    endloop
  endfacet
  facet normal 0 0 -1
    outer loop
      vertex 47.4271 -14.8532 -26.5
      vertex 60.5955 -12.6375 -26.5
      vertex 61.3717 -15.0262 -26.5
    endloop
  endfacet
  facet normal 0 0 -1
    outer loop
      vertex 0 -20 -26.5
      vertex 61.3717 -15.0262 -26.5
      vertex 61.8423 -17.4933 -26.5
    endloop
  endfacet
  facet normal 0 0 -1
    outer loop
      vertex 0 -20 -26.5
      vertex 61.8423 -17.4933 -26.5
      vertex 62 -20 -26.5
    endloop
  endfacet
  facet normal 0 0 -1
    outer loop
      vertex 0 -20 -26.5
      vertex 62 -20 -26.5
      vertex 61.8042 -21.2361 -26.5
    endloop
  endfacet
  facet normal 0 0 -1
    outer loop
      vertex 0 -20 -26.5
      vertex 61.8042 -21.2361 -26.5
      vertex 61.2361 -22.3511 -26.5
    endloop
  endfacet
  facet normal 0 0 -1
    outer loop
      vertex 0 -20 -26.5
      vertex 61.2361 -22.3511 -26.5
      vertex 60.3511 -23.2361 -26.5
    endloop
  endfacet
  facet normal 0 0 -1
    outer loop
      vertex 0 -20 -26.5
      vertex 60.3511 -23.2361 -26.5
      vertex 59.2361 -23.8042 -26.5
    endloop
  endfacet
  facet normal 0 0 -1
    outer loop
      vertex 0 -20 -26.5
      vertex 59.2361 -23.8042 -26.5
      vertex 58 -24 -26.5
    endloop
  endfacet
  facet normal 0 0 -1
    outer loop
      vertex 0 -20 -26.5
      vertex 58 -24 -26.5
      vertex 4 -24 -26.5
    endloop
  endfacet
  facet normal 0 0 -1
    outer loop
      vertex 0 -20 -26.5
      vertex 4 -24 -26.5
      vertex 2.76393 -23.8042 -26.5
    endloop
  endfacet
  facet normal 0 0 -1
    outer loop
      vertex 0 -20 -26.5
      vertex 2.76393 -23.8042 -26.5
      vertex 1.64886 -23.2361 -26.5
    endloop
  endfacet
  facet normal 0 0 -1
    outer loop
      vertex 0 -20 -26.5
      vertex 1.64886 -23.2361 -26.5
      vertex 0.763932 -22.3511 -26.5
    endloop
  endfacet
  facet normal 0 0 -1
    outer loop
      vertex 0 -20 -26.5
      vertex 0.763932 -22.3511 -26.5
      vertex 0.195774 -21.2361 -26.5
    endloop
  endfacet
  facet normal 0 0 -1
    outer loop
      vertex 31 -10 -26.5
      vertex 17.9271 -13.7634 -26.5
      vertex 18.3532 -12.9271 -26.5
    endloop
  endfacet
  facet normal 0 0 -1
    outer loop
      vertex 0 0 -26.5
      vertex 12.5 -12 -26.5
      vertex 0 -20 -26.5
    endloop
  endfacet
  facet normal 0 0 -1
    outer loop
      vertex 17.2634 -9.57295 -26.5
      vertex 42 0 -26.5
      vertex 17.9271 -10.2366 -26.5
    endloop
  endfacet
  facet normal 0 0 -1
    outer loop
      vertex 12.5 -12 -26.5
      vertex 12.6468 -12.9271 -26.5
      vertex 0 -20 -26.5
    endloop
  endfacet
  facet normal 0 0 -1
    outer loop
      vertex 17.9271 -10.2366 -26.5
      vertex 42 0 -26.5
      vertex 18.3532 -11.0729 -26.5
    endloop
  endfacet
  facet normal 0 0 -1
    outer loop
      vertex 12.6468 -12.9271 -26.5
      vertex 13.0729 -13.7634 -26.5
      vertex 0 -20 -26.5
    endloop
  endfacet
  facet normal 0 0 -1
    outer loop
      vertex 14.5729 -14.8532 -26.5
      vertex 0 -20 -26.5
      vertex 13.7366 -14.4271 -26.5
    endloop
  endfacet
  facet normal 0 0 -1
    outer loop
      vertex 16.4271 -14.8532 -26.5
      vertex 0 -20 -26.5
      vertex 15.5 -15 -26.5
    endloop
  endfacet
  facet normal 0 0 -1
    outer loop
      vertex 0 -20 -26.5
      vertex 14.5729 -14.8532 -26.5
      vertex 15.5 -15 -26.5
    endloop
  endfacet
  facet normal 0 0 -1
    outer loop
      vertex 31.5729 -11.7634 -26.5
      vertex 16.4271 -14.8532 -26.5
      vertex 17.2634 -14.4271 -26.5
    endloop
  endfacet
  facet normal 0 0 -1
    outer loop
      vertex 18.5 -12 -26.5
      vertex 48.1803 -0.97887 -26.5
      vertex 18.3532 -12.9271 -26.5
    endloop
  endfacet
  facet normal 0 0 -1
    outer loop
      vertex 17.9271 -13.7634 -26.5
      vertex 31 -10 -26.5
      vertex 17.2634 -14.4271 -26.5
    endloop
  endfacet
  facet normal 0 0 -1
    outer loop
      vertex 31.5729 -11.7634 -26.5
      vertex 0 -20 -26.5
      vertex 16.4271 -14.8532 -26.5
    endloop
  endfacet
  facet normal 0 0 -1
    outer loop
      vertex 18.5 -12 -26.5
      vertex 45.7476 -0.354255 -26.5
      vertex 48.1803 -0.97887 -26.5
    endloop
  endfacet
  facet normal 0 0 -1
    outer loop
      vertex 18.3532 -11.0729 -26.5
      vertex 43.2558 -0.039465 -26.5
      vertex 18.5 -12 -26.5
    endloop
  endfacet
  facet normal 0 0 -1
    outer loop
      vertex 31 -10 -26.5
      vertex 18.3532 -12.9271 -26.5
      vertex 31.5729 -8.23664 -26.5
    endloop
  endfacet
  facet normal 0 0 -1
    outer loop
      vertex 0 0 -26.5
      vertex 42 0 -26.5
      vertex 17.2634 -9.57295 -26.5
    endloop
  endfacet
  facet normal 0 0 -1
    outer loop
      vertex 0 0 -26.5
      vertex 17.2634 -9.57295 -26.5
      vertex 16.4271 -9.14683 -26.5
    endloop
  endfacet
  facet normal 0 0 -1
    outer loop
      vertex 0 0 -26.5
      vertex 16.4271 -9.14683 -26.5
      vertex 15.5 -9 -26.5
    endloop
  endfacet
  facet normal 0 0 -1
    outer loop
      vertex 0 0 -26.5
      vertex 15.5 -9 -26.5
      vertex 14.5729 -9.14683 -26.5
    endloop
  endfacet
  facet normal 0 0 -1
    outer loop
      vertex 0 0 -26.5
      vertex 14.5729 -9.14683 -26.5
      vertex 13.7366 -9.57295 -26.5
    endloop
  endfacet
  facet normal 0 0 -1
    outer loop
      vertex 0 0 -26.5
      vertex 13.7366 -9.57295 -26.5
      vertex 13.0729 -10.2366 -26.5
    endloop
  endfacet
  facet normal 0 0 -1
    outer loop
      vertex 0 0 -26.5
      vertex 13.0729 -10.2366 -26.5
      vertex 12.6468 -11.0729 -26.5
    endloop
  endfacet
  facet normal 0 0 -1
    outer loop
      vertex 0 0 -26.5
      vertex 12.6468 -11.0729 -26.5
      vertex 12.5 -12 -26.5
    endloop
  endfacet
  facet normal 0 0 -1
    outer loop
      vertex 44.0729 -10.2366 -26.5
      vertex 36.4271 -11.7634 -26.5
      vertex 44.7366 -9.57295 -26.5
    endloop
  endfacet
  facet normal 0 0 -1
    outer loop
      vertex 36.4271 -8.23664 -26.5
      vertex 52.7165 -3.11344 -26.5
      vertex 54.7485 -4.58974 -26.5
    endloop
  endfacet
  facet normal 0 0 -1
    outer loop
      vertex 46.5 -9 -26.5
      vertex 56.5794 -6.30906 -26.5
      vertex 47.4271 -9.14683 -26.5
    endloop
  endfacet
  facet normal 0 0 -1
    outer loop
      vertex 37 -10 -26.5
      vertex 56.5794 -6.30906 -26.5
      vertex 45.5729 -9.14683 -26.5
    endloop
  endfacet
  facet normal 0 0 -1
    outer loop
      vertex 0 -20 -26.5
      vertex 33.0729 -12.8532 -26.5
      vertex 34.9271 -12.8532 -26.5
    endloop
  endfacet
  facet normal 0 0 -1
    outer loop
      vertex 44.7366 -9.57295 -26.5
      vertex 36.4271 -11.7634 -26.5
      vertex 45.5729 -9.14683 -26.5
    endloop
  endfacet
  facet normal 0 0 -1
    outer loop
      vertex 33.0729 -12.8532 -26.5
      vertex 0 -20 -26.5
      vertex 31.5729 -11.7634 -26.5
    endloop
  endfacet
  facet normal 0 0 -1
    outer loop
      vertex 34.9271 -7.14683 -26.5
      vertex 52.7165 -3.11344 -26.5
      vertex 36.4271 -8.23664 -26.5
    endloop
  endfacet
  facet normal 0 0 -1
    outer loop
      vertex 33.0729 -7.14683 -26.5
      vertex 48.1803 -0.97887 -26.5
      vertex 34.9271 -7.14683 -26.5
    endloop
  endfacet
  facet normal 0 0 -1
    outer loop
      vertex 18.3532 -12.9271 -26.5
      vertex 48.1803 -0.97887 -26.5
      vertex 33.0729 -7.14683 -26.5
    endloop
  endfacet
  facet normal 0 0 -1
    outer loop
      vertex 18.3532 -12.9271 -26.5
      vertex 33.0729 -7.14683 -26.5
      vertex 31.5729 -8.23664 -26.5
    endloop
  endfacet
  facet normal 0 0 -1
    outer loop
      vertex 48.2634 -9.57295 -26.5
      vertex 58.1803 -8.2443 -26.5
      vertex 48.9271 -10.2366 -26.5
    endloop
  endfacet
  facet normal 0 0 -1
    outer loop
      vertex 0 -20 -26.5
      vertex 43.5 -12 -26.5
      vertex 43.6468 -12.9271 -26.5
    endloop
  endfacet
  facet normal 0 0 -1
    outer loop
      vertex 49.3532 -11.0729 -26.5
      vertex 59.5261 -10.3649 -26.5
      vertex 49.5 -12 -26.5
    endloop
  endfacet
  facet normal 0 0 -1
    outer loop
      vertex 0 -20 -26.5
      vertex 44.0729 -13.7634 -26.5
      vertex 44.7366 -14.4271 -26.5
    endloop
  endfacet
  facet normal 0 0 -1
    outer loop
      vertex 48.9271 -13.7634 -26.5
      vertex 60.5955 -12.6375 -26.5
      vertex 48.2634 -14.4271 -26.5
    endloop
  endfacet
  facet normal 0 0 -1
    outer loop
      vertex 0 -20 -26.5
      vertex 45.5729 -14.8532 -26.5
      vertex 46.5 -15 -26.5
    endloop
  endfacet
  facet normal 0 0 -1
    outer loop
      vertex 0 -20 -26.5
      vertex 46.5 -15 -26.5
      vertex 61.3717 -15.0262 -26.5
    endloop
  endfacet
  facet normal 0 0 -1
    outer loop
      vertex 48.2634 -14.4271 -26.5
      vertex 60.5955 -12.6375 -26.5
      vertex 47.4271 -14.8532 -26.5
    endloop
  endfacet
  facet normal 0 0 -1
    outer loop
      vertex 47.4271 -14.8532 -26.5
      vertex 61.3717 -15.0262 -26.5
      vertex 46.5 -15 -26.5
    endloop
  endfacet
  facet normal 0 0 -1
    outer loop
      vertex 49.3532 -12.9271 -26.5
      vertex 60.5955 -12.6375 -26.5
      vertex 48.9271 -13.7634 -26.5
    endloop
  endfacet
  facet normal 0 0 -1
    outer loop
      vertex 49.5 -12 -26.5
      vertex 59.5261 -10.3649 -26.5
      vertex 49.3532 -12.9271 -26.5
    endloop
  endfacet
  facet normal 0 0 -1
    outer loop
      vertex 45.5729 -14.8532 -26.5
      vertex 0 -20 -26.5
      vertex 44.7366 -14.4271 -26.5
    endloop
  endfacet
  facet normal 0 0 -1
    outer loop
      vertex 48.9271 -10.2366 -26.5
      vertex 58.1803 -8.2443 -26.5
      vertex 49.3532 -11.0729 -26.5
    endloop
  endfacet
  facet normal 0 0 -1
    outer loop
      vertex 44.0729 -13.7634 -26.5
      vertex 0 -20 -26.5
      vertex 43.6468 -12.9271 -26.5
    endloop
  endfacet
  facet normal 0 0 -1
    outer loop
      vertex 47.4271 -9.14683 -26.5
      vertex 56.5794 -6.30906 -26.5
      vertex 48.2634 -9.57295 -26.5
    endloop
  endfacet
  facet normal 0 0 -1
    outer loop
      vertex 45.5729 -9.14683 -26.5
      vertex 56.5794 -6.30906 -26.5
      vertex 46.5 -9 -26.5
    endloop
  endfacet
  facet normal 0 0 -1
    outer loop
      vertex 43.6468 -11.0729 -26.5
      vertex 36.4271 -11.7634 -26.5
      vertex 44.0729 -10.2366 -26.5
    endloop
  endfacet
  facet normal 0 0 -1
    outer loop
      vertex 37 -10 -26.5
      vertex 54.7485 -4.58974 -26.5
      vertex 56.5794 -6.30906 -26.5
    endloop
  endfacet
  facet normal 0 0 -1
    outer loop
      vertex 37 -10 -26.5
      vertex 45.5729 -9.14683 -26.5
      vertex 36.4271 -11.7634 -26.5
    endloop
  endfacet
  facet normal 0 0 -1
    outer loop
      vertex 13.7366 -14.4271 -26.5
      vertex 0 -20 -26.5
      vertex 13.0729 -13.7634 -26.5
    endloop
  endfacet
  facet normal 0 0 -1
    outer loop
      vertex 34.9271 -7.14683 -26.5
      vertex 50.5156 -1.90346 -26.5
      vertex 52.7165 -3.11344 -26.5
    endloop
  endfacet
  facet normal 0 0 -1
    outer loop
      vertex 43.5 -12 -26.5
      vertex 0 -20 -26.5
      vertex 34.9271 -12.8532 -26.5
    endloop
  endfacet
  facet normal 0 0 -1
    outer loop
      vertex 18.3532 -11.0729 -26.5
      vertex 42 0 -26.5
      vertex 42 -0.039465 -26.5
    endloop
  endfacet
  facet normal 0 0 -1
    outer loop
      vertex 36.4271 -11.7634 -26.5
      vertex 43.6468 -11.0729 -26.5
      vertex 34.9271 -12.8532 -26.5
    endloop
  endfacet
  facet normal 0 1 0
    outer loop
      vertex 0 0 26.5
      vertex 4 0 26.5
      vertex 0 0 -26.5
    endloop
  endfacet
  facet normal 0 1 0
    outer loop
      vertex 0 0 -26.5
      vertex 4 0 26.5
      vertex 4 0 -22.5
    endloop
  endfacet
  facet normal 0 1 0
    outer loop
      vertex 0 0 -26.5
      vertex 4 0 -22.5
      vertex 42 0 -22.5
    endloop
  endfacet
  facet normal 0 1 0
    outer loop
      vertex 0 0 -26.5
      vertex 42 0 -22.5
      vertex 42 0 -26.5
    endloop
  endfacet
  facet normal -0.987688 -0.156435 0
    outer loop
      vertex 0.195774 -21.2361 -26.5
      vertex 0.195774 -21.2361 26.553
      vertex 0 -20 -26.5
    endloop
  endfacet
  facet normal -0.987688 -0.156435 0
    outer loop
      vertex 0 -20 -26.5
      vertex 0.195774 -21.2361 26.553
      vertex 0 -20 26.553
    endloop
  endfacet
  facet normal 0 0 1
    outer loop
      vertex 0 0 26.5
      vertex 0.195774 -2.76393 26.5
      vertex 0.763932 -1.64886 26.5
    endloop
  endfacet
  facet normal 0 0 1
    outer loop
      vertex 2.76393 -0.195774 26.5
      vertex 0 0 26.5
      vertex 1.64886 -0.763932 26.5
    endloop
  endfacet
  facet normal 0 0 1
    outer loop
      vertex 1.64886 -0.763932 26.5
      vertex 0 0 26.5
      vertex 0.763932 -1.64886 26.5
    endloop
  endfacet
  facet normal 0 0 1
    outer loop
      vertex 0 -4 26.5
      vertex 0.195774 -2.76393 26.5
      vertex 0 0 26.5
    endloop
  endfacet
  facet normal 0 0 1
    outer loop
      vertex 4 0 26.5
      vertex 0 0 26.5
      vertex 2.76393 -0.195774 26.5
    endloop
  endfacet
  facet normal -0.987688 0.156435 0
    outer loop
      vertex 0 -4 26.553
      vertex 0.195774 -2.76393 26.553
      vertex 0 -4 26.5
    endloop
  endfacet
  facet normal -0.987688 0.156435 0
    outer loop
      vertex 0 -4 26.5
      vertex 0.195774 -2.76393 26.553
      vertex 0.195774 -2.76393 26.5
    endloop
  endfacet
  facet normal 0 0 1
    outer loop
      vertex 0 -20 26.553
      vertex 0.195774 -21.2361 26.553
      vertex 0.763932 -22.3511 26.553
    endloop
  endfacet
  facet normal 0 0 1
    outer loop
      vertex 2.76393 -23.8042 26.553
      vertex 0 -20 26.553
      vertex 1.64886 -23.2361 26.553
    endloop
  endfacet
  facet normal 0 0 1
    outer loop
      vertex 1.64886 -23.2361 26.553
      vertex 0 -20 26.553
      vertex 0.763932 -22.3511 26.553
    endloop
  endfacet
  facet normal 0 0 1
    outer loop
      vertex 4 -24 26.553
      vertex 0 -20 26.553
      vertex 2.76393 -23.8042 26.553
    endloop
  endfacet
  facet normal 0 0 1
    outer loop
      vertex 58 -24 26.553
      vertex 0 -20 26.553
      vertex 4 -24 26.553
    endloop
  endfacet
  facet normal 0 0 1
    outer loop
      vertex 59.2361 -23.8042 26.553
      vertex 0 -20 26.553
      vertex 58 -24 26.553
    endloop
  endfacet
  facet normal 0 0 1
    outer loop
      vertex 60.3511 -23.2361 26.553
      vertex 0 -20 26.553
      vertex 59.2361 -23.8042 26.553
    endloop
  endfacet
  facet normal 0 0 1
    outer loop
      vertex 61.2361 -22.3511 26.553
      vertex 0 -20 26.553
      vertex 60.3511 -23.2361 26.553
    endloop
  endfacet
  facet normal 0 0 1
    outer loop
      vertex 61.8042 -21.2361 26.553
      vertex 0 -20 26.553
      vertex 61.2361 -22.3511 26.553
    endloop
  endfacet
  facet normal 0 0 1
    outer loop
      vertex 4 -20 26.553
      vertex 0 -20 26.553
      vertex 61.8042 -21.2361 26.553
    endloop
  endfacet
  facet normal 0 0 1
    outer loop
      vertex 4 0 26.553
      vertex 0 -20 26.553
      vertex 4 -20 26.553
    endloop
  endfacet
  facet normal 0 0 1
    outer loop
      vertex 62 -20 26.553
      vertex 4 -20 26.553
      vertex 61.8042 -21.2361 26.553
    endloop
  endfacet
  facet normal 0 0 1
    outer loop
      vertex 4 0 26.553
      vertex 2.76393 -0.195774 26.553
      vertex 0 -20 26.553
    endloop
  endfacet
  facet normal 0 0 1
    outer loop
      vertex 2.76393 -0.195774 26.553
      vertex 1.64886 -0.763932 26.553
      vertex 0 -20 26.553
    endloop
  endfacet
  facet normal 0 0 1
    outer loop
      vertex 1.64886 -0.763932 26.553
      vertex 0.763932 -1.64886 26.553
      vertex 0 -20 26.553
    endloop
  endfacet
  facet normal 0 0 1
    outer loop
      vertex 0.763932 -1.64886 26.553
      vertex 0.195774 -2.76393 26.553
      vertex 0 -20 26.553
    endloop
  endfacet
  facet normal 0 0 1
    outer loop
      vertex 0.195774 -2.76393 26.553
      vertex 0 -4 26.553
      vertex 0 -20 26.553
    endloop
  endfacet
  facet normal -0.891007 -0.45399 0
    outer loop
      vertex 0.763932 -22.3511 -26.5
      vertex 0.763932 -22.3511 26.553
      vertex 0.195774 -21.2361 -26.5
    endloop
  endfacet
  facet normal -0.891007 -0.45399 0
    outer loop
      vertex 0.195774 -21.2361 -26.5
      vertex 0.763932 -22.3511 26.553
      vertex 0.195774 -21.2361 26.553
    endloop
  endfacet
  facet normal -0.707107 -0.707107 0
    outer loop
      vertex 0.763932 -22.3511 -26.5
      vertex 1.64886 -23.2361 -26.5
      vertex 1.64886 -23.2361 26.553
    endloop
  endfacet
  facet normal -0.707107 -0.707107 0
    outer loop
      vertex 0.763932 -22.3511 26.553
      vertex 0.763932 -22.3511 -26.5
      vertex 1.64886 -23.2361 26.553
    endloop
  endfacet
  facet normal -0.45399 -0.891007 0
    outer loop
      vertex 1.64886 -23.2361 -26.5
      vertex 2.76393 -23.8042 -26.5
      vertex 2.76393 -23.8042 26.553
    endloop
  endfacet
  facet normal -0.45399 -0.891007 0
    outer loop
      vertex 1.64886 -23.2361 26.553
      vertex 1.64886 -23.2361 -26.5
      vertex 2.76393 -23.8042 26.553
    endloop
  endfacet
  facet normal -0.156435 -0.987688 0
    outer loop
      vertex 2.76393 -23.8042 -26.5
      vertex 4 -24 -26.5
      vertex 4 -24 26.553
    endloop
  endfacet
  facet normal -0.156435 -0.987688 0
    outer loop
      vertex 2.76393 -23.8042 26.553
      vertex 2.76393 -23.8042 -26.5
      vertex 4 -24 26.553
    endloop
  endfacet
  facet normal 0 -1 0
    outer loop
      vertex 4 -24 -26.5
      vertex 58 -24 -26.5
      vertex 58 -24 26.553
    endloop
  endfacet
  facet normal 0 -1 0
    outer loop
      vertex 4 -24 26.553
      vertex 4 -24 -26.5
      vertex 58 -24 26.553
    endloop
  endfacet
  facet normal 0.156435 -0.987688 0
    outer loop
      vertex 58 -24 -26.5
      vertex 59.2361 -23.8042 -26.5
      vertex 59.2361 -23.8042 26.553
    endloop
  endfacet
  facet normal 0.156435 -0.987688 0
    outer loop
      vertex 58 -24 26.553
      vertex 58 -24 -26.5
      vertex 59.2361 -23.8042 26.553
    endloop
  endfacet
  facet normal 0.45399 -0.891007 0
    outer loop
      vertex 59.2361 -23.8042 -26.5
      vertex 60.3511 -23.2361 -26.5
      vertex 60.3511 -23.2361 26.553
    endloop
  endfacet
  facet normal 0.45399 -0.891007 0
    outer loop
      vertex 59.2361 -23.8042 26.553
      vertex 59.2361 -23.8042 -26.5
      vertex 60.3511 -23.2361 26.553
    endloop
  endfacet
  facet normal 0.707107 -0.707107 0
    outer loop
      vertex 60.3511 -23.2361 -26.5
      vertex 61.2361 -22.3511 -26.5
      vertex 61.2361 -22.3511 26.553
    endloop
  endfacet
  facet normal 0.707107 -0.707107 0
    outer loop
      vertex 60.3511 -23.2361 26.553
      vertex 60.3511 -23.2361 -26.5
      vertex 61.2361 -22.3511 26.553
    endloop
  endfacet
  facet normal 0.891007 -0.45399 0
    outer loop
      vertex 61.2361 -22.3511 -26.5
      vertex 61.8042 -21.2361 -26.5
      vertex 61.8042 -21.2361 26.553
    endloop
  endfacet
  facet normal 0.891007 -0.45399 0
    outer loop
      vertex 61.2361 -22.3511 26.553
      vertex 61.2361 -22.3511 -26.5
      vertex 61.8042 -21.2361 26.553
    endloop
  endfacet
  facet normal 0.987688 -0.156435 0
    outer loop
      vertex 61.8042 -21.2361 -26.5
      vertex 62 -20 -26.5
      vertex 62 -20 -22.5
    endloop
  endfacet
  facet normal 0.987688 -0.156435 0
    outer loop
      vertex 61.8042 -21.2361 26.553
      vertex 61.8042 -21.2361 -26.5
      vertex 62 -20 26.553
    endloop
  endfacet
  facet normal 0.987688 -0.156435 0
    outer loop
      vertex 62 -20 26.553
      vertex 61.8042 -21.2361 -26.5
      vertex 62 -20 -22.5
    endloop
  endfacet
  facet normal 0.998027 0.0627905 0
    outer loop
      vertex 61.8423 -17.4933 -26.5
      vertex 61.8423 -17.4933 -22.5
      vertex 62 -20 -22.5
    endloop
  endfacet
  facet normal 0.998027 0.0627905 0
    outer loop
      vertex 62 -20 -26.5
      vertex 61.8423 -17.4933 -26.5
      vertex 62 -20 -22.5
    endloop
  endfacet
  facet normal 0.982287 0.187381 0
    outer loop
      vertex 61.3717 -15.0262 -26.5
      vertex 61.3717 -15.0262 -22.5
      vertex 61.8423 -17.4933 -22.5
    endloop
  endfacet
  facet normal 0.982287 0.187381 0
    outer loop
      vertex 61.8423 -17.4933 -26.5
      vertex 61.3717 -15.0262 -26.5
      vertex 61.8423 -17.4933 -22.5
    endloop
  endfacet
  facet normal 0.951057 0.309017 0
    outer loop
      vertex 60.5955 -12.6375 -26.5
      vertex 60.5955 -12.6375 -22.5
      vertex 61.3717 -15.0262 -22.5
    endloop
  endfacet
  facet normal 0.951057 0.309017 0
    outer loop
      vertex 61.3717 -15.0262 -26.5
      vertex 60.5955 -12.6375 -26.5
      vertex 61.3717 -15.0262 -22.5
    endloop
  endfacet
  facet normal 0.904827 0.425779 0
    outer loop
      vertex 59.5261 -10.3649 -26.5
      vertex 59.5261 -10.3649 -22.5
      vertex 60.5955 -12.6375 -22.5
    endloop
  endfacet
  facet normal 0.904827 0.425779 0
    outer loop
      vertex 60.5955 -12.6375 -26.5
      vertex 59.5261 -10.3649 -26.5
      vertex 60.5955 -12.6375 -22.5
    endloop
  endfacet
  facet normal 0.844328 0.535827 0
    outer loop
      vertex 58.1803 -8.2443 -26.5
      vertex 58.1803 -8.2443 -22.5
      vertex 59.5261 -10.3649 -22.5
    endloop
  endfacet
  facet normal 0.844328 0.535827 0
    outer loop
      vertex 59.5261 -10.3649 -26.5
      vertex 58.1803 -8.2443 -26.5
      vertex 59.5261 -10.3649 -22.5
    endloop
  endfacet
  facet normal 0.770513 0.637424 0
    outer loop
      vertex 56.5794 -6.30906 -26.5
      vertex 56.5794 -6.30906 -22.5
      vertex 58.1803 -8.2443 -22.5
    endloop
  endfacet
  facet normal 0.770513 0.637424 0
    outer loop
      vertex 58.1803 -8.2443 -26.5
      vertex 56.5794 -6.30906 -26.5
      vertex 58.1803 -8.2443 -22.5
    endloop
  endfacet
  facet normal 0.684547 0.728969 0
    outer loop
      vertex 54.7485 -4.58974 -22.5
      vertex 56.5794 -6.30906 -22.5
      vertex 54.7485 -4.58974 -26.5
    endloop
  endfacet
  facet normal 0.684547 0.728969 0
    outer loop
      vertex 54.7485 -4.58974 -26.5
      vertex 56.5794 -6.30906 -22.5
      vertex 56.5794 -6.30906 -26.5
    endloop
  endfacet
  facet normal 0.587785 0.809017 0
    outer loop
      vertex 52.7165 -3.11344 -22.5
      vertex 54.7485 -4.58974 -22.5
      vertex 52.7165 -3.11344 -26.5
    endloop
  endfacet
  facet normal 0.587785 0.809017 0
    outer loop
      vertex 52.7165 -3.11344 -26.5
      vertex 54.7485 -4.58974 -22.5
      vertex 54.7485 -4.58974 -26.5
    endloop
  endfacet
  facet normal 0.481754 0.876307 0
    outer loop
      vertex 50.5156 -1.90346 -22.5
      vertex 52.7165 -3.11344 -22.5
      vertex 50.5156 -1.90346 -26.5
    endloop
  endfacet
  facet normal 0.481754 0.876307 0
    outer loop
      vertex 50.5156 -1.90346 -26.5
      vertex 52.7165 -3.11344 -22.5
      vertex 52.7165 -3.11344 -26.5
    endloop
  endfacet
  facet normal 0.368124 0.929777 0
    outer loop
      vertex 48.1803 -0.97887 -22.5
      vertex 50.5156 -1.90346 -22.5
      vertex 48.1803 -0.97887 -26.5
    endloop
  endfacet
  facet normal 0.368124 0.929777 0
    outer loop
      vertex 48.1803 -0.97887 -26.5
      vertex 50.5156 -1.90346 -22.5
      vertex 50.5156 -1.90346 -26.5
    endloop
  endfacet
  facet normal 0.24869 0.968583 0
    outer loop
      vertex 45.7476 -0.354255 -22.5
      vertex 48.1803 -0.97887 -22.5
      vertex 45.7476 -0.354255 -26.5
    endloop
  endfacet
  facet normal 0.24869 0.968583 0
    outer loop
      vertex 45.7476 -0.354255 -26.5
      vertex 48.1803 -0.97887 -22.5
      vertex 48.1803 -0.97887 -26.5
    endloop
  endfacet
  facet normal 0.125333 0.992115 0
    outer loop
      vertex 43.2558 -0.039465 -22.5
      vertex 45.7476 -0.354255 -22.5
      vertex 43.2558 -0.039465 -26.5
    endloop
  endfacet
  facet normal 0.125333 0.992115 0
    outer loop
      vertex 43.2558 -0.039465 -26.5
      vertex 45.7476 -0.354255 -22.5
      vertex 45.7476 -0.354255 -26.5
    endloop
  endfacet
  facet normal 0 1 0
    outer loop
      vertex 42 -0.039465 -22.5
      vertex 43.2558 -0.039465 -22.5
      vertex 42 -0.039465 -26.5
    endloop
  endfacet
  facet normal 0 1 0
    outer loop
      vertex 42 -0.039465 -26.5
      vertex 43.2558 -0.039465 -22.5
      vertex 43.2558 -0.039465 -26.5
    endloop
  endfacet
  facet normal 1 0 0
    outer loop
      vertex 42 -0.039465 -26.5
      vertex 42 0 -26.5
      vertex 42 0 -22.5
    endloop
  endfacet
  facet normal 1 0 0
    outer loop
      vertex 42 -0.039465 -22.5
      vertex 42 -0.039465 -26.5
      vertex 42 0 -22.5
    endloop
  endfacet
  facet normal 0.702714 0.111298 -0.702714
    outer loop
      vertex 12.5 -12 -26.5
      vertex 14.5 -12 -24.5
      vertex 14.5489 -12.309 -24.5
    endloop
  endfacet
  facet normal 0.702714 -0.111299 -0.702714
    outer loop
      vertex 12.5 -12 -26.5
      vertex 12.6468 -11.0729 -26.5
      vertex 14.5 -12 -24.5
    endloop
  endfacet
  facet normal 0.702714 0.111299 -0.702713
    outer loop
      vertex 12.5 -12 -26.5
      vertex 14.5489 -12.309 -24.5
      vertex 12.6468 -12.9271 -26.5
    endloop
  endfacet
  facet normal 0.702714 -0.111298 -0.702713
    outer loop
      vertex 12.6468 -11.0729 -26.5
      vertex 14.5489 -11.691 -24.5
      vertex 14.5 -12 -24.5
    endloop
  endfacet
  facet normal 0.633927 -0.323002 -0.702713
    outer loop
      vertex 12.6468 -11.0729 -26.5
      vertex 13.0729 -10.2366 -26.5
      vertex 14.5489 -11.691 -24.5
    endloop
  endfacet
  facet normal 0.633926 -0.323003 -0.702714
    outer loop
      vertex 13.0729 -10.2366 -26.5
      vertex 14.691 -11.4122 -24.5
      vertex 14.5489 -11.691 -24.5
    endloop
  endfacet
  facet normal 0.503087 -0.503087 -0.702714
    outer loop
      vertex 13.7366 -9.57295 -26.5
      vertex 14.9122 -11.191 -24.5
      vertex 13.0729 -10.2366 -26.5
    endloop
  endfacet
  facet normal 0.503087 -0.503087 -0.702714
    outer loop
      vertex 13.0729 -10.2366 -26.5
      vertex 14.9122 -11.191 -24.5
      vertex 14.691 -11.4122 -24.5
    endloop
  endfacet
  facet normal 0.323002 -0.633927 -0.702714
    outer loop
      vertex 13.7366 -9.57295 -26.5
      vertex 14.5729 -9.14683 -26.5
      vertex 14.9122 -11.191 -24.5
    endloop
  endfacet
  facet normal 0.323003 -0.633927 -0.702713
    outer loop
      vertex 14.5729 -9.14683 -26.5
      vertex 15.191 -11.0489 -24.5
      vertex 14.9122 -11.191 -24.5
    endloop
  endfacet
  facet normal 0.111299 -0.702714 -0.702713
    outer loop
      vertex 14.5729 -9.14683 -26.5
      vertex 15.5 -9 -26.5
      vertex 15.191 -11.0489 -24.5
    endloop
  endfacet
  facet normal 0.111298 -0.702714 -0.702714
    outer loop
      vertex 15.191 -11.0489 -24.5
      vertex 15.5 -9 -26.5
      vertex 15.5 -11 -24.5
    endloop
  endfacet
  facet normal -0.111299 -0.702714 -0.702714
    outer loop
      vertex 15.5 -11 -24.5
      vertex 15.5 -9 -26.5
      vertex 16.4271 -9.14683 -26.5
    endloop
  endfacet
  facet normal -0.111298 -0.702714 -0.702713
    outer loop
      vertex 15.5 -11 -24.5
      vertex 16.4271 -9.14683 -26.5
      vertex 15.809 -11.0489 -24.5
    endloop
  endfacet
  facet normal -0.323002 -0.633927 -0.702713
    outer loop
      vertex 15.809 -11.0489 -24.5
      vertex 16.4271 -9.14683 -26.5
      vertex 17.2634 -9.57295 -26.5
    endloop
  endfacet
  facet normal -0.323003 -0.633926 -0.702714
    outer loop
      vertex 15.809 -11.0489 -24.5
      vertex 17.2634 -9.57295 -26.5
      vertex 16.0878 -11.191 -24.5
    endloop
  endfacet
  facet normal -0.503087 -0.503087 -0.702714
    outer loop
      vertex 17.2634 -9.57295 -26.5
      vertex 17.9271 -10.2366 -26.5
      vertex 16.0878 -11.191 -24.5
    endloop
  endfacet
  facet normal -0.503087 -0.503087 -0.702714
    outer loop
      vertex 16.0878 -11.191 -24.5
      vertex 17.9271 -10.2366 -26.5
      vertex 16.309 -11.4122 -24.5
    endloop
  endfacet
  facet normal -0.633927 -0.323002 -0.702714
    outer loop
      vertex 16.309 -11.4122 -24.5
      vertex 17.9271 -10.2366 -26.5
      vertex 18.3532 -11.0729 -26.5
    endloop
  endfacet
  facet normal -0.633927 -0.323003 -0.702713
    outer loop
      vertex 16.309 -11.4122 -24.5
      vertex 18.3532 -11.0729 -26.5
      vertex 16.4511 -11.691 -24.5
    endloop
  endfacet
  facet normal -0.702714 -0.111299 -0.702713
    outer loop
      vertex 16.4511 -11.691 -24.5
      vertex 18.3532 -11.0729 -26.5
      vertex 18.5 -12 -26.5
    endloop
  endfacet
  facet normal -0.702714 -0.111298 -0.702714
    outer loop
      vertex 16.4511 -11.691 -24.5
      vertex 18.5 -12 -26.5
      vertex 16.5 -12 -24.5
    endloop
  endfacet
  facet normal -0.702714 0.111299 -0.702714
    outer loop
      vertex 16.5 -12 -24.5
      vertex 18.5 -12 -26.5
      vertex 18.3532 -12.9271 -26.5
    endloop
  endfacet
  facet normal -0.633927 0.323002 -0.702713
    outer loop
      vertex 16.4511 -12.309 -24.5
      vertex 18.3532 -12.9271 -26.5
      vertex 17.9271 -13.7634 -26.5
    endloop
  endfacet
  facet normal -0.702714 0.111298 -0.702713
    outer loop
      vertex 16.4511 -12.309 -24.5
      vertex 16.5 -12 -24.5
      vertex 18.3532 -12.9271 -26.5
    endloop
  endfacet
  facet normal -0.503087 0.503087 -0.702714
    outer loop
      vertex 16.309 -12.5878 -24.5
      vertex 17.9271 -13.7634 -26.5
      vertex 16.0878 -12.809 -24.5
    endloop
  endfacet
  facet normal -0.503087 0.503087 -0.702714
    outer loop
      vertex 16.0878 -12.809 -24.5
      vertex 17.9271 -13.7634 -26.5
      vertex 17.2634 -14.4271 -26.5
    endloop
  endfacet
  facet normal -0.633926 0.323003 -0.702714
    outer loop
      vertex 16.309 -12.5878 -24.5
      vertex 16.4511 -12.309 -24.5
      vertex 17.9271 -13.7634 -26.5
    endloop
  endfacet
  facet normal -0.323002 0.633927 -0.702714
    outer loop
      vertex 16.0878 -12.809 -24.5
      vertex 17.2634 -14.4271 -26.5
      vertex 16.4271 -14.8532 -26.5
    endloop
  endfacet
  facet normal -0.111299 0.702714 -0.702713
    outer loop
      vertex 15.5 -15 -26.5
      vertex 15.809 -12.9511 -24.5
      vertex 16.4271 -14.8532 -26.5
    endloop
  endfacet
  facet normal -0.323003 0.633927 -0.702713
    outer loop
      vertex 15.809 -12.9511 -24.5
      vertex 16.0878 -12.809 -24.5
      vertex 16.4271 -14.8532 -26.5
    endloop
  endfacet
  facet normal 0.111299 0.702714 -0.702714
    outer loop
      vertex 14.5729 -14.8532 -26.5
      vertex 15.5 -13 -24.5
      vertex 15.5 -15 -26.5
    endloop
  endfacet
  facet normal -0.111298 0.702714 -0.702714
    outer loop
      vertex 15.5 -15 -26.5
      vertex 15.5 -13 -24.5
      vertex 15.809 -12.9511 -24.5
    endloop
  endfacet
  facet normal 0.323002 0.633927 -0.702713
    outer loop
      vertex 13.7366 -14.4271 -26.5
      vertex 15.191 -12.9511 -24.5
      vertex 14.5729 -14.8532 -26.5
    endloop
  endfacet
  facet normal 0.111298 0.702714 -0.702713
    outer loop
      vertex 14.5729 -14.8532 -26.5
      vertex 15.191 -12.9511 -24.5
      vertex 15.5 -13 -24.5
    endloop
  endfacet
  facet normal 0.503087 0.503087 -0.702714
    outer loop
      vertex 14.691 -12.5878 -24.5
      vertex 14.9122 -12.809 -24.5
      vertex 13.0729 -13.7634 -26.5
    endloop
  endfacet
  facet normal 0.503087 0.503087 -0.702714
    outer loop
      vertex 13.0729 -13.7634 -26.5
      vertex 14.9122 -12.809 -24.5
      vertex 13.7366 -14.4271 -26.5
    endloop
  endfacet
  facet normal 0.323003 0.633926 -0.702714
    outer loop
      vertex 13.7366 -14.4271 -26.5
      vertex 14.9122 -12.809 -24.5
      vertex 15.191 -12.9511 -24.5
    endloop
  endfacet
  facet normal 0.633927 0.323002 -0.702714
    outer loop
      vertex 12.6468 -12.9271 -26.5
      vertex 14.691 -12.5878 -24.5
      vertex 13.0729 -13.7634 -26.5
    endloop
  endfacet
  facet normal 0.633927 0.323003 -0.702713
    outer loop
      vertex 12.6468 -12.9271 -26.5
      vertex 14.5489 -12.309 -24.5
      vertex 14.691 -12.5878 -24.5
    endloop
  endfacet
  facet normal 0.951057 0.309017 0
    outer loop
      vertex 31 -10 -26.5
      vertex 31 -10 -22.5
      vertex 31.5729 -11.7634 -22.5
    endloop
  endfacet
  facet normal 0.951057 0.309017 0
    outer loop
      vertex 31.5729 -11.7634 -26.5
      vertex 31 -10 -26.5
      vertex 31.5729 -11.7634 -22.5
    endloop
  endfacet
  facet normal 0.951057 -0.309017 0
    outer loop
      vertex 31 -10 -26.5
      vertex 31.5729 -8.23664 -26.5
      vertex 31.5729 -8.23664 -22.5
    endloop
  endfacet
  facet normal 0.951057 -0.309017 0
    outer loop
      vertex 31 -10 -22.5
      vertex 31 -10 -26.5
      vertex 31.5729 -8.23664 -22.5
    endloop
  endfacet
  facet normal 0.587785 -0.809017 0
    outer loop
      vertex 31.5729 -8.23664 -26.5
      vertex 33.0729 -7.14683 -26.5
      vertex 33.0729 -7.14683 -22.5
    endloop
  endfacet
  facet normal 0.587785 -0.809017 0
    outer loop
      vertex 31.5729 -8.23664 -22.5
      vertex 31.5729 -8.23664 -26.5
      vertex 33.0729 -7.14683 -22.5
    endloop
  endfacet
  facet normal 0 -1 0
    outer loop
      vertex 33.0729 -7.14683 -26.5
      vertex 34.9271 -7.14683 -26.5
      vertex 34.9271 -7.14683 -22.5
    endloop
  endfacet
  facet normal 0 -1 0
    outer loop
      vertex 33.0729 -7.14683 -22.5
      vertex 33.0729 -7.14683 -26.5
      vertex 34.9271 -7.14683 -22.5
    endloop
  endfacet
  facet normal -0.587785 -0.809017 0
    outer loop
      vertex 34.9271 -7.14683 -26.5
      vertex 36.4271 -8.23664 -26.5
      vertex 36.4271 -8.23664 -22.5
    endloop
  endfacet
  facet normal -0.587785 -0.809017 0
    outer loop
      vertex 34.9271 -7.14683 -22.5
      vertex 34.9271 -7.14683 -26.5
      vertex 36.4271 -8.23664 -22.5
    endloop
  endfacet
  facet normal -0.951057 -0.309017 0
    outer loop
      vertex 37 -10 -26.5
      vertex 37 -10 -22.5
      vertex 36.4271 -8.23664 -26.5
    endloop
  endfacet
  facet normal -0.951057 -0.309017 0
    outer loop
      vertex 36.4271 -8.23664 -26.5
      vertex 37 -10 -22.5
      vertex 36.4271 -8.23664 -22.5
    endloop
  endfacet
  facet normal -0.951057 0.309017 0
    outer loop
      vertex 36.4271 -11.7634 -22.5
      vertex 37 -10 -22.5
      vertex 36.4271 -11.7634 -26.5
    endloop
  endfacet
  facet normal -0.951057 0.309017 0
    outer loop
      vertex 36.4271 -11.7634 -26.5
      vertex 37 -10 -22.5
      vertex 37 -10 -26.5
    endloop
  endfacet
  facet normal -0.587785 0.809017 0
    outer loop
      vertex 34.9271 -12.8532 -22.5
      vertex 36.4271 -11.7634 -22.5
      vertex 34.9271 -12.8532 -26.5
    endloop
  endfacet
  facet normal -0.587785 0.809017 0
    outer loop
      vertex 34.9271 -12.8532 -26.5
      vertex 36.4271 -11.7634 -22.5
      vertex 36.4271 -11.7634 -26.5
    endloop
  endfacet
  facet normal 0 1 0
    outer loop
      vertex 33.0729 -12.8532 -22.5
      vertex 34.9271 -12.8532 -22.5
      vertex 33.0729 -12.8532 -26.5
    endloop
  endfacet
  facet normal 0 1 0
    outer loop
      vertex 33.0729 -12.8532 -26.5
      vertex 34.9271 -12.8532 -22.5
      vertex 34.9271 -12.8532 -26.5
    endloop
  endfacet
  facet normal 0.587785 0.809017 0
    outer loop
      vertex 31.5729 -11.7634 -22.5
      vertex 33.0729 -12.8532 -22.5
      vertex 31.5729 -11.7634 -26.5
    endloop
  endfacet
  facet normal 0.587785 0.809017 0
    outer loop
      vertex 31.5729 -11.7634 -26.5
      vertex 33.0729 -12.8532 -22.5
      vertex 33.0729 -12.8532 -26.5
    endloop
  endfacet
  facet normal 0.702714 0.111298 -0.702714
    outer loop
      vertex 43.5 -12 -26.5
      vertex 45.5 -12 -24.5
      vertex 45.5489 -12.309 -24.5
    endloop
  endfacet
  facet normal 0.702714 -0.111299 -0.702714
    outer loop
      vertex 43.5 -12 -26.5
      vertex 43.6468 -11.0729 -26.5
      vertex 45.5 -12 -24.5
    endloop
  endfacet
  facet normal 0.702714 0.111299 -0.702713
    outer loop
      vertex 43.5 -12 -26.5
      vertex 45.5489 -12.309 -24.5
      vertex 43.6468 -12.9271 -26.5
    endloop
  endfacet
  facet normal 0.702714 -0.111298 -0.702713
    outer loop
      vertex 43.6468 -11.0729 -26.5
      vertex 45.5489 -11.691 -24.5
      vertex 45.5 -12 -24.5
    endloop
  endfacet
  facet normal 0.633927 -0.323002 -0.702713
    outer loop
      vertex 43.6468 -11.0729 -26.5
      vertex 44.0729 -10.2366 -26.5
      vertex 45.5489 -11.691 -24.5
    endloop
  endfacet
  facet normal 0.633926 -0.323003 -0.702714
    outer loop
      vertex 44.0729 -10.2366 -26.5
      vertex 45.691 -11.4122 -24.5
      vertex 45.5489 -11.691 -24.5
    endloop
  endfacet
  facet normal 0.503087 -0.503087 -0.702714
    outer loop
      vertex 44.7366 -9.57295 -26.5
      vertex 45.9122 -11.191 -24.5
      vertex 44.0729 -10.2366 -26.5
    endloop
  endfacet
  facet normal 0.503087 -0.503087 -0.702714
    outer loop
      vertex 44.0729 -10.2366 -26.5
      vertex 45.9122 -11.191 -24.5
      vertex 45.691 -11.4122 -24.5
    endloop
  endfacet
  facet normal 0.323002 -0.633927 -0.702714
    outer loop
      vertex 44.7366 -9.57295 -26.5
      vertex 45.5729 -9.14683 -26.5
      vertex 45.9122 -11.191 -24.5
    endloop
  endfacet
  facet normal 0.323003 -0.633927 -0.702713
    outer loop
      vertex 45.5729 -9.14683 -26.5
      vertex 46.191 -11.0489 -24.5
      vertex 45.9122 -11.191 -24.5
    endloop
  endfacet
  facet normal 0.111299 -0.702714 -0.702713
    outer loop
      vertex 45.5729 -9.14683 -26.5
      vertex 46.5 -9 -26.5
      vertex 46.191 -11.0489 -24.5
    endloop
  endfacet
  facet normal 0.111298 -0.702714 -0.702714
    outer loop
      vertex 46.191 -11.0489 -24.5
      vertex 46.5 -9 -26.5
      vertex 46.5 -11 -24.5
    endloop
  endfacet
  facet normal -0.111299 -0.702714 -0.702714
    outer loop
      vertex 46.5 -11 -24.5
      vertex 46.5 -9 -26.5
      vertex 47.4271 -9.14683 -26.5
    endloop
  endfacet
  facet normal -0.111298 -0.702714 -0.702713
    outer loop
      vertex 46.5 -11 -24.5
      vertex 47.4271 -9.14683 -26.5
      vertex 46.809 -11.0489 -24.5
    endloop
  endfacet
  facet normal -0.323002 -0.633927 -0.702713
    outer loop
      vertex 46.809 -11.0489 -24.5
      vertex 47.4271 -9.14683 -26.5
      vertex 48.2634 -9.57295 -26.5
    endloop
  endfacet
  facet normal -0.323003 -0.633926 -0.702714
    outer loop
      vertex 46.809 -11.0489 -24.5
      vertex 48.2634 -9.57295 -26.5
      vertex 47.0878 -11.191 -24.5
    endloop
  endfacet
  facet normal -0.503087 -0.503087 -0.702714
    outer loop
      vertex 48.2634 -9.57295 -26.5
      vertex 48.9271 -10.2366 -26.5
      vertex 47.0878 -11.191 -24.5
    endloop
  endfacet
  facet normal -0.503087 -0.503087 -0.702714
    outer loop
      vertex 47.0878 -11.191 -24.5
      vertex 48.9271 -10.2366 -26.5
      vertex 47.309 -11.4122 -24.5
    endloop
  endfacet
  facet normal -0.633927 -0.323002 -0.702714
    outer loop
      vertex 47.309 -11.4122 -24.5
      vertex 48.9271 -10.2366 -26.5
      vertex 49.3532 -11.0729 -26.5
    endloop
  endfacet
  facet normal -0.633927 -0.323003 -0.702713
    outer loop
      vertex 47.309 -11.4122 -24.5
      vertex 49.3532 -11.0729 -26.5
      vertex 47.4511 -11.691 -24.5
    endloop
  endfacet
  facet normal -0.702714 -0.111299 -0.702713
    outer loop
      vertex 47.4511 -11.691 -24.5
      vertex 49.3532 -11.0729 -26.5
      vertex 49.5 -12 -26.5
    endloop
  endfacet
  facet normal -0.702714 -0.111298 -0.702714
    outer loop
      vertex 47.4511 -11.691 -24.5
      vertex 49.5 -12 -26.5
      vertex 47.5 -12 -24.5
    endloop
  endfacet
  facet normal -0.702714 0.111299 -0.702714
    outer loop
      vertex 47.5 -12 -24.5
      vertex 49.5 -12 -26.5
      vertex 49.3532 -12.9271 -26.5
    endloop
  endfacet
  facet normal -0.633927 0.323002 -0.702713
    outer loop
      vertex 47.4511 -12.309 -24.5
      vertex 49.3532 -12.9271 -26.5
      vertex 48.9271 -13.7634 -26.5
    endloop
  endfacet
  facet normal -0.702714 0.111298 -0.702713
    outer loop
      vertex 47.4511 -12.309 -24.5
      vertex 47.5 -12 -24.5
      vertex 49.3532 -12.9271 -26.5
    endloop
  endfacet
  facet normal -0.503087 0.503087 -0.702714
    outer loop
      vertex 47.309 -12.5878 -24.5
      vertex 48.9271 -13.7634 -26.5
      vertex 47.0878 -12.809 -24.5
    endloop
  endfacet
  facet normal -0.503087 0.503087 -0.702714
    outer loop
      vertex 47.0878 -12.809 -24.5
      vertex 48.9271 -13.7634 -26.5
      vertex 48.2634 -14.4271 -26.5
    endloop
  endfacet
  facet normal -0.633926 0.323003 -0.702714
    outer loop
      vertex 47.309 -12.5878 -24.5
      vertex 47.4511 -12.309 -24.5
      vertex 48.9271 -13.7634 -26.5
    endloop
  endfacet
  facet normal -0.323002 0.633927 -0.702714
    outer loop
      vertex 47.0878 -12.809 -24.5
      vertex 48.2634 -14.4271 -26.5
      vertex 47.4271 -14.8532 -26.5
    endloop
  endfacet
  facet normal -0.111299 0.702714 -0.702713
    outer loop
      vertex 46.5 -15 -26.5
      vertex 46.809 -12.9511 -24.5
      vertex 47.4271 -14.8532 -26.5
    endloop
  endfacet
  facet normal -0.323003 0.633927 -0.702713
    outer loop
      vertex 46.809 -12.9511 -24.5
      vertex 47.0878 -12.809 -24.5
      vertex 47.4271 -14.8532 -26.5
    endloop
  endfacet
  facet normal 0.111299 0.702714 -0.702714
    outer loop
      vertex 45.5729 -14.8532 -26.5
      vertex 46.5 -13 -24.5
      vertex 46.5 -15 -26.5
    endloop
  endfacet
  facet normal -0.111298 0.702714 -0.702714
    outer loop
      vertex 46.5 -15 -26.5
      vertex 46.5 -13 -24.5
      vertex 46.809 -12.9511 -24.5
    endloop
  endfacet
  facet normal 0.323002 0.633927 -0.702713
    outer loop
      vertex 44.7366 -14.4271 -26.5
      vertex 46.191 -12.9511 -24.5
      vertex 45.5729 -14.8532 -26.5
    endloop
  endfacet
  facet normal 0.111298 0.702714 -0.702713
    outer loop
      vertex 45.5729 -14.8532 -26.5
      vertex 46.191 -12.9511 -24.5
      vertex 46.5 -13 -24.5
    endloop
  endfacet
  facet normal 0.503087 0.503087 -0.702714
    outer loop
      vertex 45.691 -12.5878 -24.5
      vertex 45.9122 -12.809 -24.5
      vertex 44.0729 -13.7634 -26.5
    endloop
  endfacet
  facet normal 0.503087 0.503087 -0.702714
    outer loop
      vertex 44.0729 -13.7634 -26.5
      vertex 45.9122 -12.809 -24.5
      vertex 44.7366 -14.4271 -26.5
    endloop
  endfacet
  facet normal 0.323003 0.633926 -0.702714
    outer loop
      vertex 44.7366 -14.4271 -26.5
      vertex 45.9122 -12.809 -24.5
      vertex 46.191 -12.9511 -24.5
    endloop
  endfacet
  facet normal 0.633927 0.323002 -0.702714
    outer loop
      vertex 43.6468 -12.9271 -26.5
      vertex 45.691 -12.5878 -24.5
      vertex 44.0729 -13.7634 -26.5
    endloop
  endfacet
  facet normal 0.633927 0.323003 -0.702713
    outer loop
      vertex 43.6468 -12.9271 -26.5
      vertex 45.5489 -12.309 -24.5
      vertex 45.691 -12.5878 -24.5
    endloop
  endfacet
  facet normal 0 0 1
    outer loop
      vertex 4 -20 -22.5
      vertex 62 -20 -22.5
      vertex 61.8423 -17.4933 -22.5
    endloop
  endfacet
  facet normal 0 0 1
    outer loop
      vertex 60.5955 -12.6375 -22.5
      vertex 4 -20 -22.5
      vertex 61.3717 -15.0262 -22.5
    endloop
  endfacet
  facet normal 0 0 1
    outer loop
      vertex 61.3717 -15.0262 -22.5
      vertex 4 -20 -22.5
      vertex 61.8423 -17.4933 -22.5
    endloop
  endfacet
  facet normal 0 0 1
    outer loop
      vertex 46.809 -12.9511 -22.5
      vertex 4 -20 -22.5
      vertex 60.5955 -12.6375 -22.5
    endloop
  endfacet
  facet normal 0 0 1
    outer loop
      vertex 34.9271 -12.8532 -22.5
      vertex 4 -20 -22.5
      vertex 58.1803 -8.2443 -22.5
    endloop
  endfacet
  facet normal 0 0 1
    outer loop
      vertex 33.0729 -12.8532 -22.5
      vertex 31.5729 -11.7634 -22.5
      vertex 4 -20 -22.5
    endloop
  endfacet
  facet normal 0 0 1
    outer loop
      vertex 36.4271 -8.23664 -22.5
      vertex 54.7485 -4.58974 -22.5
      vertex 52.7165 -3.11344 -22.5
    endloop
  endfacet
  facet normal 0 0 1
    outer loop
      vertex 31.5729 -8.23664 -22.5
      vertex 33.0729 -7.14683 -22.5
      vertex 4 -20 -22.5
    endloop
  endfacet
  facet normal 0 0 1
    outer loop
      vertex 43.2558 -0.039465 -22.5
      vertex 4 -20 -22.5
      vertex 45.7476 -0.354255 -22.5
    endloop
  endfacet
  facet normal 0 0 1
    outer loop
      vertex 42 -0.039465 -22.5
      vertex 4 -20 -22.5
      vertex 43.2558 -0.039465 -22.5
    endloop
  endfacet
  facet normal 0 0 1
    outer loop
      vertex 42 0 -22.5
      vertex 4 -20 -22.5
      vertex 42 -0.039465 -22.5
    endloop
  endfacet
  facet normal 0 0 1
    outer loop
      vertex 15.809 -12.9511 -22.5
      vertex 4 -20 -22.5
      vertex 42 0 -22.5
    endloop
  endfacet
  facet normal 0 0 1
    outer loop
      vertex 4 0 -22.5
      vertex 4 -4 -22.5
      vertex 42 0 -22.5
    endloop
  endfacet
  facet normal 0 0 1
    outer loop
      vertex 4 -4 -22.5
      vertex 4 -20 -22.5
      vertex 14.691 -12.5878 -22.5
    endloop
  endfacet
  facet normal 0 0 1
    outer loop
      vertex 4 -4 -22.5
      vertex 14.691 -11.4122 -22.5
      vertex 42 0 -22.5
    endloop
  endfacet
  facet normal 0 0 1
    outer loop
      vertex 4 -4 -22.5
      vertex 14.691 -12.5878 -22.5
      vertex 14.691 -11.4122 -22.5
    endloop
  endfacet
  facet normal 0 0 1
    outer loop
      vertex 14.691 -11.4122 -22.5
      vertex 15.809 -11.0489 -22.5
      vertex 42 0 -22.5
    endloop
  endfacet
  facet normal 0 0 1
    outer loop
      vertex 16.5 -12 -22.5
      vertex 15.809 -12.9511 -22.5
      vertex 42 0 -22.5
    endloop
  endfacet
  facet normal 0 0 1
    outer loop
      vertex 15.809 -11.0489 -22.5
      vertex 16.5 -12 -22.5
      vertex 42 0 -22.5
    endloop
  endfacet
  facet normal 0 0 1
    outer loop
      vertex 37 -10 -22.5
      vertex 36.4271 -11.7634 -22.5
      vertex 56.5794 -6.30906 -22.5
    endloop
  endfacet
  facet normal 0 0 1
    outer loop
      vertex 33.0729 -7.14683 -22.5
      vertex 34.9271 -7.14683 -22.5
      vertex 50.5156 -1.90346 -22.5
    endloop
  endfacet
  facet normal 0 0 1
    outer loop
      vertex 34.9271 -7.14683 -22.5
      vertex 36.4271 -8.23664 -22.5
      vertex 50.5156 -1.90346 -22.5
    endloop
  endfacet
  facet normal 0 0 1
    outer loop
      vertex 33.0729 -7.14683 -22.5
      vertex 50.5156 -1.90346 -22.5
      vertex 48.1803 -0.97887 -22.5
    endloop
  endfacet
  facet normal 0 0 1
    outer loop
      vertex 45.7476 -0.354255 -22.5
      vertex 33.0729 -7.14683 -22.5
      vertex 48.1803 -0.97887 -22.5
    endloop
  endfacet
  facet normal 0 0 1
    outer loop
      vertex 45.7476 -0.354255 -22.5
      vertex 4 -20 -22.5
      vertex 33.0729 -7.14683 -22.5
    endloop
  endfacet
  facet normal 0 0 1
    outer loop
      vertex 36.4271 -8.23664 -22.5
      vertex 37 -10 -22.5
      vertex 54.7485 -4.58974 -22.5
    endloop
  endfacet
  facet normal 0 0 1
    outer loop
      vertex 50.5156 -1.90346 -22.5
      vertex 36.4271 -8.23664 -22.5
      vertex 52.7165 -3.11344 -22.5
    endloop
  endfacet
  facet normal 0 0 1
    outer loop
      vertex 54.7485 -4.58974 -22.5
      vertex 37 -10 -22.5
      vertex 56.5794 -6.30906 -22.5
    endloop
  endfacet
  facet normal 0 0 1
    outer loop
      vertex 31 -10 -22.5
      vertex 31.5729 -8.23664 -22.5
      vertex 4 -20 -22.5
    endloop
  endfacet
  facet normal 0 0 1
    outer loop
      vertex 56.5794 -6.30906 -22.5
      vertex 36.4271 -11.7634 -22.5
      vertex 58.1803 -8.2443 -22.5
    endloop
  endfacet
  facet normal 0 0 1
    outer loop
      vertex 36.4271 -11.7634 -22.5
      vertex 34.9271 -12.8532 -22.5
      vertex 58.1803 -8.2443 -22.5
    endloop
  endfacet
  facet normal 0 0 1
    outer loop
      vertex 33.0729 -12.8532 -22.5
      vertex 4 -20 -22.5
      vertex 34.9271 -12.8532 -22.5
    endloop
  endfacet
  facet normal 0 0 1
    outer loop
      vertex 46.809 -12.9511 -22.5
      vertex 45.691 -12.5878 -22.5
      vertex 4 -20 -22.5
    endloop
  endfacet
  facet normal 0 0 1
    outer loop
      vertex 46.809 -11.0489 -22.5
      vertex 47.5 -12 -22.5
      vertex 58.1803 -8.2443 -22.5
    endloop
  endfacet
  facet normal 0 0 1
    outer loop
      vertex 45.691 -11.4122 -22.5
      vertex 4 -20 -22.5
      vertex 45.691 -12.5878 -22.5
    endloop
  endfacet
  facet normal 0 0 1
    outer loop
      vertex 47.5 -12 -22.5
      vertex 46.809 -12.9511 -22.5
      vertex 59.5261 -10.3649 -22.5
    endloop
  endfacet
  facet normal 0 0 1
    outer loop
      vertex 46.809 -11.0489 -22.5
      vertex 4 -20 -22.5
      vertex 45.691 -11.4122 -22.5
    endloop
  endfacet
  facet normal 0 0 1
    outer loop
      vertex 58.1803 -8.2443 -22.5
      vertex 4 -20 -22.5
      vertex 46.809 -11.0489 -22.5
    endloop
  endfacet
  facet normal 0 0 1
    outer loop
      vertex 58.1803 -8.2443 -22.5
      vertex 47.5 -12 -22.5
      vertex 59.5261 -10.3649 -22.5
    endloop
  endfacet
  facet normal 0 0 1
    outer loop
      vertex 59.5261 -10.3649 -22.5
      vertex 46.809 -12.9511 -22.5
      vertex 60.5955 -12.6375 -22.5
    endloop
  endfacet
  facet normal 0 0 1
    outer loop
      vertex 15.809 -12.9511 -22.5
      vertex 14.691 -12.5878 -22.5
      vertex 4 -20 -22.5
    endloop
  endfacet
  facet normal 0 0 1
    outer loop
      vertex 31.5729 -11.7634 -22.5
      vertex 31 -10 -22.5
      vertex 4 -20 -22.5
    endloop
  endfacet
  facet normal 1 0 0
    outer loop
      vertex 4 -4 -22.5
      vertex 4 0 -22.5
      vertex 4 0 26.5
    endloop
  endfacet
  facet normal 1 0 0
    outer loop
      vertex 4 -4 26.5
      vertex 4 -4 -22.5
      vertex 4 0 26.5
    endloop
  endfacet
  facet normal 1 0 0
    outer loop
      vertex 4 -20 -22.5
      vertex 4 -4 -22.5
      vertex 4 -4 26.5
    endloop
  endfacet
  facet normal 1 0 0
    outer loop
      vertex 4 -20 26.553
      vertex 4 -20 -22.5
      vertex 4 -4 26.5
    endloop
  endfacet
  facet normal 1 0 0
    outer loop
      vertex 4 0 26.5
      vertex 4 0 26.553
      vertex 4 -4 26.5
    endloop
  endfacet
  facet normal 1 0 0
    outer loop
      vertex 4 0 26.553
      vertex 4 -20 26.553
      vertex 4 -4 26.5
    endloop
  endfacet
  facet normal -0.156435 0.987688 0
    outer loop
      vertex 2.76393 -0.195774 26.553
      vertex 4 0 26.553
      vertex 2.76393 -0.195774 26.5
    endloop
  endfacet
  facet normal -0.156435 0.987688 0
    outer loop
      vertex 2.76393 -0.195774 26.5
      vertex 4 0 26.553
      vertex 4 0 26.5
    endloop
  endfacet
  facet normal -0.45399 0.891007 0
    outer loop
      vertex 1.64886 -0.763932 26.553
      vertex 2.76393 -0.195774 26.553
      vertex 1.64886 -0.763932 26.5
    endloop
  endfacet
  facet normal -0.45399 0.891007 0
    outer loop
      vertex 1.64886 -0.763932 26.5
      vertex 2.76393 -0.195774 26.553
      vertex 2.76393 -0.195774 26.5
    endloop
  endfacet
  facet normal -0.707107 0.707107 0
    outer loop
      vertex 0.763932 -1.64886 26.553
      vertex 1.64886 -0.763932 26.553
      vertex 0.763932 -1.64886 26.5
    endloop
  endfacet
  facet normal -0.707107 0.707107 0
    outer loop
      vertex 0.763932 -1.64886 26.5
      vertex 1.64886 -0.763932 26.553
      vertex 1.64886 -0.763932 26.5
    endloop
  endfacet
  facet normal -0.891007 0.45399 0
    outer loop
      vertex 0.195774 -2.76393 26.553
      vertex 0.763932 -1.64886 26.553
      vertex 0.195774 -2.76393 26.5
    endloop
  endfacet
  facet normal -0.891007 0.45399 0
    outer loop
      vertex 0.195774 -2.76393 26.5
      vertex 0.763932 -1.64886 26.553
      vertex 0.763932 -1.64886 26.5
    endloop
  endfacet
  facet normal 0 1 0
    outer loop
      vertex 44 -20 2.5
      vertex 62 -20 26.553
      vertex 62 -20 -22.5
    endloop
  endfacet
  facet normal 0 1 0
    outer loop
      vertex 40 -20 2.5
      vertex 28 -20 2.5
      vertex 40 -20 22.5
    endloop
  endfacet
  facet normal 0 1 0
    outer loop
      vertex 4 -20 26.553
      vertex 24 -20 2.5
      vertex 4 -20 -22.5
    endloop
  endfacet
  facet normal 0 1 0
    outer loop
      vertex 24 -20 2.5
      vertex 28 -20 2.5
      vertex 4 -20 -22.5
    endloop
  endfacet
  facet normal 0 1 0
    outer loop
      vertex 40 -20 2.5
      vertex 4 -20 -22.5
      vertex 28 -20 2.5
    endloop
  endfacet
  facet normal 0 1 0
    outer loop
      vertex 44 -20 26.5
      vertex 62 -20 26.553
      vertex 44 -20 2.5
    endloop
  endfacet
  facet normal 0 1 0
    outer loop
      vertex 4 -20 -22.5
      vertex 40 -20 2.5
      vertex 62 -20 -22.5
    endloop
  endfacet
  facet normal 0 1 0
    outer loop
      vertex 40 -20 2.5
      vertex 44 -20 2.5
      vertex 62 -20 -22.5
    endloop
  endfacet
  facet normal 0 1 0
    outer loop
      vertex 4 -20 26.553
      vertex 62 -20 26.553
      vertex 44 -20 26.5
    endloop
  endfacet
  facet normal 0 1 0
    outer loop
      vertex 4 -20 26.553
      vertex 44 -20 26.5
      vertex 24 -20 26.5
    endloop
  endfacet
  facet normal 0 1 0
    outer loop
      vertex 28 -20 22.5
      vertex 40 -20 22.5
      vertex 28 -20 2.5
    endloop
  endfacet
  facet normal 0 1 0
    outer loop
      vertex 24 -20 2.5
      vertex 4 -20 26.553
      vertex 24 -20 26.5
    endloop
  endfacet
  facet normal 0 0 -1
    outer loop
      vertex 14.5489 -11.691 -24.5
      vertex 14.691 -11.4122 -24.5
      vertex 14.5 -12 -24.5
    endloop
  endfacet
  facet normal 0 0 -1
    outer loop
      vertex 14.5 -12 -24.5
      vertex 14.691 -11.4122 -24.5
      vertex 14.691 -12.5878 -24.5
    endloop
  endfacet
  facet normal 0 0 -1
    outer loop
      vertex 14.5 -12 -24.5
      vertex 14.691 -12.5878 -24.5
      vertex 14.5489 -12.309 -24.5
    endloop
  endfacet
  facet normal 1 0 0
    outer loop
      vertex 14.691 -12.5878 -24.5
      vertex 14.691 -11.4122 -24.5
      vertex 14.691 -11.4122 -22.5
    endloop
  endfacet
  facet normal 1 0 0
    outer loop
      vertex 14.691 -12.5878 -22.5
      vertex 14.691 -12.5878 -24.5
      vertex 14.691 -11.4122 -22.5
    endloop
  endfacet
  facet normal 0.309018 -0.951056 0
    outer loop
      vertex 14.691 -11.4122 -24.5
      vertex 15.809 -11.0489 -24.5
      vertex 15.809 -11.0489 -22.5
    endloop
  endfacet
  facet normal 0.309018 -0.951056 0
    outer loop
      vertex 14.691 -11.4122 -22.5
      vertex 14.691 -11.4122 -24.5
      vertex 15.809 -11.0489 -22.5
    endloop
  endfacet
  facet normal 0 0 -1
    outer loop
      vertex 14.9122 -11.191 -24.5
      vertex 15.191 -11.0489 -24.5
      vertex 14.691 -11.4122 -24.5
    endloop
  endfacet
  facet normal 0 0 -1
    outer loop
      vertex 14.691 -11.4122 -24.5
      vertex 15.191 -11.0489 -24.5
      vertex 15.5 -11 -24.5
    endloop
  endfacet
  facet normal 0 0 -1
    outer loop
      vertex 14.691 -11.4122 -24.5
      vertex 15.5 -11 -24.5
      vertex 15.809 -11.0489 -24.5
    endloop
  endfacet
  facet normal -0.809017 -0.587785 0
    outer loop
      vertex 16.5 -12 -24.5
      vertex 16.5 -12 -22.5
      vertex 15.809 -11.0489 -24.5
    endloop
  endfacet
  facet normal -0.809017 -0.587785 0
    outer loop
      vertex 15.809 -11.0489 -24.5
      vertex 16.5 -12 -22.5
      vertex 15.809 -11.0489 -22.5
    endloop
  endfacet
  facet normal 0 0 -1
    outer loop
      vertex 16.0878 -11.191 -24.5
      vertex 16.309 -11.4122 -24.5
      vertex 15.809 -11.0489 -24.5
    endloop
  endfacet
  facet normal 0 0 -1
    outer loop
      vertex 15.809 -11.0489 -24.5
      vertex 16.309 -11.4122 -24.5
      vertex 16.4511 -11.691 -24.5
    endloop
  endfacet
  facet normal 0 0 -1
    outer loop
      vertex 15.809 -11.0489 -24.5
      vertex 16.4511 -11.691 -24.5
      vertex 16.5 -12 -24.5
    endloop
  endfacet
  facet normal -0.809017 0.587785 0
    outer loop
      vertex 15.809 -12.9511 -22.5
      vertex 16.5 -12 -22.5
      vertex 15.809 -12.9511 -24.5
    endloop
  endfacet
  facet normal -0.809017 0.587785 0
    outer loop
      vertex 15.809 -12.9511 -24.5
      vertex 16.5 -12 -22.5
      vertex 16.5 -12 -24.5
    endloop
  endfacet
  facet normal 0 0 -1
    outer loop
      vertex 16.5 -12 -24.5
      vertex 16.4511 -12.309 -24.5
      vertex 15.809 -12.9511 -24.5
    endloop
  endfacet
  facet normal 0 0 -1
    outer loop
      vertex 15.809 -12.9511 -24.5
      vertex 16.4511 -12.309 -24.5
      vertex 16.309 -12.5878 -24.5
    endloop
  endfacet
  facet normal 0 0 -1
    outer loop
      vertex 15.809 -12.9511 -24.5
      vertex 16.309 -12.5878 -24.5
      vertex 16.0878 -12.809 -24.5
    endloop
  endfacet
  facet normal 0 0 -1
    outer loop
      vertex 15.809 -12.9511 -24.5
      vertex 15.5 -13 -24.5
      vertex 14.691 -12.5878 -24.5
    endloop
  endfacet
  facet normal 0 0 -1
    outer loop
      vertex 14.691 -12.5878 -24.5
      vertex 15.5 -13 -24.5
      vertex 15.191 -12.9511 -24.5
    endloop
  endfacet
  facet normal 0 0 -1
    outer loop
      vertex 14.691 -12.5878 -24.5
      vertex 15.191 -12.9511 -24.5
      vertex 14.9122 -12.809 -24.5
    endloop
  endfacet
  facet normal 0.309018 0.951056 0
    outer loop
      vertex 14.691 -12.5878 -22.5
      vertex 15.809 -12.9511 -22.5
      vertex 14.691 -12.5878 -24.5
    endloop
  endfacet
  facet normal 0.309018 0.951056 0
    outer loop
      vertex 14.691 -12.5878 -24.5
      vertex 15.809 -12.9511 -22.5
      vertex 15.809 -12.9511 -24.5
    endloop
  endfacet
  facet normal 0 0 -1
    outer loop
      vertex 45.5489 -11.691 -24.5
      vertex 45.691 -11.4122 -24.5
      vertex 45.5 -12 -24.5
    endloop
  endfacet
  facet normal 0 0 -1
    outer loop
      vertex 45.5 -12 -24.5
      vertex 45.691 -11.4122 -24.5
      vertex 45.691 -12.5878 -24.5
    endloop
  endfacet
  facet normal 0 0 -1
    outer loop
      vertex 45.5 -12 -24.5
      vertex 45.691 -12.5878 -24.5
      vertex 45.5489 -12.309 -24.5
    endloop
  endfacet
  facet normal 1 0 0
    outer loop
      vertex 45.691 -12.5878 -24.5
      vertex 45.691 -11.4122 -24.5
      vertex 45.691 -11.4122 -22.5
    endloop
  endfacet
  facet normal 1 0 0
    outer loop
      vertex 45.691 -12.5878 -22.5
      vertex 45.691 -12.5878 -24.5
      vertex 45.691 -11.4122 -22.5
    endloop
  endfacet
  facet normal 0.309018 -0.951056 0
    outer loop
      vertex 45.691 -11.4122 -24.5
      vertex 46.809 -11.0489 -24.5
      vertex 46.809 -11.0489 -22.5
    endloop
  endfacet
  facet normal 0.309018 -0.951056 0
    outer loop
      vertex 45.691 -11.4122 -22.5
      vertex 45.691 -11.4122 -24.5
      vertex 46.809 -11.0489 -22.5
    endloop
  endfacet
  facet normal 0 0 -1
    outer loop
      vertex 45.9122 -11.191 -24.5
      vertex 46.191 -11.0489 -24.5
      vertex 45.691 -11.4122 -24.5
    endloop
  endfacet
  facet normal 0 0 -1
    outer loop
      vertex 45.691 -11.4122 -24.5
      vertex 46.191 -11.0489 -24.5
      vertex 46.5 -11 -24.5
    endloop
  endfacet
  facet normal 0 0 -1
    outer loop
      vertex 45.691 -11.4122 -24.5
      vertex 46.5 -11 -24.5
      vertex 46.809 -11.0489 -24.5
    endloop
  endfacet
  facet normal -0.809017 -0.587785 0
    outer loop
      vertex 47.5 -12 -24.5
      vertex 47.5 -12 -22.5
      vertex 46.809 -11.0489 -24.5
    endloop
  endfacet
  facet normal -0.809017 -0.587785 0
    outer loop
      vertex 46.809 -11.0489 -24.5
      vertex 47.5 -12 -22.5
      vertex 46.809 -11.0489 -22.5
    endloop
  endfacet
  facet normal 0 0 -1
    outer loop
      vertex 47.0878 -11.191 -24.5
      vertex 47.309 -11.4122 -24.5
      vertex 46.809 -11.0489 -24.5
    endloop
  endfacet
  facet normal 0 0 -1
    outer loop
      vertex 46.809 -11.0489 -24.5
      vertex 47.309 -11.4122 -24.5
      vertex 47.4511 -11.691 -24.5
    endloop
  endfacet
  facet normal 0 0 -1
    outer loop
      vertex 46.809 -11.0489 -24.5
      vertex 47.4511 -11.691 -24.5
      vertex 47.5 -12 -24.5
    endloop
  endfacet
  facet normal -0.809017 0.587785 0
    outer loop
      vertex 46.809 -12.9511 -22.5
      vertex 47.5 -12 -22.5
      vertex 46.809 -12.9511 -24.5
    endloop
  endfacet
  facet normal -0.809017 0.587785 0
    outer loop
      vertex 46.809 -12.9511 -24.5
      vertex 47.5 -12 -22.5
      vertex 47.5 -12 -24.5
    endloop
  endfacet
  facet normal 0 0 -1
    outer loop
      vertex 47.5 -12 -24.5
      vertex 47.4511 -12.309 -24.5
      vertex 46.809 -12.9511 -24.5
    endloop
  endfacet
  facet normal 0 0 -1
    outer loop
      vertex 46.809 -12.9511 -24.5
      vertex 47.4511 -12.309 -24.5
      vertex 47.309 -12.5878 -24.5
    endloop
  endfacet
  facet normal 0 0 -1
    outer loop
      vertex 46.809 -12.9511 -24.5
      vertex 47.309 -12.5878 -24.5
      vertex 47.0878 -12.809 -24.5
    endloop
  endfacet
  facet normal 0 0 -1
    outer loop
      vertex 46.809 -12.9511 -24.5
      vertex 46.5 -13 -24.5
      vertex 45.691 -12.5878 -24.5
    endloop
  endfacet
  facet normal 0 0 -1
    outer loop
      vertex 45.691 -12.5878 -24.5
      vertex 46.5 -13 -24.5
      vertex 46.191 -12.9511 -24.5
    endloop
  endfacet
  facet normal 0 0 -1
    outer loop
      vertex 45.691 -12.5878 -24.5
      vertex 46.191 -12.9511 -24.5
      vertex 45.9122 -12.809 -24.5
    endloop
  endfacet
  facet normal 0.309018 0.951056 0
    outer loop
      vertex 45.691 -12.5878 -22.5
      vertex 46.809 -12.9511 -22.5
      vertex 45.691 -12.5878 -24.5
    endloop
  endfacet
  facet normal 0.309018 0.951056 0
    outer loop
      vertex 45.691 -12.5878 -24.5
      vertex 46.809 -12.9511 -22.5
      vertex 46.809 -12.9511 -24.5
    endloop
  endfacet
  facet normal -1 0 0
    outer loop
      vertex 24 -20 26.5
      vertex 24 0 26.5
      vertex 24 -20 2.5
    endloop
  endfacet
  facet normal -1 0 0
    outer loop
      vertex 24 -0.00724855 22.5
      vertex 24 0 26.5
      vertex 24 0 22.5
    endloop
  endfacet
  facet normal -1 0 0
    outer loop
      vertex 24 -20 2.5
      vertex 24 0 26.5
      vertex 24 -0.00724855 22.5
    endloop
  endfacet
  facet normal -1 0 0
    outer loop
      vertex 24 -0.00362427 22.4964
      vertex 24 -20 2.5
      vertex 24 -0.00724855 22.5
    endloop
  endfacet
  facet normal 0 0.707107 -0.707107
    outer loop
      vertex 24 -0.00362427 22.4964
      vertex 28 -0.00362427 22.4964
      vertex 24 -20 2.5
    endloop
  endfacet
  facet normal 0 0.707107 -0.707107
    outer loop
      vertex 24 -20 2.5
      vertex 28 -0.00362427 22.4964
      vertex 28 -20 2.5
    endloop
  endfacet
  facet normal 0 0 1
    outer loop
      vertex 36.4271 -8.23664 26.5
      vertex 44 -20 26.5
      vertex 44 0 26.5
    endloop
  endfacet
  facet normal 0 0 1
    outer loop
      vertex 24 0 26.5
      vertex 24 -20 26.5
      vertex 31 -10 26.5
    endloop
  endfacet
  facet normal 0 0 1
    outer loop
      vertex 34.9271 -7.14683 26.5
      vertex 36.4271 -8.23664 26.5
      vertex 44 0 26.5
    endloop
  endfacet
  facet normal 0 0 1
    outer loop
      vertex 24 0 26.5
      vertex 31 -10 26.5
      vertex 31.5729 -8.23664 26.5
    endloop
  endfacet
  facet normal 0 0 1
    outer loop
      vertex 24 0 26.5
      vertex 33.0729 -7.14683 26.5
      vertex 44 0 26.5
    endloop
  endfacet
  facet normal 0 0 1
    outer loop
      vertex 24 0 26.5
      vertex 31.5729 -8.23664 26.5
      vertex 33.0729 -7.14683 26.5
    endloop
  endfacet
  facet normal 0 0 1
    outer loop
      vertex 37 -10 26.5
      vertex 44 -20 26.5
      vertex 36.4271 -8.23664 26.5
    endloop
  endfacet
  facet normal 0 0 1
    outer loop
      vertex 36.4271 -11.7634 26.5
      vertex 44 -20 26.5
      vertex 37 -10 26.5
    endloop
  endfacet
  facet normal 0 0 1
    outer loop
      vertex 33.0729 -12.8532 26.5
      vertex 31.5729 -11.7634 26.5
      vertex 24 -20 26.5
    endloop
  endfacet
  facet normal 0 0 1
    outer loop
      vertex 34.9271 -12.8532 26.5
      vertex 44 -20 26.5
      vertex 36.4271 -11.7634 26.5
    endloop
  endfacet
  facet normal 0 0 1
    outer loop
      vertex 24 -20 26.5
      vertex 44 -20 26.5
      vertex 34.9271 -12.8532 26.5
    endloop
  endfacet
  facet normal 0 0 1
    outer loop
      vertex 34.9271 -12.8532 26.5
      vertex 33.0729 -12.8532 26.5
      vertex 24 -20 26.5
    endloop
  endfacet
  facet normal 0 0 1
    outer loop
      vertex 31.5729 -11.7634 26.5
      vertex 31 -10 26.5
      vertex 24 -20 26.5
    endloop
  endfacet
  facet normal 0 0 1
    outer loop
      vertex 33.0729 -7.14683 26.5
      vertex 34.9271 -7.14683 26.5
      vertex 44 0 26.5
    endloop
  endfacet
  facet normal 1 0 0
    outer loop
      vertex 44 -20 2.5
      vertex 44 -0.00362427 22.4964
      vertex 44 -0.00724855 22.5
    endloop
  endfacet
  facet normal 1 0 0
    outer loop
      vertex 44 0 26.5
      vertex 44 -20 2.5
      vertex 44 -0.00724855 22.5
    endloop
  endfacet
  facet normal 1 0 0
    outer loop
      vertex 44 0 22.5
      vertex 44 0 26.5
      vertex 44 -0.00724855 22.5
    endloop
  endfacet
  facet normal 1 0 0
    outer loop
      vertex 44 0 26.5
      vertex 44 -20 26.5
      vertex 44 -20 2.5
    endloop
  endfacet
  facet normal 0 0.707107 -0.707107
    outer loop
      vertex 40 -0.00362427 22.4964
      vertex 44 -0.00362427 22.4964
      vertex 40 -20 2.5
    endloop
  endfacet
  facet normal 0 0.707107 -0.707107
    outer loop
      vertex 40 -20 2.5
      vertex 44 -0.00362427 22.4964
      vertex 44 -20 2.5
    endloop
  endfacet
  facet normal -1 0 0
    outer loop
      vertex 40 -20 22.5
      vertex 40 -0.00724855 22.5
      vertex 40 -20 2.5
    endloop
  endfacet
  facet normal -1 0 0
    outer loop
      vertex 40 -20 2.5
      vertex 40 -0.00724855 22.5
      vertex 40 -0.00362427 22.4964
    endloop
  endfacet
  facet normal 0 0 -1
    outer loop
      vertex 24 0 22.5
      vertex 44 0 22.5
      vertex 24 -0.00724855 22.5
    endloop
  endfacet
  facet normal 0 0 -1
    outer loop
      vertex 40 -0.00724855 22.5
      vertex 44 0 22.5
      vertex 44 -0.00724855 22.5
    endloop
  endfacet
  facet normal 0 0 -1
    outer loop
      vertex 24 -0.00724855 22.5
      vertex 44 0 22.5
      vertex 28 -0.00724855 22.5
    endloop
  endfacet
  facet normal 0 0 -1
    outer loop
      vertex 40 -0.00724855 22.5
      vertex 40 -20 22.5
      vertex 28 -0.00724855 22.5
    endloop
  endfacet
  facet normal 0 0 -1
    outer loop
      vertex 40 -0.00724855 22.5
      vertex 28 -0.00724855 22.5
      vertex 44 0 22.5
    endloop
  endfacet
  facet normal 0 0 -1
    outer loop
      vertex 28 -0.00724855 22.5
      vertex 40 -20 22.5
      vertex 28 -20 22.5
    endloop
  endfacet
  facet normal 1 0 0
    outer loop
      vertex 28 -20 2.5
      vertex 28 -0.00362427 22.4964
      vertex 28 -0.00724855 22.5
    endloop
  endfacet
  facet normal 1 0 0
    outer loop
      vertex 28 -20 22.5
      vertex 28 -20 2.5
      vertex 28 -0.00724855 22.5
    endloop
  endfacet
  facet normal 0 0.707107 0.707107
    outer loop
      vertex 28 -0.00724855 22.5
      vertex 28 -0.00362427 22.4964
      vertex 24 -0.00724855 22.5
    endloop
  endfacet
  facet normal 0 0.707107 0.707107
    outer loop
      vertex 24 -0.00724855 22.5
      vertex 28 -0.00362427 22.4964
      vertex 24 -0.00362427 22.4964
    endloop
  endfacet
  facet normal 0 1 0
    outer loop
      vertex 24 0 26.5
      vertex 44 0 26.5
      vertex 24 0 22.5
    endloop
  endfacet
  facet normal 0 1 0
    outer loop
      vertex 24 0 22.5
      vertex 44 0 26.5
      vertex 44 0 22.5
    endloop
  endfacet
  facet normal 0.951057 -0.309017 0
    outer loop
      vertex 31 -10 22.7
      vertex 31.5729 -8.23664 22.7
      vertex 31.5729 -8.23664 26.5
    endloop
  endfacet
  facet normal 0.951057 -0.309017 0
    outer loop
      vertex 31 -10 26.5
      vertex 31 -10 22.7
      vertex 31.5729 -8.23664 26.5
    endloop
  endfacet
  facet normal 0.951057 0.309017 0
    outer loop
      vertex 31 -10 22.7
      vertex 31 -10 26.5
      vertex 31.5729 -11.7634 26.5
    endloop
  endfacet
  facet normal 0.951057 0.309017 0
    outer loop
      vertex 31.5729 -11.7634 22.7
      vertex 31 -10 22.7
      vertex 31.5729 -11.7634 26.5
    endloop
  endfacet
  facet normal 0.587785 0.809017 0
    outer loop
      vertex 31.5729 -11.7634 26.5
      vertex 33.0729 -12.8532 26.5
      vertex 31.5729 -11.7634 22.7
    endloop
  endfacet
  facet normal 0.587785 0.809017 0
    outer loop
      vertex 31.5729 -11.7634 22.7
      vertex 33.0729 -12.8532 26.5
      vertex 33.0729 -12.8532 22.7
    endloop
  endfacet
  facet normal 0 1 0
    outer loop
      vertex 33.0729 -12.8532 26.5
      vertex 34.9271 -12.8532 26.5
      vertex 33.0729 -12.8532 22.7
    endloop
  endfacet
  facet normal 0 1 0
    outer loop
      vertex 33.0729 -12.8532 22.7
      vertex 34.9271 -12.8532 26.5
      vertex 34.9271 -12.8532 22.7
    endloop
  endfacet
  facet normal -0.587785 0.809017 0
    outer loop
      vertex 34.9271 -12.8532 26.5
      vertex 36.4271 -11.7634 26.5
      vertex 34.9271 -12.8532 22.7
    endloop
  endfacet
  facet normal -0.587785 0.809017 0
    outer loop
      vertex 34.9271 -12.8532 22.7
      vertex 36.4271 -11.7634 26.5
      vertex 36.4271 -11.7634 22.7
    endloop
  endfacet
  facet normal -0.951057 0.309017 0
    outer loop
      vertex 36.4271 -11.7634 26.5
      vertex 37 -10 26.5
      vertex 36.4271 -11.7634 22.7
    endloop
  endfacet
  facet normal -0.951057 0.309017 0
    outer loop
      vertex 36.4271 -11.7634 22.7
      vertex 37 -10 26.5
      vertex 37 -10 22.7
    endloop
  endfacet
  facet normal -0.951057 -0.309017 0
    outer loop
      vertex 37 -10 22.7
      vertex 37 -10 26.5
      vertex 36.4271 -8.23664 22.7
    endloop
  endfacet
  facet normal -0.951057 -0.309017 0
    outer loop
      vertex 36.4271 -8.23664 22.7
      vertex 37 -10 26.5
      vertex 36.4271 -8.23664 26.5
    endloop
  endfacet
  facet normal -0.587785 -0.809017 0
    outer loop
      vertex 34.9271 -7.14683 22.7
      vertex 36.4271 -8.23664 22.7
      vertex 36.4271 -8.23664 26.5
    endloop
  endfacet
  facet normal -0.587785 -0.809017 0
    outer loop
      vertex 34.9271 -7.14683 26.5
      vertex 34.9271 -7.14683 22.7
      vertex 36.4271 -8.23664 26.5
    endloop
  endfacet
  facet normal 0 -1 0
    outer loop
      vertex 33.0729 -7.14683 22.7
      vertex 34.9271 -7.14683 22.7
      vertex 34.9271 -7.14683 26.5
    endloop
  endfacet
  facet normal 0 -1 0
    outer loop
      vertex 33.0729 -7.14683 26.5
      vertex 33.0729 -7.14683 22.7
      vertex 34.9271 -7.14683 26.5
    endloop
  endfacet
  facet normal 0.587785 -0.809017 0
    outer loop
      vertex 31.5729 -8.23664 22.7
      vertex 33.0729 -7.14683 22.7
      vertex 33.0729 -7.14683 26.5
    endloop
  endfacet
  facet normal 0.587785 -0.809017 0
    outer loop
      vertex 31.5729 -8.23664 26.5
      vertex 31.5729 -8.23664 22.7
      vertex 33.0729 -7.14683 26.5
    endloop
  endfacet
  facet normal 0 0.707107 0.707107
    outer loop
      vertex 44 -0.00724855 22.5
      vertex 44 -0.00362427 22.4964
      vertex 40 -0.00724855 22.5
    endloop
  endfacet
  facet normal 0 0.707107 0.707107
    outer loop
      vertex 40 -0.00724855 22.5
      vertex 44 -0.00362427 22.4964
      vertex 40 -0.00362427 22.4964
    endloop
  endfacet
  facet normal 0 0 1
    outer loop
      vertex 31 -10 22.7
      vertex 31.5729 -11.7634 22.7
      vertex 33.0729 -12.8532 22.7
    endloop
  endfacet
  facet normal 0 0 1
    outer loop
      vertex 36.4271 -11.7634 22.7
      vertex 31 -10 22.7
      vertex 34.9271 -12.8532 22.7
    endloop
  endfacet
  facet normal 0 0 1
    outer loop
      vertex 34.9271 -12.8532 22.7
      vertex 31 -10 22.7
      vertex 33.0729 -12.8532 22.7
    endloop
  endfacet
  facet normal 0 0 1
    outer loop
      vertex 37 -10 22.7
      vertex 31 -10 22.7
      vertex 36.4271 -11.7634 22.7
    endloop
  endfacet
  facet normal 0 0 1
    outer loop
      vertex 36.4271 -8.23664 22.7
      vertex 31 -10 22.7
      vertex 37 -10 22.7
    endloop
  endfacet
  facet normal 0 0 1
    outer loop
      vertex 34.9271 -7.14683 22.7
      vertex 31 -10 22.7
      vertex 36.4271 -8.23664 22.7
    endloop
  endfacet
  facet normal 0 0 1
    outer loop
      vertex 33.0729 -7.14683 22.7
      vertex 31 -10 22.7
      vertex 34.9271 -7.14683 22.7
    endloop
  endfacet
  facet normal 0 0 1
    outer loop
      vertex 31.5729 -8.23664 22.7
      vertex 31 -10 22.7
      vertex 33.0729 -7.14683 22.7
    endloop
  endfacet
endsolid OpenSCAD_Model
