solid OpenSCAD_Model
  facet normal 0 0 -1
    outer loop
      vertex -23 0 -1.5
      vertex -22.4974 4.78197 -1.5
      vertex -22.4974 -4.78197 -1.5
    endloop
  endfacet
  facet normal 0 0 -1
    outer loop
      vertex -22.4974 -4.78197 -1.5
      vertex -22.4974 4.78197 -1.5
      vertex -21.0115 9.35494 -1.5
    endloop
  endfacet
  facet normal 0 0 -1
    outer loop
      vertex -22.4974 -4.78197 -1.5
      vertex -21.0115 9.35494 -1.5
      vertex -18.6074 13.5191 -1.5
    endloop
  endfacet
  facet normal 0 0 -1
    outer loop
      vertex -22.4974 -4.78197 -1.5
      vertex -18.6074 13.5191 -1.5
      vertex -15.39 17.0923 -1.5
    endloop
  endfacet
  facet normal 0 0 -1
    outer loop
      vertex -22.4974 -4.78197 -1.5
      vertex -15.39 17.0923 -1.5
      vertex -11.5 19.9186 -1.5
    endloop
  endfacet
  facet normal 0 0 -1
    outer loop
      vertex -14.2387 10.345 -1.5
      vertex -11.5 19.9186 -1.5
      vertex -7.10739 21.8743 -1.5
    endloop
  endfacet
  facet normal 0 0 -1
    outer loop
      vertex -8.8 15.242 -1.5
      vertex -7.10739 21.8743 -1.5
      vertex -2.40415 22.874 -1.5
    endloop
  endfacet
  facet normal 0 0 -1
    outer loop
      vertex -5.4387 16.7386 -1.5
      vertex -2.40415 22.874 -1.5
      vertex 2.40415 22.874 -1.5
    endloop
  endfacet
  facet normal 0 0 -1
    outer loop
      vertex 1.8397 17.5036 -1.5
      vertex 2.40415 22.874 -1.5
      vertex 7.10739 21.8743 -1.5
    endloop
  endfacet
  facet normal 0 0 -1
    outer loop
      vertex 5.4387 16.7386 -1.5
      vertex 7.10739 21.8743 -1.5
      vertex 11.5 19.9186 -1.5
    endloop
  endfacet
  facet normal 0 0 -1
    outer loop
      vertex 8.8 15.242 -1.5
      vertex 11.5 19.9186 -1.5
      vertex 15.39 17.0923 -1.5
    endloop
  endfacet
  facet normal 0 0 -1
    outer loop
      vertex 11.7767 13.0793 -1.5
      vertex 15.39 17.0923 -1.5
      vertex 18.6074 13.5191 -1.5
    endloop
  endfacet
  facet normal 0 0 -1
    outer loop
      vertex 14.2387 10.345 -1.5
      vertex 18.6074 13.5191 -1.5
      vertex 20.7879 9.7423 -1.5
    endloop
  endfacet
  facet normal 0 0 -1
    outer loop
      vertex 17.2154 3.65925 -1.5
      vertex 20.7879 9.7423 -1.5
      vertex 28.8373 4.90572 -1.5
    endloop
  endfacet
  facet normal 0 0 -1
    outer loop
      vertex 17.4423 1.5 -1.5
      vertex 31.3457 3.71572 -1.5
      vertex 32.0451 2.93893 -1.5
    endloop
  endfacet
  facet normal 0 0 -1
    outer loop
      vertex 24.5 1.5 -1.5
      vertex 32.0451 2.93893 -1.5
      vertex 32.5677 2.03368 -1.5
    endloop
  endfacet
  facet normal 0 0 -1
    outer loop
      vertex 17.2154 -3.65925 -1.5
      vertex 32.0451 -2.93893 -1.5
      vertex 31.3457 -3.71572 -1.5
    endloop
  endfacet
  facet normal 0 0 -1
    outer loop
      vertex 16.0784 -7.15856 -1.5
      vertex 28.8373 -4.90572 -1.5
      vertex 20.7879 -9.7423 -1.5
    endloop
  endfacet
  facet normal 0 0 -1
    outer loop
      vertex 5.4387 -16.7386 -1.5
      vertex 15.39 -17.0923 -1.5
      vertex 11.5 -19.9186 -1.5
    endloop
  endfacet
  facet normal 0 0 -1
    outer loop
      vertex 1.8397 -17.5036 -1.5
      vertex 11.5 -19.9186 -1.5
      vertex 7.10739 -21.8743 -1.5
    endloop
  endfacet
  facet normal 0 0 -1
    outer loop
      vertex -5.4387 -16.7386 -1.5
      vertex 7.10739 -21.8743 -1.5
      vertex 2.40415 -22.874 -1.5
    endloop
  endfacet
  facet normal 0 0 -1
    outer loop
      vertex -8.8 -15.242 -1.5
      vertex 2.40415 -22.874 -1.5
      vertex -2.40415 -22.874 -1.5
    endloop
  endfacet
  facet normal 0 0 -1
    outer loop
      vertex -22.4974 -4.78197 -1.5
      vertex -2.40415 -22.874 -1.5
      vertex -7.10739 -21.8743 -1.5
    endloop
  endfacet
  facet normal 0 0 -1
    outer loop
      vertex -22.4974 -4.78197 -1.5
      vertex -7.10739 -21.8743 -1.5
      vertex -11.5 -19.9186 -1.5
    endloop
  endfacet
  facet normal 0 0 -1
    outer loop
      vertex -22.4974 -4.78197 -1.5
      vertex -11.5 -19.9186 -1.5
      vertex -15.39 -17.0923 -1.5
    endloop
  endfacet
  facet normal 0 0 -1
    outer loop
      vertex -22.4974 -4.78197 -1.5
      vertex -15.39 -17.0923 -1.5
      vertex -18.6074 -13.5191 -1.5
    endloop
  endfacet
  facet normal 0 0 -1
    outer loop
      vertex -22.4974 -4.78197 -1.5
      vertex -18.6074 -13.5191 -1.5
      vertex -21.0115 -9.35494 -1.5
    endloop
  endfacet
  facet normal 0 0 -1
    outer loop
      vertex -17.2154 -3.65925 -1.5
      vertex -22.4974 -4.78197 -1.5
      vertex -17.6 0 -1.5
    endloop
  endfacet
  facet normal 0 0 -1
    outer loop
      vertex 17.2154 3.65925 -1.5
      vertex 30.5 4.33013 -1.5
      vertex 31.3457 3.71572 -1.5
    endloop
  endfacet
  facet normal 0 0 -1
    outer loop
      vertex -16.0784 -7.15856 -1.5
      vertex -22.4974 -4.78197 -1.5
      vertex -17.2154 -3.65925 -1.5
    endloop
  endfacet
  facet normal 0 0 -1
    outer loop
      vertex -14.2387 -10.345 -1.5
      vertex -22.4974 -4.78197 -1.5
      vertex -16.0784 -7.15856 -1.5
    endloop
  endfacet
  facet normal 0 0 -1
    outer loop
      vertex 17.2154 -3.65925 -1.5
      vertex 28.8373 -4.90572 -1.5
      vertex 16.0784 -7.15856 -1.5
    endloop
  endfacet
  facet normal 0 0 -1
    outer loop
      vertex -11.7767 -13.0793 -1.5
      vertex -22.4974 -4.78197 -1.5
      vertex -14.2387 -10.345 -1.5
    endloop
  endfacet
  facet normal 0 0 -1
    outer loop
      vertex -5.4387 -16.7386 -1.5
      vertex 2.40415 -22.874 -1.5
      vertex -8.8 -15.242 -1.5
    endloop
  endfacet
  facet normal 0 0 -1
    outer loop
      vertex -22.4974 -4.78197 -1.5
      vertex -11.7767 -13.0793 -1.5
      vertex -2.40415 -22.874 -1.5
    endloop
  endfacet
  facet normal 0 0 -1
    outer loop
      vertex -11.7767 -13.0793 -1.5
      vertex -8.8 -15.242 -1.5
      vertex -2.40415 -22.874 -1.5
    endloop
  endfacet
  facet normal 0 0 -1
    outer loop
      vertex -1.8397 -17.5036 -1.5
      vertex 7.10739 -21.8743 -1.5
      vertex -5.4387 -16.7386 -1.5
    endloop
  endfacet
  facet normal 0 0 -1
    outer loop
      vertex 1.8397 -17.5036 -1.5
      vertex 7.10739 -21.8743 -1.5
      vertex -1.8397 -17.5036 -1.5
    endloop
  endfacet
  facet normal 0 0 -1
    outer loop
      vertex 8.8 -15.242 -1.5
      vertex 15.39 -17.0923 -1.5
      vertex 5.4387 -16.7386 -1.5
    endloop
  endfacet
  facet normal 0 0 -1
    outer loop
      vertex 11.7767 -13.0793 -1.5
      vertex 15.39 -17.0923 -1.5
      vertex 8.8 -15.242 -1.5
    endloop
  endfacet
  facet normal 0 0 -1
    outer loop
      vertex 17.2154 -3.65925 -1.5
      vertex 29.5451 -4.75528 -1.5
      vertex 28.8373 -4.90572 -1.5
    endloop
  endfacet
  facet normal 0 0 -1
    outer loop
      vertex 18.6074 -13.5191 -1.5
      vertex 15.39 -17.0923 -1.5
      vertex 11.7767 -13.0793 -1.5
    endloop
  endfacet
  facet normal 0 0 -1
    outer loop
      vertex 5.4387 -16.7386 -1.5
      vertex 11.5 -19.9186 -1.5
      vertex 1.8397 -17.5036 -1.5
    endloop
  endfacet
  facet normal 0 0 -1
    outer loop
      vertex 20.7879 -9.7423 -1.5
      vertex 18.6074 -13.5191 -1.5
      vertex 14.2387 -10.345 -1.5
    endloop
  endfacet
  facet normal 0 0 -1
    outer loop
      vertex 16.0784 7.15856 -1.5
      vertex 20.7879 9.7423 -1.5
      vertex 17.2154 3.65925 -1.5
    endloop
  endfacet
  facet normal 0 0 -1
    outer loop
      vertex 14.2387 10.345 -1.5
      vertex 20.7879 9.7423 -1.5
      vertex 16.0784 7.15856 -1.5
    endloop
  endfacet
  facet normal 0 0 -1
    outer loop
      vertex 17.2154 3.65925 -1.5
      vertex 29.5451 4.75528 -1.5
      vertex 30.5 4.33013 -1.5
    endloop
  endfacet
  facet normal 0 0 -1
    outer loop
      vertex 17.2154 3.65925 -1.5
      vertex 28.8373 4.90572 -1.5
      vertex 29.5451 4.75528 -1.5
    endloop
  endfacet
  facet normal 0 0 -1
    outer loop
      vertex 17.4423 1.5 -1.5
      vertex 32.0451 2.93893 -1.5
      vertex 24.5 1.5 -1.5
    endloop
  endfacet
  facet normal 0 0 -1
    outer loop
      vertex -1.8397 17.5036 -1.5
      vertex 2.40415 22.874 -1.5
      vertex 1.8397 17.5036 -1.5
    endloop
  endfacet
  facet normal 0 0 -1
    outer loop
      vertex -5.4387 16.7386 -1.5
      vertex 2.40415 22.874 -1.5
      vertex -1.8397 17.5036 -1.5
    endloop
  endfacet
  facet normal 0 0 -1
    outer loop
      vertex 1.8397 17.5036 -1.5
      vertex 7.10739 21.8743 -1.5
      vertex 5.4387 16.7386 -1.5
    endloop
  endfacet
  facet normal 0 0 -1
    outer loop
      vertex -11.7767 13.0793 -1.5
      vertex -7.10739 21.8743 -1.5
      vertex -8.8 15.242 -1.5
    endloop
  endfacet
  facet normal 0 0 -1
    outer loop
      vertex -16.0784 7.15856 -1.5
      vertex -11.5 19.9186 -1.5
      vertex -14.2387 10.345 -1.5
    endloop
  endfacet
  facet normal 0 0 -1
    outer loop
      vertex -17.2154 3.65925 -1.5
      vertex -22.4974 -4.78197 -1.5
      vertex -16.0784 7.15856 -1.5
    endloop
  endfacet
  facet normal 0 0 -1
    outer loop
      vertex -22.4974 -4.78197 -1.5
      vertex -11.5 19.9186 -1.5
      vertex -16.0784 7.15856 -1.5
    endloop
  endfacet
  facet normal 0 0 -1
    outer loop
      vertex 5.4387 16.7386 -1.5
      vertex 11.5 19.9186 -1.5
      vertex 8.8 15.242 -1.5
    endloop
  endfacet
  facet normal 0 0 -1
    outer loop
      vertex -17.6 0 -1.5
      vertex -22.4974 -4.78197 -1.5
      vertex -17.2154 3.65925 -1.5
    endloop
  endfacet
  facet normal 0 0 -1
    outer loop
      vertex -14.2387 10.345 -1.5
      vertex -7.10739 21.8743 -1.5
      vertex -11.7767 13.0793 -1.5
    endloop
  endfacet
  facet normal 0 0 -1
    outer loop
      vertex -8.8 15.242 -1.5
      vertex -2.40415 22.874 -1.5
      vertex -5.4387 16.7386 -1.5
    endloop
  endfacet
  facet normal 0 0 -1
    outer loop
      vertex 8.8 15.242 -1.5
      vertex 15.39 17.0923 -1.5
      vertex 11.7767 13.0793 -1.5
    endloop
  endfacet
  facet normal 0 0 -1
    outer loop
      vertex 11.7767 13.0793 -1.5
      vertex 18.6074 13.5191 -1.5
      vertex 14.2387 10.345 -1.5
    endloop
  endfacet
  facet normal 0 0 -1
    outer loop
      vertex 17.2154 3.65925 -1.5
      vertex 31.3457 3.71572 -1.5
      vertex 17.4423 1.5 -1.5
    endloop
  endfacet
  facet normal 0 0 -1
    outer loop
      vertex 24.5 1.5 -1.5
      vertex 32.5677 2.03368 -1.5
      vertex 32.8907 1.03956 -1.5
    endloop
  endfacet
  facet normal 0 0 -1
    outer loop
      vertex 24.5 -1.5 -1.5
      vertex 32.8907 -1.03956 -1.5
      vertex 32.5677 -2.03368 -1.5
    endloop
  endfacet
  facet normal 0 0 -1
    outer loop
      vertex 24.5 1.5 -1.5
      vertex 32.8907 1.03956 -1.5
      vertex 33 0 -1.5
    endloop
  endfacet
  facet normal 0 0 -1
    outer loop
      vertex 24.5 1.5 -1.5
      vertex 33 0 -1.5
      vertex 32.8907 -1.03956 -1.5
    endloop
  endfacet
  facet normal 0 0 -1
    outer loop
      vertex 24.5 1.5 -1.5
      vertex 32.8907 -1.03956 -1.5
      vertex 24.5 -1.5 -1.5
    endloop
  endfacet
  facet normal 0 0 -1
    outer loop
      vertex 17.4423 -1.5 -1.5
      vertex 24.5 -1.5 -1.5
      vertex 32.5677 -2.03368 -1.5
    endloop
  endfacet
  facet normal 0 0 -1
    outer loop
      vertex 17.4423 -1.5 -1.5
      vertex 32.5677 -2.03368 -1.5
      vertex 32.0451 -2.93893 -1.5
    endloop
  endfacet
  facet normal 0 0 -1
    outer loop
      vertex 17.4423 -1.5 -1.5
      vertex 32.0451 -2.93893 -1.5
      vertex 17.2154 -3.65925 -1.5
    endloop
  endfacet
  facet normal 0 0 -1
    outer loop
      vertex 17.2154 -3.65925 -1.5
      vertex 31.3457 -3.71572 -1.5
      vertex 30.5 -4.33013 -1.5
    endloop
  endfacet
  facet normal 0 0 -1
    outer loop
      vertex 17.2154 -3.65925 -1.5
      vertex 30.5 -4.33013 -1.5
      vertex 29.5451 -4.75528 -1.5
    endloop
  endfacet
  facet normal 0 0 -1
    outer loop
      vertex 16.0784 -7.15856 -1.5
      vertex 20.7879 -9.7423 -1.5
      vertex 14.2387 -10.345 -1.5
    endloop
  endfacet
  facet normal 0 0 -1
    outer loop
      vertex 14.2387 -10.345 -1.5
      vertex 18.6074 -13.5191 -1.5
      vertex 11.7767 -13.0793 -1.5
    endloop
  endfacet
  facet normal -0.994522 0.104528 0
    outer loop
      vertex -23 0 -1.5
      vertex -23 0 1.5
      vertex -22.4974 4.78197 -1.5
    endloop
  endfacet
  facet normal -0.994522 0.104528 0
    outer loop
      vertex -22.4974 4.78197 -1.5
      vertex -23 0 1.5
      vertex -22.4974 4.78197 1.5
    endloop
  endfacet
  facet normal -0.994522 -0.104528 0
    outer loop
      vertex -23 0 -1.5
      vertex -22.4974 -4.78197 -1.5
      vertex -23 0 1.5
    endloop
  endfacet
  facet normal -0.994522 -0.104528 0
    outer loop
      vertex -23 0 1.5
      vertex -22.4974 -4.78197 -1.5
      vertex -22.4974 -4.78197 1.5
    endloop
  endfacet
  facet normal -0.951057 -0.309017 0
    outer loop
      vertex -22.4974 -4.78197 -1.5
      vertex -21.0115 -9.35494 -1.5
      vertex -22.4974 -4.78197 1.5
    endloop
  endfacet
  facet normal -0.951057 -0.309017 0
    outer loop
      vertex -22.4974 -4.78197 1.5
      vertex -21.0115 -9.35494 -1.5
      vertex -21.0115 -9.35494 1.5
    endloop
  endfacet
  facet normal -0.866025 -0.5 0
    outer loop
      vertex -21.0115 -9.35494 -1.5
      vertex -18.6074 -13.5191 -1.5
      vertex -21.0115 -9.35494 1.5
    endloop
  endfacet
  facet normal -0.866025 -0.5 0
    outer loop
      vertex -21.0115 -9.35494 1.5
      vertex -18.6074 -13.5191 -1.5
      vertex -18.6074 -13.5191 1.5
    endloop
  endfacet
  facet normal -0.743145 -0.669131 0
    outer loop
      vertex -18.6074 -13.5191 -1.5
      vertex -15.39 -17.0923 -1.5
      vertex -18.6074 -13.5191 1.5
    endloop
  endfacet
  facet normal -0.743145 -0.669131 0
    outer loop
      vertex -18.6074 -13.5191 1.5
      vertex -15.39 -17.0923 -1.5
      vertex -15.39 -17.0923 1.5
    endloop
  endfacet
  facet normal -0.587785 -0.809017 0
    outer loop
      vertex -15.39 -17.0923 1.5
      vertex -15.39 -17.0923 -1.5
      vertex -11.5 -19.9186 -1.5
    endloop
  endfacet
  facet normal -0.587785 -0.809017 0
    outer loop
      vertex -11.5 -19.9186 1.5
      vertex -15.39 -17.0923 1.5
      vertex -11.5 -19.9186 -1.5
    endloop
  endfacet
  facet normal -0.406737 -0.913545 0
    outer loop
      vertex -11.5 -19.9186 1.5
      vertex -11.5 -19.9186 -1.5
      vertex -7.10739 -21.8743 -1.5
    endloop
  endfacet
  facet normal -0.406737 -0.913545 0
    outer loop
      vertex -7.10739 -21.8743 1.5
      vertex -11.5 -19.9186 1.5
      vertex -7.10739 -21.8743 -1.5
    endloop
  endfacet
  facet normal -0.207912 -0.978148 0
    outer loop
      vertex -7.10739 -21.8743 1.5
      vertex -7.10739 -21.8743 -1.5
      vertex -2.40415 -22.874 -1.5
    endloop
  endfacet
  facet normal -0.207912 -0.978148 0
    outer loop
      vertex -2.40415 -22.874 1.5
      vertex -7.10739 -21.8743 1.5
      vertex -2.40415 -22.874 -1.5
    endloop
  endfacet
  facet normal 0 -1 0
    outer loop
      vertex -2.40415 -22.874 1.5
      vertex -2.40415 -22.874 -1.5
      vertex 2.40415 -22.874 -1.5
    endloop
  endfacet
  facet normal 0 -1 0
    outer loop
      vertex 2.40415 -22.874 1.5
      vertex -2.40415 -22.874 1.5
      vertex 2.40415 -22.874 -1.5
    endloop
  endfacet
  facet normal 0.207912 -0.978148 0
    outer loop
      vertex 2.40415 -22.874 1.5
      vertex 2.40415 -22.874 -1.5
      vertex 7.10739 -21.8743 -1.5
    endloop
  endfacet
  facet normal 0.207912 -0.978148 0
    outer loop
      vertex 7.10739 -21.8743 1.5
      vertex 2.40415 -22.874 1.5
      vertex 7.10739 -21.8743 -1.5
    endloop
  endfacet
  facet normal 0.406737 -0.913545 0
    outer loop
      vertex 7.10739 -21.8743 1.5
      vertex 7.10739 -21.8743 -1.5
      vertex 11.5 -19.9186 -1.5
    endloop
  endfacet
  facet normal 0.406737 -0.913545 0
    outer loop
      vertex 11.5 -19.9186 1.5
      vertex 7.10739 -21.8743 1.5
      vertex 11.5 -19.9186 -1.5
    endloop
  endfacet
  facet normal 0.587785 -0.809017 0
    outer loop
      vertex 11.5 -19.9186 1.5
      vertex 11.5 -19.9186 -1.5
      vertex 15.39 -17.0923 -1.5
    endloop
  endfacet
  facet normal 0.587785 -0.809017 0
    outer loop
      vertex 15.39 -17.0923 1.5
      vertex 11.5 -19.9186 1.5
      vertex 15.39 -17.0923 -1.5
    endloop
  endfacet
  facet normal 0.743145 -0.669131 0
    outer loop
      vertex 15.39 -17.0923 1.5
      vertex 15.39 -17.0923 -1.5
      vertex 18.6074 -13.5191 -1.5
    endloop
  endfacet
  facet normal 0.743145 -0.669131 0
    outer loop
      vertex 18.6074 -13.5191 1.5
      vertex 15.39 -17.0923 1.5
      vertex 18.6074 -13.5191 -1.5
    endloop
  endfacet
  facet normal 0.866025 -0.5 0
    outer loop
      vertex 18.6074 -13.5191 1.5
      vertex 18.6074 -13.5191 -1.5
      vertex 20.7879 -9.7423 -1.5
    endloop
  endfacet
  facet normal 0.866025 -0.5 0
    outer loop
      vertex 20.7879 -9.7423 1.5
      vertex 18.6074 -13.5191 1.5
      vertex 20.7879 -9.7423 -1.5
    endloop
  endfacet
  facet normal 0.515038 -0.857167 0
    outer loop
      vertex 20.7879 -9.7423 1.5
      vertex 20.7879 -9.7423 -1.5
      vertex 28.8373 -4.90572 -1.5
    endloop
  endfacet
  facet normal 0.515038 -0.857167 0
    outer loop
      vertex 28.8373 -4.90572 1.5
      vertex 20.7879 -9.7423 1.5
      vertex 28.8373 -4.90572 -1.5
    endloop
  endfacet
  facet normal 0.207911 -0.978148 0
    outer loop
      vertex 28.8373 -4.90572 1.5
      vertex 28.8373 -4.90572 -1.5
      vertex 29.5451 -4.75528 -1.5
    endloop
  endfacet
  facet normal 0.207911 -0.978148 0
    outer loop
      vertex 29.5451 -4.75528 1.5
      vertex 28.8373 -4.90572 1.5
      vertex 29.5451 -4.75528 -1.5
    endloop
  endfacet
  facet normal 0.406737 -0.913545 0
    outer loop
      vertex 29.5451 -4.75528 1.5
      vertex 29.5451 -4.75528 -1.5
      vertex 30.5 -4.33013 -1.5
    endloop
  endfacet
  facet normal 0.406737 -0.913545 0
    outer loop
      vertex 30.5 -4.33013 1.5
      vertex 29.5451 -4.75528 1.5
      vertex 30.5 -4.33013 -1.5
    endloop
  endfacet
  facet normal 0.587785 -0.809017 0
    outer loop
      vertex 30.5 -4.33013 1.5
      vertex 30.5 -4.33013 -1.5
      vertex 31.3457 -3.71572 -1.5
    endloop
  endfacet
  facet normal 0.587785 -0.809017 0
    outer loop
      vertex 31.3457 -3.71572 1.5
      vertex 30.5 -4.33013 1.5
      vertex 31.3457 -3.71572 -1.5
    endloop
  endfacet
  facet normal 0.743145 -0.669131 0
    outer loop
      vertex 31.3457 -3.71572 1.5
      vertex 31.3457 -3.71572 -1.5
      vertex 32.0451 -2.93893 -1.5
    endloop
  endfacet
  facet normal 0.743145 -0.669131 0
    outer loop
      vertex 32.0451 -2.93893 1.5
      vertex 31.3457 -3.71572 1.5
      vertex 32.0451 -2.93893 -1.5
    endloop
  endfacet
  facet normal 0.866026 -0.5 0
    outer loop
      vertex 32.0451 -2.93893 1.5
      vertex 32.0451 -2.93893 -1.5
      vertex 32.5677 -2.03368 -1.5
    endloop
  endfacet
  facet normal 0.866026 -0.5 0
    outer loop
      vertex 32.5677 -2.03368 1.5
      vertex 32.0451 -2.93893 1.5
      vertex 32.5677 -2.03368 -1.5
    endloop
  endfacet
  facet normal 0.951056 -0.309017 0
    outer loop
      vertex 32.5677 -2.03368 1.5
      vertex 32.5677 -2.03368 -1.5
      vertex 32.8907 -1.03956 -1.5
    endloop
  endfacet
  facet normal 0.951056 -0.309017 0
    outer loop
      vertex 32.8907 -1.03956 1.5
      vertex 32.5677 -2.03368 1.5
      vertex 32.8907 -1.03956 -1.5
    endloop
  endfacet
  facet normal 0.994522 -0.104529 0
    outer loop
      vertex 32.8907 -1.03956 1.5
      vertex 32.8907 -1.03956 -1.5
      vertex 33 0 -1.5
    endloop
  endfacet
  facet normal 0.994522 -0.104529 0
    outer loop
      vertex 33 0 1.5
      vertex 32.8907 -1.03956 1.5
      vertex 33 0 -1.5
    endloop
  endfacet
  facet normal 0.994522 0.104529 0
    outer loop
      vertex 33 0 -1.5
      vertex 32.8907 1.03956 -1.5
      vertex 32.8907 1.03956 1.5
    endloop
  endfacet
  facet normal 0.994522 0.104529 0
    outer loop
      vertex 33 0 1.5
      vertex 33 0 -1.5
      vertex 32.8907 1.03956 1.5
    endloop
  endfacet
  facet normal 0.951056 0.309017 0
    outer loop
      vertex 32.8907 1.03956 -1.5
      vertex 32.5677 2.03368 -1.5
      vertex 32.5677 2.03368 1.5
    endloop
  endfacet
  facet normal 0.951056 0.309017 0
    outer loop
      vertex 32.8907 1.03956 1.5
      vertex 32.8907 1.03956 -1.5
      vertex 32.5677 2.03368 1.5
    endloop
  endfacet
  facet normal 0.866026 0.5 0
    outer loop
      vertex 32.5677 2.03368 -1.5
      vertex 32.0451 2.93893 -1.5
      vertex 32.0451 2.93893 1.5
    endloop
  endfacet
  facet normal 0.866026 0.5 0
    outer loop
      vertex 32.5677 2.03368 1.5
      vertex 32.5677 2.03368 -1.5
      vertex 32.0451 2.93893 1.5
    endloop
  endfacet
  facet normal 0.743145 0.669131 0
    outer loop
      vertex 32.0451 2.93893 -1.5
      vertex 31.3457 3.71572 -1.5
      vertex 31.3457 3.71572 1.5
    endloop
  endfacet
  facet normal 0.743145 0.669131 0
    outer loop
      vertex 32.0451 2.93893 1.5
      vertex 32.0451 2.93893 -1.5
      vertex 31.3457 3.71572 1.5
    endloop
  endfacet
  facet normal 0.587785 0.809017 0
    outer loop
      vertex 30.5 4.33013 -1.5
      vertex 30.5 4.33013 1.5
      vertex 31.3457 3.71572 -1.5
    endloop
  endfacet
  facet normal 0.587785 0.809017 0
    outer loop
      vertex 31.3457 3.71572 -1.5
      vertex 30.5 4.33013 1.5
      vertex 31.3457 3.71572 1.5
    endloop
  endfacet
  facet normal 0.406737 0.913545 0
    outer loop
      vertex 29.5451 4.75528 -1.5
      vertex 29.5451 4.75528 1.5
      vertex 30.5 4.33013 -1.5
    endloop
  endfacet
  facet normal 0.406737 0.913545 0
    outer loop
      vertex 30.5 4.33013 -1.5
      vertex 29.5451 4.75528 1.5
      vertex 30.5 4.33013 1.5
    endloop
  endfacet
  facet normal 0.207911 0.978148 0
    outer loop
      vertex 28.8373 4.90572 -1.5
      vertex 28.8373 4.90572 1.5
      vertex 29.5451 4.75528 -1.5
    endloop
  endfacet
  facet normal 0.207911 0.978148 0
    outer loop
      vertex 29.5451 4.75528 -1.5
      vertex 28.8373 4.90572 1.5
      vertex 29.5451 4.75528 1.5
    endloop
  endfacet
  facet normal 0.515038 0.857167 0
    outer loop
      vertex 20.7879 9.7423 -1.5
      vertex 20.7879 9.7423 1.5
      vertex 28.8373 4.90572 -1.5
    endloop
  endfacet
  facet normal 0.515038 0.857167 0
    outer loop
      vertex 28.8373 4.90572 -1.5
      vertex 20.7879 9.7423 1.5
      vertex 28.8373 4.90572 1.5
    endloop
  endfacet
  facet normal 0.866025 0.5 0
    outer loop
      vertex 20.7879 9.7423 -1.5
      vertex 18.6074 13.5191 -1.5
      vertex 18.6074 13.5191 1.5
    endloop
  endfacet
  facet normal 0.866025 0.5 0
    outer loop
      vertex 20.7879 9.7423 1.5
      vertex 20.7879 9.7423 -1.5
      vertex 18.6074 13.5191 1.5
    endloop
  endfacet
  facet normal 0.743145 0.669131 0
    outer loop
      vertex 18.6074 13.5191 -1.5
      vertex 15.39 17.0923 -1.5
      vertex 15.39 17.0923 1.5
    endloop
  endfacet
  facet normal 0.743145 0.669131 0
    outer loop
      vertex 18.6074 13.5191 1.5
      vertex 18.6074 13.5191 -1.5
      vertex 15.39 17.0923 1.5
    endloop
  endfacet
  facet normal 0.587785 0.809017 0
    outer loop
      vertex 11.5 19.9186 -1.5
      vertex 11.5 19.9186 1.5
      vertex 15.39 17.0923 -1.5
    endloop
  endfacet
  facet normal 0.587785 0.809017 0
    outer loop
      vertex 15.39 17.0923 -1.5
      vertex 11.5 19.9186 1.5
      vertex 15.39 17.0923 1.5
    endloop
  endfacet
  facet normal 0.406737 0.913545 0
    outer loop
      vertex 7.10739 21.8743 -1.5
      vertex 7.10739 21.8743 1.5
      vertex 11.5 19.9186 -1.5
    endloop
  endfacet
  facet normal 0.406737 0.913545 0
    outer loop
      vertex 11.5 19.9186 -1.5
      vertex 7.10739 21.8743 1.5
      vertex 11.5 19.9186 1.5
    endloop
  endfacet
  facet normal 0.207912 0.978148 0
    outer loop
      vertex 2.40415 22.874 -1.5
      vertex 2.40415 22.874 1.5
      vertex 7.10739 21.8743 -1.5
    endloop
  endfacet
  facet normal 0.207912 0.978148 0
    outer loop
      vertex 7.10739 21.8743 -1.5
      vertex 2.40415 22.874 1.5
      vertex 7.10739 21.8743 1.5
    endloop
  endfacet
  facet normal 0 1 0
    outer loop
      vertex -2.40415 22.874 -1.5
      vertex -2.40415 22.874 1.5
      vertex 2.40415 22.874 -1.5
    endloop
  endfacet
  facet normal 0 1 0
    outer loop
      vertex 2.40415 22.874 -1.5
      vertex -2.40415 22.874 1.5
      vertex 2.40415 22.874 1.5
    endloop
  endfacet
  facet normal -0.207912 0.978148 0
    outer loop
      vertex -7.10739 21.8743 -1.5
      vertex -7.10739 21.8743 1.5
      vertex -2.40415 22.874 -1.5
    endloop
  endfacet
  facet normal -0.207912 0.978148 0
    outer loop
      vertex -2.40415 22.874 -1.5
      vertex -7.10739 21.8743 1.5
      vertex -2.40415 22.874 1.5
    endloop
  endfacet
  facet normal -0.406737 0.913545 0
    outer loop
      vertex -11.5 19.9186 -1.5
      vertex -11.5 19.9186 1.5
      vertex -7.10739 21.8743 -1.5
    endloop
  endfacet
  facet normal -0.406737 0.913545 0
    outer loop
      vertex -7.10739 21.8743 -1.5
      vertex -11.5 19.9186 1.5
      vertex -7.10739 21.8743 1.5
    endloop
  endfacet
  facet normal -0.587785 0.809017 0
    outer loop
      vertex -15.39 17.0923 -1.5
      vertex -15.39 17.0923 1.5
      vertex -11.5 19.9186 -1.5
    endloop
  endfacet
  facet normal -0.587785 0.809017 0
    outer loop
      vertex -11.5 19.9186 -1.5
      vertex -15.39 17.0923 1.5
      vertex -11.5 19.9186 1.5
    endloop
  endfacet
  facet normal -0.743145 0.669131 0
    outer loop
      vertex -18.6074 13.5191 -1.5
      vertex -18.6074 13.5191 1.5
      vertex -15.39 17.0923 -1.5
    endloop
  endfacet
  facet normal -0.743145 0.669131 0
    outer loop
      vertex -15.39 17.0923 -1.5
      vertex -18.6074 13.5191 1.5
      vertex -15.39 17.0923 1.5
    endloop
  endfacet
  facet normal -0.866025 0.5 0
    outer loop
      vertex -21.0115 9.35494 -1.5
      vertex -21.0115 9.35494 1.5
      vertex -18.6074 13.5191 -1.5
    endloop
  endfacet
  facet normal -0.866025 0.5 0
    outer loop
      vertex -18.6074 13.5191 -1.5
      vertex -21.0115 9.35494 1.5
      vertex -18.6074 13.5191 1.5
    endloop
  endfacet
  facet normal -0.951057 0.309017 0
    outer loop
      vertex -22.4974 4.78197 -1.5
      vertex -22.4974 4.78197 1.5
      vertex -21.0115 9.35494 -1.5
    endloop
  endfacet
  facet normal -0.951057 0.309017 0
    outer loop
      vertex -21.0115 9.35494 -1.5
      vertex -22.4974 4.78197 1.5
      vertex -21.0115 9.35494 1.5
    endloop
  endfacet
  facet normal 0.994522 -0.104528 0
    outer loop
      vertex -17.2154 3.65925 -1.5
      vertex -17.2154 3.65925 1.5
      vertex -17.6 0 1.5
    endloop
  endfacet
  facet normal 0.994522 -0.104528 0
    outer loop
      vertex -17.6 0 -1.5
      vertex -17.2154 3.65925 -1.5
      vertex -17.6 0 1.5
    endloop
  endfacet
  facet normal 0.994522 0.104528 0
    outer loop
      vertex -17.6 0 1.5
      vertex -17.2154 -3.65925 1.5
      vertex -17.2154 -3.65925 -1.5
    endloop
  endfacet
  facet normal 0.994522 0.104528 0
    outer loop
      vertex -17.6 0 -1.5
      vertex -17.6 0 1.5
      vertex -17.2154 -3.65925 -1.5
    endloop
  endfacet
  facet normal 0.951056 -0.309017 0
    outer loop
      vertex -16.0784 7.15856 -1.5
      vertex -16.0784 7.15856 1.5
      vertex -17.2154 3.65925 1.5
    endloop
  endfacet
  facet normal 0.951056 -0.309017 0
    outer loop
      vertex -17.2154 3.65925 -1.5
      vertex -16.0784 7.15856 -1.5
      vertex -17.2154 3.65925 1.5
    endloop
  endfacet
  facet normal 0.866025 -0.5 0
    outer loop
      vertex -14.2387 10.345 -1.5
      vertex -14.2387 10.345 1.5
      vertex -16.0784 7.15856 1.5
    endloop
  endfacet
  facet normal 0.866025 -0.5 0
    outer loop
      vertex -16.0784 7.15856 -1.5
      vertex -14.2387 10.345 -1.5
      vertex -16.0784 7.15856 1.5
    endloop
  endfacet
  facet normal 0.743145 -0.66913 0
    outer loop
      vertex -11.7767 13.0793 -1.5
      vertex -11.7767 13.0793 1.5
      vertex -14.2387 10.345 1.5
    endloop
  endfacet
  facet normal 0.743145 -0.66913 0
    outer loop
      vertex -14.2387 10.345 -1.5
      vertex -11.7767 13.0793 -1.5
      vertex -14.2387 10.345 1.5
    endloop
  endfacet
  facet normal 0.587785 -0.809017 0
    outer loop
      vertex -8.8 15.242 -1.5
      vertex -8.8 15.242 1.5
      vertex -11.7767 13.0793 1.5
    endloop
  endfacet
  facet normal 0.587785 -0.809017 0
    outer loop
      vertex -11.7767 13.0793 -1.5
      vertex -8.8 15.242 -1.5
      vertex -11.7767 13.0793 1.5
    endloop
  endfacet
  facet normal 0.406737 -0.913545 0
    outer loop
      vertex -5.4387 16.7386 -1.5
      vertex -5.4387 16.7386 1.5
      vertex -8.8 15.242 1.5
    endloop
  endfacet
  facet normal 0.406737 -0.913545 0
    outer loop
      vertex -8.8 15.242 -1.5
      vertex -5.4387 16.7386 -1.5
      vertex -8.8 15.242 1.5
    endloop
  endfacet
  facet normal 0.207912 -0.978148 0
    outer loop
      vertex -1.8397 17.5036 -1.5
      vertex -1.8397 17.5036 1.5
      vertex -5.4387 16.7386 1.5
    endloop
  endfacet
  facet normal 0.207912 -0.978148 0
    outer loop
      vertex -5.4387 16.7386 -1.5
      vertex -1.8397 17.5036 -1.5
      vertex -5.4387 16.7386 1.5
    endloop
  endfacet
  facet normal 0 -1 0
    outer loop
      vertex 1.8397 17.5036 -1.5
      vertex 1.8397 17.5036 1.5
      vertex -1.8397 17.5036 1.5
    endloop
  endfacet
  facet normal 0 -1 0
    outer loop
      vertex -1.8397 17.5036 -1.5
      vertex 1.8397 17.5036 -1.5
      vertex -1.8397 17.5036 1.5
    endloop
  endfacet
  facet normal -0.207912 -0.978148 0
    outer loop
      vertex 5.4387 16.7386 -1.5
      vertex 5.4387 16.7386 1.5
      vertex 1.8397 17.5036 1.5
    endloop
  endfacet
  facet normal -0.207912 -0.978148 0
    outer loop
      vertex 1.8397 17.5036 -1.5
      vertex 5.4387 16.7386 -1.5
      vertex 1.8397 17.5036 1.5
    endloop
  endfacet
  facet normal -0.406737 -0.913545 0
    outer loop
      vertex 8.8 15.242 -1.5
      vertex 8.8 15.242 1.5
      vertex 5.4387 16.7386 1.5
    endloop
  endfacet
  facet normal -0.406737 -0.913545 0
    outer loop
      vertex 5.4387 16.7386 -1.5
      vertex 8.8 15.242 -1.5
      vertex 5.4387 16.7386 1.5
    endloop
  endfacet
  facet normal -0.587785 -0.809017 0
    outer loop
      vertex 11.7767 13.0793 -1.5
      vertex 11.7767 13.0793 1.5
      vertex 8.8 15.242 1.5
    endloop
  endfacet
  facet normal -0.587785 -0.809017 0
    outer loop
      vertex 8.8 15.242 -1.5
      vertex 11.7767 13.0793 -1.5
      vertex 8.8 15.242 1.5
    endloop
  endfacet
  facet normal -0.743145 -0.66913 0
    outer loop
      vertex 14.2387 10.345 1.5
      vertex 11.7767 13.0793 1.5
      vertex 14.2387 10.345 -1.5
    endloop
  endfacet
  facet normal -0.743145 -0.66913 0
    outer loop
      vertex 14.2387 10.345 -1.5
      vertex 11.7767 13.0793 1.5
      vertex 11.7767 13.0793 -1.5
    endloop
  endfacet
  facet normal -0.866025 -0.5 0
    outer loop
      vertex 16.0784 7.15856 1.5
      vertex 14.2387 10.345 1.5
      vertex 16.0784 7.15856 -1.5
    endloop
  endfacet
  facet normal -0.866025 -0.5 0
    outer loop
      vertex 16.0784 7.15856 -1.5
      vertex 14.2387 10.345 1.5
      vertex 14.2387 10.345 -1.5
    endloop
  endfacet
  facet normal -0.951056 -0.309017 0
    outer loop
      vertex 17.2154 3.65925 1.5
      vertex 16.0784 7.15856 1.5
      vertex 17.2154 3.65925 -1.5
    endloop
  endfacet
  facet normal -0.951056 -0.309017 0
    outer loop
      vertex 17.2154 3.65925 -1.5
      vertex 16.0784 7.15856 1.5
      vertex 16.0784 7.15856 -1.5
    endloop
  endfacet
  facet normal -0.994522 -0.104528 0
    outer loop
      vertex 17.4423 1.5 1.5
      vertex 17.2154 3.65925 1.5
      vertex 17.4423 1.5 -1.5
    endloop
  endfacet
  facet normal -0.994522 -0.104528 0
    outer loop
      vertex 17.4423 1.5 -1.5
      vertex 17.2154 3.65925 1.5
      vertex 17.2154 3.65925 -1.5
    endloop
  endfacet
  facet normal 0 -1 0
    outer loop
      vertex 24.5 1.5 -1.5
      vertex 24.5 1.5 1.5
      vertex 17.4423 1.5 1.5
    endloop
  endfacet
  facet normal 0 -1 0
    outer loop
      vertex 17.4423 1.5 -1.5
      vertex 24.5 1.5 -1.5
      vertex 17.4423 1.5 1.5
    endloop
  endfacet
  facet normal -1 0 0
    outer loop
      vertex 24.5 1.5 1.5
      vertex 24.5 1.5 -1.5
      vertex 24.5 -1.5 1.5
    endloop
  endfacet
  facet normal -1 0 0
    outer loop
      vertex 24.5 -1.5 1.5
      vertex 24.5 1.5 -1.5
      vertex 24.5 -1.5 -1.5
    endloop
  endfacet
  facet normal 0 1 0
    outer loop
      vertex 24.5 -1.5 1.5
      vertex 24.5 -1.5 -1.5
      vertex 17.4423 -1.5 1.5
    endloop
  endfacet
  facet normal 0 1 0
    outer loop
      vertex 17.4423 -1.5 1.5
      vertex 24.5 -1.5 -1.5
      vertex 17.4423 -1.5 -1.5
    endloop
  endfacet
  facet normal -0.994522 0.104528 0
    outer loop
      vertex 17.4423 -1.5 1.5
      vertex 17.4423 -1.5 -1.5
      vertex 17.2154 -3.65925 1.5
    endloop
  endfacet
  facet normal -0.994522 0.104528 0
    outer loop
      vertex 17.2154 -3.65925 1.5
      vertex 17.4423 -1.5 -1.5
      vertex 17.2154 -3.65925 -1.5
    endloop
  endfacet
  facet normal -0.951056 0.309017 0
    outer loop
      vertex 17.2154 -3.65925 1.5
      vertex 17.2154 -3.65925 -1.5
      vertex 16.0784 -7.15856 1.5
    endloop
  endfacet
  facet normal -0.951056 0.309017 0
    outer loop
      vertex 16.0784 -7.15856 1.5
      vertex 17.2154 -3.65925 -1.5
      vertex 16.0784 -7.15856 -1.5
    endloop
  endfacet
  facet normal -0.866025 0.5 0
    outer loop
      vertex 16.0784 -7.15856 1.5
      vertex 16.0784 -7.15856 -1.5
      vertex 14.2387 -10.345 1.5
    endloop
  endfacet
  facet normal -0.866025 0.5 0
    outer loop
      vertex 14.2387 -10.345 1.5
      vertex 16.0784 -7.15856 -1.5
      vertex 14.2387 -10.345 -1.5
    endloop
  endfacet
  facet normal -0.743145 0.66913 0
    outer loop
      vertex 14.2387 -10.345 1.5
      vertex 14.2387 -10.345 -1.5
      vertex 11.7767 -13.0793 1.5
    endloop
  endfacet
  facet normal -0.743145 0.66913 0
    outer loop
      vertex 11.7767 -13.0793 1.5
      vertex 14.2387 -10.345 -1.5
      vertex 11.7767 -13.0793 -1.5
    endloop
  endfacet
  facet normal -0.587785 0.809017 0
    outer loop
      vertex 11.7767 -13.0793 1.5
      vertex 11.7767 -13.0793 -1.5
      vertex 8.8 -15.242 1.5
    endloop
  endfacet
  facet normal -0.587785 0.809017 0
    outer loop
      vertex 8.8 -15.242 1.5
      vertex 11.7767 -13.0793 -1.5
      vertex 8.8 -15.242 -1.5
    endloop
  endfacet
  facet normal -0.406737 0.913545 0
    outer loop
      vertex 8.8 -15.242 1.5
      vertex 8.8 -15.242 -1.5
      vertex 5.4387 -16.7386 1.5
    endloop
  endfacet
  facet normal -0.406737 0.913545 0
    outer loop
      vertex 5.4387 -16.7386 1.5
      vertex 8.8 -15.242 -1.5
      vertex 5.4387 -16.7386 -1.5
    endloop
  endfacet
  facet normal -0.207912 0.978148 0
    outer loop
      vertex 5.4387 -16.7386 1.5
      vertex 5.4387 -16.7386 -1.5
      vertex 1.8397 -17.5036 1.5
    endloop
  endfacet
  facet normal -0.207912 0.978148 0
    outer loop
      vertex 1.8397 -17.5036 1.5
      vertex 5.4387 -16.7386 -1.5
      vertex 1.8397 -17.5036 -1.5
    endloop
  endfacet
  facet normal 0 1 0
    outer loop
      vertex 1.8397 -17.5036 1.5
      vertex 1.8397 -17.5036 -1.5
      vertex -1.8397 -17.5036 1.5
    endloop
  endfacet
  facet normal 0 1 0
    outer loop
      vertex -1.8397 -17.5036 1.5
      vertex 1.8397 -17.5036 -1.5
      vertex -1.8397 -17.5036 -1.5
    endloop
  endfacet
  facet normal 0.207912 0.978148 0
    outer loop
      vertex -1.8397 -17.5036 1.5
      vertex -1.8397 -17.5036 -1.5
      vertex -5.4387 -16.7386 1.5
    endloop
  endfacet
  facet normal 0.207912 0.978148 0
    outer loop
      vertex -5.4387 -16.7386 1.5
      vertex -1.8397 -17.5036 -1.5
      vertex -5.4387 -16.7386 -1.5
    endloop
  endfacet
  facet normal 0.406737 0.913545 0
    outer loop
      vertex -5.4387 -16.7386 1.5
      vertex -5.4387 -16.7386 -1.5
      vertex -8.8 -15.242 1.5
    endloop
  endfacet
  facet normal 0.406737 0.913545 0
    outer loop
      vertex -8.8 -15.242 1.5
      vertex -5.4387 -16.7386 -1.5
      vertex -8.8 -15.242 -1.5
    endloop
  endfacet
  facet normal 0.587785 0.809017 0
    outer loop
      vertex -8.8 -15.242 1.5
      vertex -8.8 -15.242 -1.5
      vertex -11.7767 -13.0793 1.5
    endloop
  endfacet
  facet normal 0.587785 0.809017 0
    outer loop
      vertex -11.7767 -13.0793 1.5
      vertex -8.8 -15.242 -1.5
      vertex -11.7767 -13.0793 -1.5
    endloop
  endfacet
  facet normal 0.743145 0.66913 0
    outer loop
      vertex -14.2387 -10.345 1.5
      vertex -11.7767 -13.0793 1.5
      vertex -11.7767 -13.0793 -1.5
    endloop
  endfacet
  facet normal 0.743145 0.66913 0
    outer loop
      vertex -14.2387 -10.345 -1.5
      vertex -14.2387 -10.345 1.5
      vertex -11.7767 -13.0793 -1.5
    endloop
  endfacet
  facet normal 0.866025 0.5 0
    outer loop
      vertex -16.0784 -7.15856 1.5
      vertex -14.2387 -10.345 1.5
      vertex -14.2387 -10.345 -1.5
    endloop
  endfacet
  facet normal 0.866025 0.5 0
    outer loop
      vertex -16.0784 -7.15856 -1.5
      vertex -16.0784 -7.15856 1.5
      vertex -14.2387 -10.345 -1.5
    endloop
  endfacet
  facet normal 0.951056 0.309017 0
    outer loop
      vertex -17.2154 -3.65925 1.5
      vertex -16.0784 -7.15856 1.5
      vertex -16.0784 -7.15856 -1.5
    endloop
  endfacet
  facet normal 0.951056 0.309017 0
    outer loop
      vertex -17.2154 -3.65925 -1.5
      vertex -17.2154 -3.65925 1.5
      vertex -16.0784 -7.15856 -1.5
    endloop
  endfacet
  facet normal 0 0 1
    outer loop
      vertex -22.4974 4.78197 1.5
      vertex -23 0 1.5
      vertex -22.4974 -4.78197 1.5
    endloop
  endfacet
  facet normal 0 0 1
    outer loop
      vertex -18.6074 -13.5191 1.5
      vertex -22.4974 4.78197 1.5
      vertex -21.0115 -9.35494 1.5
    endloop
  endfacet
  facet normal 0 0 1
    outer loop
      vertex -21.0115 -9.35494 1.5
      vertex -22.4974 4.78197 1.5
      vertex -22.4974 -4.78197 1.5
    endloop
  endfacet
  facet normal 0 0 1
    outer loop
      vertex -15.39 -17.0923 1.5
      vertex -22.4974 4.78197 1.5
      vertex -18.6074 -13.5191 1.5
    endloop
  endfacet
  facet normal 0 0 1
    outer loop
      vertex -11.5 -19.9186 1.5
      vertex -22.4974 4.78197 1.5
      vertex -15.39 -17.0923 1.5
    endloop
  endfacet
  facet normal 0 0 1
    outer loop
      vertex -16.0784 -7.15856 1.5
      vertex -22.4974 4.78197 1.5
      vertex -11.5 -19.9186 1.5
    endloop
  endfacet
  facet normal 0 0 1
    outer loop
      vertex 17.2154 3.65925 1.5
      vertex 32.8907 1.03956 1.5
      vertex 32.5677 2.03368 1.5
    endloop
  endfacet
  facet normal 0 0 1
    outer loop
      vertex 17.2154 3.65925 1.5
      vertex 17.4423 1.5 1.5
      vertex 24.5 1.5 1.5
    endloop
  endfacet
  facet normal 0 0 1
    outer loop
      vertex 16.0784 7.15856 1.5
      vertex 17.2154 3.65925 1.5
      vertex 31.3457 3.71572 1.5
    endloop
  endfacet
  facet normal 0 0 1
    outer loop
      vertex 8.8 15.242 1.5
      vertex 11.7767 13.0793 1.5
      vertex 15.39 17.0923 1.5
    endloop
  endfacet
  facet normal 0 0 1
    outer loop
      vertex -8.8 15.242 1.5
      vertex -5.4387 16.7386 1.5
      vertex 2.40415 22.874 1.5
    endloop
  endfacet
  facet normal 0 0 1
    outer loop
      vertex -1.8397 17.5036 1.5
      vertex 1.8397 17.5036 1.5
      vertex 7.10739 21.8743 1.5
    endloop
  endfacet
  facet normal 0 0 1
    outer loop
      vertex -7.10739 21.8743 1.5
      vertex -22.4974 4.78197 1.5
      vertex -2.40415 22.874 1.5
    endloop
  endfacet
  facet normal 0 0 1
    outer loop
      vertex -11.5 19.9186 1.5
      vertex -22.4974 4.78197 1.5
      vertex -7.10739 21.8743 1.5
    endloop
  endfacet
  facet normal 0 0 1
    outer loop
      vertex -15.39 17.0923 1.5
      vertex -22.4974 4.78197 1.5
      vertex -11.5 19.9186 1.5
    endloop
  endfacet
  facet normal 0 0 1
    outer loop
      vertex -18.6074 13.5191 1.5
      vertex -22.4974 4.78197 1.5
      vertex -15.39 17.0923 1.5
    endloop
  endfacet
  facet normal 0 0 1
    outer loop
      vertex -21.0115 9.35494 1.5
      vertex -22.4974 4.78197 1.5
      vertex -18.6074 13.5191 1.5
    endloop
  endfacet
  facet normal 0 0 1
    outer loop
      vertex 8.8 -15.242 1.5
      vertex 5.4387 -16.7386 1.5
      vertex 11.5 -19.9186 1.5
    endloop
  endfacet
  facet normal 0 0 1
    outer loop
      vertex 14.2387 -10.345 1.5
      vertex 11.7767 -13.0793 1.5
      vertex 18.6074 -13.5191 1.5
    endloop
  endfacet
  facet normal 0 0 1
    outer loop
      vertex 11.7767 13.0793 1.5
      vertex 14.2387 10.345 1.5
      vertex 18.6074 13.5191 1.5
    endloop
  endfacet
  facet normal 0 0 1
    outer loop
      vertex 16.0784 7.15856 1.5
      vertex 31.3457 3.71572 1.5
      vertex 30.5 4.33013 1.5
    endloop
  endfacet
  facet normal 0 0 1
    outer loop
      vertex 1.8397 17.5036 1.5
      vertex 5.4387 16.7386 1.5
      vertex 11.5 19.9186 1.5
    endloop
  endfacet
  facet normal 0 0 1
    outer loop
      vertex -2.40415 22.874 1.5
      vertex -22.4974 4.78197 1.5
      vertex -11.7767 13.0793 1.5
    endloop
  endfacet
  facet normal 0 0 1
    outer loop
      vertex -2.40415 22.874 1.5
      vertex -8.8 15.242 1.5
      vertex 2.40415 22.874 1.5
    endloop
  endfacet
  facet normal 0 0 1
    outer loop
      vertex -2.40415 22.874 1.5
      vertex -11.7767 13.0793 1.5
      vertex -8.8 15.242 1.5
    endloop
  endfacet
  facet normal 0 0 1
    outer loop
      vertex 2.40415 22.874 1.5
      vertex -5.4387 16.7386 1.5
      vertex 7.10739 21.8743 1.5
    endloop
  endfacet
  facet normal 0 0 1
    outer loop
      vertex -5.4387 16.7386 1.5
      vertex -1.8397 17.5036 1.5
      vertex 7.10739 21.8743 1.5
    endloop
  endfacet
  facet normal 0 0 1
    outer loop
      vertex 7.10739 21.8743 1.5
      vertex 1.8397 17.5036 1.5
      vertex 11.5 19.9186 1.5
    endloop
  endfacet
  facet normal 0 0 1
    outer loop
      vertex -14.2387 10.345 1.5
      vertex -11.7767 13.0793 1.5
      vertex -22.4974 4.78197 1.5
    endloop
  endfacet
  facet normal 0 0 1
    outer loop
      vertex 11.5 19.9186 1.5
      vertex 5.4387 16.7386 1.5
      vertex 15.39 17.0923 1.5
    endloop
  endfacet
  facet normal 0 0 1
    outer loop
      vertex 5.4387 16.7386 1.5
      vertex 8.8 15.242 1.5
      vertex 15.39 17.0923 1.5
    endloop
  endfacet
  facet normal 0 0 1
    outer loop
      vertex 15.39 17.0923 1.5
      vertex 11.7767 13.0793 1.5
      vertex 18.6074 13.5191 1.5
    endloop
  endfacet
  facet normal 0 0 1
    outer loop
      vertex 16.0784 7.15856 1.5
      vertex 30.5 4.33013 1.5
      vertex 29.5451 4.75528 1.5
    endloop
  endfacet
  facet normal 0 0 1
    outer loop
      vertex 18.6074 13.5191 1.5
      vertex 14.2387 10.345 1.5
      vertex 20.7879 9.7423 1.5
    endloop
  endfacet
  facet normal 0 0 1
    outer loop
      vertex -16.0784 7.15856 1.5
      vertex -14.2387 10.345 1.5
      vertex -22.4974 4.78197 1.5
    endloop
  endfacet
  facet normal 0 0 1
    outer loop
      vertex 20.7879 9.7423 1.5
      vertex 16.0784 7.15856 1.5
      vertex 28.8373 4.90572 1.5
    endloop
  endfacet
  facet normal 0 0 1
    outer loop
      vertex 24.5 1.5 1.5
      vertex 24.5 -1.5 1.5
      vertex 32.5677 -2.03368 1.5
    endloop
  endfacet
  facet normal 0 0 1
    outer loop
      vertex 31.3457 3.71572 1.5
      vertex 17.2154 3.65925 1.5
      vertex 32.0451 2.93893 1.5
    endloop
  endfacet
  facet normal 0 0 1
    outer loop
      vertex 32.5677 -2.03368 1.5
      vertex 24.5 -1.5 1.5
      vertex 32.0451 -2.93893 1.5
    endloop
  endfacet
  facet normal 0 0 1
    outer loop
      vertex 32.0451 -2.93893 1.5
      vertex 17.4423 -1.5 1.5
      vertex 31.3457 -3.71572 1.5
    endloop
  endfacet
  facet normal 0 0 1
    outer loop
      vertex 28.8373 -4.90572 1.5
      vertex 17.2154 -3.65925 1.5
      vertex 20.7879 -9.7423 1.5
    endloop
  endfacet
  facet normal 0 0 1
    outer loop
      vertex 17.2154 -3.65925 1.5
      vertex 16.0784 -7.15856 1.5
      vertex 20.7879 -9.7423 1.5
    endloop
  endfacet
  facet normal 0 0 1
    outer loop
      vertex 20.7879 -9.7423 1.5
      vertex 14.2387 -10.345 1.5
      vertex 18.6074 -13.5191 1.5
    endloop
  endfacet
  facet normal 0 0 1
    outer loop
      vertex 14.2387 10.345 1.5
      vertex 16.0784 7.15856 1.5
      vertex 20.7879 9.7423 1.5
    endloop
  endfacet
  facet normal 0 0 1
    outer loop
      vertex 18.6074 -13.5191 1.5
      vertex 11.7767 -13.0793 1.5
      vertex 15.39 -17.0923 1.5
    endloop
  endfacet
  facet normal 0 0 1
    outer loop
      vertex 16.0784 7.15856 1.5
      vertex 29.5451 4.75528 1.5
      vertex 28.8373 4.90572 1.5
    endloop
  endfacet
  facet normal 0 0 1
    outer loop
      vertex 15.39 -17.0923 1.5
      vertex 8.8 -15.242 1.5
      vertex 11.5 -19.9186 1.5
    endloop
  endfacet
  facet normal 0 0 1
    outer loop
      vertex 24.5 1.5 1.5
      vertex 32.5677 -2.03368 1.5
      vertex 32.8907 -1.03956 1.5
    endloop
  endfacet
  facet normal 0 0 1
    outer loop
      vertex 11.5 -19.9186 1.5
      vertex 5.4387 -16.7386 1.5
      vertex 7.10739 -21.8743 1.5
    endloop
  endfacet
  facet normal 0 0 1
    outer loop
      vertex 17.2154 3.65925 1.5
      vertex 24.5 1.5 1.5
      vertex 32.8907 1.03956 1.5
    endloop
  endfacet
  facet normal 0 0 1
    outer loop
      vertex 7.10739 -21.8743 1.5
      vertex 1.8397 -17.5036 1.5
      vertex 2.40415 -22.874 1.5
    endloop
  endfacet
  facet normal 0 0 1
    outer loop
      vertex 1.8397 -17.5036 1.5
      vertex -1.8397 -17.5036 1.5
      vertex 2.40415 -22.874 1.5
    endloop
  endfacet
  facet normal 0 0 1
    outer loop
      vertex 2.40415 -22.874 1.5
      vertex -5.4387 -16.7386 1.5
      vertex -2.40415 -22.874 1.5
    endloop
  endfacet
  facet normal 0 0 1
    outer loop
      vertex 11.7767 -13.0793 1.5
      vertex 8.8 -15.242 1.5
      vertex 15.39 -17.0923 1.5
    endloop
  endfacet
  facet normal 0 0 1
    outer loop
      vertex -2.40415 -22.874 1.5
      vertex -8.8 -15.242 1.5
      vertex -7.10739 -21.8743 1.5
    endloop
  endfacet
  facet normal 0 0 1
    outer loop
      vertex -8.8 -15.242 1.5
      vertex -11.7767 -13.0793 1.5
      vertex -7.10739 -21.8743 1.5
    endloop
  endfacet
  facet normal 0 0 1
    outer loop
      vertex -7.10739 -21.8743 1.5
      vertex -14.2387 -10.345 1.5
      vertex -11.5 -19.9186 1.5
    endloop
  endfacet
  facet normal 0 0 1
    outer loop
      vertex -14.2387 -10.345 1.5
      vertex -16.0784 -7.15856 1.5
      vertex -11.5 -19.9186 1.5
    endloop
  endfacet
  facet normal 0 0 1
    outer loop
      vertex -11.7767 -13.0793 1.5
      vertex -14.2387 -10.345 1.5
      vertex -7.10739 -21.8743 1.5
    endloop
  endfacet
  facet normal 0 0 1
    outer loop
      vertex -16.0784 -7.15856 1.5
      vertex -17.2154 -3.65925 1.5
      vertex -22.4974 4.78197 1.5
    endloop
  endfacet
  facet normal 0 0 1
    outer loop
      vertex -17.2154 -3.65925 1.5
      vertex -17.6 0 1.5
      vertex -22.4974 4.78197 1.5
    endloop
  endfacet
  facet normal 0 0 1
    outer loop
      vertex -5.4387 -16.7386 1.5
      vertex -8.8 -15.242 1.5
      vertex -2.40415 -22.874 1.5
    endloop
  endfacet
  facet normal 0 0 1
    outer loop
      vertex -1.8397 -17.5036 1.5
      vertex -5.4387 -16.7386 1.5
      vertex 2.40415 -22.874 1.5
    endloop
  endfacet
  facet normal 0 0 1
    outer loop
      vertex -17.6 0 1.5
      vertex -17.2154 3.65925 1.5
      vertex -22.4974 4.78197 1.5
    endloop
  endfacet
  facet normal 0 0 1
    outer loop
      vertex 17.2154 3.65925 1.5
      vertex 32.5677 2.03368 1.5
      vertex 32.0451 2.93893 1.5
    endloop
  endfacet
  facet normal 0 0 1
    outer loop
      vertex 24.5 1.5 1.5
      vertex 32.8907 -1.03956 1.5
      vertex 33 0 1.5
    endloop
  endfacet
  facet normal 0 0 1
    outer loop
      vertex 24.5 1.5 1.5
      vertex 33 0 1.5
      vertex 32.8907 1.03956 1.5
    endloop
  endfacet
  facet normal 0 0 1
    outer loop
      vertex 17.4423 -1.5 1.5
      vertex 17.2154 -3.65925 1.5
      vertex 28.8373 -4.90572 1.5
    endloop
  endfacet
  facet normal 0 0 1
    outer loop
      vertex 17.4423 -1.5 1.5
      vertex 28.8373 -4.90572 1.5
      vertex 29.5451 -4.75528 1.5
    endloop
  endfacet
  facet normal 0 0 1
    outer loop
      vertex 24.5 -1.5 1.5
      vertex 17.4423 -1.5 1.5
      vertex 32.0451 -2.93893 1.5
    endloop
  endfacet
  facet normal 0 0 1
    outer loop
      vertex 17.4423 -1.5 1.5
      vertex 30.5 -4.33013 1.5
      vertex 31.3457 -3.71572 1.5
    endloop
  endfacet
  facet normal 0 0 1
    outer loop
      vertex 17.4423 -1.5 1.5
      vertex 29.5451 -4.75528 1.5
      vertex 30.5 -4.33013 1.5
    endloop
  endfacet
  facet normal 0 0 1
    outer loop
      vertex 5.4387 -16.7386 1.5
      vertex 1.8397 -17.5036 1.5
      vertex 7.10739 -21.8743 1.5
    endloop
  endfacet
  facet normal 0 0 1
    outer loop
      vertex 16.0784 -7.15856 1.5
      vertex 14.2387 -10.345 1.5
      vertex 20.7879 -9.7423 1.5
    endloop
  endfacet
  facet normal 0 0 1
    outer loop
      vertex -17.2154 3.65925 1.5
      vertex -16.0784 7.15856 1.5
      vertex -22.4974 4.78197 1.5
    endloop
  endfacet
endsolid OpenSCAD_Model
